<?xml version="1.0" encoding="utf-8"?>
<!-- Generator: Adobe Illustrator 22.0.1, SVG Export Plug-In . SVG Version: 6.00 Build 0)  -->
<svg version="1.1" id="Layer_1" xmlns="http://www.w3.org/2000/svg" xmlns:xlink="http://www.w3.org/1999/xlink" x="0px" y="0px"
	 width="22px" height="22px" viewBox="0 0 22 22" enable-background="new 0 0 22 22" xml:space="preserve">
<g enable-background="new    ">
	<path d="M9.8,15.8v-3.6H6.2V9.8h3.7V6.2h2.4v3.6h3.6v2.5h-3.7v3.6H9.8z"/>
</g>
<path d="M10.9,21.7C5,21.7,0.2,16.9,0.2,11C0.2,5.1,5,0.3,10.9,0.3S21.6,5.1,21.6,11C21.6,16.9,16.8,21.7,10.9,21.7z M10.9,1.3
	c-5.3,0-9.7,4.3-9.7,9.7s4.3,9.7,9.7,9.7c5.3,0,9.7-4.3,9.7-9.7S16.2,1.3,10.9,1.3z"/>
</svg>
