<?xml version="1.0" encoding="utf-8"?>
<!-- Generator: Adobe Illustrator 22.0.1, SVG Export Plug-In . SVG Version: 6.00 Build 0)  -->
<svg version="1.1" id="Layer_1" xmlns="http://www.w3.org/2000/svg" xmlns:xlink="http://www.w3.org/1999/xlink" x="0px" y="0px"
	 width="20px" height="20px" viewBox="0 0 20 20" enable-background="new 0 0 20 20" xml:space="preserve">
<path id="ic_prazo" fill="#339999" d="M7.7,16.2c0.2,0.2,0.6,0.2,0.8,0l5.3-5.2c0.2-0.2,0.2-0.5,0-0.8c0,0,0,0,0,0
	c-0.2-0.2-0.6-0.2-0.8,0L8.1,15l-1.8-1.8c-0.2-0.2-0.6-0.2-0.8,0c-0.2,0.2-0.2,0.5,0,0.8c0,0,0,0,0,0L7.7,16.2z M4,2.4
	c0.3,0,0.6-0.2,0.6-0.6V0.5C4.6,0.2,4.3,0,4,0C3.7,0,3.4,0.2,3.4,0.5v1.3C3.4,2.2,3.7,2.4,4,2.4z M16,2.4c0.3,0,0.6-0.2,0.6-0.6V0.5
	C16.6,0.2,16.3,0,16,0c-0.3,0-0.6,0.3-0.6,0.6v1.3C15.4,2.2,15.7,2.4,16,2.4z M18.9,6.8H1.1V4.4c0-0.1,0.1-0.1,0.1-0.1h17.5
	c0.1,0,0.1,0,0.1,0.1L18.9,6.8L18.9,6.8z M18.9,18.8c0,0.1-0.1,0.1-0.1,0.1H1.2c-0.1,0-0.1,0-0.1-0.1V7.9h17.7L18.9,18.8L18.9,18.8z
	 M18.8,3.2H1.2C0.6,3.2,0,3.7,0,4.4v14.4C0,19.5,0.6,20,1.2,20h17.5c0.7,0,1.2-0.5,1.2-1.2V4.4C20,3.7,19.4,3.2,18.8,3.2L18.8,3.2z"
	/>
</svg>
