<?xml version="1.0" encoding="utf-8"?>
<!-- Generator: Adobe Illustrator 22.0.1, SVG Export Plug-In . SVG Version: 6.00 Build 0)  -->
<svg version="1.1" id="Layer_1" xmlns="http://www.w3.org/2000/svg" xmlns:xlink="http://www.w3.org/1999/xlink" x="0px" y="0px"
	 width="150px" height="150px" viewBox="0 0 150 150" enable-background="new 0 0 150 150" xml:space="preserve">
<g>
	<path fill="#2B9798" d="M35.1,93.3L35.1,93.3L40.4,76c0.3-1,1.1-2.3,2.2-2.6c0.6-0.2,1.3-0.2,2,0.1c1.6,0.8,1.8,2.5,1.3,4.1
		l-4.4,13.7c-0.3,1.1-0.8,2.2-1,3c-0.5,1.5-1.4,2.6-2.8,3.3c-1.5,0.5-3,0.6-4.5,0.1c-0.6-0.2-1.1-0.6-1.5-1
		c-1.1-1.5-1.9-3.1-2.3-4.9l-4.9-14.5c-0.8-2.4,1-4.6,3.5-4c0.7,0.3,1.3,0.7,1.7,1.4c0.2,0.3,0.4,0.8,0.6,1.3L35.1,93.3z"/>
	<path fill="#2B9798" d="M56.7,94.6c0,0.5-0.1,0.9-0.3,1.3c-0.6,1.6-2.6,2.5-4.2,1.7c-0.8-0.3-1.3-1-1.7-1.7
		c-0.1-0.4-0.3-0.8-0.3-1.3v-18c0-0.5,0.1-0.9,0.3-1.3c0.6-1.6,2.6-2.5,4.2-1.7c0.8,0.3,1.3,1,1.7,1.7c0.1,0.4,0.3,0.8,0.3,1.3V94.6
		z"/>
	<path fill="#2B9798" d="M83,92.7c0.1,0.2,0.1,0.4,0.3,0.6c0.1,0.2,0.2,0.4,0.3,0.7c0.1,0.2,0.1,0.4,0.2,0.6c0.4,1.2-0.4,2.7-1.7,3
		c-0.8,0.3-1.5,0.3-2.2,0c-0.3-0.1-0.6-0.3-0.8-0.6c-0.6-0.8-1.1-1.7-1.4-2.6l-0.8-2.2h-9.7l-0.7,2.2c-0.3,0.9-1,2.9-2.2,3.2
		c-2.6,1-4.5-1.3-3.8-3.6c0.1-0.2,0.1-0.4,0.3-0.7c0.1-0.2,0.2-0.4,0.3-0.6l4.6-12.3c0.6-1.9,1.5-3.7,2.6-5.3c0.5-0.6,1-1,1.6-1.4
		c1.8-0.8,4.6-0.6,5.9,1c1.2,1.7,2.1,3.6,2.7,5.6L83,92.7z M71.9,77.9l-3.8,10.9h7.5L71.9,77.9L71.9,77.9z"/>
	<path fill="#2B9798" d="M96.7,76.5c0-0.5,0.1-0.9,0.3-1.3c0.6-1.6,2.6-2.5,4.2-1.7c0.8,0.3,1.3,1,1.7,1.7c0.1,0.4,0.3,0.8,0.3,1.3
		v13.3c0,1.4-0.2,2.6-0.6,3.8c-0.4,1-1,2-1.7,2.7c-2.6,2.4-7,2.5-10.2,1.6c-1.1-0.3-5.7-3.1-4.3-5.2c0.8-1.5,2.1-1.6,3.3-0.8
		c0.2,0.2,0.4,0.3,0.6,0.6c0.2,0.2,0.3,0.4,0.6,0.6c0.4,0.3,0.8,0.6,1.3,0.8c2.8,1.4,4.7-1.7,4.7-4L96.7,76.5
		C96.8,76.5,96.7,76.5,96.7,76.5z"/>
	<path fill="#2B9798" d="M111,97.9c-1,0-1.9-0.4-2.4-1.3c-0.2-0.3-0.4-0.8-0.5-1.3c-0.1-0.5-0.1-1-0.1-1.4V77.8
		c0-0.6,0.1-1.3,0.1-1.8c0.1-0.6,0.3-1,0.6-1.4c0.8-1,2-1.4,3.3-1.3h10.9c0.7,0,2,0.6,2.2,1.4c0.8,1.5-0.7,3-2.2,3H114v5.5h8
		c0.3,0,0.6,0.1,0.9,0.1c0.6,0.2,1,0.6,1.3,1.2c0.8,1.5-0.7,3-2.2,3h-8v5.9h9.2c0.3,0,0.6,0.1,0.8,0.1c1.2,0.6,1.5,1.7,1.2,2.9
		c-0.4,0.8-1.1,1.3-2,1.3L111,97.9L111,97.9z"/>
	<g>
		<g>
			<path fill="#2B9798" d="M54.4,110.6c0.2,0,0.4,0.1,0.6,0.1c0.3,0.2,0.6,0.5,0.8,0.8c0.2,0.4,0.2,0.8,0,1.3
				c-0.2,0.3-0.5,0.6-0.8,0.8c-0.2,0.1-0.4,0.1-0.6,0.1h-5.6v5.2c0,0.3-0.1,0.6-0.2,1c-0.2,0.6-0.6,1-1.2,1.3
				c-1.5,0.8-3.2-0.7-3.2-2.2v-13.3c-0.1-0.8,0.2-1.3,0.8-1.7c0.6-0.4,1.3-0.6,2-0.6h7.7c0.2,0,0.4,0.1,0.6,0.1
				c0.3,0.2,0.6,0.5,0.8,0.8c0.2,0.4,0.2,0.8,0,1.3c-0.2,0.3-0.5,0.6-0.8,0.8c-0.2,0.1-0.4,0.1-0.6,0.1h-6v4L54.4,110.6L54.4,110.6z
				"/>
		</g>
		<g>
			<path fill="#2B9798" d="M74.5,117.6c0.1,0.1,0.1,0.3,0.2,0.5c0.1,0.1,0.1,0.3,0.2,0.5c0.1,0.1,0.1,0.3,0.1,0.5
				c0.1,0.4,0.1,0.8-0.1,1.3c-0.1,0.2-0.3,0.4-0.4,0.6c-0.7,0.4-1.5,0.6-2.3,0.3c-0.6-0.2-0.9-0.6-1.1-1.2c-0.1-0.3-0.3-0.7-0.5-1.2
				l-0.6-1.6h-7.1l-0.5,1.6c-0.1,0.7-0.5,1.4-0.9,2c-0.6,0.6-1.5,0.7-2.2,0.4c-0.6-0.1-0.9-0.5-1.1-1c-0.1-0.4-0.2-0.8-0.1-1.3
				c0.1-0.1,0.1-0.3,0.1-0.5c0.1-0.1,0.1-0.3,0.2-0.5c0.1-0.1,0.1-0.3,0.2-0.5l3.3-9c0.4-1.4,1-2.7,1.9-3.9c0.3-0.4,0.8-0.8,1.2-1
				c1-0.4,2.1-0.5,3.1-0.1c1,0.6,1.7,1.4,2.1,2.5c0.3,0.7,0.6,1.5,1,2.4L74.5,117.6z M67.3,101.7c-0.7,0.4-2,0.1-1.5-0.9
				c0.1-0.1,0.1-0.2,0.2-0.3l2.4-3.6c0.6-0.7,1-1.1,1.9-0.8c0.2,0.1,0.3,0.2,0.6,0.3c0.1,0.1,0.3,0.3,0.4,0.5
				c0.3,0.6,0.1,1.2-0.4,1.7L67.3,101.7z M66.4,106.8l-2.7,7.9h5.5L66.4,106.8L66.4,106.8z"/>
		</g>
		<g>
			<path fill="#2B9798" d="M77,112.6c0-1.5,0.2-2.9,0.7-4c0.4-1.2,1-2.2,1.9-3c0.8-0.8,1.7-1.5,2.9-1.9c2-0.8,6.1-1,8.2,0.1
				c0.5,0.2,0.9,0.5,1.1,0.8c0.3,0.5,0.4,1,0.2,1.6c-0.1,0.2-0.2,0.3-0.4,0.4c-0.1,0.1-0.3,0.2-0.6,0.3s-1,0.1-1.3,0
				c-0.8-0.1-1.7-0.6-2.6-0.6c-0.8-0.1-1.7-0.1-2.6,0.2c-1.3,0.5-2.1,1.5-2.4,2.9c-0.6,2.6-0.8,7.4,2.2,8.9c1.1,0.6,2.8,0.6,4,0.1
				c0.7-0.2,1.4-0.5,2.1-0.8c0.3-0.1,0.6-0.1,1,0.1c0.1,0.1,0.3,0.2,0.4,0.3c0.1,0.1,0.2,0.3,0.3,0.5c0.1,0.5,0.1,1-0.3,1.5
				c-0.7,1-2.4,1.4-3.4,1.7c-0.5,0.1-1,0.2-1.5,0.2c-1.6,0.2-3.2,0-4.7-0.6c-1-0.4-2-1-2.7-1.8c-0.8-0.8-1.4-1.7-1.8-2.9
				C77.2,115.3,77,114,77,112.6z"/>
		</g>
		<g>
			<path fill="#2B9798" d="M100.6,119c0,0.3-0.1,0.6-0.2,1c-0.2,0.6-0.6,1-1.2,1.3c-1.5,0.8-3.2-0.7-3.2-2.2v-13.2
				c0-0.3,0.1-0.6,0.2-1c0.2-0.6,0.6-1,1.2-1.3c1.5-0.8,3.2,0.7,3.2,2.2V119z"/>
		</g>
		<g>
			<path fill="#2B9798" d="M115.2,118.1c0.2,0,0.4,0.1,0.6,0.1c0.2,0.1,0.3,0.2,0.6,0.3c0.5,0.5,0.6,1.2,0.3,1.8
				c-0.1,0.2-0.2,0.3-0.3,0.6c-0.3,0.3-0.8,0.5-1.2,0.5h-8.5c-0.4,0-0.8-0.1-1.1-0.3c-0.3-0.2-0.6-0.4-0.7-0.8
				c-0.3-0.8-0.5-1.5-0.5-2.4v-12.2c0-0.3,0.1-0.6,0.2-1c0.2-0.6,0.6-1,1.2-1.3c1.5-0.8,3.2,0.7,3.2,2.2v12.3L115.2,118.1
				L115.2,118.1z"/>
		</g>
	</g>
	<g>
		<path fill="#2B9798" d="M132.6,43.6c0.2-0.2,0.3-0.4,0.3-0.8c0-0.3-0.1-0.6-0.3-0.8c-1.2-1-2.7-1.6-4.3-1.6h-5.4L110,24.1h-3.9
			l6.2,16.4h-5.9c-0.6,0-1,0.1-1.5,0.4L101,35h-3.1l3.1,7.8l-3.1,7.8h3.1l3.9-5.9c0.5,0.3,1,0.4,1.5,0.4h5.9l-6.3,16.3h3.9
			l12.9-16.3h5.4C129.8,45.1,131.4,44.5,132.6,43.6"/>
	</g>
	<path fill="#2B9798" d="M124.5,6.3c10.6,0,19.2,8.6,19.2,19.2v99c0,10.6-8.6,19.2-19.2,19.2h-99c-10.6,0-19.2-8.6-19.2-19.2v-99
		c0-10.6,8.6-19.2,19.2-19.2H124.5 M124.5,3.5h-99c-12.2,0-22,9.8-22,22v99c0,12.1,9.8,22,22,22h99c12.1,0,22-9.8,22-22v-99
		C146.5,13.3,136.6,3.5,124.5,3.5L124.5,3.5z"/>
	<g>
		<circle fill="#2B9798" cx="36" cy="71.1" r="2.1"/>
		<circle fill="#2B9798" cx="36.5" cy="64.2" r="2.1"/>
		<circle fill="#2B9798" cx="38.7" cy="57.5" r="2.1"/>
		<circle fill="#2B9798" cx="42.5" cy="51.7" r="2.1"/>
		<circle fill="#2B9798" cx="47.8" cy="47.3" r="2.1"/>
		<circle fill="#2B9798" cx="54.2" cy="44.6" r="2.1"/>
		<circle fill="#2B9798" cx="61.1" cy="43.6" r="2.1"/>
		<circle fill="#2B9798" cx="68" cy="43.6" r="2.1"/>
		<circle fill="#2B9798" cx="75" cy="43.6" r="2.1"/>
		<circle fill="#2B9798" cx="82" cy="43.6" r="2.1"/>
		<circle fill="#2B9798" cx="88.8" cy="43.6" r="2.1"/>
		<circle fill="#2B9798" cx="95.8" cy="43.6" r="2.1"/>
	</g>
</g>
</svg>
