<?xml version="1.0" encoding="utf-8"?>
<!-- Generator: Adobe Illustrator 22.0.1, SVG Export Plug-In . SVG Version: 6.00 Build 0)  -->
<svg version="1.1" id="Layer_1" xmlns="http://www.w3.org/2000/svg" xmlns:xlink="http://www.w3.org/1999/xlink" x="0px" y="0px"
	 width="20px" height="21px" viewBox="0 0 20 21" enable-background="new 0 0 20 21" xml:space="preserve">
<path id="data" fill="#FCE200" d="M17.4,19.6H2.6c-0.7,0-1.2-0.6-1.2-1.3V9.4h17.2v8.9C18.6,19,18.1,19.5,17.4,19.6z M2.6,4.2h2.7v1
	c0,0.4,0.3,0.7,0.7,0.7s0.7-0.3,0.7-0.7v-1h6.5v1c0,0.4,0.3,0.7,0.7,0.7s0.7-0.3,0.7-0.7v-1h2.7c0.7,0,1.2,0.6,1.2,1.3v2.4H1.4V5.5
	C1.4,4.8,1.9,4.2,2.6,4.2L2.6,4.2z M17.4,2.8h-2.7V0.7C14.7,0.3,14.4,0,14,0s-0.7,0.3-0.7,0.7v2.1H6.7V0.7C6.7,0.3,6.4,0,6,0
	S5.3,0.3,5.3,0.7v2.1H2.6C1.2,2.8,0,4,0,5.5v12.8C0,19.8,1.2,21,2.6,21h14.7c1.5,0,2.6-1.2,2.6-2.7V5.5C20,4,18.8,2.8,17.4,2.8
	L17.4,2.8z"/>
</svg>
