<?xml version="1.0" encoding="utf-8"?>
<!-- Generator: Adobe Illustrator 22.0.1, SVG Export Plug-In . SVG Version: 6.00 Build 0)  -->
<svg version="1.1" id="Layer_1" xmlns="http://www.w3.org/2000/svg" xmlns:xlink="http://www.w3.org/1999/xlink" x="0px" y="0px"
	 width="35px" height="40px" viewBox="0 0 35 40" enable-background="new 0 0 35 40" xml:space="preserve">
<path id="Forma_3" fill="#F47920" d="M0.6,27.3L0.6,27.3c-1.3-4.4-0.6-9.1,1.8-13v0c2.3-4,6.1-6.9,10.6-8l0,0
	c3.5-0.9,7.2-0.8,10.6,0.5l-1.3-4.8c-0.1-0.4-0.1-0.8,0.2-1.2c0.2-0.4,0.5-0.6,0.9-0.7c0.4-0.1,0.8-0.1,1.2,0.1
	c0.4,0.2,0.6,0.5,0.7,0.9l2.4,8.8c0.1,0.4,0.1,0.8-0.2,1.2c-0.2,0.4-0.5,0.6-0.9,0.7l-9,2.4c-0.4,0.1-0.8,0.1-1.2-0.1
	c-0.4-0.2-0.6-0.5-0.7-0.9c-0.1-0.4-0.1-0.8,0.2-1.2c0.2-0.4,0.5-0.6,0.9-0.7l5.8-1.5c-2.8-1.1-5.9-1.2-8.8-0.4l0,0
	c-3.7,0.9-6.8,3.3-8.7,6.6v0c-2,3.2-2.5,7.1-1.5,10.7l0,0c0.9,3.3,3,6.2,6,8.1l0,0c0.2,0.1,0.4,0.2,0.6,0.3c0,0,0.1,0,0.1,0.1
	c3.3,2,7.2,2.5,10.9,1.5c3.7-0.9,6.8-3.3,8.8-6.6v0c0.2-0.4,0.4-0.8,0.6-1.2v0c0.9-1.8,1.3-3.9,1.3-5.9c0-0.4,0.1-0.8,0.4-1.1
	c0.3-0.3,0.7-0.5,1.1-0.5c0.4,0,0.8,0.1,1.1,0.4c0.3,0.3,0.5,0.7,0.5,1.1c0,2.5-0.5,5-1.6,7.2v0c-0.2,0.5-0.5,1-0.7,1.4v0
	c-2.3,4-6.2,6.9-10.6,8h0c-4.5,1.2-9.3,0.6-13.2-1.7c-0.3-0.1-0.6-0.3-0.9-0.5l0,0C4.3,34.9,1.7,31.4,0.6,27.3z"/>
</svg>
