<?xml version="1.0" encoding="utf-8"?>
<!-- Generator: Adobe Illustrator 22.0.1, SVG Export Plug-In . SVG Version: 6.00 Build 0)  -->
<svg version="1.1" id="Layer_1" xmlns="http://www.w3.org/2000/svg" xmlns:xlink="http://www.w3.org/1999/xlink" x="0px" y="0px"
	 width="25px" height="25px" viewBox="0 0 25 25" enable-background="new 0 0 25 25" xml:space="preserve">
<path id="Cupom" fill="#F47920" d="M14.1,10.3L13.9,12c0,0.1,0,0.1,0.1,0.2l1.4,0.8c0.1,0.1,0.1,0.2,0,0.3c0,0,0,0,0,0
	c0,0-0.1,0-0.1,0.1l-1.6,0.3c0,0-0.1,0-0.1,0c0,0,0,0-0.1,0.1l-0.3,1.6c0,0,0,0.1-0.1,0.1c-0.1,0.1-0.2,0.1-0.3,0c0,0,0,0,0,0
	L12.1,14c0-0.1-0.1-0.1-0.2-0.1l-1.6,0.2c-0.1,0-0.2-0.1-0.2-0.2c0,0,0-0.1,0-0.1l1.1-1.2c0-0.1,0.1-0.1,0-0.2l-0.7-1.5
	c0-0.1,0-0.2,0.1-0.2c0.1-0.1,0.1-0.1,0.2-0.1l1.5,0.7c0.1,0,0.1,0,0.2,0l1.2-1.1c0.1-0.1,0.2-0.1,0.3,0
	C14.1,10.2,14.1,10.3,14.1,10.3z M11,20L11,20l9-9c0.4-0.4,0.5-1.2,0-1.6l-4.5-4.5c-0.4-0.4-1.2-0.4-1.6,0l0,0l-9,9
	c-0.4,0.4-0.5,1.2,0,1.6L9.4,20C9.9,20.5,10.6,20.5,11,20 M11,20l-0.6-0.6c-0.1,0.1-0.3,0.1-0.4,0L5.6,15c-0.1-0.1-0.1-0.3,0-0.4
	c0,0,0,0,0,0l9-9c0.1-0.1,0.3-0.1,0.4,0l4.5,4.5c0.1,0.1,0.1,0.1,0.1,0.2c0,0.1,0,0.1-0.1,0.2l-9,9L11,20L11,20L11,20z M9.9,24.6
	L9.9,24.6c-0.5,0.5-1.3,0.5-1.8,0l-2.7-2.7l0.3-0.3c0.6-0.6,0.6-1.6,0-2.2c-0.6-0.6-1.6-0.6-2.2,0c0,0,0,0,0,0l-0.3,0.3l-2.8-2.7
	C0.1,16.7,0,16.3,0,16c0-0.3,0.1-0.7,0.4-0.9L15.1,0.4c0.5-0.5,1.3-0.5,1.8,0l2.7,2.7l-0.3,0.3C18.7,4,18.7,5,19.3,5.6
	c0.6,0.6,1.6,0.7,2.2,0.1c0,0,0,0,0.1-0.1l0.3-0.3l2.8,2.7C24.9,8.3,25,8.7,25,9c0,0.3-0.1,0.7-0.4,0.9L9.9,24.6z M6.5,21.9L8.7,24
	c0.2,0.2,0.4,0.2,0.6,0c0,0,0,0,0,0L24,9.3c0.1-0.1,0.1-0.2,0.1-0.3c0-0.1,0-0.2-0.1-0.3l-2.2-2.2c-1.1,0.8-2.6,0.5-3.4-0.6
	c-0.6-0.8-0.6-2,0-2.8L16.3,1c-0.2-0.2-0.4-0.2-0.6,0c0,0,0,0,0,0L1,15.7c-0.1,0.1-0.1,0.2-0.1,0.3c0,0.1,0,0.2,0.1,0.3l2.2,2.2
	c1.1-0.8,2.6-0.5,3.4,0.6C7.1,19.9,7.1,21,6.5,21.9L6.5,21.9z"/>
</svg>
