<?xml version="1.0" encoding="UTF-8"?>
<svg width="24px" height="24px" viewBox="0 0 24 24" version="1.1" xmlns="http://www.w3.org/2000/svg" xmlns:xlink="http://www.w3.org/1999/xlink">
    <!-- Generator: Sketch 50.2 (55047) - http://www.bohemiancoding.com/sketch -->
    <title>Combined Shape Copy 5</title>
    <desc>Created with Sketch.</desc>
    <defs></defs>
    <g id="Desk" stroke="none" stroke-width="1" fill="none" fill-rule="evenodd">
        <path d="M11.8847975,0.000592757331 C14.9909371,-0.0440004821 17.5467309,2.43308205 17.5913925,5.53446993 C17.6360541,8.63585781 15.1551764,11.1863034 12.0490368,11.2323351 C8.94289725,11.2783669 6.38854408,8.79984585 6.34244182,5.69845797 L6.34244182,5.61646395 C6.32083139,2.53953042 8.80170909,0.0250471145 11.8847975,0.000592757331 Z M23.2029016,22.7143751 C22.7289128,23.314226 22.0056836,23.6637795 21.2406743,23.6637795 L2.52748006,23.6637795 C1.76247074,23.6637795 1.03924158,23.314226 0.565252752,22.7143751 C0.0826197497,22.1130856 -0.104670669,21.3262307 0.0566872302,20.5738996 C0.863476726,16.812244 3.3861346,13.643247 6.87549917,12.0091206 C9.79290761,14.3927012 13.988213,14.3927012 16.9041807,12.0091206 C19.6487057,13.2850626 21.8212746,15.539179 22.9954414,18.3255372 C23.3080724,19.050537 23.5472278,19.805745 23.7100264,20.578215 C23.8713843,21.3305461 23.6840939,22.1145241 23.2029016,22.7143751 Z" id="Combined-Shape-Copy-5" fill="#E74646"></path>
    </g>
</svg>