<?xml version="1.0" encoding="utf-8"?>
<!-- Generator: Adobe Illustrator 22.0.1, SVG Export Plug-In . SVG Version: 6.00 Build 0)  -->
<svg version="1.1" id="Layer_1" xmlns="http://www.w3.org/2000/svg" xmlns:xlink="http://www.w3.org/1999/xlink" x="0px" y="0px"
	 width="24px" height="24px" viewBox="0 0 24 24" enable-background="new 0 0 24 24" xml:space="preserve">
<title>Combined Shape Copy 5</title>
<desc>Created with Sketch.</desc>
<g id="Desk">
	<path id="Combined-Shape-Copy-5" fill="#663399" d="M11.9,0c3.1,0,5.7,2.4,5.7,5.5s-2.4,5.7-5.5,5.7S6.4,8.8,6.3,5.7V5.6
		C6.3,2.5,8.8,0,11.9,0z M23.2,22.7c-0.5,0.6-1.2,0.9-2,0.9H2.5c-0.8,0-1.5-0.3-2-0.9c-0.5-0.6-0.7-1.4-0.5-2.1
		c0.8-3.8,3.3-6.9,6.8-8.6c2.9,2.4,7.1,2.4,10,0c2.7,1.3,4.9,3.5,6.1,6.3c0.3,0.7,0.6,1.5,0.7,2.3C23.9,21.3,23.7,22.1,23.2,22.7z"
		/>
</g>
</svg>
