<?xml version="1.0" encoding="UTF-8"?>
<svg width="16px" height="16px" viewBox="0 0 16 16" version="1.1" xmlns="http://www.w3.org/2000/svg" xmlns:xlink="http://www.w3.org/1999/xlink">
    <!-- Generator: Sketch 50.2 (55047) - http://www.bohemiancoding.com/sketch -->
    <title>ix-cancelar</title>
    <desc>Created with Sketch.</desc>
    <defs></defs>
    <g id="Desk" stroke="none" stroke-width="1" fill="none" fill-rule="evenodd">
        <path d="M13.2076923,0.392307692 L7.84615385,5.75384615 L2.48461538,0.392307692 C1.96153846,-0.130769231 1.04615385,-0.130769231 0.392307692,0.392307692 C-0.130769231,0.915384615 -0.130769231,1.96153846 0.392307692,2.48461538 L5.75384615,7.84615385 L0.392307692,13.0769231 C-0.130769231,13.6 -0.130769231,14.6461538 0.392307692,15.1692308 C0.915384615,15.6923077 1.83076923,15.6923077 2.48461538,15.1692308 C2.48461538,15.1692308 4.27179487,13.425641 7.84615385,9.93846154 L13.2076923,15.3 C13.7307692,15.8230769 14.7769231,15.8230769 15.3,15.3 C15.8230769,14.7769231 15.8230769,13.8615385 15.3,13.2076923 L9.93846154,7.84615385 L15.3,2.48461538 C15.9538462,1.96153846 15.9538462,1.04615385 15.3,0.392307692 C14.7769231,-0.130769231 13.7307692,-0.130769231 13.2076923,0.392307692 Z" id="ix-cancelar" fill="#FFFFFF" fill-rule="nonzero"></path>
    </g>
</svg>