<?xml version="1.0" encoding="UTF-8"?>
<svg width="13px" height="8px" viewBox="0 0 13 8" version="1.1" xmlns="http://www.w3.org/2000/svg" xmlns:xlink="http://www.w3.org/1999/xlink">
    <!-- Generator: Sketch 50.2 (55047) - http://www.bohemiancoding.com/sketch -->
    <title>seta-esq-paginacao</title>
    <desc>Created with Sketch.</desc>
    <defs></defs>
    <g id="Desk" stroke="none" stroke-width="1" fill="none" fill-rule="evenodd">
        <path d="M1.7,0.313843876 L6.5,5.51384388 L11.3,0.313843876 C11.6,-0.0861561237 12.2,-0.0861561237 12.6,0.213843876 C12.6,0.213843876 12.6,0.213843876 12.7,0.313843876 C13.1,0.713843876 13.1,1.41384388 12.7,1.81384388 L7.2,7.71384388 C6.8,8.11384388 6.3,8.11384388 5.9,7.81384388 C5.9,7.81384388 5.9,7.81384388 5.8,7.71384388 L0.3,1.81384388 C-0.1,1.41384388 -0.1,0.713843876 0.3,0.313843876 C0.6,-0.0861561237 1.2,-0.0861561237 1.7,0.313843876 C1.6,0.313843876 1.7,0.313843876 1.7,0.313843876 Z" id="seta-esq-paginacao" fill="#E74646" fill-rule="nonzero"></path>
    </g>
</svg>