<?xml version="1.0" encoding="UTF-8"?>
<svg width="156px" height="48px" viewBox="0 0 52 16" version="1.1" xmlns="http://www.w3.org/2000/svg" xmlns:xlink="http://www.w3.org/1999/xlink">
    <!-- Generator: sketchtool 48.2 (47327) - http://www.bohemiancoding.com/sketch -->
    <title>2D0AF80B-2E40-4259-9A47-9FED65C92B81</title>
    <desc>Created with sketchtool.</desc>
    <defs>
        <linearGradient x1="50%" y1="50%" x2="50%" y2="99.2944834%" id="linearGradient-1">
            <stop stop-color="#F8CF0A" offset="0%"></stop>
            <stop stop-color="#CDAA12" offset="100%"></stop>
        </linearGradient>
    </defs>
    <g id="1.0-Apenas-Passaredo" stroke="none" stroke-width="1" fill="none" fill-rule="evenodd" transform="translate(-24.000000, -351.000000)">
        <g id="Passaredo" transform="translate(24.000000, 351.000000)">
            <path d="M36.645009,2.46023529 C34.4892733,4.23686275 32.9058498,6.27071373 30.1062823,7.35636078 C31.0692973,7.58216471 32.3133934,7.57571765 33.7504985,6.89375686 C37.5347868,4.80062745 40.5751471,1.16847059 45.2004925,0.123137255 C42.0163123,-0.372862745 38.8108949,0.675294118 36.645009,2.46023529" id="Fill-1" fill="#FAD01A"></path>
            <path d="M23.7585345,3.16062745 C24.1696937,3.31043137 24.578042,3.54023529 24.9784264,3.89490196 C28.2253814,6.77129412 30.1401682,9.64876863 34.9332252,6.79753725 C36.5822342,5.81658039 40.2297297,3.05819608 42.3303423,1.85803922 C43.0989429,1.41882353 43.8634835,1.06211765 44.6046006,0.793098039 C44.5974174,0.8 44.593982,0.805333333 44.5958559,0.808313725 C44.5991351,0.814431373 44.6102222,0.805803922 44.6277117,0.784784314 C47.0760841,-0.0989803922 49.5536577,0.0955294118 51.8497778,1.3225098 C43.5186907,1.53396078 38.9111471,9.09921569 30.8984625,8.54105098 C26.6029189,8.30969412 23.8031952,3.37333333 19.9442643,3.24141176 C21.7605165,2.73568627 23.0311592,2.92643137 23.7585345,3.16062745 Z" id="Clip-3"></path>
            <path d="M23.7585345,3.16062745 C24.1696937,3.31043137 24.578042,3.54023529 24.9784264,3.89490196 C28.2253814,6.77129412 30.1401682,9.64876863 34.9332252,6.79753725 C36.5822342,5.81658039 40.2297297,3.05819608 42.3303423,1.85803922 C43.0989429,1.41882353 43.8634835,1.06211765 44.6046006,0.793098039 C44.5974174,0.8 44.593982,0.805333333 44.5958559,0.808313725 C44.5991351,0.814431373 44.6102222,0.805803922 44.6277117,0.784784314 C47.0760841,-0.0989803922 49.5536577,0.0955294118 51.8497778,1.3225098 C43.5186907,1.53396078 38.9111471,9.09921569 30.8984625,8.54105098 C26.6029189,8.30969412 23.8031952,3.37333333 19.9442643,3.24141176 C21.7605165,2.73568627 23.0311592,2.92643137 23.7585345,3.16062745 Z" id="Fill-2" fill="url(#linearGradient-1)"></path>
            <path d="M19.3514955,3.59294118 C20.2971772,3.53505882 21.3910511,3.79952941 22.5945465,4.55905882 C23.7327688,5.27741176 25.7877838,6.81838431 26.6750631,7.41527843 C28.0365886,8.33116863 29.3244084,8.56283922 29.3244084,8.56283922 C25.041982,9.38076863 22.1187387,4.28831373 17.6948348,4.21631373 C18.2081201,3.95262745 18.7468589,3.62980392 19.3514955,3.59294118" id="Fill-5" fill="#FAD01A"></path>
            <path d="M31.7415495,5.52823529 C31.1676757,6.04856471 30.4962042,6.48649412 29.7464985,7.00349804 C33.507988,5.83138824 34.8540541,1.82556863 39.2556276,0.466666667 C35.8882763,0.33945098 33.6162042,3.82933333 31.7415495,5.52823529" id="Fill-6" fill="#FAD01A"></path>
            <path d="M27.1488408,13.2965333 L27.1488408,14.0598745 L25.3336817,14.0598745 L25.3325886,14.5884706 C25.3349309,14.6942902 25.3051051,15.0839373 25.6758198,15.0702431 L27.2551832,15.0630431 L27.2551832,15.8974745 C26.9434955,15.9024941 25.9765766,15.9167686 25.4105105,15.9038745 C24.7488769,15.8886745 24.400024,15.3696314 24.3983063,14.8350745 L24.4070511,11.6494275 L27.2551832,11.6543529 L27.2551832,12.4227137 L25.3402402,12.4227137 L25.3402402,13.2965333 L27.1488408,13.2965333 Z M8.69802282,14.9311686 C8.699397,14.9316549 8.70077117,14.9320941 8.70191111,14.9328941 C8.8942955,15.0181333 9.10118679,15.0839373 9.32769129,15.1272471 C9.56884324,15.1670431 9.75961922,15.1592627 9.90387628,15.1017725 C10.0446823,15.0435294 10.1296781,14.9465882 10.1595976,14.8077647 C10.1897357,14.6820706 10.1509153,14.5632157 10.0496949,14.4522667 C9.94527327,14.3409725 9.7643976,14.2188392 9.50787988,14.083749 C9.26704024,13.9578196 9.06434955,13.822651 8.8996048,13.6748863 C8.73148709,13.5264157 8.61258979,13.3645333 8.54264745,13.1919529 C8.38222823,12.7975059 8.52889009,12.2960784 8.84365405,11.9980706 C9.01734655,11.826651 9.25362643,11.7105569 9.55316517,11.6435922 C10.0861105,11.5222588 10.6927616,11.6070431 11.1786102,11.8360471 L11.0163796,12.5951529 C10.8269778,12.5115922 10.6233658,12.4470275 10.4011087,12.4043922 C10.1630955,12.3650039 9.97497417,12.3727843 9.83230991,12.4295529 C9.60991231,12.5213333 9.49797958,12.7815059 9.61572132,12.9793255 C9.66427027,13.0521098 9.74439399,13.1270902 9.85916877,13.2083137 C9.9743964,13.2864941 10.1233069,13.3737725 10.3085081,13.4772078 C10.6891387,13.6826667 10.9553069,13.9059294 11.1083243,14.1411137 C11.2647147,14.3770824 11.308173,14.6408 11.2462102,14.9307137 C11.1961465,15.165098 11.0846354,15.3694118 10.9055087,15.5390902 C10.7293802,15.7128157 10.4902583,15.8300235 10.1866438,15.8979137 C9.88693333,15.9663529 9.52288649,15.9663529 9.0995003,15.8934745 C9.006197,15.8775529 8.72975375,15.8332235 8.51605405,15.7832941 L8.69802282,14.9311686 Z M12.2009489,14.9311686 C12.2021045,14.9316549 12.2035724,14.9320941 12.2045874,14.9328941 C12.3968312,15.0181333 12.6038474,15.0839373 12.8302583,15.1272471 C13.0715039,15.1670431 13.2620613,15.1592627 13.4066306,15.1017725 C13.5472649,15.0435294 13.6323387,14.9465882 13.6621333,14.8077647 C13.692412,14.6820706 13.6537165,14.5632157 13.552621,14.4522667 C13.4479339,14.3409725 13.2670739,14.2188392 13.0103375,14.083749 C12.769982,13.9578196 12.5668853,13.822651 12.4023123,13.6748863 C12.2340697,13.5264157 12.1152973,13.3645333 12.0453237,13.1919529 C11.8848108,12.7975059 12.0315508,12.2960784 12.3463147,11.9980706 C12.5201477,11.826651 12.7564276,11.7105569 13.0559351,11.6435922 C13.5890054,11.5222588 14.1954378,11.6070431 14.6816456,11.8360471 L14.5193213,12.5951529 C14.3299976,12.5115922 14.126167,12.4470275 13.9037694,12.4043922 C13.665803,12.3650039 13.4775099,12.3727843 13.3348769,12.4295529 C13.1127135,12.5213333 13.0006402,12.7815059 13.1183039,12.9793255 C13.1669934,13.0521098 13.2471483,13.1270902 13.361845,13.2083137 C13.4770571,13.2864941 13.6259676,13.3737725 13.8110438,13.4772078 C14.1916745,13.6826667 14.4577489,13.9059294 14.610985,14.1411137 C14.7675159,14.3770824 14.8110679,14.6408 14.7489646,14.9307137 C14.6988072,15.165098 14.5874366,15.3694118 14.4082631,15.5390902 C14.2323063,15.7128157 13.9929658,15.8300235 13.689445,15.8979137 C13.3893754,15.9663529 13.0254691,15.9663529 12.6022547,15.8934745 C12.508764,15.8775529 12.2323363,15.8332235 12.0185898,15.7832941 L12.2009489,14.9311686 Z M0,15.8299294 L0,11.7018824 C0.164479279,11.6767216 0.363906306,11.6548078 0.601997598,11.6389333 C0.836653453,11.6231373 1.11662583,11.6139765 1.4421021,11.6139765 C1.77116997,11.6139765 2.05490571,11.6422118 2.292997,11.6986824 C2.53083844,11.7554667 2.72697057,11.8401255 2.88451652,11.9533804 C3.03864264,12.0603294 3.15753994,12.1985255 3.24854775,12.3682039 C3.33955556,12.534902 3.38505946,12.7233412 3.38846366,12.9339294 C3.38846366,13.1414431 3.35012733,13.3332235 3.27665586,13.502902 C3.20282523,13.6724863 3.0944997,13.8203451 2.95436517,13.9396392 C2.77247447,14.0938039 2.54835916,14.2069176 2.28932733,14.2793882 C2.02657898,14.3514667 1.73978258,14.3861176 1.42125526,14.3861176 C1.27748228,14.3861176 1.15870991,14.3798431 1.05713033,14.3672627 L1.05474114,15.8299294 L0,15.8299294 Z M1.05713033,12.3746039 L1.05713033,13.6253961 C1.14473393,13.644251 1.26349069,13.6504314 1.41421261,13.6504314 C1.70122763,13.647451 1.9252024,13.5874667 2.08605886,13.4682667 C2.24722763,13.3455373 2.32766366,13.1792 2.33133333,12.9591843 C2.33133333,12.761051 2.2575964,12.6102275 2.11416697,12.5000784 C1.97058138,12.3934588 1.76425225,12.3368941 1.49805285,12.3368941 C1.28102703,12.3398275 1.13414655,12.352549 1.05713033,12.3746039 Z M20.1126006,15.8714196 C20.1126006,14.2902431 20.1126006,12.4476078 20.1126006,11.7430275 C20.2876517,11.717851 20.4944024,11.6959373 20.7394114,11.6802824 C20.9845766,11.6644078 21.2469189,11.6550275 21.5340901,11.6550275 C21.8843483,11.6550275 22.1815135,11.6802824 22.4337057,11.7304314 C22.6858979,11.7839216 22.8921802,11.8687216 23.0603604,11.988251 C23.3437838,12.1894431 23.4907267,12.4849569 23.4946306,12.8713255 C23.4907267,13.0506039 23.4487207,13.2107294 23.3684565,13.352298 C23.2878799,13.4905882 23.1827868,13.606902 23.0569249,13.7044549 C22.9307508,13.7987765 22.7977057,13.8677804 22.6610691,13.9117647 L22.6610691,13.9306039 C22.8258138,13.9902902 22.9554234,14.0910431 23.0569249,14.2261176 C23.1548348,14.361302 23.2352553,14.5279059 23.2913153,14.7259608 C23.3403483,14.8861647 23.3890691,15.0496627 23.434979,15.2132078 C23.484012,15.3734118 23.5292973,15.5178353 23.568024,15.6467451 C23.5987868,15.7398902 23.6258018,15.8151686 23.6507868,15.8714196 L22.5539459,15.8714196 C22.4023183,15.5933804 22.3332973,15.2248471 22.2552192,14.933349 C22.1591832,14.5320471 21.9752312,14.2512471 21.4919279,14.2512471 L21.1699339,14.2512471 L21.1699339,15.8714196 L20.1126006,15.8714196 Z M21.1699339,12.3966588 L21.1699339,13.5598118 L21.5901502,13.5598118 C21.8595195,13.5566118 22.0662703,13.5032627 22.2132132,13.3961882 C22.36,13.2863529 22.4337057,13.1386039 22.4372973,12.9531294 C22.4337057,12.7583373 22.3668709,12.6134275 22.2307027,12.5164078 C22.0906306,12.4189333 21.9016817,12.368549 21.6530811,12.365349 C21.5236276,12.365349 21.42197,12.368549 21.3451411,12.3748235 C21.2645646,12.384298 21.2086607,12.3904784 21.1699339,12.3966588 Z M28.2502102,11.7018824 C28.4499339,11.6736471 28.6704264,11.6516863 28.9155916,11.6358118 C29.1641922,11.6200784 29.4195075,11.6139765 29.6927808,11.6139765 C30.1372012,11.6139765 30.5154114,11.6516863 30.8235075,11.7238118 C31.1348829,11.7992314 31.4011291,11.9124706 31.6249009,12.0662745 C31.8735015,12.2298196 32.066042,12.443749 32.2095495,12.7075608 C32.3494655,12.9717647 32.4197357,13.2893333 32.4233273,13.6631059 C32.4197357,14.0686745 32.3461862,14.4111373 32.2028348,14.6940706 C32.059015,14.9800784 31.8700661,15.2065725 31.6391111,15.3793725 C31.1144264,15.7653647 30.3534775,15.9263843 29.6868468,15.9263843 C29.6848168,15.9263843 29.6830991,15.9271843 29.6810691,15.9271843 L28.2536456,15.9271843 L28.2502102,11.7018824 Z M29.3215976,12.3871373 L29.3215976,15.1592627 C29.3671952,15.1688784 29.4265345,15.1749176 29.4933694,15.1749176 C29.5561441,15.1779922 29.6261021,15.1779922 29.6927808,15.1779922 C30.0182102,15.1811922 30.2983544,15.1280471 30.5361802,15.0209882 C30.7744745,14.9141333 30.9601441,14.7506353 31.0894414,14.5307608 C31.2226426,14.3109176 31.2855736,14.0309647 31.289009,13.6943216 C31.289009,13.402102 31.2295135,13.1540235 31.1103664,12.9559843 C30.9915315,12.7548706 30.8197598,12.6040471 30.5995796,12.503498 C30.3753393,12.3997176 30.1125285,12.3494275 29.8045886,12.3494275 C29.570042,12.352549 29.4092012,12.3650039 29.3215976,12.3871373 Z M35.2806727,11.5761882 C35.647952,11.5792627 35.9696336,11.6365333 36.2522763,11.7475922 C36.5316396,11.8616157 36.7683724,12.0172863 36.9593514,12.2136784 C37.1498619,12.4136784 37.2949309,12.6421961 37.3940901,12.9026196 C37.4929369,13.1658196 37.5424384,13.4419922 37.5424384,13.740251 C37.5388468,14.2096784 37.4398438,14.6129255 37.2455856,14.9491294 C37.051015,15.2822118 36.778991,15.5392157 36.4292012,15.7203294 C36.0794114,15.9011294 35.6693453,15.9900078 35.2029069,15.9932078 C34.8492132,15.9900078 34.5348709,15.9360784 34.2556637,15.8250039 C33.9803604,15.7139294 33.7431592,15.5585255 33.5524925,15.3615373 C33.3616697,15.1649569 33.2128529,14.933349 33.1141622,14.6697098 C33.0117237,14.4064314 32.9623784,14.1242039 32.9623784,13.816251 C32.9656577,13.3848471 33.0612252,13.0008941 33.2518919,12.6645176 C33.4392793,12.3311529 33.7077117,12.0650353 34.0543784,11.8711216 C34.4002643,11.6777412 34.8104865,11.5792627 35.2806727,11.5761882 Z M35.2524084,12.3439686 C35.0084925,12.3472941 34.7998679,12.4107137 34.6301261,12.5377882 C34.4572613,12.6611765 34.3262462,12.8325961 34.2378619,13.0517647 C34.1461982,13.2671529 34.1002883,13.5181961 34.1002883,13.7971765 C34.1002883,14.079749 34.1496336,14.3272314 34.2414535,14.5399216 C34.3335856,14.7526745 34.4641321,14.9206745 34.6373093,15.0412078 C34.8104865,15.1617569 35.0192673,15.222102 35.2594354,15.2252078 C35.5031952,15.222102 35.7082282,15.158698 35.8812492,15.031749 C36.0508348,14.9080784 36.1781021,14.7365804 36.2699219,14.5179922 C36.3586186,14.3017569 36.4043724,14.0514196 36.4043724,13.7719216 C36.4043724,13.5118431 36.3586186,13.2768784 36.2699219,13.0610039 C36.1816937,12.8453961 36.0508348,12.6740706 35.8812492,12.5440627 C35.7082282,12.4136784 35.4996036,12.3472941 35.2524084,12.3439686 Z M17.8769129,14.8362353 L16.5256937,14.8362353 L16.1932372,15.864298 L15.0103856,15.8605647 L16.3058258,12.6260078 C16.4254414,12.3313882 16.6384384,11.5371922 17.8477117,11.5847686 L19.3891291,15.8749333 L18.2407568,15.8749333 L17.8769129,14.8362353 Z M16.6796637,14.1515137 L17.7229429,14.1515137 L17.2132492,12.6871059 L16.6796637,14.1515137 Z M6.4749994,14.8362353 L5.12417057,14.8362353 L4.79116757,15.864298 L3.60845646,15.8605647 L4.90405285,12.6260078 C5.02382462,12.3313882 5.23664985,11.5371922 6.44587628,11.5847686 L7.98762162,15.8749333 L6.83917117,15.8749333 L6.4749994,14.8362353 Z M5.27795315,14.1515137 L6.3209982,14.1515137 L5.81125766,12.6871059 L5.27795315,14.1515137 Z" id="Fill-7" fill="#808285"></path>
        </g>
    </g>
</svg>
