<?xml version="1.0" encoding="utf-8"?>
<!-- Generator: Adobe Illustrator 19.1.0, SVG Export Plug-In . SVG Version: 6.00 Build 0)  -->
<svg version="1.1" id="Layer_1" xmlns="http://www.w3.org/2000/svg" xmlns:xlink="http://www.w3.org/1999/xlink" x="0px" y="0px"
	 width="150.3px" height="64px" viewBox="-428 275 150.3 64" enable-background="new -428 275 150.3 64" xml:space="preserve">
<path fill="#0075C9" d="M-405.5,293.4c-0.2-0.3-0.4-0.5-0.8-0.8c-0.3-0.2-0.6-0.3-0.8-0.4c-0.3-0.1-0.7-0.1-0.8-0.1
	c-0.3,0-0.7,0.1-0.9,0.1c-0.4,0.1-0.7,0.2-0.9,0.4c-0.3,0.2-0.7,0.4-0.9,0.7c-0.3,0.3-0.6,0.7-0.8,1.1l-8.7,15.8
	c-0.1,0.2-0.1,0.3-0.1,0.5s0.1,0.4,0.2,0.5c0.2,0.1,0.3,0.2,0.5,0.2h1.8c0.2,0,0.4-0.1,0.5-0.2c0.2-0.1,0.3-0.3,0.4-0.4l3-6.1h7.2
	l0.8,6c0.1,0.2,0.1,0.3,0.2,0.4c0.1,0.2,0.3,0.3,0.5,0.3h1.8c0.2,0,0.4-0.1,0.6-0.2c0.2-0.2,0.2-0.4,0.2-0.6v-0.1l-2.3-15.8
	C-405.2,294.2-405.3,293.8-405.5,293.4 M-412.9,302.1L-412.9,302.1l3.8-6.8c0.2-0.3,0.5-0.3,0.8-0.3c0.5,0,0.5,0.3,0.5,0.3l0.8,6.8
	H-412.9z M-388.9,297.1L-388.9,297.1c-0.5-0.5-1.1-0.8-1.8-1.1c-0.8-0.3-1.5-0.4-2.4-0.4c-2.2,0-3.9,0.7-5.3,1.8
	c-1.4,1.2-2.3,2.9-2.8,5.2l-0.4,1.9c-0.1,0.7-0.2,1.2-0.2,1.8c0,0.9,0.2,1.8,0.5,2.4c0.4,0.7,0.8,1.2,1.4,1.7c0.6,0.4,1.2,0.8,2,0.9
	c0.8,0.2,1.4,0.3,2.2,0.3l0,0c1,0,1.9-0.1,2.7-0.1c0.8-0.1,1.7-0.2,2.5-0.4c0.3-0.1,0.5-0.1,0.7-0.3c0.2-0.2,0.2-0.4,0.3-0.6
	l0.2-0.9l0,0v-0.2c0-0.2-0.1-0.3-0.2-0.4c-0.2-0.1-0.3-0.1-0.5-0.1h-0.2c-0.8,0.1-1.5,0.2-2.4,0.3c-0.8,0-1.8,0.1-2.6,0.1
	c-1.1,0-2-0.2-2.5-0.7c-0.6-0.5-0.8-1-0.8-2c0-0.3,0-0.5,0.1-0.8c0.1-0.3,0.1-0.5,0.2-0.8l0.1-0.2h9.7c0.3,0,0.5-0.1,0.7-0.3
	c0.1-0.2,0.2-0.4,0.3-0.6l0.3-1.1c0.1-0.7,0.2-1.2,0.2-1.7c0-0.8-0.1-1.4-0.4-2.1C-388,298.2-388.3,297.6-388.9,297.1 M-390.7,302.3
	L-390.7,302.3h-7.2c0.2-0.5,0.3-1,0.6-1.5c0.3-0.5,0.6-0.9,0.9-1.3c0.4-0.4,0.8-0.7,1.3-0.8c0.5-0.2,1-0.3,1.7-0.3
	c2.1,0.1,2.9,0.8,2.9,2.6C-390.6,301.2-390.6,301.7-390.7,302.3 M-377.1,297.6L-377.1,297.6l0.2-1.1l0,0v-0.2c0-0.2-0.1-0.4-0.3-0.5
	c-0.2-0.2-0.3-0.2-0.6-0.2h-0.1c-0.8,0-1.4,0.1-2.2,0.3c-0.6,0.2-1.2,0.4-1.8,0.8l0,0v-0.2c0-0.2-0.1-0.4-0.2-0.5
	c-0.2-0.2-0.4-0.2-0.5-0.2h-1.4c-0.2,0-0.5,0.1-0.7,0.2c-0.2,0.2-0.3,0.3-0.4,0.5l-2.5,14v0.2c0,0.2,0.1,0.4,0.2,0.5
	c0.1,0.1,0.3,0.2,0.5,0.2h1.4c0.2,0,0.5-0.1,0.7-0.2c0.2-0.2,0.3-0.3,0.4-0.5l2.1-11.4c0.7-0.4,1.3-0.7,1.9-0.8s1.3-0.3,2.1-0.3h0.1
	C-377.5,298.2-377.2,298-377.1,297.6 M-365.2,297.1c0.5,0.5,0.8,1.1,1.1,1.8c0.3,0.7,0.4,1.4,0.4,2.2c0,0.3,0,0.5-0.1,0.8
	c-0.1,0.3-0.1,0.5-0.1,0.8l-0.4,2.1c-0.2,1.1-0.5,2-0.9,2.8c-0.5,0.8-0.9,1.6-1.7,2.2c-0.7,0.7-1.5,1.1-2.3,1.4
	c-0.9,0.3-2,0.5-3.2,0.5c-0.9,0-1.8-0.2-2.4-0.4c-0.8-0.3-1.3-0.7-1.8-1.1s-0.8-1.1-1.1-1.7c-0.3-0.7-0.4-1.4-0.4-2.2
	c0-0.3,0-0.5,0.1-0.8c0.1-0.3,0.1-0.5,0.1-0.8l0.4-2.1c0.8-4.5,3.6-6.9,8.1-6.9c0.9,0,1.8,0.2,2.4,0.4
	C-366.3,296.2-365.6,296.6-365.2,297.1 M-366.8,301.7c0-0.3,0.1-0.5,0.1-0.8c0-0.9-0.3-1.6-0.7-2.1c-0.4-0.4-1.2-0.7-2.3-0.7
	c-1.2,0-2.3,0.4-3,1.1c-0.8,0.8-1.3,1.8-1.5,3.2l-0.4,2.1c-0.1,0.6-0.2,1.1-0.2,1.5c0,0.9,0.3,1.6,0.7,2c0.4,0.4,1.2,0.7,2.3,0.7
	c0.7,0,1.2-0.1,1.7-0.3c0.5-0.2,0.9-0.5,1.3-0.8c0.4-0.4,0.8-0.8,0.9-1.3c0.3-0.5,0.5-1.1,0.6-1.8l0.4-2.1
	C-366.9,302.2-366.8,301.9-366.8,301.7 M-356.6,291.7L-356.6,291.7c0-0.2-0.1-0.4-0.2-0.5s-0.3-0.2-0.5-0.2h-1.5
	c-0.5-0.1-0.8,0.3-0.9,0.8l-3.6,18.7v0.2c0,0.2,0.1,0.4,0.2,0.5c0.1,0.2,0.3,0.2,0.5,0.2h1.5c0.2,0,0.5-0.1,0.7-0.3
	c0.2-0.2,0.3-0.3,0.3-0.5L-356.6,291.7L-356.6,291.7L-356.6,291.7z M-352.3,295.8c0.2,0,0.4,0.1,0.6,0.2c0.2,0.2,0.2,0.4,0.2,0.5
	v0.2l-2.6,14c-0.1,0.2-0.2,0.4-0.4,0.5c-0.2,0.2-0.4,0.2-0.7,0.2h-1.3c-0.2,0-0.4-0.1-0.5-0.2c-0.2-0.2-0.2-0.4-0.2-0.5v-0.2l2.6-14
	c0.1-0.2,0.2-0.4,0.4-0.5c0.2-0.2,0.4-0.2,0.7-0.2H-352.3L-352.3,295.8z M-353.9,294.3L-353.9,294.3h1.6c0.2,0,0.4-0.1,0.5-0.2
	s0.3-0.2,0.4-0.4l3-2.4c0.1-0.1,0.3-0.3,0.3-0.5c0-0.4-0.4-0.4-0.6-0.5h-2c-0.2,0-0.4,0.1-0.6,0.2c-0.1,0.1-0.3,0.2-0.4,0.4
	l-2.5,2.4c-0.2,0.2-0.3,0.3-0.3,0.5C-354.5,294.2-354.1,294.3-353.9,294.3 M-337.8,296.9L-337.8,296.9c-0.4-0.4-0.8-0.8-1.5-0.9
	s-1.3-0.4-2.1-0.4c-1,0-1.9,0.2-2.7,0.4c-0.6,0.2-1.1,0.4-1.7,0.8v-0.1l0,0v-0.2c0-0.2-0.1-0.4-0.2-0.5c-0.2-0.2-0.4-0.3-0.6-0.3
	h-1.4c-0.2,0-0.4,0.1-0.7,0.2c-0.2,0.2-0.3,0.3-0.4,0.5l-2.6,14v0.2c0,0.2,0.1,0.3,0.2,0.5c0.1,0.2,0.4,0.3,0.5,0.3h1.4
	c0.2,0,0.4-0.1,0.7-0.2c0.2-0.2,0.3-0.3,0.4-0.5l2.3-11.4c0.8-0.4,1.6-0.7,2.2-0.8c0.7-0.2,1.2-0.2,1.8-0.2c1,0,1.7,0.2,2,0.5
	c0.3,0.3,0.5,0.8,0.5,1.3c0,0.2,0,0.4-0.1,0.7c-0.1,0.3-0.1,0.5-0.1,0.8l-1.5,8.9v0.2c0,0.2,0.1,0.4,0.2,0.5
	c0.2,0.2,0.4,0.2,0.5,0.2h1.4c0.2,0,0.4-0.1,0.7-0.2c0.2-0.2,0.3-0.3,0.4-0.5l1.5-8.9c0.1-0.5,0.2-1,0.2-1.5c0-0.7-0.1-1.2-0.3-1.7
	C-337.1,297.8-337.4,297.3-337.8,296.9 M-322.9,297.1L-322.9,297.1c-0.5-0.5-1.1-0.8-1.8-1.1c-0.8-0.3-1.5-0.4-2.4-0.4
	c-2.2,0-3.9,0.7-5.3,1.8c-1.4,1.2-2.3,2.9-2.7,5.2l-0.4,1.9c-0.1,0.7-0.2,1.2-0.2,1.8c0,0.9,0.2,1.8,0.5,2.4
	c0.4,0.7,0.8,1.2,1.4,1.7c0.6,0.4,1.2,0.8,2,0.9c0.8,0.2,1.4,0.3,2.3,0.3c1,0,1.9-0.1,2.7-0.1c0.8-0.1,1.6-0.2,2.5-0.4
	c0.3-0.1,0.5-0.1,0.7-0.3c0.2-0.2,0.2-0.4,0.3-0.6l0.2-0.9l0,0v-0.2c0-0.2-0.1-0.3-0.2-0.4c-0.2-0.1-0.3-0.1-0.5-0.1h-0.2
	c-0.8,0.1-1.5,0.2-2.4,0.3c-0.9,0.1-1.8,0.1-2.7,0.1c-1.1,0-2-0.2-2.5-0.7c-0.6-0.4-0.8-1-0.8-2c0-0.3,0-0.5,0.1-0.8
	c0.1-0.3,0.1-0.5,0.2-0.8l0.1-0.2h9.5c0.3,0,0.5-0.1,0.7-0.3c0.2-0.2,0.2-0.4,0.3-0.6l0.3-1.1c0.1-0.7,0.2-1.2,0.2-1.7
	c0-0.8-0.1-1.4-0.4-2.1C-322.1,298.2-322.4,297.6-322.9,297.1 M-324.8,302.3L-324.8,302.3h-7.2c0.2-0.5,0.3-1,0.6-1.5
	c0.3-0.5,0.6-0.9,0.9-1.3s0.8-0.7,1.3-0.8c0.5-0.2,1-0.3,1.7-0.3c2.1,0.1,2.9,0.8,2.9,2.6C-324.6,301.2-324.7,301.7-324.8,302.3
	 M-306.3,296.9L-306.3,296.9c0-0.4-0.4-0.7-0.8-0.7c-0.8-0.2-1.6-0.3-2.4-0.5c-0.9-0.1-1.8-0.2-2.7-0.2s-1.8,0.1-2.6,0.3
	c-0.8,0.2-1.7,0.6-2.3,1.1c-0.8,0.5-1.3,1.2-1.8,2c-0.5,0.8-0.8,1.9-1.1,3l-0.5,2.7c-0.1,0.6-0.2,1.1-0.2,1.7c0,0.8,0.1,1.7,0.4,2.3
	c0.3,0.7,0.7,1.2,1,1.6c0.5,0.4,0.9,0.8,1.5,0.9s1.2,0.3,1.9,0.3l0,0c0.5,0,0.9-0.1,1.4-0.1s0.8-0.2,1.2-0.3
	c0.4-0.2,0.8-0.3,1.1-0.5c0.2-0.1,0.5-0.3,0.7-0.4l-0.1,0.2l0,0v0.2c0,0.2,0.1,0.4,0.2,0.5c0.2,0.2,0.4,0.3,0.6,0.3h1.2
	c0.2,0,0.4-0.1,0.7-0.2c0.2-0.2,0.3-0.3,0.4-0.5l2.5-13.4C-306.3,297.1-306.3,297-306.3,296.9 M-311.4,307.5L-311.4,307.5
	c-0.8,0.5-1.5,0.8-2.1,1.1c-0.7,0.3-1.3,0.4-2,0.4c-0.7,0-1.2-0.2-1.7-0.6c-0.4-0.4-0.7-0.9-0.7-2c0-0.2,0-0.4,0.1-0.7
	c0-0.2,0.1-0.4,0.1-0.7l0.5-2.8c0.3-1.4,0.8-2.4,1.5-3.2c0.8-0.7,1.9-1.1,3.3-1.1c0.7,0,1.1,0.1,1.6,0.1c0.4,0.1,0.7,0.1,0.9,0.2
	L-311.4,307.5z M-294.5,296c0.4,0.1,0.7,0.3,0.7,0.8v0.2l0,0l-0.2,0.9c-0.1,0.4-0.5,0.8-0.8,0.7h-0.1c-0.5-0.1-1.1-0.1-1.9-0.2
	c-0.8-0.1-1.5-0.1-2.3-0.1c-0.3,0-0.7,0-0.9,0.1c-0.4,0.1-0.7,0.2-0.9,0.3c-0.3,0.2-0.5,0.3-0.7,0.5c-0.2,0.2-0.2,0.5-0.2,0.8
	c0,0.3,0.1,0.5,0.3,0.8c0.3,0.3,0.7,0.5,1.1,0.8l2.7,1.6c1,0.7,1.8,1.2,2.1,1.8c0.4,0.6,0.6,1.2,0.6,1.9c0,0.9-0.2,1.7-0.6,2.3
	c-0.4,0.7-0.8,1.1-1.5,1.5s-1.3,0.7-2.1,0.8c-0.8,0.1-1.6,0.3-2.3,0.3l0,0c-0.3,0-0.7,0-1.1-0.1c-0.4,0-0.8-0.1-1.2-0.1
	c-0.4,0-0.8-0.1-1.2-0.1c-0.4-0.1-0.8-0.1-1.1-0.2c-0.2-0.1-0.3-0.1-0.4-0.2c-0.2-0.1-0.3-0.4-0.3-0.6v-0.1l0,0l0.2-0.9
	c0.1-0.4,0.5-0.7,0.8-0.7h0.2c0.4,0.1,0.8,0.1,1.1,0.1s0.8,0.1,1.2,0.1c0.4,0.1,0.8,0.1,1.2,0.1c0.4,0,0.7,0.1,0.9,0.1
	c0.4,0,0.8-0.1,1.2-0.1c0.4-0.1,0.8-0.2,0.9-0.4c0.3-0.2,0.5-0.4,0.7-0.7c0.2-0.3,0.3-0.6,0.3-0.9c0-0.3-0.1-0.5-0.3-0.8
	c-0.2-0.3-0.7-0.6-1.3-0.9l-2.7-1.6c-1.7-1-2.5-2.3-2.5-3.6c0-0.8,0.2-1.6,0.6-2.2c0.4-0.6,0.8-1,1.5-1.4s1.3-0.6,2.1-0.8
	c0.8-0.1,1.5-0.2,2.3-0.2c0.6,0,1.1,0,1.5,0.1c0.4,0,0.8,0.1,1.1,0.1c0.3,0.1,0.7,0.1,0.9,0.1C-295,295.9-294.7,295.9-294.5,296"/>
<path fill="#0075C9" d="M-384.6,316.9c-0.7-0.2-1.5-0.3-2.4-0.4c-0.9-0.2-1.9-0.2-2.8-0.2c-1.1,0-2.1,0.1-3,0.4
	c-0.8,0.3-1.7,0.7-2.3,1.2s-1.2,1.2-1.7,2.1c-0.4,0.8-0.8,1.9-1,3.1l-0.4,2c-0.1,0.7-0.2,1.3-0.2,1.9c0,0.8,0.2,1.7,0.4,2.3
	c0.3,0.7,0.7,1.2,1.2,1.6c0.5,0.4,1.1,0.8,1.8,0.8c0.7,0.2,1.4,0.3,2.3,0.3c0.2,0,0.5,0,0.8-0.1c0.3-0.1,0.7-0.1,0.9-0.1
	s0.7-0.1,0.9-0.1c0.2-0.1,0.4-0.1,0.5-0.1l-0.1,0.2c-0.1,0.7-0.3,1.1-0.4,1.5c-0.2,0.4-0.4,0.8-0.8,0.9c-0.3,0.3-0.7,0.4-1.1,0.5
	s-0.9,0.2-1.7,0.2c-0.4,0-0.8,0-1.3-0.1c-0.5-0.1-0.9-0.1-1.4-0.1c-0.5-0.1-0.8-0.1-1.3-0.1c-0.4-0.1-0.8-0.1-0.9-0.1h-0.1h-0.1
	c-0.2,0-0.4,0.1-0.5,0.2c-0.2,0.1-0.2,0.3-0.3,0.4l-0.2,0.8l0,0l0,0l0,0c-0.1,0.1,0,0.1-0.1,0.2c0,0.3,0.3,0.5,0.7,0.6s1,0.2,2,0.3
	c0.8,0.1,1.9,0.2,3,0.2c1.1,0,2-0.1,2.8-0.3c0.8-0.2,1.5-0.5,2.1-0.8c0.6-0.4,1-0.9,1.4-1.7c0.4-0.8,0.7-1.6,0.8-2.7l2.8-14l0,0
	v-0.1c0-0.1,0.1-0.1,0.1-0.2C-383.9,317.2-384.2,317-384.6,316.9 M-389,329.4L-389,329.4c-0.2,0.1-0.5,0.1-0.8,0.1
	c-0.3,0.1-0.7,0.1-0.9,0.1c-0.3,0.1-0.7,0.1-0.8,0.1c-0.3,0-0.5,0-0.8,0c-1.1,0-1.9-0.2-2.4-0.6c-0.5-0.4-0.8-1-0.8-2.1
	c0-0.3,0-0.6,0.1-0.8c0.1-0.3,0.1-0.7,0.2-1l0.4-2c0.3-1.6,0.8-2.7,1.6-3.5c0.8-0.8,1.8-1.1,3.1-1.1c0.7,0,1.2,0.1,1.8,0.1
	c0.5,0.1,0.9,0.1,1.3,0.2L-389,329.4z M-339.1,313.5L-339.1,313.5L-339.1,313.5c0-0.5-0.3-0.7-0.7-0.7h-1.5c-0.2,0-0.4,0.1-0.5,0.2
	c-0.2,0.1-0.3,0.3-0.3,0.5l-0.2,1.2v0.1c0,0.4,0.3,0.6,0.7,0.6h1.5c0.2,0,0.4-0.1,0.5-0.2c0.2-0.1,0.3-0.3,0.3-0.5L-339.1,313.5z
	 M-398,318.7L-398,318.7c-0.9,0-1.6,0.1-2.3,0.3c-0.6,0.2-1.2,0.4-2,0.8l-2.2,11.3c-0.1,0.2-0.2,0.3-0.3,0.5
	c-0.2,0.1-0.3,0.2-0.5,0.2h-1.4c-0.4,0-0.6-0.2-0.6-0.6v-0.1l2.6-14c0.1-0.2,0.2-0.3,0.3-0.5c0.2-0.2,0.3-0.2,0.5-0.2h1.4
	c0.4,0,0.6,0.2,0.6,0.6v0.2l0,0l-0.1,0.3c0.8-0.5,1.4-0.8,2.1-0.9c0.8-0.2,1.4-0.3,2.1-0.3l0,0c0.4,0,0.7,0.2,0.7,0.5v0.1l0,0
	l-0.2,1.1C-397.3,318.5-397.6,318.7-398,318.7 M-348.4,318.8L-348.4,318.8h3.1c0.2,0,0.4-0.1,0.5-0.2c0.2-0.1,0.3-0.3,0.3-0.5
	l0.2-0.9l0,0v-0.1c0-0.4-0.3-0.6-0.7-0.6h-3l0.4-2.3v-0.2c0-0.3-0.2-0.5-0.5-0.5h-0.1l-1.6,0.2c-0.4,0.1-0.8,0.3-0.8,0.7l-0.4,2
	l-2,0.1c-0.2,0-0.4,0.1-0.5,0.2c-0.2,0.1-0.3,0.3-0.3,0.4l-0.2,0.8l0,0v0.1c0,0.3,0.3,0.5,0.6,0.6l1.9,0.3l-1.8,9.4
	c-0.1,0.2-0.1,0.4-0.1,0.6s-0.1,0.4-0.1,0.5c0,0.9,0.4,1.7,1.1,2.1c0.8,0.4,1.5,0.7,2.5,0.7c0.3,0,0.6,0,0.9-0.1
	c0.4,0,0.7-0.1,0.9-0.1c0.2-0.1,0.4-0.1,0.5-0.2s0.2-0.2,0.2-0.4l0.2-0.9l0,0v-0.1c0-0.2-0.1-0.3-0.2-0.4c-0.1-0.1-0.2-0.1-0.4-0.1
	h-1.8c-0.5,0-0.8-0.1-0.9-0.1c-0.2-0.1-0.3-0.2-0.3-0.7c0-0.2,0.1-0.5,0.1-0.8L-348.4,318.8z M-309.8,317.5L-309.8,317.5
	c0-0.3-0.3-0.5-0.7-0.6c-0.8-0.2-1.6-0.4-2.4-0.5c-0.9-0.1-1.8-0.2-2.7-0.2s-1.8,0.1-2.5,0.3c-0.8,0.2-1.6,0.6-2.3,1.1
	c-0.7,0.5-1.3,1.1-1.8,2c-0.5,0.8-0.8,1.8-1.1,3l-0.5,2.7c-0.1,0.6-0.2,1.1-0.2,1.7c0,0.8,0.1,1.6,0.4,2.3c0.3,0.7,0.7,1.1,1,1.5
	c0.4,0.4,0.9,0.8,1.5,0.9c0.6,0.2,1.2,0.3,1.8,0.3c0.5,0,0.9-0.1,1.3-0.1c0.4-0.1,0.8-0.2,1.1-0.3c0.4-0.2,0.8-0.3,1.1-0.5
	c0.3-0.2,0.7-0.4,0.9-0.6l-0.1,0.5v0.1v0.1c0,0.2,0.1,0.3,0.1,0.4c0.1,0.2,0.3,0.2,0.5,0.2h1.2c0.2,0,0.4-0.1,0.5-0.2
	c0.2-0.1,0.3-0.3,0.3-0.5l2.5-13.4C-309.8,317.7-309.8,317.6-309.8,317.5 M-314.7,328.1L-314.7,328.1c-0.8,0.5-1.5,0.8-2.2,1.1
	c-0.7,0.3-1.3,0.4-2,0.4s-1.2-0.2-1.8-0.7c-0.5-0.4-0.8-1.1-0.8-2.1c0-0.2,0-0.4,0-0.7c0-0.2,0.1-0.4,0.1-0.7l0.5-2.8
	c0.3-1.4,0.8-2.5,1.6-3.3c0.8-0.8,1.9-1.1,3.4-1.1c0.7,0,1.1,0.1,1.6,0.1v-0.2v0.2c0.4,0.1,0.8,0.1,1.1,0.2L-314.7,328.1z
	 M-297.4,317.2L-297.4,317.2l-0.2,0.1L-297.4,317.2l-0.1,1c-0.1,0.4-0.4,0.6-0.8,0.6h-0.1c-0.5-0.1-1.1-0.1-1.9-0.2
	s-1.5-0.1-2.3-0.1c-0.3,0-0.7,0.1-1,0.1c-0.4,0.1-0.7,0.2-0.9,0.3c-0.3,0.2-0.5,0.3-0.8,0.6c-0.2,0.2-0.3,0.5-0.3,0.8
	c0,0.3,0.1,0.6,0.4,0.8c0.3,0.3,0.7,0.6,1.2,0.8l2.7,1.6c1,0.7,1.7,1.2,2.1,1.8s0.6,1.1,0.6,1.8c0,0.8-0.2,1.7-0.6,2.3
	c-0.4,0.7-0.8,1.1-1.4,1.4c-0.7,0.4-1.3,0.7-2.1,0.8c-0.8,0.2-1.5,0.3-2.3,0.3c-0.3,0-0.7,0-1.1-0.1c-0.4,0-0.8-0.1-1.2-0.1
	c-0.4-0.1-0.8-0.1-1.2-0.1c-0.4-0.1-0.8-0.1-1.1-0.2c-0.2-0.1-0.3-0.1-0.4-0.2c-0.2-0.1-0.2-0.3-0.2-0.4v0.1l0,0l0.2-0.9
	c0.1-0.3,0.4-0.5,0.7-0.5h0.2c0.4,0.1,0.8,0.1,1.1,0.1c0.4,0.1,0.8,0.1,1.2,0.1c0.4,0.1,0.8,0.1,1.2,0.1c0.4,0,0.8,0.1,0.9,0.1
	c0.4,0,0.8-0.1,1.2-0.1c0.4-0.1,0.8-0.2,1-0.4c0.3-0.2,0.5-0.4,0.7-0.7c0.2-0.3,0.3-0.7,0.3-1c0-0.3-0.1-0.5-0.3-0.8
	c-0.2-0.3-0.7-0.7-1.3-0.9l-2.7-1.6c-1.7-1-2.5-2.2-2.5-3.4c0-0.8,0.2-1.5,0.6-2.1c0.4-0.6,0.8-0.9,1.4-1.3s1.2-0.6,2-0.8
	c0.8-0.1,1.5-0.2,2.3-0.2c0.6,0,1.1,0,1.5,0c0.4,0,0.8,0.1,1.1,0.1c0.3,0.1,0.7,0.1,0.9,0.1c0.3,0.1,0.6,0.1,0.8,0.2
	C-297.5,316.7-297.4,316.9-297.4,317.2 M-326.1,317.6L-326.1,317.6c-0.4-0.4-0.8-0.8-1.4-0.9c-0.6-0.2-1.3-0.4-2.1-0.4
	c-1,0-1.9,0.2-2.6,0.4c-0.7,0.2-1.3,0.5-2,0.8l0.1-0.3v-0.1c0-0.2-0.1-0.3-0.2-0.4c-0.1-0.2-0.3-0.2-0.5-0.2h-1.4
	c-0.2,0-0.4,0.1-0.5,0.2c-0.2,0.1-0.3,0.3-0.3,0.5l-2.7,14v0.1c0,0.2,0.1,0.3,0.2,0.4c0.1,0.2,0.3,0.2,0.4,0.2h1.4
	c0.2,0,0.4-0.1,0.5-0.2c0.2-0.1,0.3-0.3,0.3-0.5l2.2-11.5c0.9-0.4,1.7-0.7,2.3-0.8c0.7-0.2,1.2-0.2,1.8-0.2c1.1,0,1.8,0.2,2.1,0.5
	c0.4,0.4,0.5,0.8,0.5,1.4c0,0.2,0,0.5-0.1,0.8s-0.1,0.5-0.1,0.8l-1.7,9v0.1c0,0.4,0.3,0.6,0.7,0.6h1.4c0.2,0,0.4-0.1,0.5-0.2
	c0.2-0.1,0.3-0.3,0.3-0.5l1.7-9c0.1-0.5,0.2-1,0.2-1.5c0-0.7-0.1-1.1-0.3-1.7C-325.3,318.4-325.6,317.9-326.1,317.6 M-356,317.6
	L-356,317.6c-0.4-0.4-0.8-0.8-1.4-0.9c-0.6-0.2-1.3-0.4-2.1-0.4c-1,0-1.9,0.2-2.6,0.4c-0.7,0.2-1.3,0.5-1.9,0.8l0.1-0.3V317
	c0-0.2-0.1-0.3-0.1-0.4c-0.1-0.2-0.3-0.2-0.5-0.2h-1.4c-0.2,0-0.4,0.1-0.5,0.2c-0.2,0.1-0.3,0.3-0.3,0.5l-2.6,14v0.1
	c0,0.2,0.1,0.3,0.2,0.4c0.1,0.2,0.3,0.2,0.5,0.2h1.4c0.2,0,0.4-0.1,0.5-0.2c0.2-0.1,0.3-0.3,0.3-0.5l2.2-11.5
	c0.9-0.4,1.7-0.7,2.3-0.8c0.7-0.2,1.2-0.2,1.8-0.2c1.1,0,1.8,0.2,2.1,0.5c0.4,0.4,0.5,0.8,0.5,1.4c0,0.2,0,0.5-0.1,0.8
	c-0.1,0.3-0.1,0.5-0.1,0.8l-1.7,9v0.1c0,0.4,0.3,0.6,0.7,0.6h1.4c0.2,0,0.4-0.1,0.5-0.2c0.2-0.1,0.3-0.3,0.3-0.5l1.7-9
	c0.1-0.5,0.2-1,0.2-1.5c0-0.7-0.1-1.1-0.3-1.7C-355.4,318.4-355.7,317.9-356,317.6 M-371.2,317.8L-371.2,317.8
	c-0.5-0.5-1-0.8-1.8-1.1c-0.7-0.3-1.5-0.4-2.4-0.4c-2.1,0-3.8,0.6-5.3,1.8c-1.3,1.2-2.3,2.9-2.7,5.1l-0.4,1.9
	c-0.1,0.7-0.2,1.2-0.2,1.7c0,0.9,0.2,1.8,0.5,2.4c0.4,0.7,0.8,1.2,1.3,1.6s1.2,0.8,1.9,0.8c0.8,0.2,1.4,0.3,2.2,0.3l0,0
	c1,0,1.9-0.1,2.7-0.1c0.8-0.1,1.6-0.2,2.5-0.4c0.3-0.1,0.5-0.1,0.6-0.3c0.1-0.1,0.2-0.3,0.2-0.5l0.2-0.9l0,0v-0.1
	c0-0.3-0.3-0.4-0.5-0.4h-0.1c-0.8,0.1-1.5,0.2-2.4,0.3s-1.8,0.1-2.7,0.1c-1.1,0-2-0.2-2.6-0.7c-0.7-0.4-0.9-1.1-0.9-2.1
	c0-0.3,0-0.5,0.1-0.8c0.1-0.3,0.1-0.6,0.2-0.8l0.1-0.3h9.8c0.3,0,0.5-0.1,0.6-0.2s0.2-0.3,0.2-0.5l0.3-1.1c0.1-0.6,0.2-1.1,0.2-1.7
	c0-0.8-0.1-1.4-0.3-2.1C-370.4,318.9-370.8,318.3-371.2,317.8 M-372.9,322.9L-372.9,322.9L-372.9,322.9l-7.5,0.1
	c0.2-0.7,0.4-1.2,0.7-1.7c0.3-0.5,0.7-0.9,0.9-1.3c0.4-0.4,0.8-0.7,1.3-0.8c0.5-0.2,1.1-0.3,1.7-0.3c2.1,0,3,0.8,3,2.8
	C-372.7,321.9-372.8,322.4-372.9,322.9 M-340.6,316.9c0.4,0,0.7,0.2,0.7,0.6v0.2l-2.5,13.5c-0.1,0.2-0.2,0.3-0.3,0.5
	c-0.2,0.1-0.3,0.2-0.5,0.2h-1.4c-0.4,0-0.7-0.2-0.7-0.6v-0.1l2.5-13.5c0.1-0.2,0.2-0.3,0.3-0.5c0.2-0.1,0.4-0.2,0.5-0.2
	L-340.6,316.9L-340.6,316.9z M-411.2,313.9L-411.2,313.9c-0.2-0.3-0.4-0.5-0.8-0.8c-0.3-0.2-0.6-0.3-0.8-0.4
	c-0.3-0.1-0.7-0.1-0.8-0.1c-0.3,0-0.7,0.1-0.9,0.1c-0.4,0.1-0.7,0.2-0.9,0.4c-0.3,0.2-0.7,0.4-0.9,0.7c-0.3,0.3-0.6,0.7-0.8,1.1
	l-8.7,15.8c0,0.2-0.1,0.3-0.1,0.5s0.1,0.4,0.2,0.5c0.2,0.1,0.3,0.2,0.5,0.2h1.8c0.2,0,0.4-0.1,0.5-0.2c0.2-0.1,0.3-0.3,0.4-0.4
	l3-6.1h7.2l0.8,6c0.1,0.2,0.1,0.3,0.2,0.4c0.1,0.2,0.3,0.3,0.5,0.3h1.8c0.2,0,0.4-0.1,0.6-0.2c0.2-0.2,0.2-0.4,0.2-0.6v-0.2
	l-2.3-15.8C-410.8,314.7-410.9,314.2-411.2,313.9 M-418.4,322.5L-418.4,322.5l3.8-6.8c0.2-0.3,0.5-0.3,0.8-0.3
	c0.5,0,0.5,0.3,0.5,0.3l0.8,6.8H-418.4L-418.4,322.5z"/>
<path fill="#0075C9" d="M-306.9,284.4c-5.9,1-13.6,1.8-19.5,3.6c14.4-0.4,30-0.4,41.6,0.1c-0.3-1.4-1.3-3-4.5-3h-1.9l0,0
	c0.5,1.4-0.9,2.3-1.9,1.6c-0.5-0.3-0.8-1.2,0.4-2c0.8-0.6,1.9-1.3,2.5-1.8c2.3-1.5,2.3-3.8-1.1-4c-8.1-0.7-22.4-1.4-27.7-1.9
	c3.7,2.3,8.8,2.9,13.5,4.6C-302.5,282.6-304.1,283.9-306.9,284.4"/>
</svg>
