<?xml version="1.0" encoding="utf-8"?>
<!-- Generator: Adobe Illustrator 19.1.0, SVG Export Plug-In . SVG Version: 6.00 Build 0)  -->
<svg version="1.1" id="Layer_1" xmlns="http://www.w3.org/2000/svg" xmlns:xlink="http://www.w3.org/1999/xlink" x="0px" y="0px"
	 width="347px" height="64px" viewBox="-324 275 347 64" enable-background="new -324 275 347 64" xml:space="preserve">
<path fill="#003263" d="M12.2,317.9c-1.3,0-2.4,0.9-2.4,2.3s1.1,2.3,2.4,2.3c1.2,0,2.4-0.9,2.4-2.3S13.6,317.9,12.2,317.9
	L12.2,317.9z M12.2,322.3c-1.1,0-2-0.8-2-2s0.8-2,2-2s1.9,0.8,1.9,2S13.4,322.3,12.2,322.3L12.2,322.3z"/>
<path fill="#003263" d="M12.6,320.5c0.4-0.1,0.7-0.2,0.7-0.8c0-0.6-0.3-0.8-0.9-0.8h-1v2.7h0.4v-1.2h0.5l0.8,1.2h0.5L12.6,320.5
	L12.6,320.5z M11.8,320.1v-0.8h0.6c0.3,0,0.6,0.1,0.6,0.4c0,0.4-0.3,0.5-0.7,0.5H11.8L11.8,320.1z"/>
<path fill="#003263" d="M-269.1,295.1c1.2,0,2,0.4,2.7,0.7c1.4,0.7,3,1.4,5.1,2.4c0,0,3.3-2.3,3.5-2.4c1.1-0.8,2.2-0.2,2.5,0.5
	c1.2,2.3,3.5,7.1,4.7,11.5c0.1,0.5,0,1.3-0.8,1.6c-0.5,0.1-1.3,0.2-2.2,0.4c-1.2,0.2-1.1,1.1-1.1,1.7c0,0.8,0,5.5,0,7.2
	c0,1-0.8,4.3-4.6,4.3c-0.2,0-8.7,0-8.7,0c-3.3,0-5.9-2.8-6-5.8c0-2,0-15.6,0-17.1C-274.2,297.1-271.5,295-269.1,295.1L-269.1,295.1z
	"/>
<path fill="#003263" d="M-282.9,322.8h-28.4v3.2h33.3c0,0,1.2-2.8,1.2-5.9c0-0.2,0-21.4,0-21.4c0-1.7,0.7-4.5,4.1-5.4
	c0.1,0,0.2-0.1,0.3-0.1c9.9-2.3,20-0.2,25.7,2.3c1,0.5,1.2-0.4,1.2-0.7c0.1-4.8-3.6-10.3-10.3-10.6c-5.4-0.1-8.5,2-9.6,2.4
	c-0.1,0.1-0.2,0-0.4-0.1c-1-0.9-3.2-2.4-5.6-3.2c-0.4-0.1-0.4-0.7,0-0.7c5.2-0.6,9.8,0.1,11.6,0.4c0.5,0.1,0.8-0.2,0.6-0.6
	c-0.1-0.3-0.2-0.5-0.5-0.9c-0.5-0.9-1.7-2.1-3.2-2.4c-4-1.1-11-2.2-17.2-2.2c-6.9-0.1-14.3,1.3-16.1,1.8c-0.5,0.1-1.1,0.2-1.2,0.3
	c-0.5,0.1-0.7,0.6-0.4,0.8c0.1,0.2,0.5,0.5,0.7,0.7c0.2,0.3,0.4,0.7-0.1,1.1l-12.8,11.5h8.8h0.1c0.6,0,1.1,0.5,1.1,1.1
	c0,0.6-0.5,1.1-1.1,1.1h-0.1h-11.5l-3.5,3.2h14.9h0.1c0.6,0,1,0.7,1,1.1s-0.5,1.1-1,1.1h-0.1h-17.5l-3.4,3.2h30.2h0.1
	c0.6,0,1,0.7,1.1,1.1c0,0.7-0.4,1.1-1,1.1h-0.1H-322v3.2h30.2h0.1c0.7,0,1.1,0.7,1.1,1.2c0,0.5-0.5,1.1-1.1,1.1h-0.1H-322v3.2h39.4
	h0.1c0.7,0,1.1,0.6,1,1.2c0,0.5-0.5,1.1-1,1.1h-0.1h-28.7v3.2h28.4h0.7c0.5,0,0.9,0.7,0.9,1.2c0,0.6-0.5,1.1-1,1.1h-0.6V322.8z"/>
<path fill="#003263" d="M-300.8,333.7v3.3c0,0,4.3,0,6.7,0c6-0.1,10-3.3,10-3.3H-300.8L-300.8,333.7z"/>
<path fill="#003263" d="M-300.8,328.3v3.2h19.2c0.9-0.9,2-2.5,2.3-3.2H-300.8L-300.8,328.3z"/>
<path fill="#003263" d="M10.4,308.7c0-0.1,0-0.1,0-0.2c-0.1-2.4-0.9-4.6-2.1-6.4c-2.4-3.8-6.6-5.8-11.6-5.7c-5.1-0.1-9.2,2-11.6,5.7
	c-1.1,1.7-2,3.8-2.1,6.4c0,0.1,0,0.1,0,0.2c-0.8,8.2,4,13.9,12.2,14.6c0.5,0.1,0.9,0.1,1.4,0.1s0.9,0,1.4-0.1
	C6.2,322.7,11,317,10.4,308.7L10.4,308.7z M-2.8,319.4c-0.2,0-0.5,0-0.7,0.1c-0.2,0-0.4,0-0.7-0.1c-1.2-0.1-2.2-0.5-3-1.2
	c-0.2-0.2-0.5-0.5-0.8-0.7c-1.2-1.4-2-3.8-2.2-5.7c-0.4-4.5,0.5-11,6-11.4c0.1,0,0.3,0,0.4,0h0.1h0.1c0.1,0,0.3,0,0.4,0
	c5.5,0.5,6.4,6.9,6,11.4c-0.2,1.9-0.8,4.3-2.2,5.7c-0.2,0.3-0.5,0.5-0.8,0.7C-0.6,318.9-1.6,319.3-2.8,319.4L-2.8,319.4z"/>
<path fill="#003263" d="M-44,302.6c0-2.1,0.2-5.6,0.2-5.6l0,0h-6.7l0,0c0,0,0.2,3.6,0.2,5.6v14.6c0,2.1-0.2,5.5-0.2,5.5l0,0h6.7l0,0
	c0,0-0.2-3.5-0.2-5.5V302.6L-44,302.6z"/>
<path fill="#003263" d="M-83.2,318.8c-1.4,0-3.3,0-4.6,0c-0.1-2.5-0.1-5.1-0.1-7.4V311l0,0v-0.1h7.7v-3.7h-7.7
	c0-3.9,0.1-6.5,0.1-6.5h9.6v-3.8c-6.7,0-16.4,0-16.4,0s0.1,3.6,0.1,5.6v14.6c0,1.9-0.1,5.1-0.1,5.5h17.1v-4
	C-77.6,318.7-81,318.8-83.2,318.8L-83.2,318.8z"/>
<path fill="#003263" d="M-195,318.8c-1.4,0-3.3,0-4.7,0c-0.1-2.5-0.1-5.1-0.1-7.4V311l0,0v-0.1h7.7v-3.7h-7.7c0-3.9,0.1-6.5,0.1-6.5
	h9.6v-3.8c-6.7,0-16.4,0-16.4,0s0.1,3.6,0.1,5.6v14.6c0,1.9-0.1,5.1-0.1,5.5h17.1v-4C-189.3,318.7-192.7,318.8-195,318.8L-195,318.8
	z"/>
<path fill="#003263" d="M-61.2,308.9l7.4-11.9h-5.2l-0.1,0.1c-1.5,2.7-3.5,5.9-4.2,7.1l-0.3,0.5l-4.3-7.7h-7.7l7.4,13.3l-7.7,12.4
	h5.1c3.3-5.6,5-8.3,5-8.3l4.6,8.3h7.7L-61.2,308.9L-61.2,308.9z"/>
<path fill="#003263" d="M-23.1,319.3c-5.9,0-9.2-4.4-9-9.8c0.2-4.7,2.3-8.7,7.4-9c2-0.1,3.6,0.2,6.3,0.9l-0.3-4c0,0-2.3-0.8-5.6-0.8
	c-4.2-0.2-8.2,0.7-11.2,3.5c-2.7,2.5-4.3,6.2-4.3,9.9c0,4,1.7,7.7,4.7,10.1c3.2,2.7,6.7,3.3,10.7,3.3c2.7,0,4.2-0.2,6.9-0.9
	l-0.4-3.9C-18.5,318.7-20.4,319.3-23.1,319.3L-23.1,319.3z"/>
<path fill="#003263" d="M-109.2,293.2h7.5l0.2,1.7c1.7,17.2,2.7,27.9,2.7,27.9h-7.8l-0.8-10.6l-0.7-9.6l-6.6,20.2
	c-1.7,0-4.1,0-4.1,0s-2.1-7.1-2.4-8.2l-3.8-12.1c0,0-0.6,6.8-0.8,9.6c-0.5,5.8-0.8,10.8-0.8,10.8h-5.8c0,0,2.4-24.1,2.5-25.5
	c0.2-1.5,0.5-4,0.5-4h7.6l6.3,17.4L-109.2,293.2L-109.2,293.2z"/>
<path fill="#003263" d="M-135.6,308.7c0-0.1,0-0.1,0-0.2c-0.1-2.4-0.9-4.6-2.1-6.4c-2.4-3.8-6.6-5.7-11.5-5.6
	c-5.1-0.1-9.2,2-11.5,5.6c-1.1,1.7-2,3.8-2.1,6.4c0,0.1,0,0.1,0,0.2c-0.7,8.2,4,13.9,12.2,14.6c0.5,0.1,0.9,0.1,1.4,0.1
	s0.9,0,1.4-0.1C-139.8,322.6-135,317-135.6,308.7L-135.6,308.7z M-148.7,319.4c-0.2,0-0.4,0-0.7,0.1c-0.2,0-0.4,0-0.7-0.1
	c-1.2-0.1-2.2-0.5-3-1.2c-0.2-0.2-0.5-0.5-0.8-0.7c-1.2-1.4-2-3.8-2.1-5.7c-0.4-4.4,0.5-10.9,5.9-11.4c0.1,0,0.3,0,0.4,0h0.1h0.1
	c0.1,0,0.3,0,0.4,0c5.4,0.4,6.4,6.9,5.9,11.3c-0.2,1.9-0.8,4.2-2.2,5.7c-0.2,0.2-0.5,0.5-0.8,0.7
	C-146.6,318.9-147.6,319.3-148.7,319.4L-148.7,319.4z"/>
<path fill="#003263" d="M-208,322.8c-0.2-0.5-1.6-3.8-2.6-6.4l-8.7-23.2h-6.9c0,0-2,5.4-2.3,6.4l-6.4,17.9c-0.8,2.3-2,5.4-2,5.4h5.5
	c0,0,1.5-5,1.9-5.9l0.8-2.5h9.6l1.3,3.8c0.3,0.7,1.4,4.5,1.4,4.6L-208,322.8L-208,322.8z M-227,310.1l3.2-9.6l0.2-0.6l3.4,10.1H-227
	L-227,310.1z"/>
<path fill="#003263" d="M-162.7,322.8c-1.6-2.3-2.2-3.3-3.5-4.9l-4.6-7.2c2.3-1.1,4.3-2.9,4.6-6.9c0.2-2.4-1.1-4.4-1.9-5.1
	c-1.1-0.9-2.2-1.4-3.8-1.6c-1.2-0.2-2.2-0.2-2.8-0.2h-10.9c0,0,0.1,3.6,0.1,5.6v14.6c0,2.1-0.1,5.6-0.1,5.6h6.7c0,0-0.2-3.6-0.2-5.6
	l0.1-4.7c0,0,1.4,0,2.4,0l4.2,7.8c0.6,0.9,1.4,2.3,1.6,2.5H-162.7L-162.7,322.8z M-174.5,308.5c-0.9,0.5-3.3,0.4-4.3,0.3l0.1-7.4
	l0.7-0.1c2.1-0.2,3.6,0.1,4.1,0.4c0.9,0.4,1.5,1.2,1.5,2.7C-172.4,306.6-173.3,307.8-174.5,308.5L-174.5,308.5z"/>
<path fill="#E11F26" d="M-131.9,336.2c0,0,11.7-9.6,41.3-9.6c22.3,0,35.7,7.1,61.8,7.1c23.5,0,39.2-8.1,39.2-8.1
	S-3.3,336.4-31,336.4s-36.4-7.2-63.7-7.2C-122,329.1-131.9,336.2-131.9,336.2z"/>
</svg>
