<?xml version="1.0" encoding="utf-8"?>
<!-- Generator: Adobe Illustrator 21.0.2, SVG Export Plug-In . SVG Version: 6.00 Build 0)  -->
<svg version="1.1" id="Layer_1" xmlns="http://www.w3.org/2000/svg" xmlns:xlink="http://www.w3.org/1999/xlink" x="0px" y="0px"
	 width="489.2px" height="64px" viewBox="0 0 489.2 64" enable-background="new 0 0 489.2 64" xml:space="preserve">
<path fill="#D9272E" d="M39.6,45.1c0-2,1-2.4,3-1.3c3.5,2,7.2,4,7.2,4c0.1-1.1,1.1-2.1,3.2-1.6c2,0.5,4.2,1,4.2,1s-1.2-2.7-1.7-3.8
	c-1-2.2,0-3.2,0.9-3.5c0,0-1.3-0.9-2.2-1.5c-1.9-1.3-1.5-2.6,0.4-3.4c2.5-1.1,5.7-2.5,5.7-2.5c-1-0.6-2.2-2.2-0.9-4.1
	s3.2-4.5,3.2-4.5s-3.4,0-5.7,0c-2.1,0-2.6-1.7-2.5-2.9c0,0-3.4,2.4-5.8,4c-2,1.4-3.9,0-3.6-2.3c0.5-3.7,0.9-7.7,0.9-7.7
	c-1.3,0.8-3.4,0.8-4.3-1.2c-1.4-3-3-6.6-3-6.6s-1.6,3.5-3,6.6c-0.9,2.1-3.1,2.1-4.3,1.2c0,0,0.4,4,0.9,7.7c0.3,2.3-1.5,3.7-3.5,2.3
	c-2.4-1.6-5.8-4-5.8-4c0,1.2-0.5,2.8-2.5,2.9c-2.3,0-5.7,0-5.7,0s1.9,2.6,3.2,4.5s0.1,3.5-0.9,4.1c0,0,3.1,1.4,5.6,2.5
	c1.8,0.8,2.3,2.1,0.4,3.4c-0.9,0.6-2.2,1.5-2.2,1.5c1,0.3,1.9,1.3,0.9,3.5c-0.5,1.2-1.7,3.8-1.7,3.8s2.2-0.5,4.2-1
	c2.1-0.5,3.1,0.5,3.2,1.6c0,0,3.7-2,7.2-4c1.9-1.1,2.9-0.7,2.9,1.3V50c0,2.8-0.5,6-1.6,7.6C22.2,56.1,11.1,45.3,11,31.1
	C11,16.4,23.3,4.5,38.4,4.5s27.4,11.9,27.4,26.6c0,13.7-10.7,25-24.3,26.4v3.6c16.1-1.5,28.6-14.4,28.6-30
	c0-16.7-14.2-30.2-31.7-30.2C20.9,0.9,6.8,14.4,6.8,31.1c0,14.7,11,26.9,25.6,29.6c2.5,0.5,4,0.8,5.3,2.4c1.6-2.9,1.9-8.9,1.9-12.3
	C39.6,50.8,39.6,45.1,39.6,45.1z"/>
<path fill="#2E2A25" d="M167.5,47.2V15h15.7c8.4,0,12.1,3.5,12.4,8c0.1,2-0.4,4.1-1.8,5.7c-1.4,1.6-2.1,2.2-4.7,3.4L201,47.2h-8.8
	l-10.5-13.3h-7.1v13.3H167.5z M174.6,29.6h3.2c8.7,0,10.5-1.4,10.5-5.7c0-4.2-3.8-4.8-9.5-4.8h-4.2V29.6z"/>
<path fill="#2E2A25" d="M96.8,47.2L110.9,15h8.6l14,32.2h-8.7l-3.8-8.6h-15l-3.8,8.6C102.2,47.2,96.8,47.2,96.8,47.2z M107.9,34.3
	h11.2l-5.5-12.8L107.9,34.3z"/>
<rect x="143.4" y="15" fill="#2E2A25" width="7.6" height="32.2"/>
<g>
	<path fill="#2E2A25" d="M255,46.1c-3.6,1.4-8.1,2.1-13.3,2.1c-6.4,0-11.4-1.5-14.9-4.6c-3.6-3-5.3-7.2-5.3-12.6
		c0-5.5,1.8-9.7,5.4-12.6c3.6-3,8.7-4.4,15.4-4.4c4.2,0,8.5,0.4,12.7,1.3v5.3c-4.8-1.4-9.2-2.1-12.4-2.1c-4.1,0-7.3,1.1-9.5,3.2
		c-2.2,2.2-3.4,5.2-3.4,9.3c0,3.9,1.2,7,3.6,9.2c2.4,2.2,5.7,3.3,10,3.3c3.8,0,8.1-0.8,11.9-2.4v5H255z"/>
</g>
<path fill="#2E2A25" d="M264.3,47.2L278.4,15h8.6l13.9,32.2h-8.7l-3.8-8.6h-14.9l-3.8,8.6C269.7,47.2,264.3,47.2,264.3,47.2z
	 M275.4,34.3h11.2L281,21.5L275.4,34.3z"/>
<path fill="#2E2A25" d="M357.4,47.2L371.5,15h8.6L394,47.2h-8.7l-3.7-8.6h-14.9l-3.8,8.6C362.9,47.2,357.4,47.2,357.4,47.2z
	 M368.5,34.3h11.2l-5.6-12.8L368.5,34.3z"/>
<path fill="#2E2A25" d="M462.5,21.5l5.6,12.8h-11.2L462.5,21.5z M459.9,15l-14.1,32.2h5.5l3.8-8.6H470l3.7,8.6h8.8l-14-32.2H459.9z"
	/>
<polygon fill="#2E2A25" points="311.6,47.2 311.6,15 320.3,15 340.5,38 340.5,15 346.6,15 346.6,47.2 338.7,47.2 317.7,23.1 
	317.7,47.2 "/>
<g>
	<path fill="#2E2A25" d="M404.7,47.2V15h15.6c5.6,0,9.9,1.4,12.9,4c3,2.7,4.5,6.5,4.4,11.5c0,5.3-1.6,9.4-4.8,12.4
		c-3.2,2.9-7.6,4.4-13.3,4.4h-14.8V47.2z M412.2,42.6h5.6c3.9,0,6.9-1,8.8-2.9c2-1.9,2.9-4.9,2.9-8.9c0-3.1-0.8-5.6-2.3-7.7
		c-1.1-1.4-2.3-2.4-3.9-2.9c-1.5-0.5-3.7-0.8-6.6-0.8h-4.6v23.2H412.2z"/>
</g>
</svg>
