<?xml version="1.0" encoding="utf-8"?>
<!-- Generator: Adobe Illustrator 19.1.0, SVG Export Plug-In . SVG Version: 6.00 Build 0)  -->
<svg version="1.1" id="Calque_1" xmlns="http://www.w3.org/2000/svg" xmlns:xlink="http://www.w3.org/1999/xlink" x="0px" y="0px"
	 width="742.5px" height="64px" viewBox="-132 275 742.5 64" enable-background="new -132 275 742.5 64" xml:space="preserve">
<g>
	<g>
		<path fill="#ED1C24" d="M529,277l-31.3,45.3c-4.1,6-10.8,11.7-18.8,12.4v1.3h34.8c9.3,0,15.9-6,20.5-12.7l32-46.3H529L529,277z"/>
	</g>
	
		<linearGradient id="SVGID_1_" gradientUnits="userSpaceOnUse" x1="354.4531" y1="1441.1003" x2="354.4531" y2="1500.0691" gradientTransform="matrix(1 0 0 1 168 -1164.1003)">
		<stop  offset="0" style="stop-color:#ED1C24"/>
		<stop  offset="0.3352" style="stop-color:#ED1C24"/>
		<stop  offset="0.4812" style="stop-color:#EA1C24"/>
		<stop  offset="0.5922" style="stop-color:#E21B22"/>
		<stop  offset="0.6915" style="stop-color:#D81921"/>
		<stop  offset="0.7841" style="stop-color:#C6161C"/>
		<stop  offset="0.8719" style="stop-color:#B01116"/>
		<stop  offset="0.9551" style="stop-color:#96080B"/>
		<stop  offset="1" style="stop-color:#870102"/>
	</linearGradient>
	<path fill="url(#SVGID_1_)" d="M529,277l-31.3,45.3c-4.1,6-10.8,11.7-18.8,12.4v1.3h34.8c9.3,0,15.9-6,20.5-12.7l32-46.3H529
		L529,277z"/>
	<g>
		<path fill="#002157" d="M-47,336v-54h15.7v53.9L-47,336L-47,336z M316.1,336l-37.9-32v32h-13.3v-54h11.2l37.3,31.6V282h13.3v53.9
			L316.1,336L316.1,336z M398.3,299.4c-7.1-3.5-15.1-6.4-25.7-6.4c-12.7,0-22.1,6.5-22.1,15.7c0,9.3,9.7,15.9,22,15.9
			c10.2,0,18.3-2.6,26.4-7.1v13.4c-7,3.5-16.5,6.1-27.1,6.1c-21.7,0-38.5-11.1-38.5-28.1c0-17,17.3-27.8,38.5-27.8
			c9.9,0,19.1,1.9,26.5,4.9L398.3,299.4L398.3,299.4z M56.4,336v-54H109v11.5H72v13.4h36.1v11.5H72v17.3L56.4,336L56.4,336z
			 M407.8,336v-54h54.7v11.5h-38.9v9.3h38.2v11.5h-38.2v9.9h38.7v11.5L407.8,336L407.8,336z M163.6,315.6l21.8,20.3h-16.7
			c-3.8,0-6.3-1.2-8.1-3.1l-14.7-14.3c-0.3-0.3-0.7-0.4-1.3-0.4h-10.1v17.9h-15.7v-54.2h34.1c17.6,0,25.1,8,25.1,16.7
			C177.9,309,168.7,313.9,163.6,315.6L163.6,315.6L163.6,315.6z M151.2,306.7c6.3,0,9.3-3.2,9.3-6.8s-2.6-6.5-9.3-6.5h-16.7v13.3
			L151.2,306.7L151.2,306.7z M28.5,315.6L50.3,336H33.4c-3.8,0-6.3-1.2-8.1-3.1l-14.7-14.3c-0.3-0.3-0.7-0.4-1.3-0.4H-0.8v17.9
			h-15.7v-54.2h34.1c17.6,0,25.1,8,25.1,16.7C42.7,309,33.5,313.9,28.5,315.6L28.5,315.6L28.5,315.6z M16.1,306.7
			c6.3,0,9.3-3.2,9.3-6.8s-2.6-6.5-9.3-6.5H-0.8v13.3L16.1,306.7L16.1,306.7z M-71.6,336l-6.9-11.8h-30.1l-6.3,11.8H-130l30-53.9
			h13.7l33.9,53.9H-71.6L-71.6,336z M-102.6,312.8h17.5l-9.2-16.5L-102.6,312.8L-102.6,312.8z M242.7,336l-6.8-11.8h-29.3l-6.1,11.8
			h-14.6l29.2-53.9h13.3l33.2,53.9H242.7L242.7,336z M212.5,312.8h17.2l-8.9-16.5L212.5,312.8L212.5,312.8z"/>
	</g>
</g>
</svg>
