<?xml version="1.0" encoding="utf-8"?>
<!-- Generator: Adobe Illustrator 22.0.1, SVG Export Plug-In . SVG Version: 6.00 Build 0)  -->
<svg version="1.1" id="Layer_1" xmlns="http://www.w3.org/2000/svg" xmlns:xlink="http://www.w3.org/1999/xlink" x="0px" y="0px"
	 width="278px" height="64px" viewBox="0 0 278 64" style="enable-background:new 0 0 278 64;" xml:space="preserve">
<style type="text/css">
	.st0_ALITALIA{fill:url(#SVGID_1_ALITALIA);}
	.st1_ALITALIA{fill:#B31F26;}
	.st2_ALITALIA{fill:#9A1C20;}
</style>
<g>
	
		<radialGradient id="SVGID_1_ALITALIA" cx="-115.6146" cy="432.5737" r="42.3919" fx="-115.1203" fy="432.1458" gradientTransform="matrix(3.06 0 0 -3.06 500.58 1339.83)" gradientUnits="userSpaceOnUse">
		<stop  offset="0" style="stop-color:#74B24F"/>
		<stop  offset="0.329" style="stop-color:#457E3D"/>
		<stop  offset="0.626" style="stop-color:#235E2F"/>
		<stop  offset="0.859" style="stop-color:#094C27"/>
		<stop  offset="1" style="stop-color:#004523"/>
	</radialGradient>
	<path class="st0_ALITALIA" d="M20,63.3H0L52.4,8.7c6-6.5,10.5-8.2,17.2-8.2h18.7l-8.9,62.8H64l7.6-53.9L20,63.3z M105.9,16.3H92.5l-6.7,47.2
		h13.4L105.9,16.3z M176.9,46.6l-1.2,9.2h-6.5c-1.7,0-2.7-0.4-3.4-0.9c-0.7-0.5-1.2-1.4-1.2-2.7c0-2.7,1.7-4.9,5.1-5.5
		c0.7-0.2,2.2-0.2,3.1-0.2H176.9L176.9,46.6z M186.5,26.8c-2.2-0.9-5.1-1.2-8.9-1.2h-15.1l-4.7,7.8h16.7c3.3,0,4,0.9,4,2.7
		c0,0.5,0,1.2-0.2,2c0,0.2,0,0.5-0.2,1.1h-6.9c-7.1,0-11.6,0.9-15.2,4.5c-2,2-3.6,5.6-3.6,10.1c0,3.4,1.4,6.2,4.1,7.8
		c1.8,1.1,4.9,1.8,9.4,1.8h22.2l3.1-22.1c0.4-2,0.5-4,0.5-6.7C191.7,31.6,190.2,28.5,186.5,26.8L186.5,26.8z M257.5,46.6l-1.2,9.2
		h-6.5c-1.7,0-2.7-0.4-3.4-0.9c-0.7-0.5-1.2-1.4-1.2-2.7c0-2.7,1.7-4.9,5.1-5.5c0.7-0.2,2.2-0.2,3.1-0.2H257.5L257.5,46.6z
		 M266.9,26.8c-2.2-0.9-5.1-1.2-8.9-1.2h-18.3l-1.1,7.8h16.1c3.3,0,4,0.9,4,2.7c0,0.5,0,1.2-0.2,2c0,0.2,0,0.5-0.2,1.1h-6.9
		c-7.1,0-11.6,0.9-15.2,4.5c-2,2-3.6,5.6-3.6,10.1c0,3.4,1.4,6.2,4.1,7.8c1.8,1.1,4.9,1.8,9.4,1.8h22.2l3.1-22.1
		c0.4-2,0.5-4,0.5-6.7C272.2,31.6,270.8,28.5,266.9,26.8L266.9,26.8z M143.2,33.2h9.1l4.7-7.8h-12.9l1.2-9.2H132l-4.9,35
		c-0.4,2-0.4,3.4-0.4,4.3c0,1.4,0.2,2.2,0.4,2.9c0.9,3.4,3.6,4.7,7.6,4.7h12.9l1.1-7.8h-5.3c-2.2,0-3.1-0.7-3.1-2.2
		c0-0.5,0-1.1,0.2-1.8L143.2,33.2L143.2,33.2z M125.9,16.3h-13.4l-0.9,6.5H125L125.9,16.3z M111.2,25.6l-5.5,37.7h13.4l5.3-37.9
		h-13.2L111.2,25.6L111.2,25.6z M214.2,16.3h-13.4l-6.7,47h13.4L214.2,16.3L214.2,16.3z M233.9,16.3h-13.4l-0.9,6.5H233L233.9,16.3z
		 M219.3,25.6L214,63.3h13.4l5.3-37.9h-13.4V25.6z"/>
	<path class="st1_ALITALIA" d="M57.8,63.3l5.1-36.1L28.1,63.3"/>
	<path class="st2_ALITALIA" d="M32.1,59.1h26.1l0.2-1.8H34L32.1,59.1L32.1,59.1z M61.1,29h1.4l0.2-1.8L61.1,29z M28.1,63.3h29.8l0.2-1.8H29.8
		L28.1,63.3z M36.3,54.7h22.6l0.2-1.8H38L36.3,54.7z M52.7,37.5h8.5l0.2-1.8h-7.1L52.7,37.5z M48.8,41.9h12.1l0.2-1.8H50.6
		L48.8,41.9z M40.4,50.4h19l0.2-1.8H42.1L40.4,50.4L40.4,50.4z M57,33.3h5.1l0.2-1.8h-3.4L57,33.3z M44.6,46.2h15.6l0.2-1.8H46.2
		L44.6,46.2z"/>
</g>
</svg>
