<?xml version="1.0" encoding="utf-8"?>
<!-- Generator: Adobe Illustrator 19.1.0, SVG Export Plug-In . SVG Version: 6.00 Build 0)  -->
<svg version="1.1"
	 id="svg2" xmlns:cc="http://creativecommons.org/ns#" xmlns:dc="http://purl.org/dc/elements/1.1/" xmlns:inkscape="http://www.inkscape.org/namespaces/inkscape" xmlns:sodipodi="http://sodipodi.sourceforge.net/DTD/sodipodi-0.dtd" xmlns:svg="http://www.w3.org/2000/svg" xmlns:rdf="http://www.w3.org/1999/02/22-rdf-syntax-ns#" sodipodi:docname="app_store_badge2.svg" inkscape:version="0.48.0 r9654"
	 xmlns="http://www.w3.org/2000/svg" xmlns:xlink="http://www.w3.org/1999/xlink" x="0px" y="0px" width="195.7px" height="64px"
	 viewBox="-405 275 195.7 64" enable-background="new -405 275 195.7 64" xml:space="preserve">
<sodipodi:namedview  pagecolor="#ffffff" inkscape:cx="158.34005" inkscape:cy="115.90266" inkscape:zoom="1.4059272" gridtolerance="10" guidetolerance="10" bordercolor="#666666" showgrid="false" borderopacity="1" id="namedview105" objecttolerance="10" inkscape:current-layer="svg2" inkscape:window-maximized="0" inkscape:window-y="87" inkscape:window-x="747" inkscape:window-height="862" inkscape:window-width="1144" inkscape:pageshadow="2" inkscape:pageopacity="0">
	</sodipodi:namedview>
<path id="path6" d="M-219.3,328.9c0,4.5-3.7,8.1-8.1,8.1h-167.5c-4.5,0-8.1-3.7-8.1-8.1v-43.8c0-4.5,3.7-8.1,8.1-8.1h167.5
	c4.5,0,8.1,3.7,8.1,8.1V328.9L-219.3,328.9z"/>
<g id="g3447" transform="matrix(4.5575069,0,0,4.5575069,-19.224881,-4.506577)">
	<g id="g3449">
		<path id="path3451" inkscape:connector-curvature="0" fill="#FFFFFF" d="M-74.9,68.5c0-1.1,0.9-1.7,1-1.8
			c-0.6-0.8-1.4-0.9-1.7-0.9c-0.8-0.1-1.4,0.5-1.8,0.5s-0.9-0.4-1.5-0.4c-0.8,0-1.5,0.5-1.9,1.1c-0.8,1.4-0.2,3.5,0.6,4.6
			c0.4,0.6,0.8,1.2,1.4,1.1c0.6,0,0.8-0.4,1.5-0.4c0.7,0,0.9,0.4,1.5,0.4c0.7,0,1-0.6,1.4-1.1c0.5-0.7,0.7-1.3,0.7-1.3
			C-73.7,70.4-74.9,69.9-74.9,68.5L-74.9,68.5z"/>
		<path id="path3453" inkscape:connector-curvature="0" fill="#FFFFFF" d="M-76.1,65.1c0.3-0.4,0.6-0.9,0.5-1.5
			c-0.5,0-1,0.3-1.3,0.7c-0.3,0.4-0.6,0.9-0.5,1.4C-76.9,65.8-76.4,65.5-76.1,65.1L-76.1,65.1z"/>
	</g>
</g>
<g id="g3455" transform="matrix(3.8274018,0,0,3.8274018,-9.6973212,-7.8135619)">
	<path id="path3457" inkscape:connector-curvature="0" fill="#FFFFFF" d="M-84.4,85h-0.8l-0.5-1.4h-1.6l-0.5,1.4h-0.8l1.5-4.8h0.9
		L-84.4,85L-84.4,85z M-85.8,83l-0.4-1.2c0-0.1-0.1-0.5-0.3-0.9l0,0c-0.1,0.2-0.1,0.5-0.2,0.9L-87,83H-85.8L-85.8,83z"/>
	<path id="path3459" inkscape:connector-curvature="0" fill="#FFFFFF" d="M-80.5,83.2c0,0.6-0.2,1-0.5,1.4c-0.3,0.3-0.7,0.5-1,0.5
		c-0.5,0-0.8-0.2-0.9-0.5l0,0v1.8h-0.8v-3.8c0-0.4,0-0.8,0-1.1h0.7v0.6l0,0c0.3-0.4,0.7-0.7,1.1-0.7c0.4,0,0.8,0.2,1,0.5
		C-80.5,82.2-80.5,82.7-80.5,83.2L-80.5,83.2z M-81.2,83.3c0-0.4-0.1-0.7-0.2-0.8c-0.2-0.2-0.4-0.4-0.7-0.4c-0.2,0-0.4,0.1-0.5,0.2
		c-0.2,0.1-0.3,0.3-0.3,0.5c0,0.1,0,0.2,0,0.2v0.6c0,0.3,0.1,0.5,0.2,0.7c0.2,0.2,0.4,0.3,0.6,0.3c0.3,0,0.5-0.1,0.7-0.4
		C-81.3,83.9-81.2,83.6-81.2,83.3L-81.2,83.3z"/>
	<path id="path3461" inkscape:connector-curvature="0" fill="#FFFFFF" d="M-76.5,83.2c0,0.6-0.2,1-0.5,1.4c-0.3,0.3-0.7,0.5-1,0.5
		c-0.5,0-0.8-0.2-0.9-0.5l0,0v1.8h-0.8v-3.8c0-0.4,0-0.8,0-1.1h0.7v0.6l0,0c0.3-0.4,0.7-0.7,1.1-0.7c0.4,0,0.8,0.2,1,0.5
		C-76.6,82.2-76.5,82.7-76.5,83.2L-76.5,83.2z M-77.3,83.3c0-0.4-0.1-0.7-0.2-0.8c-0.2-0.2-0.4-0.4-0.7-0.4c-0.2,0-0.4,0.1-0.5,0.2
		c-0.2,0.1-0.3,0.3-0.3,0.5c0,0.1,0,0.2,0,0.2v0.6c0,0.3,0.1,0.5,0.2,0.7c0.2,0.2,0.4,0.3,0.6,0.3c0.3,0,0.5-0.1,0.7-0.4
		C-77.4,83.9-77.3,83.6-77.3,83.3L-77.3,83.3z"/>
	<path id="path3463" inkscape:connector-curvature="0" fill="#FFFFFF" d="M-72.1,83.7c0,0.4-0.2,0.8-0.5,1c-0.3,0.3-0.8,0.4-1.3,0.4
		c-0.5,0-0.9-0.1-1.2-0.3l0.2-0.7c0.4,0.2,0.8,0.3,1.1,0.3c0.3,0,0.5-0.1,0.7-0.2c0.2-0.1,0.3-0.3,0.3-0.6c0-0.2-0.1-0.4-0.2-0.5
		c-0.1-0.1-0.4-0.3-0.7-0.4c-0.8-0.3-1.2-0.8-1.2-1.4c0-0.4,0.2-0.8,0.5-0.9c0.3-0.3,0.7-0.4,1.1-0.4s0.8,0.1,1.1,0.2l-0.2,0.7
		c-0.3-0.2-0.6-0.2-0.9-0.2c-0.3,0-0.5,0.1-0.7,0.2c-0.1,0.1-0.2,0.3-0.2,0.5c0,0.2,0.1,0.4,0.2,0.5c0.1,0.1,0.4,0.3,0.7,0.4
		c0.4,0.2,0.8,0.4,0.9,0.6C-72.2,83-72.1,83.3-72.1,83.7L-72.1,83.7z"/>
	<path id="path3465" inkscape:connector-curvature="0" fill="#FFFFFF" d="M-69.6,82.1h-0.8v1.7c0,0.5,0.2,0.7,0.5,0.7
		c0.1,0,0.3,0,0.4,0v0.6c-0.2,0.1-0.4,0.1-0.6,0.1c-0.3,0-0.6-0.1-0.8-0.3s-0.3-0.5-0.3-0.9v-1.8h-0.5v-0.6h0.5v-0.7l0.8-0.2v0.8
		h0.8L-69.6,82.1L-69.6,82.1z"/>
	<path id="path3467" inkscape:connector-curvature="0" fill="#FFFFFF" d="M-65.7,83.2c0,0.6-0.2,0.9-0.5,1.3s-0.8,0.6-1.2,0.6
		c-0.5,0-0.9-0.2-1.2-0.5c-0.3-0.4-0.5-0.8-0.5-1.3c0-0.6,0.2-0.9,0.5-1.3c0.3-0.4,0.8-0.5,1.2-0.5c0.5,0,0.9,0.2,1.2,0.5
		C-65.9,82.2-65.7,82.7-65.7,83.2L-65.7,83.2z M-66.6,83.3c0-0.3-0.1-0.6-0.2-0.8c-0.2-0.3-0.4-0.4-0.7-0.4s-0.6,0.1-0.7,0.4
		c-0.1,0.2-0.2,0.5-0.2,0.8c0,0.3,0.1,0.6,0.2,0.8c0.2,0.3,0.4,0.4,0.7,0.4s0.6-0.1,0.7-0.4C-66.6,83.8-66.6,83.6-66.6,83.3
		L-66.6,83.3z"/>
	<path id="path3469" inkscape:connector-curvature="0" fill="#FFFFFF" d="M-63.3,82.2c-0.1,0-0.2,0-0.3,0c-0.3,0-0.5,0.1-0.7,0.3
		c-0.1,0.2-0.2,0.4-0.2,0.7V85h-0.8v-2.3c0-0.4,0-0.8,0-1.1h0.7v0.7l0,0c0.1-0.2,0.2-0.4,0.4-0.6c0.2-0.1,0.4-0.2,0.6-0.2
		c0.1,0,0.1,0,0.2,0L-63.3,82.2L-63.3,82.2z"/>
	<path id="path3471" inkscape:connector-curvature="0" fill="#FFFFFF" d="M-59.8,83.1c0,0.1,0,0.3,0,0.4H-62c0,0.4,0.1,0.6,0.4,0.8
		c0.2,0.2,0.5,0.3,0.8,0.3c0.4,0,0.7-0.1,0.9-0.2l0.1,0.6c-0.3,0.2-0.8,0.2-1.1,0.2c-0.6,0-0.9-0.2-1.2-0.5s-0.5-0.8-0.5-1.2
		c0-0.6,0.2-0.9,0.5-1.3c0.3-0.4,0.7-0.6,1.2-0.6c0.5,0,0.8,0.2,1.1,0.6C-59.9,82.3-59.8,82.6-59.8,83.1L-59.8,83.1z M-60.5,82.9
		c0-0.2,0-0.5-0.2-0.6c-0.1-0.2-0.4-0.3-0.6-0.3c-0.3,0-0.5,0.1-0.6,0.3c-0.1,0.2-0.2,0.4-0.2,0.6H-60.5L-60.5,82.9z"/>
</g>
<g id="g3473" transform="matrix(2.1467581,0,0,2.1467581,61.549532,19.205041)">
	<g id="g3475">
		<path id="path3477" inkscape:connector-curvature="0" fill="#FFFFFF" d="M-188.5,126.9c0,0.5-0.1,0.8-0.4,0.9
			c-0.2,0.2-0.6,0.3-1,0.3c-0.2,0-0.4,0-0.6,0v-2.3c0.2,0,0.4-0.1,0.7-0.1c0.4,0,0.8,0.1,0.9,0.3
			C-188.6,126.2-188.5,126.5-188.5,126.9L-188.5,126.9z M-188.9,126.9c0-0.3-0.1-0.5-0.2-0.7c-0.2-0.2-0.4-0.2-0.7-0.2
			c-0.1,0-0.2,0-0.3,0v1.8c0,0,0.1,0,0.3,0c0.3,0,0.5-0.1,0.7-0.3C-188.9,127.3-188.9,127.2-188.9,126.9L-188.9,126.9z"/>
		<path id="path3479" inkscape:connector-curvature="0" fill="#FFFFFF" d="M-186.4,127.3c0,0.3-0.1,0.5-0.2,0.7
			c-0.2,0.2-0.4,0.3-0.7,0.3c-0.3,0-0.5-0.1-0.6-0.3c-0.2-0.2-0.2-0.4-0.2-0.7c0-0.3,0.1-0.5,0.2-0.7c0.2-0.2,0.4-0.3,0.7-0.3
			c0.3,0,0.5,0.1,0.6,0.3C-186.4,126.8-186.4,127-186.4,127.3z M-186.8,127.3c0-0.2,0-0.3-0.1-0.4c-0.1-0.1-0.2-0.2-0.4-0.2
			c-0.2,0-0.3,0.1-0.4,0.2c-0.1,0.1-0.1,0.3-0.1,0.4c0,0.2,0,0.3,0.1,0.4c0.1,0.1,0.2,0.2,0.4,0.2c0.2,0,0.3-0.1,0.4-0.2
			C-186.8,127.5-186.8,127.4-186.8,127.3L-186.8,127.3z"/>
		<path id="path3481" inkscape:connector-curvature="0" fill="#FFFFFF" d="M-183.5,126.4l-0.6,1.7h-0.4l-0.2-0.8
			c-0.1-0.2-0.1-0.4-0.1-0.6l0,0c0,0.2-0.1,0.4-0.1,0.6l-0.2,0.8h-0.4l-0.5-1.7h0.4l0.2,0.8c0,0.2,0.1,0.4,0.1,0.6l0,0
			c0-0.2,0.1-0.3,0.1-0.6l0.3-0.8h0.3l0.2,0.8c0.1,0.2,0.1,0.4,0.1,0.6l0,0c0-0.2,0.1-0.4,0.1-0.6l0.2-0.8H-183.5L-183.5,126.4z"/>
		<path id="path3483" inkscape:connector-curvature="0" fill="#FFFFFF" d="M-181.7,128.1h-0.4v-0.9c0-0.3-0.1-0.5-0.4-0.5
			c-0.1,0-0.2,0-0.3,0.1c-0.1,0.1-0.1,0.2-0.1,0.3v1h-0.4v-1.2c0-0.2,0-0.3,0-0.5h0.4v0.3l0,0c0-0.1,0.1-0.2,0.2-0.2
			c0.1-0.1,0.2-0.1,0.4-0.1c0.2,0,0.3,0.1,0.4,0.2s0.2,0.3,0.2,0.6L-181.7,128.1L-181.7,128.1z"/>
		<path id="path3485" inkscape:connector-curvature="0" fill="#FFFFFF" d="M-180.6,128.1h-0.4v-2.4h0.4V128.1L-180.6,128.1z"/>
		<path id="path3487" inkscape:connector-curvature="0" fill="#FFFFFF" d="M-178.4,127.3c0,0.3-0.1,0.5-0.2,0.7
			c-0.2,0.2-0.4,0.3-0.7,0.3c-0.3,0-0.5-0.1-0.6-0.3c-0.2-0.2-0.2-0.4-0.2-0.7c0-0.3,0.1-0.5,0.2-0.7c0.2-0.2,0.4-0.3,0.7-0.3
			c0.3,0,0.5,0.1,0.6,0.3C-178.5,126.8-178.4,127-178.4,127.3z M-178.7,127.3c0-0.2,0-0.3-0.1-0.4s-0.2-0.2-0.4-0.2
			c-0.2,0-0.3,0.1-0.4,0.2s-0.1,0.3-0.1,0.4c0,0.2,0,0.3,0.1,0.4s0.2,0.2,0.4,0.2c0.2,0,0.3-0.1,0.4-0.2S-178.7,127.4-178.7,127.3
			L-178.7,127.3z"/>
		<path id="path3489" inkscape:connector-curvature="0" fill="#FFFFFF" d="M-176.6,128.1h-0.4v-0.2l0,0c-0.1,0.2-0.3,0.2-0.5,0.2
			c-0.2,0-0.3-0.1-0.4-0.2c-0.1-0.1-0.1-0.2-0.1-0.4c0-0.2,0.1-0.4,0.3-0.5c0.2-0.1,0.4-0.2,0.8-0.2l0,0c0-0.2-0.1-0.4-0.4-0.4
			c-0.2,0-0.3,0-0.5,0.1l-0.1-0.3c0.2-0.1,0.4-0.2,0.6-0.2c0.5,0,0.7,0.2,0.7,0.7v0.7C-176.6,127.8-176.6,128-176.6,128.1
			L-176.6,128.1z M-177,127.5v-0.3c-0.4,0-0.7,0.1-0.7,0.4c0,0.1,0,0.2,0.1,0.2c0.1,0,0.1,0.1,0.2,0.1s0.2,0,0.2-0.1
			C-177,127.7-177,127.6-177,127.5L-177,127.5L-177,127.5z"/>
		<path id="path3491" inkscape:connector-curvature="0" fill="#FFFFFF" d="M-174.4,128.1h-0.4v-0.3l0,0c-0.1,0.2-0.3,0.3-0.6,0.3
			c-0.2,0-0.4-0.1-0.5-0.3c-0.1-0.2-0.2-0.4-0.2-0.7c0-0.3,0.1-0.5,0.2-0.7c0.2-0.2,0.3-0.3,0.6-0.3c0.2,0,0.4,0.1,0.5,0.2l0,0v-0.9
			h0.4v2C-174.4,127.8-174.4,127.9-174.4,128.1L-174.4,128.1z M-174.8,127.3v-0.3c0-0.1,0-0.1,0-0.1c0-0.1-0.1-0.2-0.1-0.2
			c-0.1-0.1-0.2-0.1-0.3-0.1c-0.1,0-0.3,0.1-0.4,0.2s-0.1,0.3-0.1,0.5s0,0.3,0.1,0.4s0.2,0.2,0.4,0.2c0.1,0,0.2,0,0.3-0.1
			C-174.8,127.6-174.8,127.5-174.8,127.3L-174.8,127.3z"/>
		<path id="path3493" inkscape:connector-curvature="0" fill="#FFFFFF" d="M-171.1,127.3c0,0.3-0.1,0.5-0.2,0.7
			c-0.2,0.2-0.4,0.3-0.7,0.3c-0.3,0-0.5-0.1-0.6-0.3c-0.2-0.2-0.2-0.4-0.2-0.7c0-0.3,0.1-0.5,0.2-0.7c0.2-0.2,0.4-0.3,0.7-0.3
			c0.3,0,0.5,0.1,0.6,0.3C-171.2,126.8-171.1,127-171.1,127.3z M-171.6,127.3c0-0.2,0-0.3-0.1-0.4s-0.2-0.2-0.4-0.2
			c-0.2,0-0.3,0.1-0.4,0.2s-0.1,0.3-0.1,0.4c0,0.2,0,0.3,0.1,0.4s0.2,0.2,0.4,0.2c0.2,0,0.3-0.1,0.4-0.2S-171.6,127.4-171.6,127.3
			L-171.6,127.3z"/>
		<path id="path3495" inkscape:connector-curvature="0" fill="#FFFFFF" d="M-169.2,128.1h-0.4v-0.9c0-0.3-0.1-0.5-0.4-0.5
			c-0.1,0-0.2,0-0.3,0.1c-0.1,0.1-0.1,0.2-0.1,0.3v1h-0.4v-1.2c0-0.2,0-0.3,0-0.5h0.4v0.3l0,0c0-0.1,0.1-0.2,0.2-0.2
			c0.1-0.1,0.2-0.1,0.4-0.1c0.2,0,0.3,0.1,0.4,0.2s0.2,0.3,0.2,0.6L-169.2,128.1L-169.2,128.1z"/>
		<path id="path3497" inkscape:connector-curvature="0" fill="#FFFFFF" d="M-166.6,126.7h-0.4v0.8c0,0.2,0.1,0.3,0.2,0.3
			s0.1,0,0.2,0v0.3c-0.1,0-0.2,0-0.3,0c-0.2,0-0.3,0-0.4-0.1s-0.1-0.3-0.1-0.5v-0.8h-0.3v-0.3h0.3v-0.3l0.4-0.1v0.4h0.4
			L-166.6,126.7L-166.6,126.7z"/>
		<path id="path3499" inkscape:connector-curvature="0" fill="#FFFFFF" d="M-164.7,128.1h-0.4v-0.9c0-0.3-0.1-0.5-0.4-0.5
			c-0.2,0-0.3,0.1-0.4,0.3v0.1v1h-0.4v-2.4h0.4v1l0,0c0.1-0.2,0.3-0.3,0.5-0.3c0.2,0,0.3,0.1,0.4,0.2s0.2,0.3,0.2,0.6L-164.7,128.1
			L-164.7,128.1z"/>
		<path id="path3501" inkscape:connector-curvature="0" fill="#FFFFFF" d="M-162.6,127.2c0,0.1,0,0.1,0,0.2h-1.1
			c0,0.2,0.1,0.3,0.2,0.4c0.1,0.1,0.2,0.1,0.4,0.1c0.2,0,0.3,0,0.5-0.1l0.1,0.3c-0.2,0.1-0.4,0.1-0.6,0.1c-0.3,0-0.5-0.1-0.7-0.2
			c-0.2-0.2-0.2-0.4-0.2-0.7c0-0.3,0.1-0.5,0.2-0.7c0.2-0.2,0.4-0.3,0.6-0.3c0.3,0,0.5,0.1,0.6,0.3
			C-162.6,126.8-162.6,127-162.6,127.2L-162.6,127.2z M-163,127.1c0-0.1,0-0.2-0.1-0.3c-0.1-0.1-0.2-0.2-0.3-0.2
			c-0.1,0-0.2,0.1-0.3,0.2c-0.1,0.1-0.1,0.2-0.1,0.3H-163L-163,127.1z"/>
	</g>
</g>
</svg>
