<?xml version="1.0" encoding="utf-8"?>
<!-- Generator: Adobe Illustrator 16.0.2, SVG Export Plug-In . SVG Version: 6.00 Build 0)  -->
<!DOCTYPE svg PUBLIC "-//W3C//DTD SVG 1.1//EN" "http://www.w3.org/Graphics/SVG/1.1/DTD/svg11.dtd">
<svg version="1.1" id="Layer_1" xmlns="http://www.w3.org/2000/svg" xmlns:xlink="http://www.w3.org/1999/xlink" x="0px" y="0px"
	 width="18.75px" height="17px" viewBox="21 0 18.75 17" enable-background="new 21 0 18.75 17" xml:space="preserve">
<g>
	<polygon id="path-1" fill="#FFFFFF" points="-4.575,5.097 0.145,5.097 0.145,11.203 -4.575,11.203 	"/>
</g>
<title>Group 2</title>
<desc>Created with Sketch.</desc>
<g id="_x5B_M_x5D_-Ingresso-rapido">
	<g id="_x32__x2F_1--dropdown1_x2F_completo" transform="translate(-80.000000, -65.000000)">
		<g id="Group-2" transform="translate(80.000000, 65.000000)">
			<g id="Page-1-Copy-11" transform="translate(5.000000, 3.000000)">
				<path id="Fill-1" fill="#FDFEFE" d="M21.174,2.918h-0.009c0,0.384,0.001,0.765,0,1.147c0,0.063,0,0.099,0.085,0.099
					c0.684-0.005,1.368,0.01,2.053-0.009c0.563-0.017,0.994-0.276,1.244-0.792c0.163-0.333,0.2-0.687,0.163-1.05
					c-0.071-0.714-0.544-1.202-1.261-1.281c-0.503-0.056-1.014-0.037-1.514-0.013c-0.484,0.022-0.739,0.294-0.76,0.772
					C21.16,2.169,21.174,2.544,21.174,2.918 M21.174,8.309c-0.004,0-0.007,0-0.009,0v1.205c0,0.25,0,0.252,0.257,0.25
					c0.743-0.01,1.489,0.036,2.232-0.016c0.676-0.048,1.177-0.376,1.428-1.027c0.076-0.195,0.109-0.4,0.122-0.611
					c0.021-0.395-0.038-0.773-0.243-1.115c-0.332-0.559-0.859-0.775-1.482-0.792C22.984,6.189,22.492,6.2,21.998,6.2
					c-0.498,0-0.801,0.266-0.82,0.759C21.16,7.405,21.174,7.857,21.174,8.309 M25.872,5.052c0.093,0.049,0.169,0.098,0.251,0.139
					c0.924,0.478,1.469,1.241,1.654,2.245c0.171,0.914,0.056,1.793-0.419,2.607c-0.474,0.813-1.202,1.314-2.078,1.629
					c-0.687,0.236-1.392,0.321-2.115,0.321c-1.479-0.004-2.961-0.004-4.44,0c-0.104,0.001-0.131-0.026-0.131-0.128
					c0.004-3.869,0.004-7.737,0.004-11.606c0-0.787,0.617-1.398,1.416-1.401c1.059,0,2.121-0.001,3.178,0
					c0.787,0.003,1.556,0.119,2.268,0.467c1.25,0.611,1.875,1.616,1.866,2.997c-0.009,1.02-0.401,1.869-1.205,2.521
					C26.043,4.904,25.965,4.973,25.872,5.052"/>
				<path id="Fill-3" fill="#009FDB" d="M29.151,10.559c0-0.879,0.717-1.589,1.603-1.584c0.885,0,1.604,0.713,1.604,1.588
					c-0.005,0.879-0.724,1.584-1.622,1.58C29.857,12.143,29.151,11.436,29.151,10.559"/>
			</g>
		</g>
	</g>
</g>
</svg>
