<?xml version="1.0" encoding="utf-8"?>
<!-- Generator: Adobe Illustrator 16.0.2, SVG Export Plug-In . SVG Version: 6.00 Build 0)  -->
<!DOCTYPE svg PUBLIC "-//W3C//DTD SVG 1.1//EN" "http://www.w3.org/Graphics/SVG/1.1/DTD/svg11.dtd">
<svg version="1.1" id="Layer_1" xmlns="http://www.w3.org/2000/svg" xmlns:xlink="http://www.w3.org/1999/xlink" x="0px" y="0px"
	 width="52px" height="17px" viewBox="-6.167 0 52 17" enable-background="new -6.167 0 52 17" xml:space="preserve">
<title>Group 2</title>
<desc>Created with Sketch.</desc>
<g id="_x5B_M_x5D_-Ingresso-rapido">
	<g id="_x32__x2F_1--dropdown1_x2F_completo" transform="translate(-80.000000, -65.000000)">
		<g id="Group-2" transform="translate(80.000000, 65.000000)">
			<g id="Page-1-Copy-11" transform="translate(5.000000, 3.000000)">
				<path id="Fill-1" fill="#FDFEFE" d="M28.056,2.918h-0.008c0,0.384,0.001,0.765,0,1.147c0,0.063,0,0.099,0.085,0.099
					c0.684-0.005,1.368,0.01,2.052-0.009c0.563-0.017,0.994-0.276,1.245-0.792c0.163-0.333,0.2-0.687,0.163-1.05
					c-0.071-0.714-0.544-1.202-1.261-1.281c-0.503-0.056-1.013-0.037-1.514-0.013c-0.484,0.022-0.739,0.294-0.76,0.772
					C28.043,2.169,28.056,2.544,28.056,2.918 M28.056,8.308c-0.003,0-0.006,0-0.008,0v1.206c0,0.249,0,0.251,0.256,0.249
					c0.744-0.009,1.49,0.037,2.233-0.015c0.676-0.048,1.177-0.376,1.428-1.027c0.076-0.195,0.109-0.401,0.122-0.612
					c0.02-0.394-0.038-0.773-0.243-1.115c-0.332-0.558-0.859-0.775-1.483-0.792c-0.494-0.012-0.986-0.002-1.48-0.002
					c-0.498,0-0.801,0.266-0.82,0.759C28.043,7.405,28.056,7.857,28.056,8.308 M32.755,5.052c0.093,0.049,0.169,0.098,0.251,0.139
					c0.924,0.478,1.468,1.24,1.654,2.244c0.171,0.914,0.056,1.793-0.419,2.608c-0.474,0.813-1.202,1.315-2.078,1.629
					c-0.687,0.236-1.391,0.321-2.115,0.321c-1.48-0.004-2.961-0.004-4.441,0c-0.104,0.001-0.131-0.026-0.131-0.128
					c0.004-3.869,0.004-7.737,0.004-11.606c0-0.787,0.618-1.398,1.417-1.401c1.058,0,2.12-0.001,3.177,0
					c0.787,0.003,1.556,0.119,2.268,0.467c1.25,0.611,1.875,1.616,1.866,2.997c-0.009,1.02-0.402,1.869-1.205,2.521
					C32.926,4.904,32.848,4.973,32.755,5.052"/>
				<path id="Fill-3" fill="#009FDB" d="M36.034,10.559c0-0.88,0.717-1.589,1.602-1.585c0.886,0,1.605,0.714,1.605,1.589
					c-0.004,0.879-0.723,1.583-1.622,1.58C36.74,12.143,36.034,11.436,36.034,10.559"/>
				<g id="Group-7" transform="translate(0.000000, 2.138512)">
					<g id="Clip-6" display="none">
					</g>
					<defs>
						<filter id="Adobe_OpacityMaskFilter" filterUnits="userSpaceOnUse" x="-9.575" y="-0.042" width="4.72" height="6.105">
							<feColorMatrix  type="matrix" values="1 0 0 0 0  0 1 0 0 0  0 0 1 0 0  0 0 0 1 0"/>
						</filter>
					</defs>
					<mask maskUnits="userSpaceOnUse" x="-9.575" y="-0.042" width="4.72" height="6.105" id="mask-2">
						<g filter="url(#Adobe_OpacityMaskFilter)">
							<polygon id="path-1" fill="#FFFFFF" points="-9.575,-0.042 -4.855,-0.042 -4.855,6.064 -9.575,6.064 							"/>
						</g>
					</mask>
					<path id="Fill-5" fill="#FFFFFF" d="M-7.125,2.87c0.475,0,0.829-0.098,1.061-0.292
						c0.235-0.194,0.351-0.489,0.351-0.886c0-0.389-0.116-0.678-0.346-0.865C-6.292,0.64-6.646,0.543-7.125,0.543h-1.748V2.87
						H-7.125z M-4.855,5.774c0,0.084-0.032,0.155-0.098,0.208c-0.067,0.055-0.144,0.082-0.232,0.082
						c-0.133,0-0.237-0.056-0.311-0.171l-1.16-1.822c-0.15-0.233-0.307-0.395-0.469-0.483c-0.161-0.088-0.38-0.134-0.657-0.134
						h-1.091v2.242c0,0.107-0.031,0.194-0.095,0.263C-9.032,6.023-9.116,6.057-9.22,6.057c-0.109,0-0.197-0.034-0.26-0.099
						C-9.544,5.89-9.575,5.803-9.575,5.695V0.302c0-0.103,0.032-0.186,0.099-0.249c0.065-0.062,0.154-0.095,0.264-0.095h2.148
						c0.664,0,1.17,0.146,1.52,0.438c0.347,0.293,0.524,0.723,0.524,1.289c0,0.481-0.141,0.866-0.421,1.16
						c-0.278,0.291-0.68,0.469-1.198,0.532c0.144,0.046,0.274,0.12,0.39,0.223s0.23,0.246,0.346,0.429l0.987,1.546
						C-4.876,5.638-4.855,5.704-4.855,5.774z"/>
				</g>
				<path id="Fill-8" fill="#FFFFFF" d="M-2.877,4.751C-3.1,4.98-3.23,5.304-3.271,5.722h2.451c-0.012-0.424-0.119-0.749-0.32-0.976
					c-0.203-0.225-0.485-0.339-0.848-0.339C-2.358,4.407-2.655,4.522-2.877,4.751 M-0.311,7.257
					c0.047,0.052,0.069,0.119,0.069,0.199c0,0.144-0.101,0.275-0.303,0.396C-0.752,7.97-0.973,8.061-1.203,8.12
					c-0.229,0.061-0.454,0.09-0.673,0.09c-0.654,0-1.168-0.19-1.546-0.574C-3.799,7.252-3.99,6.722-3.99,6.047
					c0-0.43,0.084-0.808,0.25-1.138c0.169-0.328,0.404-0.586,0.708-0.769c0.304-0.185,0.649-0.275,1.035-0.275
					c0.548,0,0.985,0.178,1.308,0.532c0.323,0.354,0.484,0.836,0.484,1.443c0,0.114-0.023,0.196-0.067,0.248
					c-0.048,0.052-0.122,0.079-0.228,0.079h-2.787c0.051,0.983,0.522,1.477,1.412,1.477c0.225,0,0.418-0.031,0.58-0.089
					c0.162-0.062,0.333-0.143,0.519-0.247c0.15-0.086,0.25-0.129,0.303-0.129C-0.411,7.18-0.355,7.207-0.311,7.257"/>
				<path id="Fill-10" fill="#FFFFFF" d="M4.116,3.892c0.087,0,0.164,0.028,0.233,0.086s0.104,0.129,0.104,0.215
					c0,0.053-0.013,0.098-0.034,0.139L2.73,7.937C2.696,8.01,2.643,8.07,2.575,8.111C2.505,8.154,2.43,8.176,2.35,8.176
					c-0.076,0-0.148-0.021-0.216-0.064C2.063,8.07,2.009,8.01,1.967,7.937L0.289,4.331C0.265,4.29,0.253,4.247,0.253,4.201
					c0-0.086,0.039-0.159,0.117-0.224c0.079-0.063,0.165-0.095,0.256-0.095c0.058,0,0.113,0.019,0.168,0.052
					C0.849,3.97,0.891,4.017,0.92,4.081l1.446,3.221l1.447-3.203C3.876,3.962,3.977,3.892,4.116,3.892"/>
				<path id="Fill-12" fill="#FFFFFF" d="M5.324,8.103c-0.066-0.06-0.1-0.145-0.1-0.251V4.227c0-0.109,0.033-0.192,0.1-0.253
					c0.064-0.061,0.151-0.091,0.254-0.091c0.104,0,0.186,0.03,0.25,0.091s0.095,0.144,0.095,0.253v3.625
					c0,0.112-0.031,0.2-0.095,0.257s-0.146,0.088-0.25,0.088C5.475,8.196,5.389,8.164,5.324,8.103 M5.241,2.862
					c-0.085-0.082-0.13-0.186-0.13-0.317c0-0.126,0.043-0.23,0.13-0.31c0.087-0.08,0.199-0.12,0.338-0.12s0.25,0.04,0.337,0.12
					c0.087,0.079,0.13,0.184,0.13,0.31c0,0.132-0.042,0.237-0.13,0.317C5.829,2.94,5.718,2.983,5.579,2.983S5.328,2.94,5.241,2.862"
					/>
				<path id="Fill-14" fill="#FFFFFF" d="M8.096,4.751C7.874,4.98,7.741,5.304,7.702,5.722h2.451
					c-0.013-0.424-0.119-0.749-0.32-0.976C9.631,4.521,9.346,4.407,8.985,4.407C8.613,4.407,8.316,4.522,8.096,4.751 M10.662,7.257
					c0.046,0.052,0.069,0.119,0.069,0.199c0,0.144-0.1,0.275-0.304,0.396C10.219,7.97,10,8.061,9.769,8.12
					c-0.23,0.061-0.457,0.093-0.675,0.093c-0.652,0-1.168-0.193-1.546-0.575C7.17,7.254,6.981,6.725,6.981,6.05
					c0-0.431,0.084-0.81,0.251-1.14c0.167-0.328,0.403-0.585,0.707-0.769c0.304-0.183,0.649-0.275,1.035-0.275
					c0.549,0,0.984,0.178,1.307,0.532s0.486,0.837,0.486,1.442c0,0.114-0.023,0.198-0.07,0.251c-0.045,0.05-0.121,0.078-0.225,0.078
					H7.685c0.051,0.983,0.522,1.477,1.41,1.477c0.226,0,0.419-0.031,0.581-0.09c0.161-0.061,0.335-0.143,0.52-0.245
					c0.151-0.086,0.252-0.128,0.303-0.128C10.561,7.18,10.616,7.207,10.662,7.257"/>
				<path id="Fill-16" fill="#FFFFFF" d="M17.799,3.901c0.086,0,0.165,0.027,0.234,0.085c0.065,0.058,0.099,0.129,0.099,0.215
					c0,0.04-0.008,0.083-0.026,0.13l-1.438,3.605c-0.034,0.073-0.087,0.134-0.153,0.175c-0.066,0.043-0.14,0.064-0.22,0.064
					c-0.075,0-0.147-0.021-0.212-0.064c-0.067-0.041-0.118-0.102-0.152-0.175l-1.198-3.014l-1.187,3.014
					c-0.029,0.073-0.079,0.134-0.148,0.175c-0.069,0.043-0.146,0.064-0.226,0.064c-0.075,0-0.147-0.021-0.216-0.064
					c-0.068-0.041-0.121-0.102-0.155-0.175l-1.437-3.598c-0.019-0.046-0.027-0.086-0.027-0.119c0-0.092,0.038-0.17,0.117-0.233
					c0.079-0.062,0.163-0.094,0.254-0.094c0.14,0,0.237,0.069,0.296,0.206l1.185,3.169l1.222-3.144
					c0.033-0.074,0.081-0.132,0.142-0.172c0.061-0.039,0.127-0.061,0.198-0.061c0.075,0,0.142,0.021,0.203,0.061
					c0.061,0.04,0.107,0.098,0.136,0.172l1.22,3.134l1.196-3.151C17.57,3.97,17.665,3.901,17.799,3.901"/>
				<path id="Fill-18" fill="#FFFFFF" d="M19.62,8.117c-0.24-0.063-0.451-0.153-0.637-0.266c-0.104-0.069-0.176-0.135-0.22-0.195
					c-0.043-0.061-0.066-0.132-0.066-0.219c0-0.073,0.023-0.136,0.066-0.185c0.044-0.049,0.1-0.074,0.169-0.074
					s0.17,0.043,0.303,0.129c0.174,0.103,0.345,0.185,0.515,0.244c0.172,0.06,0.382,0.091,0.636,0.091
					c0.315,0,0.556-0.055,0.729-0.162c0.174-0.11,0.26-0.268,0.26-0.475c0-0.124-0.03-0.227-0.095-0.304
					c-0.061-0.077-0.167-0.146-0.328-0.207c-0.151-0.062-0.387-0.121-0.687-0.185c-0.507-0.109-0.871-0.256-1.088-0.438
					c-0.216-0.185-0.333-0.434-0.333-0.748c0-0.244,0.072-0.463,0.212-0.652c0.142-0.189,0.333-0.338,0.578-0.445
					c0.246-0.109,0.523-0.162,0.833-0.162c0.223,0,0.442,0.03,0.651,0.09c0.212,0.059,0.399,0.145,0.56,0.254
					c0.197,0.137,0.293,0.279,0.293,0.429c0,0.074-0.023,0.138-0.069,0.188S21.8,4.901,21.739,4.901
					c-0.068,0-0.172-0.049-0.312-0.146c-0.159-0.102-0.314-0.184-0.46-0.24c-0.144-0.056-0.323-0.085-0.537-0.085
					c-0.272,0-0.49,0.062-0.651,0.181c-0.164,0.121-0.246,0.281-0.246,0.48c0,0.126,0.031,0.229,0.093,0.306
					c0.061,0.076,0.16,0.146,0.302,0.206c0.145,0.06,0.344,0.119,0.609,0.176c0.396,0.085,0.699,0.181,0.913,0.283
					c0.217,0.104,0.371,0.229,0.464,0.377c0.093,0.149,0.139,0.338,0.139,0.566c0,0.361-0.153,0.651-0.461,0.872
					c-0.306,0.22-0.708,0.33-1.212,0.33C20.112,8.21,19.86,8.18,19.62,8.117"/>
			</g>
		</g>
	</g>
</g>
</svg>
