<?xml version="1.0" encoding="utf-8"?>
<!-- Generator: Adobe Illustrator 19.1.0, SVG Export Plug-In . SVG Version: 6.00 Build 0)  -->
<svg version="1.1" id="Layer_1" xmlns="http://www.w3.org/2000/svg" xmlns:xlink="http://www.w3.org/1999/xlink" x="0px" y="0px"
	 width="381.5px" height="64px" viewBox="-312 275 381.5 64" enable-background="new -312 275 381.5 64" xml:space="preserve">
<path fill="#0060A9" d="M45.3,332.7c0-0.8-0.7-0.9-1.2-0.9h-1.6v3.7h0.6v-1.7h0.6l1.1,1.7h0.6l-1.1-1.7
	C44.9,333.6,45.3,333.4,45.3,332.7 M43.5,333.2H43v-0.9h0.9c0.4,0,0.9,0.1,0.9,0.5C44.9,333.2,44,333.2,43.5,333.2"/>
<path fill="#0060A9" d="M43.7,330.3c-1.9,0-3.4,1.4-3.4,3.3s1.5,3.4,3.4,3.4s3.4-1.5,3.4-3.4S45.6,330.3,43.7,330.3 M43.7,336.3
	c-1.5,0-2.8-1.2-2.8-2.8c0-1.6,1.3-2.8,2.8-2.8c1.6,0,2.8,1.2,2.8,2.8C46.5,335.1,45.2,336.3,43.7,336.3"/>
<path fill="#0060A9" d="M15.4,330.6c-3.4-0.9-7.4-1-11.9-0.2c-4.5,0.9-9.3,2.7-13.9,5.2c-0.7,0.4-1.3,0.8-2,1.2H23
	c-0.2-0.3-0.2-0.6-0.4-0.7C21.4,333.4,18.7,331.7,15.4,330.6"/>
<path fill="#0060A9" d="M24.4,327.5c-1.7-3.2-4.8-5.5-8.8-6.6c-4-1.2-9-1.2-14.2-0.2c-5.5,1-11.2,3.2-16.6,6.3
	c-4.1,2.3-7.8,5.1-11,8.1v1.8h11.9c1.4-1.1,2.8-2.2,4.4-3.1c5.6-3.5,11.7-5.9,17.5-6.6c5.6-0.7,10.5,0,13.6,2.2
	c2.4,1.8,3.8,4.3,4.1,7.4h0.5l0.2-1.5C26.1,332.4,25.7,329.9,24.4,327.5"/>
<path fill="#0060A9" d="M-25,310.6c-0.5,0.2-0.9,0.6-1.2,0.7v5.1c12.3-9,25.6-12.1,36.5-12.8C1,301-12.2,303.2-25,310.6"/>
<path fill="#0060A9" d="M15.6,304.7c0.5,0.4,0.9,0.7,1.2,1.2c0,0,2.9,3.1,3.8,5.9l-0.9-1.5c-1.5-2.3-3.6-4.1-6.2-5.4
	c-11.8,0.9-26.9,4.7-39.9,15.4v0.8c3.5-2.7,7.2-5.2,11.1-7.2c4.2-2.2,8.5-3.7,12.6-4.7c4.2-0.9,8.1-1.3,11.7-1
	c6.8,0.6,11.7,3.7,14.2,8.6c0,0,1.9,3.7,2,7.7l-0.6-2.2c-0.3-1.1-0.7-2.2-1.2-3.2c-1.9-3.5-5.2-6-9.8-7.4c-4.5-1.2-9.9-1.3-15.7-0.2
	c-6.1,1.2-12.4,3.6-18.3,7c-2.1,1.2-4.1,2.5-6,3.8v12c2.1-2.2,4.5-4.2,7-6.2c3.7-2.8,8-5.2,12.3-7c8.7-3.7,17.1-4.9,23.3-3.2
	c5.6,1.6,9.1,5.5,9.8,11.3c0,0,0.4,3.7-0.4,7.8h7.9v-31.5C31.6,305.2,24.7,304.2,15.6,304.7"/>
<path fill="#0060A9" d="M-14.6,293.4c-3.7,0.7-7.8,1.9-11.7,3.7v1.5c5.2-2.7,10.4-4.5,15.4-5.6C-12.1,293.1-13.3,293.2-14.6,293.4"
	/>
<path fill="#0060A9" d="M-26.2,277v16c0,0,6.7-2.3,13.9-1.2l-2.8,0.1c-3.5,0.2-7.3,0.9-11,2.3v1.8c5.9-2.7,12.8-4.1,18.7-3.7
	c15-2.5,27,0.6,27,0.6c-2.3-0.4-11.5-1.7-22.8,0c1,0.2,2.7,0.7,4.5,1.8l-1.4-0.6c-1.3-0.6-2.8-0.8-4.5-1c-6.8,1.2-14.3,3.5-21.5,7.7
	v0.9c11-6,22.6-8.1,31.2-5.1c13.6-0.9,23.7,1.8,23.7,1.8c-2.3-0.4-10.4-1.6-20.9-0.6c0.6,0.3,3.1,1.8,4.2,3.4l-0.6-0.6
	c-1.4-1.1-3.1-2-4.9-2.7c-9.9,1.1-21.6,4.1-32.6,11.3v0.8c0.9-0.6,1.9-1.2,2.8-1.8c7.8-4.5,16-7.4,23.1-7.8c5.6-0.4,10.4,0.6,14.1,3
	c11.3-0.2,19.3,2,19.8,2.1v-28.4h-60V277z"/>
<path fill="#0060A9" d="M-26.2,302.7v3.3c9.5-5.7,19.5-8.2,28.2-9.2C-6,295.5-16.3,297.6-26.2,302.7"/>
<path fill="#0060A9" d="M-184.6,290.8h7.5c1.3,2.8,12.1,26.2,12.1,26.2h-6.8l-2.8-6.1h-12.4l-2.7,6.1h-6.9L-184.6,290.8z
	 M-176.8,306l-4.1-9l-4.1,9C-185,306-176.8,306-176.8,306z"/>
<path fill="#0060A9" d="M-95.6,296.7c-4.4,0-6.5,2.3-6.5,2.3l-0.4-1.9h-5.9c0.2,0.7,0.6,2.1,0.6,3.2V317h5.8v-11.6
	c0-3.1,2-4.8,6.3-4.8c2.3,0,3.8,0.8,3.8,4.8V317h5.8v-11.6C-86,299.5-87.9,296.7-95.6,296.7"/>
<path fill="#0060A9" d="M-69.4,296.7c-9.9,0-12.1,4.7-12.1,10.3c0,5.7,2.2,10.4,12.5,10.4c3.7,0,7.4-0.7,8.1-0.9
	c0.2-1,0.6-3.2,0.6-3.9c-0.6,0.1-5.1,0.9-8.8,0.9c-4.9,0-6.2-1.9-6.6-4.4h16.8v-2C-58.9,299.8-62.6,296.7-69.4,296.7 M-75.6,305
	c0.4-2.4,1.5-4.4,6-4.4c3.4,0,4.6,2.2,4.8,4.4H-75.6z"/>
<path fill="#0060A9" d="M-265.8,296.7c-7.3,0-12.1,3.2-12.1,10.3c0,7.2,4.9,10.4,12.1,10.4c7.3,0,12.1-3.2,12.1-10.4
	C-253.7,299.9-258.6,296.7-265.8,296.7 M-265.8,313.4c-4.9,0-6.3-2.3-6.3-6.4c0-3.9,1.4-6.4,6.3-6.4s6.3,2.3,6.3,6.4
	S-261,313.4-265.8,313.4"/>
<path fill="#0060A9" d="M-201.2,303c0-4-4.3-6.4-10.7-6.4c-3.3,0-7.3,1.2-8.7,1.7c-0.2,0.8-0.6,3.5-0.6,4c1.2-0.3,6.3-1.8,9.3-1.8
	c3.2,0,4.9,1.1,4.9,2.7v1.7c0,0-3.9-0.4-5.3-0.4c-6.3,0-10.2,2.3-10.2,6.4c0,5.2,5.8,6.4,8.7,6.4c4,0,6-1,7-2l0.3,1.6h5.8
	c-0.1-0.3-0.6-1.7-0.6-3.6L-201.2,303L-201.2,303z M-206.9,309.4c0,3.7-3.5,4-6.7,4c-1.1,0-2.9-0.2-2.9-2.3c0-1.4,2-2.3,4.3-2.3h5.3
	V309.4L-206.9,309.4z"/>
<path fill="#0060A9" d="M-294.2,290c6.8,0,11,2.2,13.4,5.6l-6.1,2.3c-1.3-1.9-3.6-3.1-7.2-3.1h-0.2c-3.7,0-5.8,1.2-7.1,3
	c-1.2,1.6-1.8,3.6-1.8,5.8v0.4l0,0c0,2.2,0.7,4.2,1.8,5.8c1.3,1.8,3.5,2.9,7.1,3h0.2c3.7,0,5.9-1.2,7.1-3l6.2,2.3
	c-2.3,3.4-6.6,5.4-13.4,5.4l0,0c-6,0-10-1.6-12.4-4.3c-2.2-2.5-3.4-5.8-3.4-9.4v-0.2c0-3.5,1.1-6.7,3.4-9.2
	C-304.1,291.6-300.1,290-294.2,290"/>
<path fill="#0060A9" d="M-125.1,313.8v-23h-5.8v23c0,1.4,0.6,2.8,0.6,3.1h5.8C-124.7,316.6-125.1,315.3-125.1,313.8"/>
<path fill="#0060A9" d="M-144.6,305.4c0-3.1,2.3-4.7,6.3-4.7c0.7,0,3.3,0.4,4.5,0.5c-0.1-0.6-0.5-3-0.7-4c-0.8-0.2-2.7-0.5-3.7-0.5
	c-3.5,0-5.3,1.2-6.4,2.2l-0.6-1.8h-5.8c0.1,0.4,0.6,1.8,0.6,3.1V317h5.8V305.4z"/>
<path fill="#0060A9" d="M-237.3,296.7c-3.7,0-6.5,2.2-6.5,2.2s-0.3-1.2-0.5-1.7h-5.9c0.2,0.7,0.6,2.1,0.6,3.7v22.7h5.8v-8
	c1.2,0.8,3.4,2,6.3,2c9.7,0,11.1-4.6,11.1-10.4C-226.1,301.3-227.5,296.7-237.3,296.7 M-237.3,313.4c-5,0-6.3-2.8-6.3-6.4
	c0.1-3.8,1.3-6.4,6.3-6.4c4.5,0,5.3,2.8,5.3,6.4C-231.9,310.6-232.8,313.4-237.3,313.4"/>
<path fill="#0060A9" d="M-37.9,297.7v4.5c-1.1-0.6-2.3-1-3.6-1.4c-1.2-0.3-2.4-0.5-3.7-0.5c-1.4,0-2.4,0.2-3.1,0.6
	c-0.7,0.4-1,0.8-1,1.5c0,0.9,1.5,1.7,4.5,2.3l0.2,0.1l1.8,0.4c2.2,0.5,3.9,1.2,5,2.2c1,0.9,1.6,2.3,1.6,4c0,2-0.8,3.6-2.3,4.6
	c-1.6,1-4,1.6-7.2,1.6c-1.4,0-2.9-0.1-4.4-0.3c-1.5-0.2-3-0.6-4.5-0.9v-4.6c1.3,0.7,2.7,1.1,4.1,1.5s2.7,0.6,4.1,0.6
	c1.5,0,2.5-0.2,3.3-0.6c0.7-0.4,1.1-0.9,1.1-1.6c0-0.7-0.3-1.2-0.8-1.5c-0.6-0.4-1.8-0.7-3.7-1.1l-1.7-0.3c-2.3-0.5-4.1-1.1-5.2-2.1
	s-1.6-2.2-1.6-3.8c0-2,0.8-3.5,2.4-4.5c1.6-1,3.9-1.6,7-1.6c1.3,0,2.7,0.1,4,0.3C-40.4,297-39.2,297.3-37.9,297.7"/>
<path fill="#0060A9" d="M-113.5,313.8V297h-5.8v16.8c0,1.5,0.6,3,0.6,3.1h5.8C-113.1,316.6-113.5,315.2-113.5,313.8 M-116.4,295.5
	c1.2,0,2.2-0.2,2.6-0.6s0.7-0.9,0.7-1.9s-0.2-1.5-0.7-1.8c-0.5-0.4-1.3-0.6-2.6-0.6c-1.2,0-2.2,0.2-2.6,0.6
	c-0.5,0.4-0.7,0.9-0.7,1.9s0.2,1.5,0.7,1.8C-118.6,295.3-117.7,295.5-116.4,295.5"/>
<path fill="#0060A9" d="M-156.2,313.8V297h-5.8v16.8c0,1.5,0.6,3,0.7,3.1h5.8C-155.7,316.6-156.2,315.2-156.2,313.8 M-159.2,295.5
	c1.2,0,2.2-0.2,2.6-0.6s0.7-0.9,0.7-1.9s-0.2-1.5-0.7-1.8c-0.5-0.4-1.3-0.6-2.6-0.6c-1.2,0-2.2,0.2-2.6,0.6
	c-0.5,0.4-0.7,0.9-0.7,1.9s0.2,1.5,0.7,1.8C-161.3,295.3-160.4,295.5-159.2,295.5"/>
</svg>
