<?xml version="1.0" encoding="utf-8"?>
<!-- Generator: Adobe Illustrator 19.1.0, SVG Export Plug-In . SVG Version: 6.00 Build 0)  -->
<svg version="1.1" id="Layer_1" xmlns="http://www.w3.org/2000/svg" xmlns:xlink="http://www.w3.org/1999/xlink" x="0px" y="0px"
	 width="416.8px" height="64px" viewBox="-295 275 416.8 64" enable-background="new -295 275 416.8 64" xml:space="preserve">
<g>
	<g>
		<path fill="#003D79" d="M-187.8,283.7h-1.6v47.6h19.2c3,0,5.7-0.3,8.2-0.8c2.4-0.6,4.6-1.4,6.4-2.4c1.8-1,3.4-2.5,4.9-4.4
			c1.5-1.9,2.6-4.2,3.7-6.9c0.8-2.7,1.4-6,1.4-9.5c0-4.1-0.7-7.9-2.1-11.2s-3.6-6.1-6.3-8.2c-2.2-1.7-4.8-2.8-7.8-3.6
			c-2.2-0.5-5.1-0.7-9-0.7C-170.8,283.7-187.8,283.7-187.8,283.7z M-171.1,292.1c3.7,0,6.3,0.3,7.8,0.8c2.1,0.8,3.8,2.2,5.2,4.4
			c1.5,2.2,2.2,5.4,2.2,9.8c0,3.1-0.4,5.9-1.2,8c-0.7,2.1-1.9,3.8-3.1,5c-0.8,0.8-2.2,1.5-3.8,2c-1.7,0.5-4.1,0.8-7.1,0.8
			c0,0-6.6,0-8.8,0c0-2.7,0-27.9,0-30.7C-177.5,292.1-171.1,292.1-171.1,292.1z"/>
		<path fill="#003D79" d="M-187.8,329.7v-44.4h16.8c3.8,0,6.7,0.2,8.7,0.6c2.8,0.6,5.2,1.7,7.1,3.2c2.5,2,4.5,4.5,5.7,7.6
			s2,6.7,2,10.6c0,3.4-0.4,6.4-1.3,9s-2,4.8-3.3,6.5c-1.4,1.7-2.8,3-4.4,4c-1.6,1-3.6,1.8-5.9,2.2c-2.2,0.5-4.9,0.8-7.8,0.8
			C-170.2,329.7-187.8,329.7-187.8,329.7z M-181.4,324.4h10.3c3.2,0,5.7-0.3,7.5-0.8c1.9-0.6,3.3-1.3,4.4-2.3
			c1.6-1.4,2.7-3.2,3.7-5.5c0.8-2.3,1.3-5.2,1.3-8.5c0-4.6-0.8-8.2-2.5-10.7c-1.7-2.4-3.8-4.2-6.1-5c-1.7-0.7-4.5-0.9-8.2-0.9h-10.3
			V324.4z"/>
		<path fill="#003D79" d="M-86.7,283.7h-31.5v47.6h34.1v-8.5c0,0-22.3,0-25.1,0c0-2.2,0-9.7,0-11.9c2.7,0,22.4,0,22.4,0v-8.4
			c0,0-19.7,0-22.4,0c0-2.2,0-8.2,0-10.2c2.7,0,24,0,24,0v-8.5H-86.7z"/>
		<path fill="#003D79" d="M-116.6,329.7v-44.4h29.9v5.2h-24V304h22.4v5.2h-22.4v15.2h25.1v5.2C-85.5,329.7-116.6,329.7-116.6,329.7z
			"/>
		<path fill="#003D79" d="M-45.4,283.7h-7.4v47.6H-22v-8.5c0,0-19,0-21.8,0c0-2.9,0-39.2,0-39.2L-45.4,283.7L-45.4,283.7z"/>
		<path fill="#003D79" d="M-51.2,329.7v-44.4h5.9v39.2h21.8v5.2C-23.6,329.7-51.2,329.7-51.2,329.7z"/>
		<path fill="#003D79" d="M31,283.7H-5.7v8.5c0,0,12.1,0,14.6,0c0,2.9,0,39.2,0,39.2H18c0,0,0-36.3,0-39.2c2.5,0,14.6,0,14.6,0v-8.5
			C32.6,283.7,31,283.7,31,283.7z"/>
		<path fill="#003D79" d="M10.6,329.7v-39.2H-4.1v-5.2h35.2v5.2H16.4v39.2H10.6z"/>
		<path fill="#003D79" d="M75.5,283.7h-7.6l-20.2,47.6h9.7c0,0,4.2-11.7,4.8-13.5c1.9,0,18.6,0,20.4,0c0.7,1.8,5.1,13.5,5.1,13.5
			h10.1l-21.2-47.6H75.5z M72.2,295.1c0.7,2.2,1.6,4.6,1.6,4.6s2.7,7.1,3.8,10c-2.7,0-7.8,0-10.6,0c1.2-3,4.1-10.9,4.1-10.9l0,0
			C71.6,297.6,71.8,296.3,72.2,295.1z"/>
		<path fill="#003D79" d="M50,329.7L69,285.2h6.5l20,44.4h-6.7l-5.1-13.5H61.1l-4.8,13.5H50z M64.7,311.3h15.2l-4.6-12.2
			c-1.4-3.8-2.4-6.8-3.1-9.3c-0.6,2.9-1.5,5.7-2.5,8.6L64.7,311.3z"/>
	</g>
	<g>
		<polygon fill="#EF4135" points="-293,329.6 -258.1,277 -258.1,313.9 		"/>
		<polygon fill="#EF4135" points="-258.1,320.9 -258.1,337 -292.9,337 		"/>
		<polygon fill="#AB0634" points="-223.3,329.6 -258.1,277 -258.1,313.9 		"/>
		<polygon fill="#AB0634" points="-258.1,320.9 -258.1,337 -223.4,337 		"/>
		<path fill="#AB0634" d="M-218.2,329.6c1.2,0,2.1-0.9,2.1-2.1c0-1.2-0.9-2.1-2.1-2.1c-1.2,0-2.1,0.9-2.1,2.1
			C-220.2,328.7-219.2,329.6-218.2,329.6L-218.2,329.6z M-218.2,329.2c-0.9,0-1.7-0.8-1.7-1.7s0.8-1.7,1.7-1.7s1.7,0.8,1.7,1.7
			S-217.2,329.2-218.2,329.2L-218.2,329.2z M-217.6,327.7c0.4,0,0.6-0.2,0.6-0.6c0-0.2-0.1-0.5-0.3-0.6s-0.4-0.1-0.6-0.1h-1v2.2h0.4
			v-0.9h0.5l0.5,0.9h0.5L-217.6,327.7L-217.6,327.7z M-218.6,327.3v-0.7h0.6c0.2,0,0.6,0,0.6,0.3s-0.2,0.4-0.4,0.3L-218.6,327.3
			L-218.6,327.3L-218.6,327.3z"/>
	</g>
</g>
</svg>
