<?xml version="1.0" encoding="utf-8"?>
<!-- Generator: Adobe Illustrator 21.0.2, SVG Export Plug-In . SVG Version: 6.00 Build 0)  -->
<svg version="1.1" id="Layer_1" xmlns="http://www.w3.org/2000/svg" xmlns:xlink="http://www.w3.org/1999/xlink" x="0px" y="0px"
	 width="79.6px" height="60px" viewBox="0 0 79.6 60" enable-background="new 0 0 79.6 60" xml:space="preserve">
<rect fill="#D71920" width="79.6" height="60"/>
<g>
	<g>
		<defs>
			<rect id="SVGID_1_" width="79.6" height="60"/>
		</defs>
		<clipPath id="SVGID_2_">
			<use xlink:href="#SVGID_1_"  overflow="visible"/>
		</clipPath>
		<path clip-path="url(#SVGID_2_)" fill="#FFFFFF" d="M43.3,10.5c-0.3,0.3-0.8,1.2-0.8,2.4v7.3c0,0.6-0.2,1.2-0.6,1.5
			c-0.2,0.2-1.4,1.3-1.5,1.3h0.7c0.2-0.2,2.4-2.1,2.6-2.4c0.3-0.3,1-1.2,1-2.5c0-0.3,0-6.7,0-7c0-1.1,0.5-1.6,0.7-1.9
			c0.3-0.3,1.1-1,1.3-1.2H46C45.9,8.2,43.5,10.3,43.3,10.5"/>
	</g>
	<g>
		<defs>
			<rect id="SVGID_3_" width="79.6" height="60"/>
		</defs>
		<clipPath id="SVGID_4_">
			<use xlink:href="#SVGID_3_"  overflow="visible"/>
		</clipPath>
		<path clip-path="url(#SVGID_4_)" fill="#FFFFFF" d="M37.9,37.2l2.7,2.3h1.8c1.8,0,3.5-0.8,4.6-1.9c1.1-1.1,1.5-2.6,1.5-3.9v-3.8
			c0-1.3-0.8-2-1-2.2c-0.1-0.1-0.9-0.8-0.9-0.8v2.9c0,0,0.8,0.9,1,1c0.8,0.8,0.8,2.4-1.7,4.8c-0.4,0.4-1.7,1.6-3.4,1.6L37.9,37.2
			L37.9,37.2z"/>
	</g>
	<g>
		<defs>
			<rect id="SVGID_5_" width="79.6" height="60"/>
		</defs>
		<clipPath id="SVGID_6_">
			<use xlink:href="#SVGID_5_"  overflow="visible"/>
		</clipPath>
		<path clip-path="url(#SVGID_6_)" fill="#FFFFFF" d="M45.3,21.6c-0.3,0.3-0.6,1.1-0.6,1.7v1.4h1.4c0.6,0,1.1-0.4,1.5-0.8
			c0,0,0-1.4,0-1.4s0.4,0.4,0.7,0.8c0.5-0.4,1.7-1.8,2.7-1.8c1.9,0,1.4,2.3,0.7,3.1c-0.2,0.2-1.3,1.3-1.7,1.6
			c-0.9,0.8-2.4,0.4-2.4-1.7c0,0-1.6,1.5-1.9,1.7c-0.2,0.2-1.1,1.1-1.1,1.1v3.8c0,1.8-0.6,2.5-1.1,3c-0.3,0.2-2.2,2-2.6,2.3h-0.7
			c0,0,1.3-1.1,1.5-1.3c0.3-0.3,0.6-0.9,0.6-1.8c0-0.2,0-6,0-6h-9.3c-3.2,0-3.9-3.6-3.9-4.6c0-0.3,0-3.2,0-3.6c0-0.6-0.4-1.6-1-1.9
			h0.9c0.1,0,0.7,0.3,0.7,2.5c0,0,0,2.6,0,2.7c0,1.1,0.9,2.4,2.2,2.4c0.2,0,10.5,0,10.5,0c0-0.3,0.3-1.4,0.8-1.9
			c0.3-0.3,2.6-2.4,2.8-2.6h0.7C46.6,20.3,45.6,21.3,45.3,21.6 M48.7,23.7c0,0,0.8,0.9,1.1,1.1c1,0.8,1.5-0.1,0.8-1.2
			C50.4,23.4,49.8,23,48.7,23.7"/>
	</g>
	<g>
		<defs>
			<rect id="SVGID_7_" width="79.6" height="60"/>
		</defs>
		<clipPath id="SVGID_8_">
			<use xlink:href="#SVGID_7_"  overflow="visible"/>
		</clipPath>
		<path clip-path="url(#SVGID_8_)" fill="#FFFFFF" d="M37.4,30.5c0,0.5-1.6,1.9-1.7,1.9c-0.1-0.5-0.5-1.2-1.7-2.4l1.8-1.8
			C36.9,29.5,37.4,29.8,37.4,30.5"/>
	</g>
	<g>
		<defs>
			<rect id="SVGID_9_" width="79.6" height="60"/>
		</defs>
		<clipPath id="SVGID_10_">
			<use xlink:href="#SVGID_9_"  overflow="visible"/>
		</clipPath>
		<path clip-path="url(#SVGID_10_)" fill="#FFFFFF" d="M40.5,10.1c0.4,0.4,1.1,1.3,0.7,1.8c-0.4,0.4-1,1.1-1,1.1
			c0-0.2-0.6-0.8-0.6-0.8s0,1.7,0,1.9c0,0.8-0.3,1-0.3,1s1.4,1.4,1.4,3.3c0,0.9,0,1.7,0,1.9c0,0.4-0.1,0.7-0.3,1
			c-0.1,0.1-1.5,1.5-1.7,1.7c-0.4,0.4-0.8,0.4-1.1,0.4h-4.9c-0.8,0-1.6-0.6-1.6-1.2c0-0.2,0-1.8,0-1.8c0.2,0.3,0.5,0.6,1.1,0.6
			c0.5,0,1-0.4,1.2-0.5s3.8-3.9,3.8-3.9s-1.7-1.6-2.8-2.3c-0.5-0.4-1.3,0.1-1.4,0.6c-0.3,1.5,0,3.7,0,3.7s-1.1-1.1-1.4-1.4
			c-0.6-0.6-0.5-1.8,0.1-2.5c0.1-0.1,1.1-1.2,2.3-1.2h2c1.4,0,2.8,1.3,2.8,1.3s0.3-0.2,0.3-0.5c0-0.7,0-2.5,0-2.5
			c-1-1-1.2-2-0.7-2.5c0.9-0.9,1.2-1.2,1.2-1.2S39.5,9.1,40.5,10.1 M34.3,20c-0.5,0.5-0.6,0.6-1,0.9h5.6c1.5,0,1.2-0.9,0.9-1.4
			c-0.5-1-2.3-2.8-2.3-2.8S34.4,19.9,34.3,20"/>
	</g>
	<g>
		<defs>
			<rect id="SVGID_11_" width="79.6" height="60"/>
		</defs>
		<clipPath id="SVGID_12_">
			<use xlink:href="#SVGID_11_"  overflow="visible"/>
		</clipPath>
		<path clip-path="url(#SVGID_12_)" fill="#FFFFFF" d="M28,25.1h-0.9c0,0,1,0.5,1,1.9v4.5c0,2.9,2.4,5.6,5.3,5.6h2.4
			c1.5,0,2-0.4,2.8-1.1c0.4-0.3,0.8-0.8,0.9-0.9c0.5-0.6,1-1,1-2.5V31c0-1.3-0.7-1.8-1.1-2.1c-0.2-0.2-0.9-0.8-0.9-0.8v3
			c0,0,0.6,0.6,0.9,0.9c1.3,1,0.2,2.7-0.9,2.7c-0.2,0-5,0-5.3,0c-2.1,0-4.6-1.7-4.6-4.6v-2.4C28.7,25.1,28,25.1,28,25.1"/>
	</g>
	<g>
		<defs>
			<rect id="SVGID_13_" width="79.6" height="60"/>
		</defs>
		<clipPath id="SVGID_14_">
			<use xlink:href="#SVGID_13_"  overflow="visible"/>
		</clipPath>
		<path clip-path="url(#SVGID_14_)" fill="#FFFFFF" d="M33.8,30.6c0,0.5-1.6,1.9-1.7,1.9c-0.1-0.5-0.5-1.2-1.7-2.4l1.8-1.8
			C33.3,29.6,33.8,29.8,33.8,30.6"/>
	</g>
	<g>
		<defs>
			<rect id="SVGID_15_" width="79.6" height="60"/>
		</defs>
		<clipPath id="SVGID_16_">
			<use xlink:href="#SVGID_15_"  overflow="visible"/>
		</clipPath>
		<path clip-path="url(#SVGID_16_)" fill="#FFFFFF" d="M15.2,50.3c-0.3,0-2.5,0-2.9,0c-0.9,0-0.8-0.8-0.9-1.4v-4.1c0,0,0.6,0,1.3,0
			c0.8,0,1.8-0.1,2.7,0.4c0,0-0.7-1.7-2.7-1.7h-1.3v-0.8v-0.5c0,0,0-1.2-0.3-1.5c0,0,1.7,0,1.9,0c1.6,0,2.9,0,4.2,0.8
			c0,0-0.2-2.1-3.4-2.1H7.7c0,0,1,0.8,1,2.8l0,7.4c0,1.9,0.7,1.9,0.7,1.9h2.1h1h3c1.4,0,1.9-1,1.9-1.5l0-0.7
			C17.4,49.4,17,50.3,15.2,50.3"/>
	</g>
	<g>
		<defs>
			<rect id="SVGID_17_" width="79.6" height="60"/>
		</defs>
		<clipPath id="SVGID_18_">
			<use xlink:href="#SVGID_17_"  overflow="visible"/>
		</clipPath>
		<path clip-path="url(#SVGID_18_)" fill="#FFFFFF" d="M31.3,49.7v-5.2c0-2-1.6-2.6-2.9-2.6c-1.6,0-2.1,1.4-2.3,1.8
			c-0.4-1.3-1.6-1.8-2.7-1.8c-1.9,0-2.5,1.9-2.5,1.9s0-1.8-1.6-1.8h-1.5c0,0,0.9,0.4,0.9,1.9v5.8c0,1.9,0.8,1.9,0.8,1.9H22
			c-0.1,0-1-0.7-1-2v-5.1c0-0.2,0.4-1,1.5-1c0.6,0,1.3,0.6,1.3,1.4v4.8c0,1.9,0.8,1.9,0.8,1.9h2.5c0,0-1-0.7-1-2v-5.1
			c0.1-0.3,0.4-1,1.4-1c0.8,0,1.4,0.6,1.4,1.4c0,0,0,4.3,0,4.8c0,1.9,0.8,1.9,0.8,1.9c1.3,0,2.6,0,2.6,0S31.3,51,31.3,49.7"/>
	</g>
	<g>
		<defs>
			<rect id="SVGID_19_" width="79.6" height="60"/>
		</defs>
		<clipPath id="SVGID_20_">
			<use xlink:href="#SVGID_19_"  overflow="visible"/>
		</clipPath>
		<path clip-path="url(#SVGID_20_)" fill="#FFFFFF" d="M35.8,49.7c0,1.3,1,1.9,1,1.9s-1.2,0-2.6,0c0,0-0.8,0-0.8-1.9v0v-5.8
			c0-1.5-0.9-1.9-0.9-1.9H34c0.6,0,1.7,0,1.7,2.2L35.8,49.7L35.8,49.7z"/>
	</g>
	<g>
		<defs>
			<rect id="SVGID_21_" width="79.6" height="60"/>
		</defs>
		<clipPath id="SVGID_22_">
			<use xlink:href="#SVGID_21_"  overflow="visible"/>
		</clipPath>
		<path clip-path="url(#SVGID_22_)" fill="#FFFFFF" d="M43.7,42.7c0,0-0.3-0.7-1.3-0.7c-1.6,0-2,1.9-2,1.9c-0.1-1.5-0.6-1.9-1.7-1.9
			h-1.5c0,0,0.9,0.4,0.9,1.9v5.8c0,1.9,0.7,1.9,0.7,1.9h2.6c-0.1,0-1-0.7-1-2v-4.7c0.1-0.4,0.3-0.8,0.6-1c0.8-0.5,2-0.4,2.7,0.4
			L43.7,42.7L43.7,42.7z"/>
	</g>
	<g>
		<defs>
			<rect id="SVGID_23_" width="79.6" height="60"/>
		</defs>
		<clipPath id="SVGID_24_">
			<use xlink:href="#SVGID_23_"  overflow="visible"/>
		</clipPath>
		<path clip-path="url(#SVGID_24_)" fill="#FFFFFF" d="M55.5,43.1c0.9,0,1.5,0.4,1.5,0.4V42h-2.1v-2.2c0,0-0.6,1-1.7,1.9
			c-0.7,0.6-2.3,1.3-2.3,1.3l1.6,0v6.7c0,1.9,0.8,1.9,0.8,1.9c1.4,0,2.5,0,2.5,0s-1-0.7-1-1.9v-6.7C55.6,43.1,55.1,43.1,55.5,43.1"
			/>
	</g>
	<g>
		<defs>
			<rect id="SVGID_25_" width="79.6" height="60"/>
		</defs>
		<clipPath id="SVGID_26_">
			<use xlink:href="#SVGID_25_"  overflow="visible"/>
		</clipPath>
		<path clip-path="url(#SVGID_26_)" fill="#FFFFFF" d="M63.3,46c-1.4,1.5-2.6,1.3-3.4,2.4c0,0,0.1,1.5,1.3,2c0.4,0.2,2,0.7,3-1.1V51
			c0,0-0.7,0.7-2.7,0.7c-2.5,0-4.2-2-4.2-4.6c0-2.6,1.4-5.1,4-5.1C63.8,41.9,65.2,44,63.3,46 M61.7,45.4c0.4-0.8,0.8-2.8-0.7-2.7
			c-1.7,0.1-1.3,4.6-1.3,4.6C60.2,46.7,61.1,46.5,61.7,45.4"/>
	</g>
	<g>
		<defs>
			<rect id="SVGID_27_" width="79.6" height="60"/>
		</defs>
		<clipPath id="SVGID_28_">
			<use xlink:href="#SVGID_27_"  overflow="visible"/>
		</clipPath>
		<path clip-path="url(#SVGID_28_)" fill="#FFFFFF" d="M34.6,41.2c0.7,0,1.2-0.5,1.2-1.2s-0.5-1.2-1.2-1.2s-1.2,0.5-1.2,1.2
			C33.4,40.7,33.9,41.2,34.6,41.2"/>
	</g>
	<g>
		<defs>
			<rect id="SVGID_29_" width="79.6" height="60"/>
		</defs>
		<clipPath id="SVGID_30_">
			<use xlink:href="#SVGID_29_"  overflow="visible"/>
		</clipPath>
		<path clip-path="url(#SVGID_30_)" fill="#FFFFFF" d="M68.9,49c0,0.7-0.6,1.6-1.9,1.6c-1.3,0-1.8-1.4-1.8-1.4l0,1.7
			c0,0,1,0.7,2.4,0.7c1.8,0,3.5-1.3,3.4-3.2c0-0.7-0.2-1.2-0.6-1.7c-0.6-0.8-1.7-1.4-2.5-1.9c-1.2-0.7-1-2.1,0.7-2
			c1.3,0.1,1.8,1.3,1.8,1.3v-1.6c0,0-1-0.8-2.5-0.8c-1.5,0-2.9,1-2.9,2.3c0,1.2,0.5,1.9,1.4,2.6c0.4,0.3,0.8,0.6,1.3,0.8
			C68.6,48,68.9,48.5,68.9,49"/>
	</g>
	<g>
		<defs>
			<rect id="SVGID_31_" width="79.6" height="60"/>
		</defs>
		<clipPath id="SVGID_32_">
			<use xlink:href="#SVGID_31_"  overflow="visible"/>
		</clipPath>
		<path clip-path="url(#SVGID_32_)" fill="#FFFFFF" d="M46.6,50.5c-0.8,0-1.4-0.4-1.4-1.3c0-2.2,2-2.6,2.5-3.3V50
			C47.8,50,47.4,50.5,46.6,50.5 M48,44.1c0,1-0.8,1.4-1.3,1.6c-1.5,0.7-3.5,1.4-3.5,3.6c0,1.5,1.1,2.3,2.6,2.3c1.2,0,1.7-0.6,2-1.2
			c0.2,1.1,0.7,1.2,0.7,1.2c1.3,0,2.6,0,2.6,0s-1-0.7-1-1.9l0,0v-5.4c0-1.3-1.4-2.3-3-2.3c-1.5,0-2.4,0.7-2.4,0.7v1.7
			c0,0,0.5-1.3,1.9-1.3C47.7,43,48,43.6,48,44.1"/>
	</g>
</g>
</svg>
