<?xml version="1.0" encoding="UTF-8"?>
<!-- Created with Inkscape (http://www.inkscape.org/) -->
<svg version="1.1" viewBox="0 0 602.36 271.95" xmlns="http://www.w3.org/2000/svg" xmlns:cc="http://creativecommons.org/ns#" xmlns:dc="http://purl.org/dc/elements/1.1/" xmlns:rdf="http://www.w3.org/1999/02/22-rdf-syntax-ns#">
 <metadata>
  <rdf:RDF>
   <cc:Work rdf:about="">
    <dc:format>image/svg+xml</dc:format>
    <dc:type rdf:resource="http://purl.org/dc/dcmitype/StillImage"/>
    <dc:title/>
   </cc:Work>
  </rdf:RDF>
 </metadata>
 <g transform="translate(-292.18 -284.54)">
  <g transform="matrix(6.1279 0 0 -6.1279 -4164.7 3915.2)">
   <path transform="matrix(.8 0 0 -.8 0 595.28)" d="m1020.7 25.656c-0.1425-0.0015-0.2866 0.01141-0.4688 0.0625-2.1738 0.65-10.088 3.3588-19.406 4.6562-0.4163 0.055-0.3075 0.25125 0.1874 0.28125 6.2275 0.58875 8.5838 0.65375 11.438 0.625 2.7375-0.08875 4.7887 0.29125 7.0937-2.1562 2.1186-2.193 2.1536-3.4583 1.1563-3.4688zm-85.563 1.75-3.375 1 1.4062 1v11.312l-1.4062 0.96875h4.75l-1.375-0.96875v-5.9688l1.2812-0.90625c1.0962-0.875 2.1425-1.0625 2.875-1.0625 1.21 0 1.5938 0.75 1.5938 1.1875v7.7188h3.375l-1.375-0.96875v-6.75c0-1.3412-0.77375-2.375-3-2.375-0.84875 0-2.1762 0.19625-3.625 1.2812l-1.125 0.875v-6.3438zm-22.406 0.40625 1.375 1v11.906l-1.375 0.96875h11.094v-2.5625l-1.9688 1.5938h-5.75v-5.9688h3.9688l1.5625 1.1875v-3.375l-1.5625 1.1875h-3.9688v-4.9375h5.5312l1.7812 1.375v-2.375h-10.688zm34.219 1.1875c-0.59125 0-1.0938 0.3425-1.0938 0.78125 0 0.4375 0.5025 0.8125 1.0938 0.8125 0.60125 0 1.0938-0.375 1.0938-0.8125 0-0.43875-0.4925-0.78125-1.0938-0.78125zm29.938 0c-0.6 0-1.0938 0.3425-1.0938 0.78125 0 0.4375 0.49375 0.8125 1.0938 0.8125 0.60125 0 1.0938-0.375 1.0938-0.8125 0-0.43875-0.4925-0.78125-1.0938-0.78125zm-48.688 0.78125-3.9688 2.7812h1.9688v7.3438c0 1.18 0.97875 2.0938 2.375 2.0938 1.3075-0.0012 2.32-0.72875 2.5938-1.2812l-0.59375-0.40625c-0.12375 0.135-0.53 0.8125-1.6875 0.8125-0.48625 0-0.6875-0.21875-0.6875-0.21875v-8.3438h2.9688v-0.78125h-2.9688v-2zm27.375 1.8125c-3.525 0.0012-5.9688 2.48-5.9688 5.1562 9e-3 2.6638 2.4438 5.1562 5.9688 5.1562 3.5512-0.0037 5.9375-2.4925 5.9375-5.1562-9e-3 -2.6762-2.3862-5.1612-5.9375-5.1562zm13.688 0c-1.1838 0-3.0412 0.17-3.9688 1.375v-1.1875l-3.375 1 1.375 0.96875v10.906l-1.375 1h4.5625l-1.1875-1v-4.1562c1.0325 1.1488 2.785 1.4062 3.9688 1.4062 2.915-0.0037 4.75-2.7662 4.75-5.1562 0-2.5825-1.835-5.16-4.75-5.1562zm16.062 0c-1.2725 0-3.0588 0.27375-3.9688 0.78125v2.1875l2.3438-1.7188c0.45875-0.34625 0.95375-0.46875 1.625-0.46875 1.2188 0 2.1875 0.6725 2.1875 1.5938v1.7812h-2.7812c-2.5538 0.0037-4.75 1.6238-4.75 3.5625 0 1.5838 1.1662 2.5938 2.5625 2.5938 0.3275 0 0.8525-0.08375 1.1875-0.21875l3.7812-1.5938v1.5938h3.375l-1.4062-0.96875v-6.75c0-1.5312-1.4088-2.375-4.1562-2.375zm13.875 0c-0.73375 0-2.115 0.06625-3.75 1.3125l-1 0.84375v-1.9688l-3.375 1 1.4062 0.96875v6.9688l-1.4062 0.96875h4.7812l-1.4062-0.96875v-5.9688l1.1875-1c1.2725-1.0112 2.27-0.96875 2.9688-0.96875 1.5987 0 2 0.69875 2 1.1875v7.7188h3.375l-1.4062-0.96875v-6.75c0-0.91375-0.5925-2.375-3.375-2.375zm-51.156 0.1875-3.375 1 1.375 0.96875v6.9688l-1.375 0.96875h4.75l-1.375-0.96875v-8.9375zm29.938 0-3.375 1 1.4062 0.96875v6.9688l-1.4062 0.96875h4.7812l-1.4062-0.96875v-8.9375zm-22.406 0.59375c2.6412 0 3.5625 2.2962 3.5625 4.375 0 2.0688-0.92125 4.3438-3.5625 4.3438-2.615 0-3.5625-2.275-3.5625-4.3438 0-2.0775 0.9475-4.3738 3.5625-4.375zm12.906 0.1875c2.5088-5e-3 3.1562 2.34 3.1562 4.1875 0 1.8375-0.6475 4.1562-3.1562 4.1562-1.3425 0.0025-2.5438-0.51375-3.1875-1.5938v-5.1562c0.635-1.1075 1.845-1.5912 3.1875-1.5938zm16.844 3.9688h2.1875v2.5938l-2.7812 1.1875c-0.31 0.135-0.91375 0.40625-1.1875 0.40625-0.60125 0-1.4062-0.34625-1.4062-1.5938 0-1.585 1.28-2.5938 3.1875-2.5938zm-28.344 10.625c-1.29 0-2.67 0.4325-3.0938 1.4062-0.0888 0.2-0.13875 0.43-0.15625 0.65625 9e-3 0.67-0.1825 1.695 0.65625 2.3438l1.1875 0.9375 1.0625 0.8125c0.15875 0.10375 0.375 0.23375 0.375 0.5625v0.875l-0.84375 0.59375h2.8125l-0.8125-0.59375v-0.9375c0-0.46625-0.0675-0.79875-0.5-1.125l-1.1875-0.9375c-0.42375-0.30375-0.4175-0.33625-0.65625-0.5 0 0 0.955 0.04125 1.4062 0.03125 1.7925 0.02875 2.6188-0.4125 2.875-0.9375 0.14125-0.2925 0.1825-0.6625 0.15625-1.2188-0.0263-0.57875-0.0775-0.665-0.21875-0.9375-0.415-0.7575-1.6662-1.0312-3.0625-1.0312zm6.6562 0-1.9688 0.59375 0.8125 0.59375v0.46875h1.625l-1.8125 2.3438c-0.27375 0.37125-0.5 0.7975-0.5 1.375v2.2188l-0.84375 0.59375h2.8125l-0.8125-0.59375v-2.2188c0-0.485 0.1875-0.71875 0.25-0.8125 0.0975-0.13 0.1525-0.19875 0.1875-0.25 0.0712-0.0925 0.1875-0.125 0.1875-0.125 0.3-0.07875 2.75-0.42 2.75 0.78125v2.5c0 0.47 0.23875 0.71875 0.46875 0.71875 0.12375 0 0.23875-0.0087 0.46875-0.125 0.2375-0.11625 0.71875-0.46875 0.71875-0.46875v0.59375h1.9688l-0.8125-0.59375v-1.0312h-0.5625l-1.0625 0.6875v-2.375c-0.035-1.375-1.7438-1.4838-3.625-1.25l1.5312-1.9688v-0.46875h-1.7812v-1.1875zm9.25 0-2 0.59375 0.8125 0.59375v0.46875h1.1875v1.9688h-3.2812v1.1562l-0.8125 0.59375h2v-1.2812h2.0938v3.5l-0.8125 0.59375h2.7812l-0.8125-0.59375v-3.5h2.0938v1.2812h2l-0.8125-0.59375v-1.1562h-3.2812v-1.875c0-0.4675-0.20875-0.5625-0.5625-0.5625h-0.59375v-1.1875zm8.875 0c-1.2812 0-2.6788 0.43375-3.0938 1.4062-0.0975 0.2-0.16125 0.43-0.1875 0.65625 0.0175 0.67-0.15125 1.695 0.6875 2.3438l1.1875 0.9375 1.0625 0.8125c0.15875 0.10375 0.3525 0.235 0.34375 0.5625v0.875l-0.8125 0.59375h2.8125l-0.84375-0.59375v-0.9375c0-0.46625-0.0588-0.79875-0.5-1.125l-1.1562-0.9375c-0.42375-0.30375-0.4175-0.33625-0.65625-0.5 0 0 0.93375 0.04125 1.375 0.03125 1.8025 0.03 2.6275-0.4125 2.875-0.9375 0.0538-0.11 0.0987-0.2325 0.125-0.375h0.5v1.2812h2l-0.8125-0.59375v-1.1562h-1.625v-0.375c-0.0362-0.58-0.0775-0.665-0.21875-0.9375-0.415-0.75875-1.6588-1.0312-3.0625-1.0312zm10.031 0-1.9688 0.59375 0.8125 0.59375c-1.2012 0-2.4475 0.49-2.5 1.625-0.045 1.0812 0.74375 1.6262 1.8125 1.6562l-1.1875 0.40625c-0.6175 0.2425-1.0625 0.51125-1.0625 1.5625v1.1562l-0.8125 0.59375h2.8125l-0.8125-0.59375v-1.0625c0-0.335-0.0612-0.60125 0.46875-0.78125 0 0 1.9025-0.6625 2-0.6875 0.9275 0.0675 1.7188 0.12 1.7188 1.1562v1.375l-0.8125 0.59375h2.8125l-0.8125-0.59375v-1.375c0-1.3312-0.9775-1.51-1.7812-1.5938 0.105-0.0375 0.40375-0.15375 0.5-0.1875 1.06-0.38875 1.3175-0.835 1.3438-1.5938v-0.03125h0.46875v1.2812h1.9688l-0.8125-0.59375v-1.1562h-1.6875c-0.1675-0.59-0.76375-1.1275-2.4688-1.1562v-1.1875zm8.875 0c-1.2812 0-2.6475 0.4325-3.0625 1.4062-0.0875 0.2-0.17 0.43-0.1875 0.65625 9e-3 0.67-0.1425 1.695 0.6875 2.3438l2.5625 2.0625-3.7188 0.3125v0.8125l-0.8125 0.59375h2.7812l-0.8125-0.59375v-0.4375l4.2188-0.375v-0.46875l-2.7813-2.2188s0.9238 0.04125 1.375 0.03125c1.7925 0.02875 2.6362-0.4125 2.875-0.9375 0.1413-0.2925 0.2138-0.66375 0.1875-1.2188-0.028-0.58-0.069-0.665-0.2188-0.9375-0.4062-0.75875-1.6899-1.0312-3.0937-1.0312zm-43.688 0.46875c1.1575-0.0125 2.0488 0.2475 2.0312 1.4062v0.4375c-9e-3 0.62625-0.255 1.135-1.1562 1.2188-1.175 0.09375-1.55 0.1175-2.4688 0.03125-0.495-0.09625-0.415-0.94-0.40625-1.2188v-0.375c0.0175-0.97875 0.79875-1.49 2-1.5zm24.781 0c1.1562-0.01375 2.0175 0.2475 2 1.4062v0.4375c-9e-3 0.62625-0.255 1.1338-1.1562 1.2188-1.1662 0.0925-1.52 0.1175-2.4375 0.03125-0.48625-0.0975-0.42375-0.94-0.40625-1.2188v-0.375c0.01-0.97875 0.80625-1.4912 2-1.5zm18.906 0c1.1563-0.0125 2.0488 0.24875 2.0313 1.4062v0.4375c0 0.62625-0.2638 1.135-1.1563 1.2188-1.175 0.09375-1.5188 0.1175-2.4375 0.03125-0.48625-0.09625-0.415-0.94-0.40625-1.2188v-0.375c9e-3 -0.97875 0.77625-1.49 1.9688-1.5zm-9.4375 1.1562c1.59-0.0325 1.8925 0.48625 1.875 1.0312-9e-3 0.35-4e-3 0.68-0.78125 0.96875-0.15 0.05625-0.74625 0.265-1.25 0.4375-1.3075-0.03125-1.6875-0.2425-1.6875-1.2812 0-1.025 1.19-1.1412 1.8438-1.1562z" fill="#c8332f"/>
   <path d="m799.13 571.28c5.095 1.297 17.851 8.152 19.745 9.371 0.933 0.581 1.965 0.236 0.318-2.449-1.123-1.65-1.894-2.61-4.89-3.518-2.057-0.779-9.696-3.002-15.046-3.648-0.396-0.033-0.523 0.113-0.127 0.244" fill="#ffcb08"/>
   <path d="m799.64 571.64c4.445 1.56 14.127 6.656 17.427 8.681 2.375 1.445 4.212 2.513 4.926 4.324 1.533 4.138 0.36 5.822-1.096 4.53-1.858-1.808-10.614-10.99-21.815-17.445-0.17-0.097-0.191-0.321 0.558-0.09" fill="#5e8f4d"/>
  </g>
 </g>
</svg>
