<?xml version="1.0" encoding="utf-8"?>
<!-- Generator: Adobe Illustrator 19.1.0, SVG Export Plug-In . SVG Version: 6.00 Build 0)  -->
<svg version="1.1" id="Layer_1" xmlns="http://www.w3.org/2000/svg" xmlns:xlink="http://www.w3.org/1999/xlink" x="0px" y="0px"
	 width="131px" height="64px" viewBox="-438 275 131 64" enable-background="new -438 275 131 64" xml:space="preserve">
<g>
	<g>
		<polygon fill="#C4921B" points="-370.4,280.8 -368.8,279.2 -367.3,280.8 -367.1,280.8 -368.8,282.5 		"/>
		<polygon fill="#C4921B" points="-367.1,280.8 -365.5,279.2 -364,280.8 -363.8,280.8 -365.5,282.5 		"/>
		<path fill="#C4921B" d="M-369.3,297.2c-0.5,0-0.8-0.2-0.8-0.2c-0.7-0.3-0.9-0.9-0.9-2c0-0.2,0-0.3,0-0.3v-0.3h-14
			c0,0,0-11.6,0-12.6c0-0.6-0.4-0.7-0.7-0.8c-0.3-0.1-0.5-0.3-0.6-0.7c0-0.1,0-0.1,0-0.1v-0.1c1.9-1.4,3.3-3.3,3.3-3.3v15.3h11.8
			v-0.6c0-0.5-0.1-1.6-2.6-1.7c0,0-1.2,0-2.4,0c-0.7,0-1.3,0-1.8,0c-0.8-0.1-1.1-0.9-1.1-1.6c0-0.5,0.2-0.9,0.6-1.1l0.2-0.1l0.1,0.2
			c0.3,0.5,1.2,0.7,3.1,0.7h0.2c0.8,0,1.6,0,2.5-0.1c0.1,0,0.1,0,0.2,0c3.1,0,3.5,2.7,3.5,3.8v0.2c0,0.1,0,0.2,0,0.3h3.1v-4.6
			c0,0,0.1-0.3-0.6-0.7c-0.5-0.3-0.6-0.8-0.6-0.8c2.5-1.8,3.2-3.4,3.2-3.4v11.5h-5.2v0.2c0,0.7,0.1,1.6,0.6,1.9l0.2,0.2l-0.3,0.2
			C-368.7,297.1-369,297.2-369.3,297.2z"/>
		<path fill="#C4921B" d="M-394.2,296.3v-1.8h-7.1v-2.2h9.1v2.8c0,0-0.1,0.8,1.6,0.8c1.1,0,1.1-1,1.1-1.1v-5.1
			c0-0.7-0.5-0.8-0.8-0.8c-0.1,0-0.1,0-0.1,0h-10.9v-6.3c0,0,1.3,1.6,2.5,2.3c0.2,0.1,0.1,0.5-0.6,0.8c-0.1,0.1-0.3,0.1-0.3,0.3
			s0,0.8,0,0.8h10.9c1.3,0,1.4,1.3,1.4,1.8c0,0.1,0,7.2,0,7.2s-0.1,2-3.2,2C-394.5,298.1-394.2,296.3-394.2,296.3z"/>
		<path fill="#C4921B" d="M-351.1,294.5V277l0.4,0.6c0,0,0.3,0.5,1.4,1.4c0.7,0.6,1,0.8,1.2,0.8c0.2,0.1,0.4,0.1,0.4,0.4v0.2
			c-0.1,0.4-0.3,0.5-0.6,0.7s-0.6,0.3-0.6,0.8c0,0.4,0,12.7,0,12.7H-351.1L-351.1,294.5z"/>
		<path fill="#C4921B" d="M-361.3,296.8l2.2-2.2l-2.6-2.6V277c0,0,1.1,2.2,2.7,3.3v0.2c0,0.4-0.3,0.5-0.5,0.7
			c-0.3,0.2-0.5,0.3-0.5,0.8c0,0.4,0,8.7,0,8.9l2.2,2.2l2.2-2.2c0,0,0-8.4,0-8.9c0-0.6-0.3-0.7-0.5-0.8c-0.2-0.1-0.4-0.3-0.5-0.6
			v-0.1c1.7-1.1,2.7-3.4,2.7-3.4v14.7l-2.6,2.8l2.2,2.2l-3.6,3.6L-361.3,296.8z M-357.7,298.3l1.5-1.5l-1.5-1.5l-1.5,1.5
			L-357.7,298.3z"/>
	</g>
	<g>
		<path fill="#C4921B" d="M-366.9,316.9l3.8-4c0,0,0-7.9,0-8s0.1-0.1,0.1-0.1l0.6-0.3v-0.5h-5.1v0.5l0.5,0.3
			c0.1,0.1,0.2,0.2,0.2,0.2v4.6h-10l-2.2,2.9v-7.4V305c0,0,0,0,0.1-0.1l0.5-0.3h0.1v-0.5h-5.1v0.5l0.5,0.3c0.1,0.1,0.1,0.1,0.1,0.1
			l0,0v13.7v0.2l-0.1,0.1l-0.5,0.3v0.5h5.1v-0.5l-0.5-0.3c-0.1-0.1-0.1-0.1-0.1-0.1l0,0v-6.3l0.6,0.2l0.7-0.4
			c0.1-0.1,0.3-0.1,0.3-0.2c0.1,0,0.1,0,0.3,0h10.5L-366.9,316.9L-366.9,316.9z"/>
		<path fill="#C4921B" d="M-313.4,310.2c-0.6-1.9-2-3.4-4-4.6c-1.9-1-4.5-1.6-8.1-1.6h-13.7v0.5l0.6,0.4l0,0v1.6h13
			c2.6,0,4.6,0.4,5.7,1c1.9,1.1,2.8,2.5,2.8,4.3c0,0.9-0.3,1.8-0.8,2.4c-0.5,0.8-1.2,1.3-2.2,1.9c-1.3,0.7-3.2,1-5.7,1h-6.8v-9.6
			h-3.8v11v0.2l-0.1,0.1l-0.5,0.3l0,0v0.5h11.2c2.2,0,3.8-0.1,5.1-0.4c1.6-0.4,3.1-0.9,4.3-1.8c1.2-0.8,2.2-1.8,2.6-2.9
			c0.4-0.8,0.6-1.7,0.6-2.5C-313.1,311.4-313.2,310.8-313.4,310.2z"/>
		<path fill="#C4921B" d="M-362.5,319.1c-0.1,0-0.2-0.1-0.2-0.1l9.4-9.8l-2.2-2.3l-12.2,12.7h5.6V319h-0.2
			C-362.4,319.1-362.4,319.1-362.5,319.1z"/>
		<path fill="#C4921B" d="M-354.5,306.3l2.4,2.5l2.4,2.4h-4.2l-2.2,2.4l0.5,0.4l0.6-0.3c0.1,0,0.1-0.1,0.2-0.1c0,0,0.2,0,0.4,0h7.1
			l5,5.2c0,0-0.1,0.1-0.5,0.1h-0.2v0.6h5.6l-14.8-15.6L-354.5,306.3z"/>
		<path fill="#C4921B" d="M-390.3,304.6l0.5,0.3c0.1,0.1,0.2,0.2,0.2,0.2v13.5v0.2c-0.1,0-0.1,0.1-0.1,0.1l-0.5,0.3v0.5h5v-0.5
			l-0.5-0.3c-0.1-0.1-0.1-0.1-0.1-0.1l0,0V305v-0.1l0.1-0.1l0.5-0.3v-0.5h-5L-390.3,304.6L-390.3,304.6z"/>
		<path fill="#C4921B" d="M-411.3,316.7l-0.7,0.4c-0.2,0.1-0.3,0.1-0.3,0.2h-11.2c-2.5,0-4.5-0.3-5.8-0.9c-1.9-1-2.9-2.4-2.9-4.3
			c0-0.8,0.3-1.7,0.8-2.4c0.9-1.4,2.3-2.3,4.3-2.7c0.5-0.1,1-0.1,1.4-0.1c0.6,0,5.7,0,5.7,0c0.4,0,0.3,0.1,0.3,0.1l-0.1,0.4h0.5
			l2.4-3h-6.8c-1.6,0-2.8,0.1-3.7,0.2c-0.5,0.1-0.9,0.1-1.3,0.3c-1.1,0.3-2.2,0.7-3.3,1.3c-1.7,0.9-2.9,2.2-3.6,3.6
			c-0.4,0.8-0.6,1.7-0.6,2.7c0,2.5,1.3,4.5,4,6c1.2,0.7,2.5,1.1,4,1.3c1.1,0.2,2.6,0.3,4.5,0.3h10.4l2.4-3h-0.1L-411.3,316.7z"/>
		<path fill="#C4921B" d="M-416.2,312.9l2.4-3h-16.3l-1.7,2.4h14.7c0.3,0,0.4,0.1,0.4,0.1l-0.1,0.5H-416.2L-416.2,312.9z"/>
		<path fill="#C4921B" d="M-417.3,306.9l0.5,0.2h0.1l0.7-0.4c0.2-0.1,0.4-0.2,0.6-0.2h9v12.1v0.2c0,0.1-0.1,0.1-0.1,0.1l-0.5,0.4
			v0.5h5.1v-0.5l-0.5-0.3l-0.1-0.1v-0.1v-12.1h8c0.3,0,0.4,0.1,0.4,0.1v0.5h0.5l2.4-3h-23.5L-417.3,306.9z"/>
	</g>
	<g>
		<path fill="#C4921B" d="M-413.3,336.8l3.8-9.6h1.2l3.8,9.6h-2l-0.8-2h-2.5l-0.6-1.3h2.5l-1-2.6l-0.3-0.8l-0.3,0.8l-2.2,6
			L-413.3,336.8L-413.3,336.8z"/>
		<path fill="#C4921B" d="M-399.8,336.8v-9.6h1.9v9.6H-399.8z"/>
		<path fill="#C4921B" d="M-387.2,336.8l-2.2-3.1h-1v3.1h-1.9v-9.6h3.1c1.1,0,2,0.3,2.5,0.8c0.6,0.5,0.9,1.3,0.9,2.2
			c0,0.8-0.2,1.4-0.5,2s-0.8,0.9-1.4,1.2l2.6,3.4C-384.9,336.8-387.2,336.8-387.2,336.8z M-390.4,332.3h1.2c1,0,1.6-0.7,1.6-1.9
			c0-0.6-0.1-1-0.4-1.3c-0.3-0.3-0.7-0.5-1.2-0.5h-1.2V332.3L-390.4,332.3z"/>
		<path fill="#C4921B" d="M-378.6,336.8l-2.8-9.6h1.9l1.8,6.8h0.1l1.7-5.2l-0.5-1.5h1.9l2.2,6.8h0.1l1.8-6.8h1.9l-2.9,9.6h-1.7
			l-1.9-5.9l-2,5.9L-378.6,336.8L-378.6,336.8z"/>
		<path fill="#C4921B" d="M-365.7,336.8l3.8-9.6h1.2l3.8,9.6h-2l-0.8-2h-2.4l-0.6-1.3h2.5l-1-2.6l-0.3-0.8l-0.3,0.8l-2.2,6
			L-365.7,336.8L-365.7,336.8z"/>
		<path fill="#C4921B" d="M-351.2,336.8v-3.9l-3.1-5.6h2.1l2.1,4l2.2-4h1.9l-3.1,5.6v3.9H-351.2z"/>
		<path fill="#C4921B" d="M-339.5,337c-1,0-1.8-0.2-2.4-0.7v-1.9c0.8,0.7,1.6,0.9,2.4,0.9c1.1,0,1.7-0.5,1.7-1.3
			c0-0.4-0.1-0.7-0.4-0.8s-0.7-0.4-1.2-0.5l-0.4-0.1c-1.6-0.4-2.4-1.3-2.4-2.7c0-0.9,0.3-1.7,0.9-2.2c0.6-0.5,1.4-0.8,2.5-0.8
			c1,0,1.9,0.2,2.4,0.7v2c-0.3-0.3-0.7-0.5-1.1-0.7s-0.9-0.3-1.5-0.3c-0.6,0-0.9,0.1-1.2,0.3c-0.3,0.2-0.4,0.5-0.4,0.8
			s0.1,0.7,0.3,0.8s0.6,0.4,1.1,0.5l0.4,0.1c0.8,0.2,1.5,0.5,1.9,0.9c0.4,0.4,0.6,1,0.6,1.8c0,0.9-0.3,1.8-0.9,2.3
			C-337.5,336.7-338.3,337-339.5,337z"/>
	</g>
</g>
</svg>
