<?xml version="1.0" encoding="utf-8"?>
<!-- Generator: Adobe Illustrator 16.0.2, SVG Export Plug-In . SVG Version: 6.00 Build 0)  -->
<!DOCTYPE svg PUBLIC "-//W3C//DTD SVG 1.1//EN" "http://www.w3.org/Graphics/SVG/1.1/DTD/svg11.dtd">
<svg version="1.1" id="Layer_1" xmlns="http://www.w3.org/2000/svg" xmlns:xlink="http://www.w3.org/1999/xlink" x="0px" y="0px"
	 width="156.3px" height="64px" viewBox="0 0 156.3 64" enable-background="new 0 0 156.3 64" xml:space="preserve">
<g>
	<path fill="#A6A8AB" d="M124.5,26.4C121.8,12.6,109.7,2.2,95.1,2.2c-16.6,0-30,13.4-30,30c0,16.601,13.4,30,30,30
		c14.6,0,26.8-10.398,29.399-24.199V26.4L124.5,26.4z M95.1,50.199c-9.9,0-18.1-8-18.1-18.099c0-10,8-18.1,18.1-18.1
		c9.899,0,18.1,8,18.1,18.1C113.2,42.199,105,50.199,95.1,50.199z"/>
	<path fill="#FFFFFF" d="M75,62.1c16.6,0,30-13.4,30-30c0-16.6-13.399-30-30-30c-14.1,0-25.9,9.7-29.1,22.8
		C45.7,25.6,45.2,26,44.5,26H31.3c-0.8,0-1.4,0.699-1.4,1.399v9.1c0,0.801,0.7,1.4,1.4,1.4h9.1c0.8,0,1.4,0.699,1.4,1.4v5.398
		c0,0.5-0.2,0.801-0.6,1.102c-3.1,2.5-7.1,4.1-11.4,4.1c-9.9,0-18.1-8-18.1-18.1c0-10,8-18.101,18.1-18.101c2.8,0,5.5,0.7,7.9,1.801
		c0.7,0.399,1.5,0.1,1.9-0.601l4.7-7.8c0.2-0.4,0.3-0.7,0.2-1.1c-0.1-0.4-0.4-0.7-0.7-0.801C39.7,3,35,1.8,30,1.8
		C13.4,1.8,0,15.2,0,31.8c0,16.6,13.4,30,30,30c8.4,0,16-3.5,21.5-9.102c0.3-0.299,0.7-0.5,1-0.5c0.3,0,0.7,0.201,1,0.5
		C59,58.6,66.5,62.1,75,62.1z M75,50.199c-9.9,0-18.1-8-18.1-18.099c0-10,8-18.1,18.1-18.1c10,0,18.1,8,18.1,18.1
		C93,42.199,85,50.199,75,50.199z"/>
	<path fill="#A6A8AB" d="M124.5,26.4C121.8,12.6,109.7,2.2,95.1,2.2c-3.5,0-6.9,0.7-10,1.7C90.9,6,95.9,9.7,99.3,14.6
		c8,1.9,13.8,9,13.8,17.5c0,9.9-8,18.099-18.101,18.099c-9.899,0-18.1-8-18.1-18.099c0-6.3,3.2-11.7,8-15c-2.9-2-6.4-3.1-10-3.1
		c-1.4,0-2.9,0.199-4.2,0.5c-3.6,5-5.7,11-5.7,17.5C65,48.6,78.4,62,95,62c14.601,0,26.801-10.4,29.4-24.199V26.6h0.1V26.4z"/>
	<path fill="#FFFFFF" d="M126.5,49.5c-0.8,0-1.399-0.699-1.399-1.4V4.7c0-0.8-0.7-1.399-1.4-1.399h-9.1c-0.8,0-1.4,0.7-1.4,1.399V60
		c0,0.801,0.7,1.4,1.4,1.4h30.3c0.8,0,1.4-0.701,1.4-1.4v-9.1c0-0.801-0.7-1.4-1.4-1.4H126.5L126.5,49.5z"/>
</g>
</svg>
