<?xml version="1.0" encoding="utf-8"?>
<!-- Generator: Adobe Illustrator 19.1.0, SVG Export Plug-In . SVG Version: 6.00 Build 0)  -->
<svg version="1.1" id="Layer_1" xmlns="http://www.w3.org/2000/svg" xmlns:xlink="http://www.w3.org/1999/xlink" x="0px" y="0px"
	 width="156.3px" height="64px" viewBox="-425 275 156.3 64" enable-background="new -425 275 156.3 64" xml:space="preserve">
<g>
	<path fill="#A6A8AB" d="M-298.4,301.3c-2.7-13.8-14.8-24.2-29.4-24.2c-16.6,0-30,13.4-30,30c0,16.6,13.4,30,30,30
		c14.6,0,26.8-10.4,29.4-24.2V301.3L-298.4,301.3z M-327.8,325.1c-9.9,0-18.1-8-18.1-18.1c0-10,8-18.1,18.1-18.1
		c9.9,0,18.1,8,18.1,18.1C-309.7,317.1-317.9,325.1-327.8,325.1z"/>
	<path fill="#F58220" d="M-347.9,337c16.6,0,30-13.4,30-30c0-16.6-13.4-30-30-30c-14.1,0-25.9,9.7-29.1,22.8
		c-0.2,0.7-0.7,1.1-1.4,1.1h-13.2c-0.8,0-1.4,0.7-1.4,1.4v9.1c0,0.8,0.7,1.4,1.4,1.4h9.1c0.8,0,1.4,0.7,1.4,1.4v5.4
		c0,0.5-0.2,0.8-0.6,1.1c-3.1,2.5-7.1,4.1-11.4,4.1c-9.9,0-18.1-8-18.1-18.1c0-10,8-18.1,18.1-18.1c2.8,0,5.5,0.7,7.9,1.8
		c0.7,0.4,1.5,0.1,1.9-0.6l4.7-7.8c0.2-0.4,0.3-0.7,0.2-1.1c-0.1-0.4-0.4-0.7-0.7-0.8c-4.1-2.2-8.8-3.4-13.8-3.4
		c-16.6,0-30,13.4-30,30c0,16.6,13.4,30,30,30c8.4,0,16-3.5,21.5-9.1c0.3-0.3,0.7-0.5,1-0.5s0.7,0.2,1,0.5
		C-363.9,333.5-356.4,337-347.9,337z M-347.9,325.1c-9.9,0-18.1-8-18.1-18.1c0-10,8-18.1,18.1-18.1c10,0,18.1,8,18.1,18.1
		C-329.9,317.1-337.9,325.1-347.9,325.1z"/>
	<path fill="#A6A8AB" d="M-298.4,301.3c-2.7-13.8-14.8-24.2-29.4-24.2c-3.5,0-6.9,0.7-10,1.7c5.8,2.1,10.8,5.8,14.2,10.7
		c8,1.9,13.8,9,13.8,17.5c0,9.9-8,18.1-18.1,18.1c-9.9,0-18.1-8-18.1-18.1c0-6.3,3.2-11.7,8-15c-2.9-2-6.4-3.1-10-3.1
		c-1.4,0-2.9,0.2-4.2,0.5c-3.6,5-5.7,11-5.7,17.5c0,16.6,13.4,30,30,30c14.6,0,26.8-10.4,29.4-24.2v-11.2H-298.4z"/>
	<path fill="#F58220" d="M-296.4,324.4c-0.8,0-1.4-0.7-1.4-1.4v-43.4c0-0.8-0.7-1.4-1.4-1.4h-9.1c-0.8,0-1.4,0.7-1.4,1.4v55.3
		c0,0.8,0.7,1.4,1.4,1.4h30.3c0.8,0,1.4-0.7,1.4-1.4v-9.1c0-0.8-0.7-1.4-1.4-1.4H-296.4L-296.4,324.4z"/>
</g>
</svg>
