<?xml version="1.0" encoding="utf-8"?>
<!-- Generator: Adobe Illustrator 19.1.0, SVG Export Plug-In . SVG Version: 6.00 Build 0)  -->
<svg version="1.1" id="Layer_1" xmlns="http://www.w3.org/2000/svg" xmlns:xlink="http://www.w3.org/1999/xlink" x="0px" y="0px"
	 width="195.7px" height="64px" viewBox="-405 275 195.7 64" enable-background="new -405 275 195.7 64" xml:space="preserve">
<path d="M-219.3,328.9c0,4.5-3.7,8.1-8.1,8.1h-167.5c-4.5,0-8.1-3.7-8.1-8.1v-43.8c0-4.5,3.7-8.1,8.1-8.1h167.5
	c4.5,0,8.1,3.7,8.1,8.1V328.9L-219.3,328.9z"/>
<g id="PLAY_2_">
	<g>
		<g>
			<defs>
				<path id="SVGID_1_" d="M-363.2,303.4l-8.3-4.8c0,0-15.1-8.7-16-9.2c-0.8-0.5-1.8-0.2-1.8,0.8c0,1.8,0,18.6,0,18.6s0,18.2,0,19
					c0,0.8,0.7,1.1,1.4,0.7s16.3-9.5,16.3-9.5l8.3-4.8c0,0,7-4,8-4.6c0.9-0.6,0.8-1.3,0.1-1.7C-356,307.6-363.2,303.4-363.2,303.4z"
					/>
			</defs>
			<clipPath id="SVGID_2_">
				<use xlink:href="#SVGID_1_"  overflow="visible"/>
			</clipPath>
			
				<linearGradient id="SVGID_3_" gradientUnits="userSpaceOnUse" x1="3933.6775" y1="25.8034" x2="3933.6775" y2="29.1947" gradientTransform="matrix(12 0 0 12 -47583.1406 -21.186)">
				<stop  offset="0" style="stop-color:#257CB0"/>
				<stop  offset="0.2863" style="stop-color:#4A93B5"/>
				<stop  offset="0.767" style="stop-color:#78BCBB"/>
				<stop  offset="1" style="stop-color:#89CFBD"/>
			</linearGradient>
			<polygon clip-path="url(#SVGID_2_)" fill="url(#SVGID_3_)" points="-389.3,288.5 -389.3,308.8 -389.3,329.2 -368.7,308.8 			"/>
		</g>
	</g>
	<g>
		<g>
			<defs>
				<path id="SVGID_4_" d="M-363.2,303.4l-8.3-4.8c0,0-15.1-8.7-16-9.2c-0.8-0.5-1.8-0.2-1.8,0.8c0,1.8,0,18.6,0,18.6s0,18.2,0,19
					c0,0.8,0.7,1.1,1.4,0.7s16.3-9.5,16.3-9.5l8.3-4.8c0,0,7-4,8-4.6c0.9-0.6,0.8-1.3,0.1-1.7C-356,307.6-363.2,303.4-363.2,303.4z"
					/>
			</defs>
			<clipPath id="SVGID_5_">
				<use xlink:href="#SVGID_4_"  overflow="visible"/>
			</clipPath>
			
				<linearGradient id="SVGID_6_" gradientUnits="userSpaceOnUse" x1="3932.8237" y1="26.6485" x2="3934.9932" y2="26.6485" gradientTransform="matrix(12 0 0 12 -47583.1406 -21.186)">
				<stop  offset="0" style="stop-color:#52C1AD"/>
				<stop  offset="1" style="stop-color:#DEE89A"/>
			</linearGradient>
			<polygon clip-path="url(#SVGID_5_)" fill="url(#SVGID_6_)" points="-363.2,303.4 -371.5,298.6 -389.3,288.4 -389.3,288.5 
				-368.7,308.8 			"/>
		</g>
	</g>
	<g>
		<g>
			<defs>
				<path id="SVGID_7_" d="M-363.2,303.4l-8.3-4.8c0,0-15.1-8.7-16-9.2c-0.8-0.5-1.8-0.2-1.8,0.8c0,1.8,0,18.6,0,18.6s0,18.2,0,19
					c0,0.8,0.7,1.1,1.4,0.7s16.3-9.5,16.3-9.5l8.3-4.8c0,0,7-4,8-4.6c0.9-0.6,0.8-1.3,0.1-1.7C-356,307.6-363.2,303.4-363.2,303.4z"
					/>
			</defs>
			<clipPath id="SVGID_8_">
				<use xlink:href="#SVGID_7_"  overflow="visible"/>
			</clipPath>
			
				<linearGradient id="SVGID_9_" gradientUnits="userSpaceOnUse" x1="3933.9084" y1="27.5014" x2="3933.9084" y2="29.2095" gradientTransform="matrix(12 0 0 12 -47583.1406 -21.186)">
				<stop  offset="0" style="stop-color:#EC413D"/>
				<stop  offset="0.1668" style="stop-color:#DA4452"/>
				<stop  offset="0.5748" style="stop-color:#B0487A"/>
				<stop  offset="0.8619" style="stop-color:#954A92"/>
				<stop  offset="1" style="stop-color:#8A4A9D"/>
			</linearGradient>
			<polygon clip-path="url(#SVGID_8_)" fill="url(#SVGID_9_)" points="-389.3,329.2 -389.3,329.3 -371.5,319.1 -363.2,314.3 
				-368.7,308.8 			"/>
		</g>
	</g>
	<g>
		<g>
			<defs>
				<path id="SVGID_10_" d="M-363.2,303.4l-8.3-4.8c0,0-15.1-8.7-16-9.2c-0.8-0.5-1.8-0.2-1.8,0.8c0,1.8,0,18.6,0,18.6s0,18.2,0,19
					c0,0.8,0.7,1.1,1.4,0.7s16.3-9.5,16.3-9.5l8.3-4.8c0,0,7-4,8-4.6c0.9-0.6,0.8-1.3,0.1-1.7C-356,307.6-363.2,303.4-363.2,303.4z"
					/>
			</defs>
			<clipPath id="SVGID_11_">
				<use xlink:href="#SVGID_10_"  overflow="visible"/>
			</clipPath>
			
				<linearGradient id="SVGID_12_" gradientUnits="userSpaceOnUse" x1="3935.1565" y1="27.0464" x2="3935.1565" y2="27.9573" gradientTransform="matrix(12 0 0 12 -47583.1406 -21.186)">
				<stop  offset="0" style="stop-color:#F58879"/>
				<stop  offset="0.1194" style="stop-color:#F69079"/>
				<stop  offset="0.7128" style="stop-color:#FCB877"/>
				<stop  offset="1" style="stop-color:#FEC874"/>
			</linearGradient>
			<polygon clip-path="url(#SVGID_11_)" fill="url(#SVGID_12_)" points="-363.2,303.4 -368.7,308.8 -363.2,314.3 -353.8,308.8 			
				"/>
		</g>
	</g>
</g>
<path fill="#F9F9F9" d="M-260.1,316.8c-0.8,0-1.5-0.2-2.1-0.5c-0.7-0.3-1.1-0.8-1.6-1.3h-0.1c0.1,0.7,0.1,1.3,0.1,2v4.9h-1.8v-17.2
	h1.5l0.3,1.6h0.1c0.5-0.7,1-1.1,1.6-1.4c0.7-0.3,1.3-0.5,2.1-0.5c1.6,0,2.8,0.6,3.7,1.6c0.8,1,1.3,2.5,1.3,4.5c0,2-0.5,3.5-1.3,4.5
	C-257.4,316.2-258.5,316.8-260.1,316.8z M-260.4,306c-1.2,0-2.1,0.4-2.6,1c-0.6,0.7-0.8,1.7-0.8,3.2v0.4c0,1.7,0.3,2.8,0.8,3.6
	c0.6,0.8,1.4,1,2.6,1c1,0,1.8-0.4,2.4-1.2c0.6-0.8,0.8-2,0.8-3.4c0-1.5-0.3-2.6-0.8-3.4C-258.5,306.5-259.2,306-260.4,306z"/>
<path fill="#F9F9F9" d="M-251,316.5h-1.8v-16.8h1.8V316.5z"/>
<path fill="#F9F9F9" d="M-240.7,316.5l-0.4-1.7h-0.1c-0.6,0.8-1.2,1.2-1.8,1.5c-0.6,0.3-1.3,0.4-2.2,0.4c-1.1,0-2.1-0.3-2.7-0.9
	c-0.7-0.6-1-1.5-1-2.5c0-2.3,1.9-3.7,5.7-3.8l2-0.1v-0.8c0-0.9-0.2-1.6-0.6-2.1c-0.4-0.5-1-0.7-1.9-0.7c-1,0-2.1,0.3-3.4,0.9
	l-0.6-1.4c0.6-0.3,1.2-0.6,1.9-0.8c0.7-0.2,1.4-0.3,2.1-0.3c1.4,0,2.4,0.3,3.1,0.9c0.7,0.7,1,1.6,1,3v8.1L-240.7,316.5L-240.7,316.5
	z M-244.8,315.3c1.1,0,2-0.3,2.6-0.9c0.7-0.7,0.9-1.5,0.9-2.5v-1l-1.8,0.1c-1.4,0.1-2.4,0.3-3.1,0.7c-0.7,0.4-0.9,1-0.9,1.8
	c0,0.7,0.2,1.1,0.6,1.5C-246,315.1-245.4,315.3-244.8,315.3z"/>
<path fill="#F9F9F9" d="M-238.3,304.7h1.9l2.6,6.8c0.6,1.5,0.9,2.6,1,3.4h0.1c0.1-0.4,0.3-1,0.6-1.9s1.3-3.7,2.9-8.2h1.9l-5.1,13.5
	c-0.5,1.3-1.1,2.3-1.8,2.8c-0.7,0.6-1.5,0.8-2.4,0.8c-0.6,0-1.1-0.1-1.6-0.2v-1.4c0.4,0.1,0.8,0.1,1.3,0.1c1.2,0,2.1-0.7,2.6-2.1
	l0.7-1.7L-238.3,304.7z"/>
<path fill="#F9F9F9" d="M-293.2,305.8c0.6,0.5,1.8,1.5,1.8,3.4c0,1.8-1,2.7-2.1,3.5c-0.3,0.3-0.7,0.7-0.7,1.2s0.4,0.8,0.7,1l0.8,0.7
	c1.1,0.9,2.1,1.8,2.1,3.5c0,2.3-2.3,4.7-6.5,4.7c-3.6,0-5.4-1.7-5.4-3.6c0-0.8,0.5-2.2,1.9-3c1.5-0.9,3.6-1,4.7-1.1
	c-0.4-0.5-0.8-0.9-0.8-1.7c0-0.4,0.1-0.7,0.3-0.9c-0.3,0-0.6,0.1-0.8,0.1c-2.6,0-4.1-2-4.1-3.8c0-1.1,0.6-2.4,1.6-3.3
	c1.4-1.1,3.1-1.4,4.4-1.4h5.1l-1.6,0.8H-293.2L-293.2,305.8z M-295,316.8c-0.2,0-0.3,0-0.6,0c-0.2,0-1.6,0.1-2.6,0.4
	c-0.6,0.2-2.2,0.8-2.2,2.5s1.7,3,4.3,3c2.3,0,3.7-1.1,3.7-2.6C-292.3,318.9-293.1,318.1-295,316.8z M-294.3,312.1
	c0.6-0.6,0.7-1.3,0.7-1.8c0-1.8-1-4.6-3.1-4.6c-0.7,0-1.3,0.3-1.7,0.8c-0.4,0.6-0.6,1.2-0.6,1.9c0,1.7,0.9,4.4,3.1,4.4
	C-295.4,312.8-294.7,312.5-294.3,312.1z"/>
<path fill="#F9F9F9" d="M-308.8,316.4c-3.9,0-6-3.1-6-5.8c0-3.2,2.6-6,6.4-6c3.7,0,5.9,2.8,5.9,5.8
	C-302.5,313.3-304.8,316.4-308.8,316.4z M-305.7,314.5c0.6-0.8,0.8-1.8,0.8-2.7c0-2.2-1-6.3-4.1-6.3c-0.8,0-1.6,0.3-2.3,0.8
	c-0.9,0.8-1.1,2-1.1,3c0,2.4,1.2,6.5,4.2,6.5C-307.3,315.7-306.3,315.2-305.7,314.5z"/>
<path fill="#F9F9F9" d="M-322.2,316.4c-3.9,0-6-3.1-6-5.8c0-3.2,2.6-6,6.4-6c3.7,0,5.9,2.8,5.9,5.8
	C-316,313.3-318.2,316.4-322.2,316.4z M-319.2,314.5c0.6-0.8,0.8-1.8,0.8-2.7c0-2.2-1-6.3-4.1-6.3c-0.8,0-1.6,0.3-2.3,0.8
	c-0.9,0.8-1.1,2-1.1,3c0,2.4,1.2,6.5,4.2,6.5C-320.7,315.7-319.7,315.2-319.2,314.5z"/>
<path fill="#F9F9F9" d="M-330.1,316.1l-3.6,0.8c-1.4,0.2-2.7,0.4-4.1,0.4c-6.9,0-9.5-5.1-9.5-9c0-4.8,3.7-9.3,10-9.3
	c1.3,0,2.6,0.2,3.8,0.6c1.9,0.6,2.7,1.1,3.3,1.5l-2.1,2l-0.8,0.2l0.7-1c-0.8-0.8-2.3-2.3-5.4-2.3c-3.9,0-6.9,3-6.9,7.3
	c0,4.7,3.4,9.1,8.8,9.1c1.6,0,2.4-0.3,3.2-0.7v-4l-3.8,0.2l2-1h5.3l-0.7,0.7c-0.2,0.2-0.2,0.2-0.3,0.4c0,0.2-0.1,0.9-0.1,1.2
	L-330.1,316.1L-330.1,316.1z"/>
<path fill="#F9F9F9" d="M-285.4,315.3c-0.8-0.1-1-0.2-1-1.2v-0.3V300c0-0.1,0-0.1,0-0.2c0.1-0.8,0.4-1,1.1-1.5h-3.6l-1.9,0.9h1.9
	l0,0l0,0v14.6v0.8c0,0.5-0.1,0.6-0.7,1.3h4.4l0.9-0.6C-284.6,315.4-285,315.4-285.4,315.3z"/>
<path fill="#F9F9F9" d="M-275.3,315.6c-0.3,0.2-0.6,0.3-0.8,0.5c-0.8,0.4-1.7,0.5-2.4,0.5s-2.1-0.1-3.3-0.9
	c-1.8-1.2-2.5-3.4-2.5-5.2c0-3.8,3.1-5.7,5.6-5.7c0.8,0,1.8,0.2,2.5,0.7c1.2,0.8,1.6,1.9,1.7,2.4l-5.8,2.3l-1.9,0.2
	c0.7,3.1,2.7,5,5.1,5c1.2,0,2.2-0.5,3-0.8L-275.3,315.6z M-277.6,308.2c0.5-0.2,0.8-0.3,0.8-0.7c0-1-1.1-2.2-2.4-2.2
	c-1,0-2.8,0.8-2.8,3.5c0,0.4,0.1,0.8,0.1,1.3L-277.6,308.2z"/>
<path fill="#F9F9F9" d="M-273,304.8v1.6h-0.2v-1.6h-0.6v-0.2h1.3v0.2H-273z"/>
<path fill="#F9F9F9" d="M-270.7,306.4v-1.7l0,0l-0.5,1.7h-0.2l-0.5-1.7l0,0v1.7h-0.2v-1.8h0.3l0.5,1.4l0,0l0.5-1.4h0.3v1.8H-270.7z"
	/>
<path fill="#F9F9FA" d="M-342.3,294.2h-1.2c0-0.2-0.1-0.7-0.4-1.4h-1.8c-0.3,0.8-0.4,1.2-0.4,1.4h-1.1c0-0.1,0.3-0.9,0.9-2.4
	c0.6-1.5,0.9-2.4,0.9-2.5h1.5c0,0.2,0.3,0.9,0.8,2.5C-342.6,293.2-342.3,294-342.3,294.2z M-344.1,292c-0.5-1.3-0.7-2.1-0.7-2.2
	h-0.1c0,0.1-0.2,0.8-0.7,2.2H-344.1z"/>
<path fill="#F9F9FA" d="M-337.4,294.2h-0.9c0-0.1-0.4-0.7-1-1.7c-0.8-1-1.1-1.8-1.2-2.2h-0.1c0.1,0.6,0.1,1,0.1,1.5
	c0,0.7,0,1.4,0.1,2.3h-0.9c0-0.8,0.1-1.7,0.1-2.6c0-0.9,0-1.8-0.1-2.4h1.1c0,0.1,0.3,0.7,0.9,1.6c0.7,1,1,1.7,1.1,2.1h0.1
	c-0.1-0.6-0.1-1.1-0.1-1.5c0-0.7,0-1.4-0.1-2.2h0.9c0,0.7-0.1,1.4-0.1,2.4C-337.5,292.5-337.5,293.3-337.4,294.2z"/>
<path fill="#F9F9FA" d="M-331.8,291.5c0,0.8-0.2,1.4-0.7,1.9c-0.5,0.6-1.1,0.8-2,0.8c-0.4,0-0.9,0-1.6,0c0-0.8,0.1-1.7,0.1-2.6
	c0-0.9,0-1.7-0.1-2.4h0.7c0.1,0,0.3,0,0.5,0s0.4,0,0.5,0c0.9,0,1.6,0.2,2.1,0.7C-332,290.2-331.8,290.8-331.8,291.5z M-332.9,291.6
	c0-0.5-0.2-0.9-0.5-1.2c-0.3-0.4-0.8-0.5-1.3-0.5c-0.1,0-0.3,0-0.5,0c0,0.5,0,1,0,1.6c0,0.7,0,1.2,0,1.8c0.2,0,0.4,0.1,0.5,0.1
	c0.6,0,0.9-0.2,1.2-0.5C-333,292.6-332.9,292.1-332.9,291.6z"/>
<path fill="#F9F9FA" d="M-326.7,294.2h-1.1c-0.3-0.9-0.6-1.5-0.7-1.7c-0.2-0.2-0.4-0.3-0.8-0.3c-0.2,0-0.3,0-0.5,0c0,0.7,0,1.3,0,2
	h-1c0-0.8,0.1-1.7,0.1-2.6c0-0.9,0-1.7-0.1-2.4h0.7c0.1,0,0.3,0,0.5,0c0.3,0,0.5,0,0.7,0c1.2,0,1.8,0.4,1.8,1.2c0,0.7-0.4,1.1-1,1.3
	v0.1c0.3,0.1,0.5,0.3,0.7,0.6C-327.2,292.7-326.9,293.2-326.7,294.2z M-328.1,290.6c0-0.5-0.4-0.8-1-0.8c-0.3,0-0.5,0-0.7,0.1
	c0,0.4,0,0.9,0,1.6c0.2,0,0.3,0,0.4,0C-328.4,291.5-328.1,291.2-328.1,290.6z"/>
<path fill="#F9F9FA" d="M-321.1,291.6c0,0.8-0.3,1.4-0.8,2s-1.1,0.8-1.8,0.8c-0.7,0-1.2-0.3-1.7-0.8s-0.7-1.1-0.7-1.8
	c0-0.8,0.3-1.4,0.8-2s1.1-0.8,1.8-0.8c0.7,0,1.2,0.3,1.7,0.8C-321.3,290.2-321.1,290.8-321.1,291.6z M-322.2,291.6
	c0-0.6-0.1-0.9-0.4-1.3c-0.3-0.4-0.7-0.5-1-0.5c-0.4,0-0.7,0.2-0.9,0.5c-0.3,0.3-0.4,0.8-0.4,1.3s0.1,0.9,0.4,1.3
	c0.3,0.4,0.7,0.5,1,0.5c0.4,0,0.7-0.2,0.9-0.5C-322.2,292.6-322.2,292.2-322.2,291.6z"/>
<path fill="#F9F9FA" d="M-319,294.2h-1.1c0-0.8,0.1-1.7,0.1-2.6c0-0.9,0-1.8-0.1-2.4h1.1c0,0.7-0.1,1.4-0.1,2.4
	C-319,292.5-319,293.3-319,294.2z"/>
<path fill="#F9F9FA" d="M-313.3,291.5c0,0.8-0.2,1.4-0.7,1.9c-0.5,0.6-1.1,0.8-2,0.8c-0.4,0-0.9,0-1.6,0c0-0.8,0.1-1.7,0.1-2.6
	c0-0.9,0-1.7-0.1-2.4h0.7c0.1,0,0.3,0,0.5,0s0.4,0,0.5,0c0.9,0,1.6,0.2,2.1,0.7C-313.5,290.2-313.3,290.8-313.3,291.5z
	 M-314.4,291.6c0-0.5-0.2-0.9-0.5-1.2c-0.3-0.4-0.8-0.5-1.3-0.5c-0.1,0-0.3,0-0.5,0c0,0.5,0,1,0,1.6c0,0.7,0,1.2,0,1.8
	c0.2,0,0.4,0.1,0.5,0.1c0.6,0,0.9-0.2,1.2-0.5C-314.5,292.6-314.4,292.1-314.4,291.6z"/>
<path fill="#F9F9FA" d="M-305.9,294.2h-1.2c0-0.2-0.1-0.7-0.4-1.4h-1.8c-0.3,0.8-0.4,1.2-0.4,1.4h-1.1c0-0.1,0.3-0.9,0.9-2.4
	c0.7-1.5,0.9-2.4,0.9-2.5h1.5c0,0.2,0.3,0.9,0.8,2.5C-306.2,293.2-305.9,294-305.9,294.2z M-307.7,292c-0.5-1.3-0.7-2.1-0.7-2.2
	h-0.1c0,0.1-0.2,0.8-0.7,2.2H-307.7z"/>
<path fill="#F9F9FA" d="M-301.4,290.4c0,0.7-0.2,1-0.7,1.4c-0.5,0.3-1,0.5-1.7,0.5c-0.1,0-0.2,0-0.3,0c0,0.5,0,1.1,0,1.9h-1.1
	c0-0.8,0.1-1.6,0.1-2.6c0-0.9,0-1.7-0.1-2.4h0.7c0.1,0,0.3,0,0.6,0s0.5,0,0.7,0c0.5,0,0.9,0.1,1.2,0.4
	C-301.6,289.7-301.4,290.1-301.4,290.4z M-302.4,290.7c0-0.6-0.4-0.8-1.1-0.8c-0.2,0-0.4,0-0.6,0.1c0,0.5,0,1,0,1.7
	c0.1,0,0.1,0,0.2,0C-302.9,291.6-302.4,291.3-302.4,290.7z"/>
<path fill="#F9F9FA" d="M-296.8,290.4c0,0.7-0.2,1-0.7,1.4c-0.5,0.3-1,0.5-1.7,0.5c-0.1,0-0.2,0-0.3,0c0,0.5,0,1.1,0,1.9h-1.1
	c0-0.8,0.1-1.6,0.1-2.6c0-0.9,0-1.7-0.1-2.4h0.7c0.1,0,0.3,0,0.6,0s0.5,0,0.7,0c0.5,0,0.9,0.1,1.2,0.4
	C-297,289.7-296.8,290.1-296.8,290.4z M-297.7,290.7c0-0.6-0.4-0.8-1.1-0.8c-0.2,0-0.4,0-0.6,0.1c0,0.5,0,1,0,1.7c0.1,0,0.1,0,0.2,0
	C-298.2,291.6-297.7,291.3-297.7,290.7z"/>
<path fill="#F9F9FA" d="M-289.2,291.6c0,0.8-0.3,1.4-0.8,2s-1.1,0.8-1.8,0.8c-0.7,0-1.2-0.3-1.7-0.8s-0.7-1.1-0.7-1.8
	c0-0.8,0.3-1.4,0.8-2s1.1-0.8,1.8-0.8c0.7,0,1.2,0.3,1.7,0.8C-289.5,290.2-289.2,290.8-289.2,291.6z M-290.2,291.6
	c0-0.6-0.1-0.9-0.4-1.3c-0.3-0.4-0.7-0.5-1-0.5c-0.4,0-0.7,0.2-0.9,0.5s-0.4,0.8-0.4,1.3s0.1,0.9,0.4,1.3c0.3,0.4,0.7,0.5,1,0.5
	c0.4,0,0.7-0.2,0.9-0.5C-290.4,292.6-290.2,292.2-290.2,291.6z"/>
<path fill="#F9F9FA" d="M-283.9,294.2h-0.9c0-0.1-0.4-0.7-1-1.7c-0.8-1-1.1-1.8-1.2-2.2h-0.1c0.1,0.6,0.1,1,0.1,1.5
	c0,0.7,0,1.4,0.1,2.3h-0.9c0-0.8,0.1-1.7,0.1-2.6c0-0.9,0-1.8-0.1-2.4h1.1c0,0.1,0.3,0.7,0.9,1.6c0.7,1,1,1.7,1.1,2.1h0.1
	c-0.1-0.6-0.1-1.1-0.1-1.5c0-0.7,0-1.4-0.1-2.2h0.9c0,0.7-0.1,1.4-0.1,2.4C-284,292.5-284,293.3-283.9,294.2z"/>
</svg>
