<?xml version="1.0" encoding="utf-8"?>
<!-- Generator: Adobe Illustrator 16.0.2, SVG Export Plug-In . SVG Version: 6.00 Build 0)  -->
<!DOCTYPE svg PUBLIC "-//W3C//DTD SVG 1.1//EN" "http://www.w3.org/Graphics/SVG/1.1/DTD/svg11.dtd">
<svg version="1.1" id="Layer_1" xmlns="http://www.w3.org/2000/svg" xmlns:xlink="http://www.w3.org/1999/xlink" x="0px" y="0px"
	 width="53px" height="17px" viewBox="0 0 53 17" enable-background="new 0 0 53 17" xml:space="preserve">
<title>Group 13</title>
<desc>Created with Sketch.</desc>
<g>
	<g>
		<path fill="#16487B" d="M3.217,6.356l0.685-3.57h0.613l-0.686,3.57H3.217z M4.014,1.79c0-0.236,0.184-0.414,0.405-0.414
			c0.222,0,0.362,0.163,0.362,0.384C4.774,2.003,4.604,2.173,4.369,2.173C4.153,2.173,4.014,2.01,4.014,1.79z"/>
		<path fill="#16487B" d="M4.478,6.356l0.48-2.53c0.081-0.399,0.127-0.746,0.17-1.042h0.544L5.585,3.486h0.016
			C5.917,2.984,6.397,2.703,6.92,2.703c0.428,0,0.908,0.244,0.908,0.996c0,0.155-0.03,0.383-0.066,0.576l-0.399,2.08H6.751
			l0.391-2.057c0.03-0.14,0.051-0.309,0.051-0.458c0-0.362-0.14-0.628-0.56-0.628c-0.435,0-1.056,0.524-1.217,1.409L5.091,6.354
			H4.478V6.356z"/>
		<path fill="#16487B" d="M8.027,7.167C8.241,7.3,8.595,7.404,8.972,7.404c0.598,0,1.069-0.311,1.285-1.278l0.118-0.531h-0.022
			c-0.31,0.51-0.745,0.76-1.24,0.76c-0.715,0-1.084-0.605-1.084-1.238c-0.007-1.211,0.885-2.413,2.266-2.413
			c0.413,0,0.863,0.119,1.143,0.251l-0.544,2.952c-0.148,0.752-0.347,1.277-0.724,1.594C9.814,7.81,9.335,7.898,8.922,7.898
			c-0.435,0-0.842-0.104-1.069-0.251L8.027,7.167z M10.764,3.315c-0.111-0.051-0.332-0.118-0.59-0.118
			c-0.893,0-1.506,0.93-1.513,1.815c0,0.391,0.141,0.855,0.687,0.855c0.523,0,1.055-0.664,1.188-1.365L10.764,3.315z"/>
		<path fill="#16487B" d="M11.428,6.356l0.437-2.301c0.087-0.464,0.147-0.937,0.184-1.269h0.539c-0.03,0.25-0.059,0.501-0.096,0.775
			h0.023c0.228-0.486,0.612-0.856,1.092-0.856c0.051,0,0.126,0.008,0.169,0.015l-0.118,0.605C13.62,3.316,13.561,3.31,13.495,3.31
			c-0.531,0-1.003,0.641-1.158,1.475l-0.294,1.571H11.428z"/>
		<path fill="#16487B" d="M15.877,6.149c-0.266,0.155-0.702,0.281-1.18,0.281c-0.945,0-1.358-0.642-1.358-1.432
			c0-1.077,0.796-2.295,1.949-2.295c0.677,0,1.047,0.406,1.047,0.916c0,0.936-1.056,1.188-2.376,1.165
			c-0.031,0.155-0.007,0.487,0.073,0.678c0.14,0.318,0.428,0.48,0.797,0.48c0.42,0,0.736-0.132,0.958-0.251L15.877,6.149z
			 M15.198,3.184c-0.583,0-1.019,0.568-1.167,1.129c0.96,0.008,1.714-0.119,1.714-0.671C15.744,3.346,15.523,3.184,15.198,3.184z"/>
		<path fill="#16487B" d="M16.245,5.736c0.17,0.104,0.48,0.222,0.769,0.222c0.413,0,0.678-0.266,0.678-0.582
			c0-0.281-0.125-0.452-0.494-0.658c-0.413-0.229-0.642-0.545-0.642-0.907c0-0.627,0.54-1.107,1.292-1.107
			c0.325,0,0.612,0.089,0.745,0.177l-0.17,0.464c-0.126-0.074-0.354-0.162-0.62-0.162c-0.369,0-0.634,0.228-0.634,0.539
			c0,0.259,0.169,0.421,0.486,0.598c0.398,0.228,0.672,0.539,0.672,0.936c0,0.754-0.612,1.174-1.366,1.174
			c-0.383,0-0.722-0.118-0.884-0.243L16.245,5.736z"/>
		<path fill="#16487B" d="M18.569,5.736c0.17,0.104,0.479,0.222,0.768,0.222c0.413,0,0.679-0.266,0.679-0.582
			c0-0.281-0.125-0.452-0.494-0.658c-0.413-0.229-0.643-0.545-0.643-0.907c0-0.627,0.54-1.107,1.293-1.107
			c0.325,0,0.612,0.089,0.745,0.177l-0.17,0.464c-0.126-0.074-0.354-0.162-0.621-0.162c-0.37,0-0.633,0.228-0.633,0.539
			c0,0.259,0.169,0.421,0.486,0.598c0.398,0.228,0.671,0.539,0.671,0.936c0,0.754-0.613,1.174-1.365,1.174
			c-0.383,0-0.722-0.118-0.884-0.243L18.569,5.736z"/>
		<path fill="#16487B" d="M24.288,4.194c0,1.1-0.783,2.243-1.978,2.243c-0.892,0-1.393-0.664-1.393-1.467
			c0-1.173,0.818-2.266,1.976-2.266C23.86,2.704,24.288,3.435,24.288,4.194z M21.55,4.947c0,0.582,0.317,1.003,0.842,1.003
			c0.722,0,1.268-0.93,1.268-1.763c0-0.414-0.191-0.996-0.833-0.996C22.06,3.191,21.542,4.128,21.55,4.947z"/>
		<path fill="#16487B" d="M25.52,6.356l0.406-2.146c0.104-0.545,0.147-1.151,0.184-1.462h0.923
			c-0.024,0.244-0.045,0.487-0.066,0.738h0.021c0.251-0.479,0.657-0.819,1.152-0.819c0.065,0,0.132,0,0.199,0.007l-0.208,1.033
			C28.08,3.7,28.021,3.7,27.962,3.7c-0.68,0-0.995,0.605-1.129,1.313l-0.251,1.343H25.52z"/>
		<path fill="#16487B" d="M30.205,6.356c0.006-0.213,0.029-0.458,0.051-0.715h-0.022c-0.332,0.598-0.791,0.796-1.211,0.796
			c-0.648,0-1.092-0.501-1.092-1.253c0-1.217,0.805-2.516,2.583-2.516c0.428,0,0.892,0.081,1.194,0.177l-0.383,1.888
			c-0.088,0.464-0.154,1.173-0.141,1.624H30.205z M30.515,3.501c-0.082-0.016-0.186-0.031-0.288-0.031
			c-0.687,0-1.188,0.841-1.188,1.512c0,0.354,0.14,0.598,0.436,0.598c0.317,0,0.709-0.362,0.87-1.247L30.515,3.501z M31.68,1.191
			l-0.959,1.123h-0.783l0.694-1.123H31.68z"/>
		<path fill="#16487B" d="M31.34,7.818l0.694-3.675c0.081-0.428,0.17-1.026,0.214-1.394h0.951l-0.065,0.523h0.015
			c0.295-0.39,0.723-0.605,1.158-0.605c0.783,0,1.159,0.627,1.159,1.366c0,1.254-0.836,2.404-2.089,2.404
			c-0.295,0-0.546-0.074-0.671-0.147H32.69l-0.294,1.528L31.34,7.818L31.34,7.818z M32.854,5.457
			c0.118,0.111,0.28,0.177,0.486,0.177c0.569,0,1.012-0.811,1.012-1.52c0-0.288-0.119-0.59-0.465-0.59
			c-0.397,0-0.769,0.45-0.9,1.158L32.854,5.457z"/>
		<path fill="#16487B" d="M35.436,6.356l0.687-3.608h1.063l-0.687,3.608H35.436z M36.269,1.782c0.008-0.362,0.289-0.605,0.612-0.605
			c0.311,0,0.532,0.207,0.532,0.524c0,0.376-0.289,0.598-0.627,0.598C36.49,2.299,36.269,2.099,36.269,1.782z"/>
		<path fill="#16487B" d="M41.285,1.118l-0.729,3.836c-0.09,0.464-0.157,0.974-0.172,1.402h-0.973l0.05-0.583H39.45
			c-0.318,0.48-0.762,0.664-1.182,0.664c-0.614,0-1.122-0.486-1.122-1.365c0-1.254,0.908-2.404,2.273-2.404
			c0.146,0,0.338,0.022,0.492,0.081l0.312-1.629H41.285z M39.758,3.597c-0.079-0.067-0.243-0.126-0.42-0.126
			c-0.634,0-1.084,0.737-1.084,1.432c0,0.435,0.193,0.679,0.502,0.679c0.301,0,0.679-0.325,0.818-1.011L39.758,3.597z"/>
		<path fill="#16487B" d="M44.65,4.15c0,1.32-0.9,2.287-2.154,2.287c-0.915,0-1.526-0.597-1.526-1.49c0-1.254,0.87-2.28,2.153-2.28
			C44.091,2.667,44.65,3.33,44.65,4.15z M42.068,4.924c0,0.42,0.207,0.702,0.575,0.702c0.581,0,0.907-0.849,0.907-1.467
			c0-0.333-0.14-0.687-0.567-0.687C42.369,3.472,42.062,4.365,42.068,4.924z"/>
	</g>
	<g>
		<path fill="#067ABE" d="M46.189,8.809C35.207,7.464,24.276,7.264,13.282,8.433c-3.53,0.376-6.96,0.904-10.479,1.544l-0.868,6.672
			C13.129,7.741,32.62,7.892,46.189,8.809"/>
	</g>
</g>
</svg>
