<?xml version="1.0" encoding="utf-8"?>
<!-- Generator: Adobe Illustrator 19.1.0, SVG Export Plug-In . SVG Version: 6.00 Build 0)  -->
<svg version="1.1" id="Layer_1" xmlns="http://www.w3.org/2000/svg" xmlns:xlink="http://www.w3.org/1999/xlink" x="0px" y="0px"
	 width="109.8px" height="64px" viewBox="-448 275 109.8 64" enable-background="new -448 275 109.8 64" xml:space="preserve">
<polygon fill="#00A0E4" points="-446,311.1 -446,337 -436.2,337 -436.2,327.6 -426.9,337 -413.8,337 -428.3,322.7 -416.8,311.1 
	-426.6,311.1 -436.2,320.6 -436.2,311.1 "/>
<polygon fill="#00A0E4" points="-414,311.1 -414,337 -388,337 -388,330.4 -403.9,330.4 -403.9,311.1 "/>
<polygon fill="#00A0E4" points="-385.2,311.1 -385.2,337 -375.3,337 -375.3,318.3 -368.8,337 -359.5,337 -352.8,318.2 -352.8,337 
	-343.1,337 -343.1,311.1 -359.2,311.1 -364.2,325.5 -368.9,311.1 "/>
<rect x="-414.1" y="298.7" fill="#00A0E4" width="38.8" height="6.7"/>
<polygon fill="#00A0E4" points="-396.3,283.5 -399.6,283.5 -399.6,280.2 -396.3,280.2 -396.3,277 -393.1,277 -393.1,280.2 
	-389.9,280.2 -389.9,283.5 -393.1,283.5 -393.1,286.7 -396.3,286.7 "/>
<path fill="#00A0E4" d="M-414,297.2c3.1,0,5.5-2.5,5.5-5.5c0-3.1-2.5-5.5-5.5-5.5c-3.1,0-5.5,2.5-5.5,5.5S-417,297.2-414,297.2"/>
<path fill="#00A0E4" d="M-401,297.2c3.1,0,5.5-2.5,5.5-5.5c0-3.1-2.5-5.5-5.5-5.5c-3.1,0-5.5,2.5-5.5,5.5
	C-406.6,294.6-404.2,297.2-401,297.2"/>
<path fill="#00A0E4" d="M-388.1,297.2c3.1,0,5.5-2.5,5.5-5.5c0-3.1-2.5-5.5-5.5-5.5c-3.1,0-5.5,2.5-5.5,5.5
	C-393.7,294.6-391.2,297.2-388.1,297.2"/>
<path fill="#00A0E4" d="M-375.1,297.2c3.1,0,5.5-2.5,5.5-5.5c0-3.1-2.5-5.5-5.5-5.5c-3.1,0-5.5,2.5-5.5,5.5
	S-378.2,297.2-375.1,297.2"/>
</svg>
