<?xml version="1.0" encoding="utf-8"?>
<!-- Generator: Adobe Illustrator 19.1.0, SVG Export Plug-In . SVG Version: 6.00 Build 0)  -->
<svg version="1.1" id="Layer_1" xmlns="http://www.w3.org/2000/svg" xmlns:xlink="http://www.w3.org/1999/xlink" x="0px" y="0px"
	 width="547.2px" height="64px" viewBox="-229 275 547.2 64" enable-background="new -229 275 547.2 64" xml:space="preserve">
<path fill="#00529B" d="M-65.8,280.6c0,0-25.5,2-39.3,0.7c0,0-1.7-0.5-2.2,1.5c0,0-0.9,1.5,0.6,2.5s5.6,3.4,5.6,12.5s0,17.4,0,17.4
	s0.8,9.6-5.8,13.2c0,0-1.4,0.5-0.7,2.4c0,0,0.1,1.8,2.1,1.5c2-0.3,12.6-1.1,27.3-0.1c0,0,1.3,0.1,1.7-0.8c0.4-0.8,0.5-0.9,0.5-0.9
	s1.3-1.3-0.7-2.5c-2-1.3-5.1-3.1-5.3-11.2c-0.3-8.1,0-8.2,0-8.2h1.2c0,0,4-0.4,6.8,5.8c0,0,5.3,12.7,6.1,14.2
	c0.8,1.6,2.4,4.8,8.1,4.2c5.7-0.6,32.2-2.5,60.6,0.1c0,0,3,0.5,4.2-2.5c0,0,4.9-13.1,6.1-15.2c0,0,10.3-0.3,15.9-0.2
	c0,0,2.2,3.5,2.2,7.8s-3.7,5.2-3.7,5.2s-1.6,0.7-0.8,2.5c0,0,0.3,1.9,2.2,1.7s18-1.8,42.4-0.2c0,0,1.7,0.7,2.3-1.6
	c0,0,1-1.8-0.7-2.5c0,0-6.5-1.5-6.5-11.7s0-17.5,0-17.5s4.9,7,10.7,17.4c5.8,10.4,8.8,14.8,8.8,14.8s2.8,5.6,8.5,2.6
	c5.7-2.9,11.9-6.5,15.4-8.8c0,0,1.4-0.7,0.7-2.4l-0.5-1.1c0,0-0.1-0.7-2.1-0.8c0,0-4.2,1-4.3-5.1s-0.4-14.6,0-23.4
	c0,0,0.2-5.4,5.2-7c0,0,1.9-0.2,1-2.4l-0.6-1.1c0,0,0-0.9-1.3-0.8s-8.2,0.8-15.8,0.2c0,0-1.7,0-1.9,1.9c0,0-0.5,1.7,0.8,2.2
	s5.7,2.2,6,9.1c0.3,7,0.4,16.7,0.4,16.7s-10.4-15.2-17.1-26.8c0,0-1.1-3.1-5-2.8s-13.2,0.8-20,0.1c0,0-2-0.3-2.3,2
	c0,0-0.6,2,1.1,2.7c0,0,5.4,3.4,5.4,4.6s-0.1,25.2-0.1,25.2s0.5,9.8-2.3,8.5c0,0-1.6,1-5.2-5.8c-3.7-6.8-8.4-16.5-16.3-35.3
	c0,0-1.7-5.2-5-5.2c0,0-2.1,0.1-4,1.3s-8.6,4.9-15.6,6.9c0,0-1.9,0.6-1.3,2.4c0,0-0.3,1.4,1.8,2.2c2.1,0.8,3.7,1.6,4.2,2.5
	c0,0-2.2,6.8-5.9,13.6s-8.6,18.3-22.7,18.3h-5.5c0,0-1.5,0.2-1.5-1.9s0-14.5,0-14.5h3.6c0,0,5.9-1.3,8.6,6.4c0,0,0.6,2.4,2.5,1.5
	c0,0,2.3-0.3,2.2-2.5c-0.2-2.3-0.4-8.3,0.1-13.8c0,0,0.2-1.7-1.7-2.1c0,0-1.5-0.8-2.5,0.5c-1.1,1.2-3.3,3.9-8.4,3.9s-4.2,0-4.2,0
	v-13.6c0,0-0.1-0.9,0.6-1s8.4-2.1,13.1,1.8c4.6,3.8,4.9,5.2,5.9,6.7c0,0,0.9,2.3,3.2,0.8c0,0,1.9-0.3,0.9-3s-1.2-3.8-2.7-10.9
	c0,0-0.3-2.9-3.3-2.7c-3,0.1-22.3,2.4-40.4,0.9c0,0-2-0.5-2.3,1.6c0,0-0.8,1.4,0.7,2.6c0,0,5.3,2.5,5.3,11.9s0,15.8,0,15.8
	s0.9,12.5-3.5,12.5c0,0-2,0.8-5.2-5.6c-3.2-6.5-3.4-6.7-3.4-6.7s-2.5-8.7-13.9-9.1c0,0,15.7-2.6,14.2-14.3c0,0-0.3-8.9-12.1-9.3
	C-64.5,280.6-65.8,280.6-65.8,280.6z M-82.2,302.8V294c0,0,0.1-6.7,5.3-6.7c5.3,0,4.6,6.5,4.6,7.3
	C-72.1,295.4-72.4,302.8-82.2,302.8z M13.6,308.8c0,0,3.3-7.9,4.8-10.1c0,0,4,5.6,5.5,10.2C23.9,308.9,19.3,309.6,13.6,308.8z"/>
<path fill="#00529B" d="M188.6,312.6c0,0,0.4,11.9-4,11.1c0,0-1.6,1-5.2-5.8c-3.7-6.8-8.4-16.5-16.3-35.3c0,0-1.7-5.2-5-5.2
	c0,0-2.1,0.1-4,1.3c-2.2,1.2-8.6,4.9-15.6,6.9c0,0-1.9,0.6-1.3,2.4c0,0-0.3,1.4,1.8,2.2c2.1,0.8,3.7,1.6,4.2,2.5
	c0,0-2.2,6.8-5.9,13.6c-3.8,6.9-7.2,17-16.1,21.5c0,0-1.8,0.4-1.2,2.5c0.7,2.4,1.9,1.8,1.9,1.8c10.4-1.1,13.6-0.2,15.9,0
	c2.4,0.2,2.1-1.8,2.1-1.8c0.7-1.2-0.2-2-0.2-2l-1-1.3c0,0-3.8-1,1.7-12.2c0,0,10.3-0.3,15.9-0.2c0,0,2.2,3.5,2.2,7.8
	s-3.7,5.2-3.7,5.2s-1.6,0.7-0.8,2.5c0,0,0.3,1.9,2.2,1.7s31.9-1.5,56.3,0.1c0,0,1.8,0.1,2.3-1.5c0,0,1-2-0.7-2.9
	c0,0-4.8-2.2-5.2-9.8c-0.7-7.9-0.6-22.5-0.6-22.5s-0.4-8.2,4.8-10.7c0,0,1.4-0.7,0.7-2.5c0,0-0.4-1.8-2.1-1.6
	c-1.8,0.3-18.9,1.2-26.9,0.2c0,0-1.9-0.1-2.3,1.5c0,0-0.9,1.5,0.7,2.6c1.6,1.2,5.5,3.8,5.5,12.4
	C188.6,305.4,188.6,312.6,188.6,312.6z M147.6,298c4.9,7,5.5,10.2,5.5,10.2c-3.8,0.7-10.3-0.1-10.3-0.1
	C144.8,303.1,147.6,298,147.6,298z"/>
<path fill="#00529B" d="M260.6,279.9c0,0-19.9,2.4-38.3,0.6c0,0-2.4-0.7-2.6,1.9c0,0-0.2,1.7,0.8,2.3s5.1,3,5.3,11.6
	s0.5,6.1,0.3,17.6c0,0,0.7,11.2-5.6,13.8c0,0-1.7,0.4-0.7,2.7c0,0,0.6,1.9,2.2,1.2c0,0,14.8-1,27.7,0.1c0,0,1.5,0.6,2-1.4
	c0,0,1.2-1.3-0.7-2.6c-1.9-1.4-5.1-3.7-5.4-9.4c-0.4-5.7-0.3-10.2-0.3-10.2h1.3c0,0,4.2-0.6,7.2,6.2c2.8,6.8,4.9,11.6,4.9,11.6
	s2,5.3,5,7.1c0,0,1.3,1.2,6,0.7c0,0,7.7-0.5,15.3-3.9c0,0,1.8-0.4,1.2-2.4c0,0,0.4-1.6-1.9-2.1c-2.3-0.5-3.8-2.5-5.3-5.6
	c-1.6-3.1-3.8-7.6-3.8-7.6s-3.1-7.9-13.5-8c0,0,14.2-2.5,14.2-13.1c0-10.7-12.7-10.9-12.7-10.9h-2.3V279.9z M245.1,302.4v-8.8
	c0,0,0.2-6.7,5.2-6.7s5.1,5.6,4.8,7.5C254.8,296.1,254.4,302.4,245.1,302.4z"/>
<circle fill="#FFFFFF" cx="-137.7" cy="307" r="30"/>
<path fill="#EC1C2E" d="M-124.9,289c9.1,2.8,15.7,11.3,15.7,21.4c0,1.5-0.2,2.8-0.4,4.3v0.2c-0.7,3.9-2.3,7.6-4.6,10.7l0,0
	c4-5.1,6.4-11.5,6.4-18.6c0-16.6-13.5-30-30-30c-7.6,0-14.4,2.7-19.7,7.4l-0.1,0.1c-4.1,3.8-6.8,9.3-6.8,15.4c0,2.5,0.5,5,1.3,7.2
	l0,0c2.2,4.6,6.8,7.8,12.1,7.8c7.3,0,13.3-5.9,13.3-13.3v-5.7c0-2.6,1.5-4.9,3.6-6.1l0,0c1.7-0.9,3.6-1.5,5.6-1.5
	C-127.2,288.4-126,288.6-124.9,289L-124.9,289z"/>
<path fill="#00529B" d="M-160.7,326.3c5.5,6.6,13.7,10.7,23,10.7c7.6,0,14.4-2.7,19.7-7.4l0.1-0.1c4.1-3.8,6.8-9.3,6.8-15.4
	c0-2.5-0.5-5-1.3-7.2l0,0c-2.2-4.6-6.8-7.8-12.1-7.8c-7.3,0-13.3,5.9-13.3,13.3v5.7c0,2.6-1.5,4.9-3.6,6.1l0,0
	c-1.7,0.9-3.6,1.5-5.6,1.5c-1.3,0-2.5-0.2-3.6-0.6l0,0c-9.1-2.8-15.7-11.3-15.7-21.4c0-1.5,0.2-2.8,0.4-4.3v-0.2
	c0.8-3.9,2.3-7.6,4.6-10.7l0,0c-3.9,5.1-6.3,11.5-6.3,18.6c0,4.8,1.1,9.4,3.1,13.4l-0.3,0.2c0,0-1.2,0.9-3.5-1.9
	c-2.3-2.7-16.2-19.3-16.2-19.3s8.7-9.5,17.4-13.3c0,0,2.3-0.8,1.8-2.7l-0.4-1.2c0,0-0.1-1.3-2.2-1c-2.1,0.3-11.4,1-20.8,0.1
	c0,0-1.5,0-2.1,1.2c0,0-0.9,1.6,0,2.5s4.1,3.1,4.1,6.3c0,0,0.7,2.3-4.2,5.9c-5,3.6-8.1,6-10.1,7.1l0.1-8.4c0,0-0.3-7.2,4.9-10.5
	c0,0,1.3-0.6,0.8-1.8l-0.4-1c0,0-0.3-1.5-1.9-1.3c0,0-8.9,1-26.8,0.2c0,0-1.2-0.1-1.7,0.8l-0.3,0.8c0,0-0.7,1.7,0.4,2.4
	s5.2,3.1,5.3,10.6c0,0,0.5,14.2-0.2,19.7c-0.7,5.5-1.1,8.6-5.5,12.6c0,0-1.2,0.9-0.7,2.3l0.7,1.2c0,0,0.5,0.9,2.1,0.8
	s12.7-1.3,26.8-0.2c0,0,1,0.4,1.5-0.7l0.7-1.3c0,0,0.7-1.3-0.7-2.3s-5-3.8-5.1-9.5c-0.2-5.5-0.2-9-0.2-9s2.5,1,15.5,20.2
	c0,0,4.6,8.2,14.3,3.1c0,0,7.2-3.8,10.1-6.5L-160.7,326.3z"/>
</svg>
