<?xml version="1.0" encoding="utf-8"?>
<!-- Generator: Adobe Illustrator 16.0.2, SVG Export Plug-In . SVG Version: 6.00 Build 0)  -->
<!DOCTYPE svg PUBLIC "-//W3C//DTD SVG 1.1//EN" "http://www.w3.org/Graphics/SVG/1.1/DTD/svg11.dtd">
<svg version="1.1" id="Layer_1" xmlns="http://www.w3.org/2000/svg" xmlns:xlink="http://www.w3.org/1999/xlink" x="0px" y="0px"
	 width="55px" height="17px" viewBox="0 0 55 17" enable-background="new 0 0 55 17" xml:space="preserve">
<title>Group 8</title>
<desc>Created with Sketch.</desc>
<g id="_x5B_M_x5D_-Ingresso-rapido">
	<g id="_x32__x2F_1--dropdown1_x2F_completo" transform="translate(-133.000000, -65.000000)">
		<g id="Group-8" transform="translate(133.000000, 65.000000)">
			<g id="Group-4" display="none">
				<path id="Rectangle-3-Copy-10" display="inline" fill="#048C34" d="M2,13.571h22.721L27.563,17l3.079-3.429H53
					c1.104,0,2-0.896,2-2V2c0-1.104-0.896-2-2-2H2C0.896,0,0,0.896,0,2v9.571C0,12.676,0.896,13.571,2,13.571z"/>
			</g>
			<g id="Group-2-Copy-2" transform="translate(3.000000, 4.000000)">
				<g id="Page-1">
					<g id="Group-3" transform="translate(0.000000, 0.034759)">
						<g id="Clip-2">
						</g>
						<defs>
							<filter id="Adobe_OpacityMaskFilter" filterUnits="userSpaceOnUse" x="0" y="0.019" width="4.979" height="5.913">
								<feColorMatrix  type="matrix" values="1 0 0 0 0  0 1 0 0 0  0 0 1 0 0  0 0 0 1 0"/>
							</filter>
						</defs>
						<mask maskUnits="userSpaceOnUse" x="0" y="0.019" width="4.979" height="5.913" id="mask-2">
							<g filter="url(#Adobe_OpacityMaskFilter)">
								<polygon id="path-1" fill="#FFFFFF" points="0,0.02 4.979,0.02 4.979,5.932 0,5.932 								"/>
							</g>
						</mask>
						<path id="Fill-1" mask="url(#mask-2)" fill="#C3DB00" d="M1.624,0.791C1.003,1.296,0.948,1.853,1.508,2.444
							c0.38,0.401,0.813,0.753,1.22,1.13C3.024,3.85,3.31,4.138,3.514,4.492c0.262,0.454,0.244,0.984-0.036,1.333
							C3.389,5.935,3.315,6,3.239,5.815C2.93,5.06,2.326,4.556,1.713,4.057C1.31,3.728,0.902,3.404,0.552,3.017
							C0.279,2.713,0.044,2.388,0.007,1.963C-0.059,1.216,0.354,0.655,1.199,0.35c0.653-0.236,1.332-0.313,2.02-0.325
							c0.578-0.01,1.156-0.002,1.76-0.002C4.867,0.127,4.728,0.132,4.603,0.158c-0.515,0.11-1.009,0.274-1.466,0.535
							C2.475,1.072,2.419,1.565,2.98,2.075c0.316,0.287,0.66,0.546,0.966,0.843c0.55,0.534,0.613,1.138,0.188,1.864
							C3.837,3.776,3.004,3.28,2.277,2.685c-0.196-0.16-0.378-0.344-0.534-0.542C1.394,1.702,1.412,1.306,1.771,0.867
							C2.087,0.549,2.432,0.48,2.57,0.413C2.226,0.48,2.019,0.48,1.624,0.791"/>
					</g>
					<path id="Fill-4" fill="#FBFCFB" d="M26.344,2.288c-0.449,0-0.9-0.012-1.349,0.005c-0.267,0.01-0.312-0.09-0.267-0.326
						c0.106-0.562,0.102-0.567,0.695-0.567c0.744,0,1.488,0.008,2.231-0.004c0.256-0.004,0.316,0.079,0.281,0.322
						c-0.041,0.285-0.139,0.519-0.344,0.731c-0.643,0.665-1.27,1.343-1.902,2.018c-0.068,0.073-0.13,0.153-0.248,0.294
						c0.516,0,0.963,0.012,1.408-0.004c0.291-0.011,0.399,0.055,0.316,0.371c-0.135,0.512-0.117,0.518-0.654,0.518
						c-0.756,0-1.512-0.007-2.267,0.004c-0.238,0.003-0.293-0.058-0.247-0.301c0.074-0.388,0.238-0.704,0.517-0.989
						c0.637-0.65,1.251-1.322,1.875-1.984L26.344,2.288z"/>
					<path id="Fill-6" fill="#FCFDFD" d="M7.454,5.637c-0.314,0-0.628,0.015-0.941-0.003C5.8,5.594,5.434,5.18,5.569,4.489
						c0.274-1.41,0.591-2.812,0.887-4.217C6.494,0.094,6.595,0.04,6.773,0.026c0.87-0.065,0.874-0.069,0.706,0.747
						c-0.223,1.081-0.454,2.16-0.68,3.239c-0.114,0.544,0.013,0.701,0.563,0.71c0.069,0.001,0.139,0,0.209,0
						c0.74,0.001,0.736,0.003,1.05,0.661C8.71,5.57,8.659,5.641,8.465,5.641c-0.337,0-0.674,0-1.011,0
						C7.454,5.639,7.454,5.639,7.454,5.637"/>
					<path id="Fill-8" fill="#FCFDFD" d="M15.051,5.625c-0.116,0-0.232,0-0.349-0.001c-1.068-0.011-1.594-0.569-1.476-1.618
						c0.055-0.489,0.154-0.977,0.324-1.444c0.244-0.671,0.721-1.047,1.441-1.126c0.51-0.056,1.021-0.024,1.532-0.036
						c0.2-0.005,0.265,0.07,0.238,0.27c-0.081,0.599-0.097,0.619-0.706,0.618c-0.197,0-0.395-0.002-0.592-0.001
						c-0.48,0.003-0.705,0.146-0.867,0.591c-0.13,0.357-0.205,0.733-0.235,1.11c-0.039,0.479,0.205,0.731,0.686,0.742
						c0.267,0.006,0.535,0.005,0.802,0.005c0.167,0,0.234,0.074,0.191,0.238c-0.014,0.055-0.027,0.112-0.039,0.168
						c-0.104,0.483-0.104,0.483-0.602,0.483C15.283,5.626,15.167,5.626,15.051,5.625L15.051,5.625z"/>
					<path id="Fill-10" fill="#FCFDFC" d="M21.039,5.641c-0.129,0-0.198,0.001-0.268,0c-0.358-0.007-0.435-0.095-0.361-0.441
						c0.204-0.954,0.414-1.906,0.622-2.859c0.142-0.65,0.295-1.299,0.419-1.953c0.053-0.281,0.178-0.376,0.466-0.371
						c0.756,0.017,0.75,0.003,0.592,0.734c-0.317,1.469-0.636,2.939-0.932,4.413C21.504,5.52,21.409,5.762,21.039,5.641"/>
					<path id="Fill-12" fill="#FCFDFC" d="M22.683,5.642c-0.521,0-0.521-0.001-0.417-0.492c0.236-1.112,0.485-2.222,0.702-3.338
						c0.064-0.329,0.208-0.427,0.536-0.419c0.808,0.019,0.697-0.014,0.555,0.665c-0.21,1-0.434,1.998-0.649,2.998
						C23.282,5.641,23.283,5.642,22.683,5.642"/>
					<path id="Fill-14" fill="#F6FBF9" d="M23.905,0.021c0.116,0,0.209,0.004,0.302,0c0.178-0.009,0.267,0.06,0.228,0.245
						c-0.05,0.236-0.097,0.473-0.154,0.708C24.247,1.113,24.149,1.177,24,1.176c-1.028-0.006-0.888,0.126-0.729-0.805
						C23.347-0.074,23.655,0.035,23.905,0.021"/>
					<path id="Fill-16" fill="#FDFDFD" d="M11.774,3.003c-0.034,0.412-0.105,0.821-0.257,1.208c-0.16,0.411-0.37,0.525-0.871,0.523
						c-0.545-0.002-0.768-0.22-0.735-0.756c0.024-0.39,0.103-0.776,0.242-1.142c0.228-0.599,0.759-0.649,1.27-0.484
						C11.713,2.447,11.797,2.726,11.774,3.003 M11.44,1.405c-0.313-0.005-0.626,0.009-0.938,0.04
						C9.794,1.514,9.323,1.902,9.099,2.561c-0.118,0.347-0.184,0.71-0.268,1.068c-0.3,1.269,0.247,2.098,1.706,1.993
						c0.087,0,0.227,0.005,0.365-0.001c0.951-0.039,1.479-0.434,1.744-1.343c0.116-0.396,0.208-0.803,0.261-1.211
						C13.042,2.014,12.514,1.422,11.44,1.405"/>
					<path id="Fill-18" fill="#FCFDFD" d="M18.924,3.835c-0.036,0.18-0.098,0.357-0.112,0.539c-0.025,0.304-0.157,0.443-0.41,0.375
						c-0.143-0.009-0.225-0.012-0.305-0.021c-0.212-0.023-0.438-0.051-0.492-0.301c-0.054-0.256,0.04-0.482,0.259-0.633
						c0.282-0.195,0.611-0.196,0.939-0.185C18.964,3.616,18.945,3.73,18.924,3.835 M19.346,1.438
						c-0.532-0.074-1.067-0.029-1.602-0.037c-0.113-0.001-0.222,0.026-0.258,0.135c-0.073,0.216-0.19,0.457-0.1,0.665
						c0.076,0.173,0.315,0.068,0.48,0.076c0.302,0.015,0.604-0.003,0.906,0.01c0.239,0.01,0.394,0.124,0.388,0.388
						c-0.006,0.292-0.228,0.193-0.382,0.206c-0.162,0.014-0.326,0.002-0.487,0.02c-0.507,0.055-0.985,0.196-1.355,0.563
						c-0.418,0.414-0.586,0.925-0.412,1.485c0.163,0.521,0.646,0.616,1.121,0.663c0.277,0.027,0.557,0.029,0.835,0.042
						c0-0.007,0-0.013,0-0.021c0.267,0,0.535,0.008,0.801-0.002c0.234-0.008,0.402-0.125,0.452-0.357
						c0.19-0.888,0.402-1.773,0.548-2.668C20.39,1.95,20.021,1.532,19.346,1.438"/>
					<path id="Fill-20" fill="#FCFDFD" d="M30.089,3.797c-0.038,0.192-0.097,0.381-0.112,0.574
						c-0.025,0.307-0.164,0.439-0.457,0.366c-0.088,0-0.158,0.007-0.228-0.001c-0.22-0.027-0.463-0.04-0.526-0.308
						c-0.064-0.277,0.059-0.501,0.288-0.652c0.274-0.179,0.593-0.178,0.908-0.171C30.092,3.608,30.109,3.694,30.089,3.797
						 M30.549,1.446c-0.52-0.09-1.044-0.039-1.566-0.043c-0.312-0.003-0.496,0.27-0.467,0.697c0.021,0.314,0.281,0.164,0.434,0.175
						c0.336,0.023,0.674,0,1.01,0.014c0.229,0.009,0.365,0.133,0.367,0.374c0,0.282-0.212,0.209-0.375,0.22
						c-0.243,0.016-0.489,0.013-0.729,0.052c-0.469,0.076-0.895,0.251-1.211,0.622c-0.355,0.416-0.486,0.902-0.311,1.416
						c0.17,0.499,0.638,0.593,1.102,0.637c0.277,0.027,0.557,0.029,0.835,0.043c0-0.004,0.001-0.01,0.001-0.014
						c0.256,0,0.511,0.004,0.766-0.002c0.246-0.004,0.435-0.11,0.49-0.359c0.195-0.887,0.436-1.766,0.555-2.666
						C31.535,1.958,31.209,1.562,30.549,1.446"/>
					<path id="Fill-22" fill="#FFD000" d="M35.607,4.199c-0.74,0-0.74,0-0.889,0.711c-0.012,0.056-0.022,0.113-0.035,0.169
						c-0.154,0.663,0.008,0.569-0.754,0.585c-0.244,0.006-0.266-0.104-0.223-0.299c0.266-1.223,0.529-2.447,0.786-3.672
						c0.04-0.189,0.116-0.286,0.323-0.265c0.126,0.013,0.256,0.008,0.383,0.001c0.214-0.012,0.256,0.083,0.211,0.275
						c-0.105,0.458-0.193,0.921-0.301,1.38c-0.051,0.216-0.016,0.326,0.241,0.309c0.393-0.026,0.874,0.147,1.155-0.062
						c0.284-0.211,0.219-0.719,0.316-1.094c0.049-0.189,0.097-0.379,0.124-0.572c0.026-0.19,0.132-0.233,0.31-0.239
						c0.664-0.023,0.662-0.029,0.522,0.613c-0.239,1.1-0.476,2.201-0.716,3.3c-0.026,0.117,0.001,0.288-0.167,0.306
						c-0.239,0.024-0.489,0.063-0.72-0.026c-0.096-0.036-0.043-0.165-0.025-0.252c0.063-0.303,0.127-0.607,0.198-0.908
						c0.046-0.191-0.004-0.28-0.218-0.263C35.957,4.21,35.782,4.199,35.607,4.199"/>
					<path id="Fill-24" fill="#FFD000" d="M46.994,4.843c0.376,0,0.754,0.017,1.129-0.005c0.295-0.017,0.328,0.108,0.275,0.348
						c-0.102,0.475-0.096,0.477-0.6,0.477c-0.661,0-1.322-0.007-1.984,0.004c-0.237,0.004-0.305-0.072-0.26-0.305
						c0.063-0.313,0.178-0.571,0.434-0.79c0.475-0.405,0.918-0.843,1.369-1.273c0.06-0.056,0.188-0.094,0.133-0.209
						c-0.042-0.085-0.146-0.046-0.223-0.048c-0.313-0.004-0.627-0.008-0.939,0.001c-0.189,0.005-0.24-0.064-0.216-0.247
						c0.077-0.569,0.071-0.57,0.655-0.571c0.65,0,1.301,0.009,1.949-0.005c0.252-0.005,0.289,0.088,0.249,0.31
						c-0.056,0.304-0.175,0.547-0.417,0.76c-0.542,0.475-1.057,0.98-1.584,1.473C46.975,4.789,46.984,4.816,46.994,4.843"/>
					<path id="Fill-26" fill="#FFD000" d="M45.42,2.225c0.104,0.087,0.389-0.173,0.398,0.168c0.012,0.472-0.128,0.642-0.486,0.646
						c-0.585,0.008-0.584,0.008-0.707,0.592c-0.053,0.248-0.112,0.493-0.159,0.742c-0.075,0.394,0.042,0.526,0.441,0.554
						c0.118,0.008,0.375-0.114,0.323,0.146c-0.045,0.225,0.061,0.568-0.333,0.633c-0.921,0.151-1.519-0.469-1.333-1.408
						c0.147-0.743,0.32-1.482,0.48-2.223c0.006-0.022,0.014-0.044,0.018-0.066c0.135-0.617,0.134-0.611,0.751-0.583
						c0.199,0.009,0.285,0.066,0.22,0.268c-0.007,0.021-0.014,0.044-0.018,0.066C44.928,2.258,44.845,2.222,45.42,2.225"/>
					<path id="Fill-28" fill="#FFD000" d="M41.532,5.662c-0.474,0.002-0.476,0.002-0.371-0.475c0.136-0.617,0.246-1.242,0.419-1.848
						c0.228-0.803,0.887-1.23,1.7-1.184c0.272,0.016,0.37,0.104,0.308,0.382c-0.067,0.292-0.104,0.544-0.525,0.51
						c-0.365-0.03-0.563,0.237-0.641,0.568c-0.128,0.537-0.242,1.076-0.361,1.615C41.965,5.66,41.965,5.66,41.532,5.662"/>
					<path id="Fill-30" fill="#FFD000" d="M40.226,3.391c-0.053,0.12-0.181,0.075-0.278,0.08c-0.127,0.007-0.256,0.002-0.383,0.002
						V3.47c-0.094,0-0.188,0.009-0.279-0.002c-0.119-0.015-0.3,0.068-0.346-0.066c-0.052-0.155,0.11-0.261,0.229-0.351
						c0.298-0.228,0.759-0.227,0.957-0.004C40.212,3.146,40.283,3.259,40.226,3.391 M40.753,2.563
						c-0.408-0.417-0.933-0.485-1.484-0.348c-1.224,0.303-1.613,1.714-1.428,2.557c0.114,0.517,0.448,0.829,0.966,0.918
						c0.566,0.096,1.109-0.01,1.616-0.285c0.14-0.076,0.243-0.16,0.1-0.314c-0.126-0.135-0.089-0.487-0.443-0.325
						c-0.287,0.132-0.587,0.224-0.909,0.181c-0.252-0.033-0.437-0.152-0.499-0.412c-0.05-0.206-0.011-0.339,0.245-0.332
						c0.302,0.008,0.604,0.002,0.906,0.002V4.203c0.303,0,0.604,0,0.906,0c0.133,0,0.262,0,0.291-0.173
						C41.107,3.508,41.161,2.981,40.753,2.563"/>
				</g>
			</g>
		</g>
	</g>
</g>
</svg>
