<?xml version="1.0" encoding="utf-8"?>
<!-- Generator: Adobe Illustrator 22.1.0, SVG Export Plug-In . SVG Version: 6.00 Build 0)  -->
<svg version="1.1" id="Layer_1" xmlns="http://www.w3.org/2000/svg" xmlns:xlink="http://www.w3.org/1999/xlink" x="0px" y="0px"
	 width="177px" height="64px" viewBox="0 0 177 64" enable-background="new 0 0 177 64" xml:space="preserve">
<title>8FE0A4DC-AA5F-4449-891C-B018ABEF14CF</title>
<desc>Created with sketchtool.</desc>
<g>
	<path id="Fill-1" fill="#FFD42A" d="M124.4,12.1c-7.1,5.9-12.6,12.5-21.9,15.9c3.2,0.7,7.4,0.7,12.3-1.5
		c12.8-6.9,22.9-18.7,38.6-22.1C142.3,2.7,131.8,6.2,124.4,12.1"/>
	<path id="Fill-3" fill="#FFD42A" d="M81.1,14.3c1.5,0.5,2.7,1.2,4.2,2.5c10.8,9.3,17.2,18.7,33.4,9.3c5.7-3.2,17.7-12.3,24.8-16.2
		c2.7-1.5,5.2-2.7,7.6-3.4l0,0l0,0c8.1-2.9,16.5-2.2,24.3,1.7C147.5,8.9,132,33.7,105,32c-14.5-0.7-23.8-17-36.9-17.2
		C74.2,12.8,78.7,13.5,81.1,14.3"/>
	<path id="Fill-9" fill="#FFD42A" d="M66.9,15.8c3.2,0,6.9,0.7,10.8,3.4c3.9,2.5,10.8,8.1,13.8,10.1c4.7,3.2,8.8,4.2,8.8,4.2
		C85.8,36.4,76,18.3,61,18C62.9,17.3,64.7,16,66.9,15.8"/>
	<path id="Fill-11" fill="#FFD42A" d="M108.7,22.7c-2,1.7-4.2,3.4-6.6,5.2c12.8-4.2,17.2-18.4,31.9-23.1
		C122.4,4.2,114.8,16.8,108.7,22.7"/>
</g>
<path id="Fill-7" fill="#808285" d="M93.3,52.3v2.6h-6.1l0,1.8c0,0.4-0.1,1.7,1.2,1.6l5.3,0v2.8c-1,0-4.3,0.1-6.2,0
	c-2.2-0.1-3.4-1.8-3.4-3.6l0-10.7l9.6,0v2.6h-6.4v2.9H93.3z M31.2,57.8C31.2,57.8,31.2,57.8,31.2,57.8c0.7,0.3,1.4,0.5,2.1,0.7
	c0.8,0.1,1.5,0.1,1.9-0.1c0.5-0.2,0.8-0.5,0.9-1c0.1-0.4,0-0.8-0.4-1.2c-0.4-0.4-1-0.8-1.8-1.2c-0.8-0.4-1.5-0.9-2-1.4
	c-0.6-0.5-1-1-1.2-1.6c-0.5-1.3,0-3,1-4c0.6-0.6,1.4-1,2.4-1.2c1.8-0.4,3.8-0.1,5.5,0.6L39,50c-0.6-0.3-1.3-0.5-2.1-0.6
	c-0.8-0.1-1.4-0.1-1.9,0.1c-0.7,0.3-1.1,1.2-0.7,1.8c0.2,0.2,0.4,0.5,0.8,0.8c0.4,0.3,0.9,0.6,1.5,0.9c1.3,0.7,2.2,1.4,2.7,2.2
	c0.5,0.8,0.7,1.7,0.5,2.7c-0.2,0.8-0.5,1.5-1.1,2c-0.6,0.6-1.4,1-2.4,1.2c-1,0.2-2.2,0.2-3.7,0c-0.3-0.1-1.2-0.2-2-0.4L31.2,57.8z
	 M43,57.8C43,57.8,43,57.8,43,57.8c0.7,0.3,1.4,0.5,2.1,0.7c0.8,0.1,1.5,0.1,1.9-0.1c0.5-0.2,0.8-0.5,0.9-1c0.1-0.4,0-0.8-0.4-1.2
	c-0.4-0.4-1-0.8-1.8-1.2c-0.8-0.4-1.5-0.9-2-1.4c-0.6-0.5-1-1-1.2-1.6c-0.5-1.3,0-3,1-4c0.6-0.6,1.4-1,2.4-1.2
	c1.8-0.4,3.8-0.1,5.5,0.6L50.8,50c-0.6-0.3-1.3-0.5-2.1-0.6c-0.8-0.1-1.4-0.1-1.9,0.1c-0.7,0.3-1.1,1.2-0.7,1.8
	c0.2,0.2,0.4,0.5,0.8,0.8c0.4,0.3,0.9,0.6,1.5,0.9c1.3,0.7,2.2,1.4,2.7,2.2c0.5,0.8,0.7,1.7,0.5,2.7c-0.2,0.8-0.5,1.5-1.1,2
	c-0.6,0.6-1.4,1-2.4,1.2c-1,0.2-2.2,0.2-3.7,0c-0.3-0.1-1.2-0.2-2-0.4L43,57.8z M2,60.9V47c0.6-0.1,1.2-0.2,2-0.2
	c0.8-0.1,1.7-0.1,2.8-0.1c1.1,0,2.1,0.1,2.9,0.3c0.8,0.2,1.5,0.5,2,0.9c0.5,0.4,0.9,0.8,1.2,1.4c0.3,0.6,0.5,1.2,0.5,1.9
	c0,0.7-0.1,1.3-0.4,1.9c-0.2,0.6-0.6,1.1-1.1,1.5c-0.6,0.5-1.4,0.9-2.2,1.1C8.8,55.9,7.8,56,6.7,56c-0.5,0-0.9,0-1.2-0.1l0,4.9H2z
	 M5.5,49.2v4.2c0.3,0.1,0.7,0.1,1.2,0.1c1,0,1.7-0.2,2.3-0.6c0.5-0.4,0.8-1,0.8-1.7c0-0.7-0.2-1.2-0.7-1.5c-0.5-0.4-1.2-0.5-2.1-0.5
	C6.3,49.1,5.8,49.2,5.5,49.2z M69.6,61c0-5.3,0-11.5,0-13.9c0.6-0.1,1.3-0.2,2.1-0.2c0.8-0.1,1.7-0.1,2.7-0.1c1.2,0,2.2,0.1,3,0.3
	c0.8,0.2,1.5,0.5,2.1,0.9c1,0.7,1.4,1.7,1.5,3c0,0.6-0.2,1.1-0.4,1.6c-0.3,0.5-0.6,0.9-1,1.2c-0.4,0.3-0.9,0.5-1.3,0.7v0.1
	c0.6,0.2,1,0.5,1.3,1c0.3,0.5,0.6,1,0.8,1.7c0.2,0.5,0.3,1.1,0.5,1.6c0.2,0.5,0.3,1,0.4,1.5c0.1,0.3,0.2,0.6,0.3,0.8h-3.7
	c-0.5-0.9-0.7-2.2-1-3.2c-0.3-1.4-0.9-2.3-2.6-2.3h-1.1V61H69.6z M73.2,49.3v3.9h1.4c0.9,0,1.6-0.2,2.1-0.6c0.5-0.4,0.7-0.9,0.8-1.5
	c0-0.7-0.2-1.1-0.7-1.5c-0.5-0.3-1.1-0.5-1.9-0.5c-0.4,0-0.8,0-1,0C73.5,49.3,73.3,49.3,73.2,49.3z M97,47c0.7-0.1,1.4-0.2,2.2-0.2
	c0.8-0.1,1.7-0.1,2.6-0.1c1.5,0,2.8,0.1,3.8,0.4c1,0.3,1.9,0.6,2.7,1.2c0.8,0.6,1.5,1.3,2,2.2c0.5,0.9,0.7,2,0.7,3.2
	c0,1.4-0.3,2.5-0.7,3.5c-0.5,1-1.1,1.7-1.9,2.3c-1.8,1.3-4.3,1.8-6.6,1.8c0,0,0,0,0,0H97L97,47z M100.6,49.3v9.3
	c0.2,0,0.4,0.1,0.6,0.1c0.2,0,0.4,0,0.7,0c1.1,0,2-0.2,2.8-0.5c0.8-0.4,1.4-0.9,1.9-1.6c0.4-0.7,0.7-1.7,0.7-2.8
	c0-1-0.2-1.8-0.6-2.5c-0.4-0.7-1-1.2-1.7-1.5c-0.8-0.3-1.6-0.5-2.7-0.5C101.5,49.2,100.9,49.2,100.6,49.3z M120.7,46.5
	c1.2,0,2.3,0.2,3.3,0.6c0.9,0.4,1.7,0.9,2.4,1.6c0.6,0.7,1.1,1.4,1.5,2.3c0.3,0.9,0.5,1.8,0.5,2.8c0,1.6-0.3,2.9-1,4.1
	c-0.7,1.1-1.6,2-2.7,2.6c-1.2,0.6-2.6,0.9-4.1,0.9c-1.2,0-2.2-0.2-3.2-0.6c-0.9-0.4-1.7-0.9-2.4-1.6c-0.6-0.7-1.1-1.4-1.5-2.3
	c-0.3-0.9-0.5-1.8-0.5-2.9c0-1.5,0.3-2.7,1-3.9c0.6-1.1,1.5-2,2.7-2.7C117.7,46.9,119.1,46.6,120.7,46.5z M120.6,49.1
	c-0.8,0-1.5,0.2-2.1,0.7c-0.6,0.4-1,1-1.3,1.7c-0.3,0.7-0.5,1.6-0.5,2.5c0,1,0.2,1.8,0.5,2.5c0.3,0.7,0.7,1.3,1.3,1.7
	c0.6,0.4,1.3,0.6,2.1,0.6c0.8,0,1.5-0.2,2.1-0.7c0.6-0.4,1-1,1.3-1.7c0.3-0.7,0.5-1.6,0.5-2.5c0-0.9-0.2-1.7-0.5-2.4
	c-0.3-0.7-0.7-1.3-1.3-1.7C122.1,49.4,121.4,49.1,120.6,49.1z M62.1,57.5h-4.5L56.4,61l-4,0l4.4-10.9c0.4-1,1.1-3.7,5.2-3.5L67.2,61
	h-3.9L62.1,57.5z M58.1,55.2h3.5l-1.7-4.9L58.1,55.2z M23.7,57.5h-4.5L18.1,61l-4,0l4.4-10.9c0.4-1,1.1-3.7,5.2-3.5L28.8,61H25
	L23.7,57.5z M19.7,55.2h3.5l-1.7-4.9L19.7,55.2z"/>
</svg>
