<?xml version="1.0" encoding="utf-8"?>
<!-- Generator: Adobe Illustrator 19.1.0, SVG Export Plug-In . SVG Version: 6.00 Build 0)  -->
<svg version="1.1" id="Layer_1" xmlns="http://www.w3.org/2000/svg" xmlns:xlink="http://www.w3.org/1999/xlink" x="0px" y="0px"
	 width="226.6px" height="64px" viewBox="-390 275 226.6 64" enable-background="new -390 275 226.6 64" xml:space="preserve">
<g>
	<path fill="#5F6A77" d="M-349.1,330.3c-0.5,0-0.9,0-1.4,0c-0.5,0-1,0-1.5,0l1.5-3.5L-349.1,330.3 M-347.4,334.3
		c0.3,0,0.7-0.1,1-0.1c0.5,0,0.9,0.1,1.1,0.1c-0.7-1.4-1.6-3.6-2.1-4.9c-0.5-1.2-1.4-3.3-2.1-5.2c-0.2,0-0.3,0.1-0.5,0.1
		c-0.2,0-0.4,0-0.5-0.1c-0.4,1.2-1.2,3.1-2.7,6.3l-1.7,3.8c0.2,0,0.5-0.1,0.7-0.1c0.2,0,0.5,0,0.7,0.1c0.3-0.8,0.7-2.1,1.1-3.2
		c0.6,0,1.1,0,1.8,0s1.2,0,1.9,0l0.6,1.5L-347.4,334.3z"/>
	<path fill="#5F6A77" d="M-343.9,327.7c0,2.5,0,4.9-0.2,6.6c0.4,0,0.7-0.1,1-0.1s0.7,0.1,1,0.1c-0.1-1.2-0.1-2.8-0.1-4.9
		c0-1.5,0-4,0.2-5.1c-0.4,0-0.7,0.1-1,0.1c-0.2,0-0.7,0-1-0.1C-343.9,325.7-343.9,326.7-343.9,327.7"/>
	<path fill="#5F6A77" d="M-335.3,329.4c1.3-0.3,2.5-1,2.5-2.7c0-0.6-0.2-1.2-0.7-1.7c-0.7-0.6-1.4-0.7-2.3-0.7
		c-0.4,0-2.1,0.1-2.4,0.1c-0.7,0-1.1,0-1.4-0.1c0.1,1.9,0.1,2.1,0.1,4c0,2.8,0,3.2-0.1,6c0.4,0,0.7-0.1,1-0.1c0.4,0,0.7,0,0.9,0.1
		c0-0.4,0-2.2,0-2.7v-2.1h0.4c0.8,1.1,1.7,2.4,2.4,3.5c0.2,0.4,0.6,0.9,0.7,1.2c0.5,0,0.6-0.1,1.2-0.1c0.5,0,0.9,0,1.3,0.1
		c-0.9-1.1-1.3-1.7-2.4-3.3c-0.2-0.3-0.6-0.8-0.7-1.1L-335.3,329.4 M-337.7,325.1c0.2,0,0.7-0.1,1-0.1c0.5,0,0.9,0.1,1.4,0.4
		c0.5,0.4,0.6,0.9,0.6,1.5c0,0.9-0.6,2-2,2c-0.4,0-0.7,0-1,0L-337.7,325.1L-337.7,325.1z"/>
	<path fill="#5F6A77" d="M-327.7,330.9c-0.7-2.1-1.6-4.9-2.1-6.6c-0.4,0-0.7,0.1-1,0.1s-0.8,0-1.1-0.1c0.6,1.6,1.1,3,1.5,4.1
		c0.7,1.9,1.1,3.3,1.7,4.8l0.4,1.1c0.2,0,0.5-0.1,0.6-0.1c0.1,0,0.3,0,0.6,0.1c0.2-0.7,0.5-1.7,0.7-2.3c0.6-1.7,0.7-1.9,1.4-3.9
		l0.5-1.2c0.2,0.5,0.5,1.2,0.6,1.7c0.2,0.5,0.9,2.7,1,3.2c0.3,0.7,0.3,0.8,0.8,2.6c0.1,0,0.5-0.1,0.7-0.1c0.2,0,0.4,0,0.6,0.1
		c0.6-1.8,0.6-1.9,1.4-4.3c0.8-2.3,1.3-3.5,2.1-5.8c-0.2,0-0.5,0.1-0.7,0.1c-0.3,0-0.5,0-0.7-0.1c-0.5,1.9-0.8,2.8-1.2,4.1
		c-0.7,2.1-0.7,2.3-1.2,3.4c-0.5-1.3-0.9-2.5-1.4-3.8c-0.2-0.7-1.1-3.6-1.1-3.6c-0.2,0-0.4,0.1-0.7,0.1s-0.5,0-0.7-0.1
		c-0.5,1.8-2,6.1-2.1,6.4l-0.4,0.9L-327.7,330.9"/>
	<path fill="#5F6A77" d="M-312.9,330.3c-0.5,0-0.9,0-1.4,0s-1,0-1.5,0l1.5-3.5L-312.9,330.3 M-311.3,334.3c0.3,0,0.7-0.1,1-0.1
		c0.5,0,0.9,0.1,1.1,0.1c-0.7-1.4-1.6-3.6-2.1-4.9c-0.5-1.2-1.4-3.3-2.1-5.2c-0.2,0-0.3,0.1-0.5,0.1s-0.4,0-0.5-0.1
		c-0.4,1.2-1.2,3.1-2.7,6.3l-1.7,3.8c0.2,0,0.5-0.1,0.7-0.1c0.3,0,0.5,0,0.7,0.1c0.2-0.8,0.7-2.1,1.2-3.2c0.6,0,1.1,0,1.8,0
		c0.7,0,1.2,0,1.9,0l0.6,1.5L-311.3,334.3z"/>
	<path fill="#5F6A77" d="M-305.1,330.5c0-0.1,0.1-0.3,0.2-0.5c0.6-1,1.2-2.1,1.9-3.2c0.2-0.4,1.3-2.1,1.5-2.4
		c-0.2,0-0.4,0.1-0.6,0.1c-0.4,0-0.6,0-0.8-0.1c-1,2.3-1.3,2.8-2.5,4.9c-1.2-2.1-1.8-3.4-2.5-4.9c-0.5,0.1-0.8,0.1-1.2,0.1
		s-0.7,0-1.2-0.1c0.7,1.3,2,3.3,2.8,4.6l0.8,1.5c0,0.9,0,2.8-0.1,3.9c0.3,0,0.7-0.1,0.9-0.1c0.4,0,0.7,0,1,0.1
		c0-1.4-0.1-2.1-0.1-3.4L-305.1,330.5"/>
	<path fill="#5F6A77" d="M-300.7,332.1c-0.1,0.7-0.1,0.9-0.4,1.7c0.5,0.3,1.5,0.7,2.7,0.7c2.7,0,3.7-1.7,3.7-3.2
		c0-0.5-0.1-1.3-0.7-1.9c-0.5-0.5-0.8-0.7-2-1c-1.3-0.5-2.1-0.8-2.1-1.9c0-0.8,0.6-1.6,1.8-1.6c0.9,0,1.7,0.5,1.9,1.3h0.2
		c0.1-0.6,0.2-0.7,0.5-1.4c-0.7-0.4-1.4-0.6-2.4-0.6c-2.6,0-3.4,1.6-3.4,2.9c0,1.2,0.5,2,1.9,2.6c0.5,0.2,1.1,0.5,1.5,0.6
		c0.2,0,1.1,0.5,1.1,1.6c0,1-0.7,1.9-1.9,1.9c-0.8,0-1.6-0.2-2.2-1.7L-300.7,332.1"/>
	<path fill="#69043B" d="M-381.9,305.2c0-11,5.9-14,10.4-14c7.2,0,10.3,6,10.3,12.3c0,3.6-0.5,7.1-2.2,9.8c-1.8,2.8-4.8,4.4-8,4.4
		C-379.6,317.7-381.9,309.9-381.9,305.2 M-360.1,327.8c1.3-0.9,3.4-2.1,4.9-2.7l-9.9-6.2c6.1-2.1,9.9-7.6,9.9-14.9
		c0-10.5-8-15-16.2-15c-8.9,0-16.5,4.9-16.5,16.1c0,2.4,0.5,6.8,4.2,10.5c3.8,3.8,8.3,4.4,12.1,4.4c0.5,0,0.9,0,1.4,0L-360.1,327.8z
		"/>
	<path fill="#69043B" d="M-334.8,307.1c-1.4,0.1-2.7,0.2-4,0.2c-1.5,0-3-0.1-4.6-0.2l4.5-10.8L-334.8,307.1 M-329.8,319.4
		c0.8,0,2-0.3,3.3-0.3c1.2,0,2.8,0.2,3.4,0.3c-2-4.3-4.9-10.9-6.5-14.7c-1.6-3.7-4.2-9.8-6.3-15.8c-0.5,0.1-0.9,0.2-1.4,0.2
		s-0.9-0.1-1.4-0.2c-1,3.6-3.6,9.3-8,19.1l-5.1,11.3c0.6-0.1,1.2-0.3,2-0.3c0.7,0,1.5,0.2,2.1,0.3c0.7-2.5,2.1-6.2,3.5-9.5
		c1.8-0.1,3.5-0.2,5.2-0.2c1.9,0,3.7,0.1,5.6,0.2l1.9,4.7L-329.8,319.4z"/>
	<path fill="#69043B" d="M-310.3,297.1c0-1.7,0-3.4,0.1-4.9c3,0,6.2,0,8.7,0.3c-0.1-0.7-0.2-1.1-0.2-1.6c0-0.4,0.1-0.9,0.2-1.7
		c-4.2,0.2-8.1,0.3-11.7,0.3c-3.4,0-8.2,0-11.7-0.3c0.1,0.5,0.2,1.1,0.2,1.6c0,0.5-0.1,1.1-0.2,1.6c2.2-0.2,6.4-0.3,6.8-0.3h2.2
		c0,1.7,0.1,3.3,0.1,4.9v12.2c0,3.4-0.3,6.7-0.5,10c1.6-0.2,2.2-0.3,3-0.3c0.5,0,1.9,0.1,3.2,0.3c-0.1-1.2-0.3-2.7-0.3-6V297.1"/>
	<path fill="#69043B" d="M-286,307.1c-1.4,0.1-2.7,0.2-4,0.2c-1.5,0-3-0.1-4.6-0.2l4.5-10.7L-286,307.1 M-281,319.4
		c0.7,0,2-0.3,3.3-0.3c1.2,0,2.8,0.2,3.4,0.3c-2-4.3-4.9-10.9-6.5-14.7c-1.6-3.7-4.2-9.8-6.3-15.8c-0.5,0.1-0.9,0.2-1.4,0.2
		c-0.5,0-0.9-0.1-1.4-0.2c-1,3.6-3.5,9.3-8,19.1l-5.1,11.3c0.6-0.1,1.2-0.3,2-0.3c0.7,0,1.5,0.2,2.1,0.3c0.7-2.5,2.1-6.2,3.5-9.5
		c1.8-0.1,3.5-0.2,5.2-0.2c1.9,0,3.7,0.1,5.6,0.2l1.9,4.7L-281,319.4z"/>
	<path fill="#69043B" d="M-256.7,304.4c4-0.7,7.7-3.3,7.7-8.1c0-1.9-0.7-3.6-2-4.9c-1.9-1.8-4-2.1-6.9-2.1c-1,0-6.1,0.2-7.2,0.2
		c-2.2,0-3.4-0.1-4.4-0.2c0.3,5.7,0.3,6.3,0.3,12c0,8.5,0,9.4-0.4,18.1c0.9-0.1,2-0.3,3-0.3c1.1,0,2.1,0.2,2.9,0.3
		c0-1.1-0.2-6.8-0.2-8.1v-6.2h1c2.4,3.4,5.1,7.2,7.3,10.6c0.7,1,1.6,2.6,2.3,3.6c1.3-0.2,1.9-0.3,3.5-0.3c1.6,0,2.7,0.1,3.9,0.3
		c-2.8-3.5-3.9-5-7.4-9.9c-0.7-0.9-1.6-2.4-2.3-3.3L-256.7,304.4 M-263.9,291.6c0.7,0,2.3-0.2,3.1-0.2c1.4,0,2.9,0.2,4.1,1.1
		c1.5,1.1,1.9,2.7,1.9,4.6c0,2.9-1.6,6.1-6,6.1c-1.1,0-2.2-0.1-3-0.1L-263.9,291.6L-263.9,291.6z"/>
	<path fill="#848F99" d="M-191.2,304.5c0,0.3-3.9,0.6-9.6,0.7c-0.9-0.6-1.8-1.1-2.3-1.6C-196.2,303.9-191.2,304.2-191.2,304.5"/>
	<path fill="#848F99" d="M-195.3,295c0,0.3-3.4,0.5-8.1,0.7c0.7-0.4,1.4-0.8,2.1-1.2C-197.6,294.5-195.3,294.7-195.3,295"/>
	<path fill="#848F99" d="M-230.7,315.5c-2.2,0-4.1,0-5.7,0c-2.1,0-3.9-0.7-3.9-1.5c0-0.8,1.8-1.5,3.9-1.5c1.9,0,4.5,0,7.6,0
		c-1.1,1.7-1.7,2.7-1.8,2.7C-230.6,315.4-230.6,315.4-230.7,315.5"/>
	<path fill="#848F99" d="M-229.5,317.5c0.7,0.9,1.4,1.6,2.3,2.4c0,0,0.4,0.5,1.4,0.1c1-0.5,2-1,3-2.4c3,0,6.3,0.1,9.4,0.2
		c0.3,0.4,0.7,1.1,1.4,2.1c-8.8,0.2-18.4,0.4-23.2,0.4c-2.1,0-3.7-0.7-3.7-1.4c0-0.7,1.7-1.4,3.7-1.4
		C-233.7,317.5-231.7,317.5-229.5,317.5C-229.6,317.5-229.5,317.5-229.5,317.5"/>
	<path fill="#848F99" d="M-232.9,324.9c-1.9,0-3.3-0.6-3.3-1.2s1.4-1.2,3.3-1.2c4.8,0,14.7,0.1,23,0.4c0.5,0.6,0.8,1.1,1.2,1.7
		C-217.3,324.7-227.9,324.9-232.9,324.9"/>
	<path fill="#848F99" d="M-205,328.9c-7.1,0.3-19.2,0.5-24.3,0.5c-1.4,0-2.6-0.5-2.6-0.9c0-0.6,1.1-0.9,2.6-0.9
		c4.9,0,16.2,0.2,23.3,0.5C-205.6,328.2-205.3,328.6-205,328.9"/>
	<path fill="#848F99" d="M-223.4,331.5c4.2,0,16.8,0.3,16.8,0.7s-12.7,0.7-16.8,0.7c-0.8,0-1.5-0.3-1.5-0.7
		C-224.9,331.9-224.2,331.5-223.4,331.5"/>
	<path fill="#848F99" d="M-223.4,305.8c-5.2,0.1-10,0.1-13,0.1c-2.1,0-3.9-0.7-3.9-1.5c0-0.8,1.8-1.5,3.9-1.5
		c3.5,0,9.2,0.1,15.5,0.2C-221.7,304.1-222.6,305-223.4,305.8"/>
	<path fill="#848F99" d="M-197.6,299.2c3.1,0.2,5,0.4,5,0.6c0,0.2-2.3,0.5-6,0.6C-197.8,299.7-197.6,299.2-197.6,299.2"/>
	<path fill="#848F99" d="M-235.2,301.1c-2.1,0-3.7-0.7-3.7-1.4c0-0.7,1.7-1.4,3.7-1.4c4.2,0,11.8,0.1,19.4,0.3
		c-0.9,0.8-1.9,1.6-2.6,2.3C-225.1,301.1-231.4,301.1-235.2,301.1"/>
	<path fill="#848F99" d="M-212.4,295.8c-7.7,0.2-16.2,0.3-20.5,0.3c-1.9,0-3.3-0.6-3.3-1.2s1.4-1.2,3.3-1.2c4.8,0,14.6,0.1,23,0.4
		c-0.5,0.3-0.8,0.6-1.3,0.9C-211.5,295.3-212,295.6-212.4,295.8"/>
	<path fill="#848F99" d="M-229.2,291.2c-1.4,0-2.6-0.5-2.6-0.9c0-0.5,1.1-0.9,2.6-0.9c5.3,0,18.7,0.2,25.5,0.6
		c-0.5,0.3-0.8,0.6-1.3,0.9C-212.1,290.9-224.2,291.2-229.2,291.2"/>
	<path fill="#848F99" d="M-236.8,310.9c-2.2,0-4-0.7-4-1.5s1.8-1.5,4-1.5c2.8,0,6.9,0,11.6,0.1c-0.9,1-1.7,2-2.3,2.9
		C-231.2,310.8-234.4,310.9-236.8,310.9"/>
	<path fill="#848F99" d="M-224.9,286.4c0-0.4,0.7-0.7,1.5-0.7c4.2,0,16.8,0.3,16.8,0.7c0,0.4-12.7,0.7-16.8,0.7
		C-224.2,287.1-224.9,286.8-224.9,286.4"/>
	<path fill="#69043B" d="M-190.8,308.2c0,0.7,0,1.5,0,2.2c-7.4,0.3-14.4,0.7-14.4,1.2c0,0.5,6.8,0.9,14.1,1.2
		c-0.1,0.8-0.3,1.7-0.5,2.4c-7.2,0.3-13.8,0.7-13.8,1.2c0,0.5,6.3,0.9,13.2,1.2c-0.3,0.9-0.7,1.8-1,2.5c-5.9,0.3-10.8,0.7-10.8,1
		c0,0.4,4.3,0.7,9.6,1c-0.3,0.5-0.7,0.9-0.9,1.4c-0.4,0.5-0.7,0.9-1.1,1.5c-3.4,0.3-5.7,0.6-5.7,0.8s1.7,0.5,4.2,0.7
		c-1.4,1.4-3.1,2.7-4.9,3.8c0,0-2.3-2-4.2-4.3c-1.7-2.1-5.2-7.5-6.1-8.7c-0.8-1.2-1.4-1.6-2.4-1.2c-1.3,0.5-2.9,0.7-3.4,0.7
		s-0.7-0.2,0-0.5c0.8-0.3,3.9-1.8,5.4-4.8c1.7-3.4,0.2-8.1,0.2-8.1c-0.6,2.5-1.9,3.5-1.9,3.5c0.5-2.3,0-4.5-1.2-6l-0.7,3
		c0,0-0.5,0-1.4,0.8c-1,0.8-1.3,2.1-1.3,2.1c0.7,0.3,1.8-0.5,1.8-0.5c-1.2,4.5-2.9,8.2-4.2,10.1c-1.3,2-2.3,2.7-3.5,3.2
		c-1,0.5-1.4-0.1-1.4-0.1c-0.9-0.8-1.6-1.5-2.3-2.4c0,0,0-0.1,0.1-0.1c0.5,0,1.4-0.9,1.7-1.2c0.2-0.5,0.2-0.7,0.1-0.7
		s-0.3,0.3-1.3,0.9c-1,0.7-1.4,0.2-1.8-0.2c-0.3-0.3,0-0.7,0.2-0.8c0.2-0.2,5.4-10,19.3-20.4c18.3-13.5,30-17.2,30.6-17.5
		c0.5-0.2,1.1-0.5,1.3-0.3c0.2,0.2,0.3,0.4,0.3,0.6c0,0.2-0.1,0.4-0.9,0.7c-7,3.1-15.2,8.2-19.9,11.2c-5.7,2.8-11.2,6.7-11.4,6.8
		c-0.5,0.3-0.1,0.7,0.2,0.5c9.6-6.4,21-10.8,33.5-14.4c0.6-0.2,0.9-0.2,1,0c0.1,0.1,0.2,0.3,0.2,0.5c0,0.2-0.2,0.4-0.7,0.6
		c-13.4,4.9-23.3,9.6-29.7,13.9c0,0-0.7,0.4-0.7,0.8c0,0.2,0.4,0.2,0.4,0.2c3.2,0,7.5,0.3,9.5,0.4c0,0-0.3,1-2.2,1.9
		c-1.5,0.7-2.9,0.6-4.3,0.6c-0.3,0-0.6,0.3-0.4,0.7C-204.4,302.4-201.5,307.1-190.8,308.2"/>
	<path fill="#69043B" d="M-288.2,332.8h-1.8c0,0-0.3-1.1,0.5-1.5c0.7-0.5,1.4-0.7,1.4-0.7L-288.2,332.8 M-279.7,328.6
		c0,0-1.1,0.7-1.8,1.2s0.1,0.8,0.1,0.8v2.1h-5.2v-7.2c0,0-1.9,1.8-2.1,2s0.5,0.5,0.5,0.5l-0.1,0.7c0,0-0.7,0.4-1.7,1
		c-0.9,0.6-1.6,1.4-1.6,2c0,0.6-0.2,2.7-0.2,2.7h12.1L-279.7,328.6L-279.7,328.6z M-290.5,326c0.6,0,1-0.3,1-0.7
		c0-0.5-0.3-0.8-1-0.8c-0.7,0-0.8,0.3-0.8,0.8C-291.3,325.8-291.1,326-290.5,326 M-288.3,326c0.6,0,1-0.3,1-0.7c0-0.5-0.3-0.8-1-0.8
		c-0.7,0-0.8,0.3-0.8,0.8C-289.1,325.8-288.8,326-288.3,326 M-284.9,334.9c-0.7,0-0.8,0.3-0.8,0.8c0,0.6,0.2,0.7,0.8,0.7
		c0.6,0,1-0.3,1-0.7C-283.9,335.3-284.1,334.9-284.9,334.9 M-282.5,334.9c-0.7,0-0.8,0.3-0.8,0.8c0,0.6,0.3,0.7,0.8,0.7s1-0.3,1-0.7
		C-281.5,335.3-281.8,334.9-282.5,334.9 M-256.5,325.8c0.6,0,1-0.2,1-0.7c0-0.5-0.3-0.8-1-0.8c-0.7,0-0.8,0.3-0.8,0.8
		C-257.3,325.7-257,325.8-256.5,325.8 M-254.1,325.8c0.6,0,1-0.2,1-0.7c0-0.5-0.3-0.8-1-0.8c-0.7,0-0.8,0.3-0.8,0.8
		C-255,325.7-254.8,325.8-254.1,325.8 M-247.8,326.1c-0.4,0.3-0.2,0.7,0.2,0.6v7.7h1.7v-9.6C-245.8,324.8-247.4,325.7-247.8,326.1
		 M-254.7,330.4h-1.1c0-0.6,1.1-0.9,1.1-0.9V330.4z M-262,331.7c0,0.3,0,0.7,0,1.1h-9.7v-1.7c0.3-0.7,0.7-0.7,1.4-0.7h7.1
		C-261.7,330.4-262,331.1-262,331.7 M-250.6,326.6v6.2h-2.3v-5.6c0,0-0.5,0.2-1.1,0.5c-0.7,0.3-3,1.2-3,2.5v1.5h2.4v1.1h-5.6
		c0-0.3,0-0.7,0-1.2c0-1.9-1.6-2.9-3-2.9h-6.5c-1.1,0-1.7,0.3-2,0.6v-4.8c0,0-1,0.7-1.8,1.3c-0.7,0.6,0,0.9,0,0.9v6.1h-2.1v-5.2
		c0,0-1.5,1-1.9,1.4s-0.2,0.7,0.3,0.7c0,0-0.1,3.8-0.1,4.8s-0.7,2-2.3,1.5c0,0-0.5,0.1-0.1,0.5c0.5,0.4,0.9,0.7,1.5,0.7
		c0.6,0,2.6-0.4,2.6-2.6h26.7v-9.6c0,0-1.6,1-1.9,1.3C-251.1,326.3-251,326.6-250.6,326.6"/>
</g>
</svg>
