<svg xmlns="http://www.w3.org/2000/svg" xmlns:xlink="http://www.w3.org/1999/xlink" viewBox="0 0 336.93 150.54"><defs><style>.cls-1{fill:#fff;}.cls-2{fill:#fefefe;}.cls-3{fill:#fdfdfd;}.cls-4{fill:#fcfdfc;}.cls-5{fill:#fbfcfc;}.cls-6{fill:#fafbfb;}.cls-7{fill:#f9fafa;}.cls-8{fill:#f8f9f9;}.cls-9{fill:#f7f8f8;}.cls-10{fill:#f6f7f7;}.cls-11{fill:#f5f6f6;}.cls-12{fill:#f4f5f5;}.cls-13{fill:#f3f4f4;}.cls-14{fill:#f2f3f3;}.cls-15{fill:#f1f1f2;}.cls-16{fill:#f0f0f1;}.cls-17{fill:#efeff0;}.cls-18{fill:#eeeeef;}.cls-19{fill:#ededee;}.cls-20{fill:#ebeced;}.cls-21{fill:#eaebeb;}.cls-22{fill:#e9eaea;}.cls-23{fill:#e8e9e9;}.cls-24{fill:#e7e7e8;}.cls-25{fill:#e6e6e7;}.cls-26{fill:#e5e5e6;}.cls-27{fill:#e4e4e5;}.cls-28{fill:#e2e3e4;}.cls-29{fill:#e1e2e3;}.cls-30{fill:#e0e1e2;}.cls-31{fill:#dfe0e1;}.cls-32{fill:#dedee0;}.cls-33{fill:#dddddf;}.cls-34{fill:#dcdcde;}.cls-35{fill:#dadbdd;}.cls-36{fill:#d9dadc;}.cls-37{fill:#d8d9db;}.cls-38{fill:#d7d8da;}.cls-39{fill:#d6d6d8;}.cls-40{fill:#d5d5d7;}.cls-41{fill:#d4d4d6;}.cls-42{fill:#d3d3d5;}.cls-43{fill:#d1d2d4;}.cls-44{fill:#d0d1d3;}.cls-45{fill:#cfd0d2;}.cls-46{fill:#ceced1;}.cls-47{fill:#cdcdd0;}.cls-48{fill:#cccccf;}.cls-49{fill:#cbcbce;}.cls-50{fill:#c9cacd;}.cls-51{fill:#c8c9cc;}.cls-52{fill:#c7c8ca;}.cls-53{fill:#c6c7c9;}.cls-54{fill:#c5c5c8;}.cls-55{fill:#c4c4c7;}.cls-56{fill:#c3c3c6;}.cls-57{fill:#c2c2c5;}.cls-58{fill:#c1c1c4;}.cls-59{fill:#c0c0c3;}.cls-60{fill:#bfbfc2;}.cls-61{fill:#bebec1;}.cls-62{fill:#bdbdbf;}.cls-63{fill:#bcbcbe;}.cls-64{fill:#bbbbbd;}.cls-65{fill:#bab9bc;}.cls-66{fill:#b9b8bb;}.cls-67{fill:#b8b7ba;}.cls-68{fill:#b7b6b9;}.cls-69{fill:#b6b5b8;}.cls-70{fill:#b5b4b7;}.cls-71{fill:#b3b3b6;}.cls-72{fill:#b2b2b5;}.cls-73{fill:#b1b1b4;}.cls-74{fill:#b0b0b3;}.cls-75{fill:#afafb2;}.cls-76{fill:#aeaeb1;}.cls-77{fill:#adadb0;}.cls-78{fill:#acacae;}.cls-79{fill:#ababad;}.cls-80{fill:#aaaaac;}.cls-81{fill:#a9a9ab;}.cls-82{fill:#a8a8aa;}.cls-83{fill:#a7a7a9;}.cls-84{fill:#a6a6a8;}.cls-85{fill:#a5a5a7;}.cls-86{fill:#a4a4a6;}.cls-87{fill:#a3a3a5;}.cls-88{fill:#a3a2a4;}.cls-89{fill:#a2a1a3;}.cls-90{fill:#a1a0a2;}.cls-91{fill:#a09fa1;}.cls-92{fill:#9f9ea0;}.cls-93{fill:#9e9da0;}.cls-94{fill:#9d9c9f;}.cls-95{fill:#9c9b9e;}.cls-96{fill:#9b9a9d;}.cls-97{fill:#9a999c;}.cls-98{fill:#99999b;}.cls-99{fill:#98989a;}.cls-100{fill:#979799;}.cls-101{fill:#969698;}.cls-102{fill:#959597;}.cls-103{fill:#949496;}.cls-104{fill:#939395;}.cls-105{fill:#929295;}.cls-106{isolation:isolate;}.cls-107,.cls-109{fill:#003379;}.cls-108{fill:#b62a2e;}.cls-108,.cls-109,.cls-110,.cls-111,.cls-113{fill-rule:evenodd;}.cls-110{fill:#007e3d;}.cls-111{fill:#111419;}.cls-112{fill:url(#linear-gradient);}.cls-113{fill:url(#linear-gradient-2);}.cls-114{mask:url(#mask);}.cls-115,.cls-116{opacity:0.6;mix-blend-mode:multiply;}.cls-115{fill:url(#linear-gradient-3);}.cls-116{fill:url(#linear-gradient-4);}.cls-117{filter:url(#luminosity-invert);}</style><linearGradient id="linear-gradient" x1="115.64" y1="19.32" x2="115.64" y2="31.57" gradientTransform="matrix(1, 0, 0, 1, 1.82, 0)" gradientUnits="userSpaceOnUse"><stop offset="0.19" stop-color="#f8eab8"/><stop offset="0.98" stop-color="#b8860f"/></linearGradient><linearGradient id="linear-gradient-2" x1="131.7" y1="34.13" x2="141.17" y2="87.7" gradientTransform="matrix(1, 0, 0, 1, 1.82, 0)" gradientUnits="userSpaceOnUse"><stop offset="0.12" stop-color="#b8860f"/><stop offset="0.44" stop-color="#f8eab8"/><stop offset="0.62" stop-color="#f8eab8"/><stop offset="0.92" stop-color="#b8860f"/></linearGradient><filter id="luminosity-invert" filterUnits="userSpaceOnUse" color-interpolation-filters="sRGB"><feColorMatrix values="-1 0 0 0 1 0 -1 0 0 1 0 0 -1 0 1 0 0 0 1 0"/></filter><mask id="mask" x="101.47" y="10.32" width="104.67" height="85.17" maskUnits="userSpaceOnUse"><g class="cls-117"><path class="cls-1" d="M101.73,10.77h17.75L205.66,95H147.83Z"/><path class="cls-1" d="M101.81,10.77H119.4l86,84.22H148.09Z"/><path class="cls-2" d="M101.88,10.77h17.44L205.11,95H148.34Z"/><path class="cls-2" d="M102,10.77h17.28L204.84,95H148.6Z"/><path class="cls-3" d="M102,10.77h17.11L204.57,95H148.86Z"/><path class="cls-4" d="M102.12,10.77h16.95L204.3,95H149.11Z"/><path class="cls-5" d="M102.2,10.77H119L204,95H149.37Z"/><path class="cls-6" d="M102.28,10.77h16.63L203.75,95H149.62Z"/><path class="cls-7" d="M102.36,10.77h16.47L203.48,95h-53.6Z"/><path class="cls-8" d="M102.44,10.77h16.3L203.21,95H150.14Z"/><path class="cls-9" d="M102.52,10.77h16.14L202.93,95H150.39Z"/><path class="cls-10" d="M102.6,10.77h16L202.66,95h-52Z"/><path class="cls-11" d="M102.68,10.77H118.5L202.39,95H150.91Z"/><path class="cls-12" d="M102.76,10.77h15.65L202.12,95h-51Z"/><path class="cls-13" d="M102.84,10.77h15.49L201.85,95H151.42Z"/><path class="cls-14" d="M102.92,10.77h15.33L201.57,95H151.68Z"/><path class="cls-15" d="M103,10.77h15.17L201.3,95H151.93Z"/><path class="cls-16" d="M103.08,10.77h15L201,95H152.19Z"/><path class="cls-17" d="M103.16,10.77H118L200.76,95H152.45Z"/><path class="cls-18" d="M103.24,10.77h14.68L200.48,95H152.7Z"/><path class="cls-19" d="M103.32,10.77h14.52L200.21,95H153Z"/><path class="cls-20" d="M103.4,10.77h14.36L199.94,95H153.22Z"/><path class="cls-21" d="M103.47,10.77h14.2l82,84.22h-46.2Z"/><path class="cls-22" d="M103.55,10.77h14L199.39,95H153.73Z"/><path class="cls-23" d="M103.63,10.77h13.88L199.12,95H154Z"/><path class="cls-24" d="M103.71,10.77h13.72L198.85,95H154.24Z"/><path class="cls-25" d="M103.79,10.77h13.56L198.58,95H154.5Z"/><path class="cls-26" d="M103.87,10.77h13.39L198.31,95H154.76Z"/><path class="cls-27" d="M104,10.77h13.23L198,95H155Z"/><path class="cls-28" d="M104,10.77H117.1L197.76,95H155.27Z"/><path class="cls-29" d="M104.11,10.77H117L197.49,95h-42Z"/><path class="cls-30" d="M104.19,10.77h12.75L197.22,95H155.78Z"/><path class="cls-31" d="M104.27,10.77h12.58L196.94,95H156Z"/><path class="cls-32" d="M104.35,10.77h12.42L196.67,95H156.3Z"/><path class="cls-33" d="M104.43,10.77h12.26L196.4,95H156.55Z"/><path class="cls-34" d="M104.51,10.77h12.1L196.13,95H156.81Z"/><path class="cls-35" d="M104.59,10.77h11.93L195.85,95H157.07Z"/><path class="cls-36" d="M104.67,10.77h11.77L195.58,95H157.32Z"/><path class="cls-37" d="M104.75,10.77h11.61l79,84.22H157.58Z"/><path class="cls-38" d="M104.83,10.77h11.45L195,95h-37.2Z"/><path class="cls-39" d="M104.91,10.77H116.2L194.77,95H158.09Z"/><path class="cls-40" d="M105,10.77h11.12L194.49,95H158.35Z"/><path class="cls-41" d="M105.07,10.77h11L194.22,95H158.61Z"/><path class="cls-42" d="M105.14,10.77H116L194,95H158.86Z"/><path class="cls-43" d="M105.22,10.77h10.65L193.68,95H159.12Z"/><path class="cls-44" d="M105.3,10.77h10.49L193.4,95h-34Z"/><path class="cls-45" d="M105.38,10.77H115.7L193.13,95h-33.5Z"/><path class="cls-46" d="M105.46,10.77h10.16L192.86,95h-33Z"/><path class="cls-47" d="M105.54,10.77h10L192.59,95H160.15Z"/><path class="cls-48" d="M105.62,10.77h9.84L192.32,95H160.4Z"/><path class="cls-49" d="M105.7,10.77h9.67L192,95H160.66Z"/><path class="cls-50" d="M105.78,10.77h9.51L191.77,95H160.91Z"/><path class="cls-51" d="M105.86,10.77h9.35L191.5,95H161.17Z"/><path class="cls-52" d="M105.94,10.77h9.19L191.23,95h-29.8Z"/><path class="cls-53" d="M106,10.77h9L191,95H161.68Z"/><path class="cls-54" d="M106.1,10.77H115L190.68,95H161.94Z"/><path class="cls-55" d="M106.18,10.77h8.7L190.41,95H162.2Z"/><path class="cls-56" d="M106.26,10.77h8.54L190.14,95H162.45Z"/><path class="cls-57" d="M106.34,10.77h8.38L189.86,95H162.71Z"/><path class="cls-58" d="M106.42,10.77h8.21l75,84.22H163Z"/><path class="cls-59" d="M106.5,10.77h8L189.32,95h-26.1Z"/><path class="cls-60" d="M106.58,10.77h7.89L189.05,95H163.48Z"/><path class="cls-61" d="M106.66,10.77h7.73L188.78,95h-25Z"/><path class="cls-62" d="M106.74,10.77h7.57L188.5,95H164Z"/><path class="cls-63" d="M106.82,10.77h7.4l74,84.22h-24Z"/><path class="cls-64" d="M106.89,10.77h7.25L188,95H164.51Z"/><path class="cls-65" d="M107,10.77h7.09L187.69,95H164.76Z"/><path class="cls-66" d="M107.05,10.77H114L187.41,95H165Z"/><path class="cls-67" d="M107.13,10.77h6.77L187.14,95H165.28Z"/><path class="cls-68" d="M107.21,10.77h6.6L186.87,95H165.53Z"/><path class="cls-69" d="M107.29,10.77h6.44L186.6,95H165.79Z"/><path class="cls-70" d="M107.37,10.77h6.28L186.33,95H166.05Z"/><path class="cls-71" d="M107.45,10.77h6.12L186.05,95H166.3Z"/><path class="cls-72" d="M107.53,10.77h6L185.78,95H166.56Z"/><path class="cls-73" d="M107.61,10.77h5.79L185.51,95H166.82Z"/><path class="cls-74" d="M107.69,10.77h5.63L185.24,95H167.07Z"/><path class="cls-75" d="M107.77,10.77h5.47L185,95H167.33Z"/><path class="cls-76" d="M107.85,10.77h5.31L184.69,95h-17.1Z"/><path class="cls-77" d="M107.93,10.77h5.14L184.42,95H167.84Z"/><path class="cls-78" d="M108,10.77h5L184.15,95H168.1Z"/><path class="cls-79" d="M108.09,10.77h4.82l71,84.22H168.36Z"/><path class="cls-80" d="M108.17,10.77h4.66L183.6,95h-15Z"/><path class="cls-81" d="M108.25,10.77h4.5L183.33,95H168.87Z"/><path class="cls-82" d="M108.33,10.77h4.33L183.06,95H169.13Z"/><path class="cls-83" d="M108.41,10.77h4.17L182.79,95H169.38Z"/><path class="cls-84" d="M108.48,10.77h4l70,84.22H169.64Z"/><path class="cls-85" d="M108.56,10.77h3.86L182.24,95H169.9Z"/><path class="cls-86" d="M108.64,10.77h3.69L182,95H170.15Z"/><path class="cls-87" d="M108.72,10.77h3.53L181.7,95H170.41Z"/><path class="cls-88" d="M108.8,10.77h3.37L181.42,95H170.66Z"/><path class="cls-89" d="M108.88,10.77h3.21L181.15,95H170.92Z"/><path class="cls-90" d="M109,10.77H112L180.88,95h-9.7Z"/><path class="cls-91" d="M109,10.77h2.88L180.61,95h-9.18Z"/><path class="cls-92" d="M109.12,10.77h2.72L180.33,95h-8.64Z"/><path class="cls-93" d="M109.2,10.77h2.56L180.06,95H172Z"/><path class="cls-94" d="M109.28,10.77h2.4L179.79,95H172.2Z"/><path class="cls-95" d="M109.36,10.77h2.23L179.52,95h-7.06Z"/><path class="cls-96" d="M109.44,10.77h2.07L179.25,95h-6.53Z"/><path class="cls-97" d="M109.52,10.77h1.91L179,95h-6Z"/><path class="cls-98" d="M109.6,10.77h1.75L178.7,95h-5.47Z"/><path class="cls-99" d="M109.68,10.77h1.59L178.43,95h-4.94Z"/><path class="cls-100" d="M109.76,10.77h1.42l67,84.22h-4.42Z"/><path class="cls-101" d="M109.84,10.77h1.26L177.88,95H174Z"/><path class="cls-102" d="M109.92,10.77H111L177.61,95h-3.35Z"/><path class="cls-103" d="M110,10.77h.94L177.34,95h-2.83Z"/><path class="cls-104" d="M110.08,10.77h.78L177.07,95h-2.3Z"/><path class="cls-105" d="M110.16,10.77h.61l66,84.22H175Z"/></g></mask><linearGradient id="linear-gradient-3" x1="122.3" y1="52.02" x2="105.01" y2="60.13" gradientUnits="userSpaceOnUse"><stop offset="0" stop-color="#fff" stop-opacity="0"/><stop offset="0.14" stop-color="#9a9a9a" stop-opacity="0.4"/><stop offset="1"/></linearGradient><linearGradient id="linear-gradient-4" x1="166.48" y1="57.08" x2="178.8" y2="44.45" gradientUnits="userSpaceOnUse"><stop offset="0" stop-color="#fff" stop-opacity="0"/><stop offset="0.14" stop-color="#7a7a7a" stop-opacity="0.52"/><stop offset="1"/></linearGradient></defs><title>Artboard 1 copy 20</title><g class="cls-106"><g id="Layer_1" data-name="Layer 1"><path class="cls-107" d="M196.57,121.43h3.88l8.91,11.19v-9a2.83,2.83,0,0,0-.2-1,2.59,2.59,0,0,0-.68-1.15h4.24a2.85,2.85,0,0,0-.9,2.25c0,5.44,0,8.5,0,13.94h-2.46l-9.42-12.14v10a2.8,2.8,0,0,0,.18.94,2.63,2.63,0,0,0,.72,1.18h-4.26a2.57,2.57,0,0,0,.72-1.23,2.75,2.75,0,0,0,.17-.89c0-4.57,0-7.15,0-11.71a3,3,0,0,0-.91-2.36"/><path class="cls-107" d="M138.58,121.43c3,0,4.75,0,7.78,0,2.27,0,4.53,1.37,4.53,4.3a4.4,4.4,0,0,1-3.17,4.32c1.58,2,3.87,5.18,3.87,5.18,2.24,3.05,4,4.18,4.76,4.58-4,.67-6-.82-8.1-4-.91-1.37-3.87-5.64-4-6a3.7,3.7,0,0,0,3.49-3.6c0-2.43-1.59-3.06-2.71-3.06h-2.37v12.15a3.33,3.33,0,0,0,.9,2.34h-5a3.94,3.94,0,0,0,.9-2.34V123.57A3.29,3.29,0,0,0,138.58,121.43Z"/><path class="cls-107" d="M172,121a15,15,0,0,1,6.32,1.17c-.34,1.16-.91,2.84-.91,2.84-.84-1.15-1.45-2.22-5.41-2.22-1.05,0-5.64.56-5.64,6.73,0,5.93,5.09,6.56,6.44,6.56a8.18,8.18,0,0,0,4.55-.86l-.57,1.89a12.48,12.48,0,0,1-4.78.92c-4.71,0-9-2.93-9-8.63C163.06,125,166.17,121,172,121Z"/><path class="cls-107" d="M156,121.43h4.95a3.12,3.12,0,0,0-.77,1.4,2.09,2.09,0,0,0-.11.82v11.78a2.68,2.68,0,0,0,.17,1,2.48,2.48,0,0,0,.73,1.22h-5a2.44,2.44,0,0,0,.71-1.22,2.93,2.93,0,0,0,.19-1V123.65a3.78,3.78,0,0,0-.12-.82A2.43,2.43,0,0,0,156,121.43Z"/><path class="cls-107" d="M124.67,121.43h12l-.79,3a2.75,2.75,0,0,0-2.31-1c-1.91,0-3,0-4.89,0v4.88h4.39a3.25,3.25,0,0,0,1.83-.46c.22-.13.29-.29.51-.43V131a3,3,0,0,0-2.23-.88c-1.75,0-2.74,0-4.49,0,0,2,0,3.2,0,5.25a2.82,2.82,0,0,0,.9,2.23h-5a2.46,2.46,0,0,0,.73-1.12,2.79,2.79,0,0,0,.17-1V123.69a3.78,3.78,0,0,0-.12-.75A2.63,2.63,0,0,0,124.67,121.43Z"/><path class="cls-107" d="M122.93,137.62c-2-1.48-2.36-3.15-3.35-5.45l-7.24-16.81-6.83,16.74c-1,2.33-1.35,4-3.32,5.52h4.94a1.87,1.87,0,0,1-.45-1.33,5.84,5.84,0,0,1,.7-2.45l.68-1.67a3.22,3.22,0,0,1,.33-.79h6.86a3.15,3.15,0,0,1,.36.82c.25.59.4.91.63,1.5a8.69,8.69,0,0,1,.82,2.34c0,.13,0,.21,0,.36a2.26,2.26,0,0,1-.39,1.22Zm-13.72-8.25,2.53-6.32,2.66,6.32Z"/><path class="cls-107" d="M265.86,121.43h4.91a1.32,1.32,0,0,0-.58,1.25c0,.75,2.75,10.5,2.75,10.5l3.81-11.75,4.46,11.77s2.25-7.35,2.77-9.83a1.76,1.76,0,0,0-.36-1.94h3.91a4.36,4.36,0,0,0-1.59,2.72l-3.77,13.47h-2.71L276.57,129l-2.86,8.65h-2.6l-3.74-13.92A4,4,0,0,0,265.86,121.43Z"/><path class="cls-107" d="M242.51,121.43h5a3.13,3.13,0,0,0-.78,1.4,2.28,2.28,0,0,0-.1.82v11.78a2.9,2.9,0,0,0,.16,1,2.74,2.74,0,0,0,.74,1.22h-5a2.52,2.52,0,0,0,.71-1.22,2.7,2.7,0,0,0,.19-1V123.65a3.78,3.78,0,0,0-.12-.82A2.43,2.43,0,0,0,242.51,121.43Z"/><path class="cls-107" d="M305.32,137.62a2,2,0,0,0,.58-1.81v-5.6c-.52-1-3.56-6.51-4-7.23a4.33,4.33,0,0,0-1.63-1.55h4.69a1.32,1.32,0,0,0-.33,1c0,.52.22.69.49,1.25.36.76,2.45,4.58,2.45,4.58s2.47-4,2.83-4.63a2.35,2.35,0,0,0,.48-1.44,1,1,0,0,0-.42-.73h4.1a8.67,8.67,0,0,0-2.54,3.26c-.7,1.21-3.12,5.52-3.12,5.52v5.6a2.16,2.16,0,0,0,.66,1.81Z"/><path class="cls-107" d="M326.14,122.17l-.71,2.52c-.42-1.06-1.39-2.23-4-2.23-2.06,0-3,1.25-3,2.41,0,3.2,8.27,2.94,8.27,8.4,0,1.63-1,4.8-6.21,4.8a11.47,11.47,0,0,1-5.35-1.2l.95-2.59a5,5,0,0,0,4.4,2.18c1.93,0,3.29-1.14,3.29-2.74,0-3.57-8.16-3.21-8.16-8.31,0-1.94,1.3-4.37,5.78-4.37A7.68,7.68,0,0,1,326.14,122.17Z"/><path class="cls-107" d="M240.1,137.62c-2-1.48-2.37-3.15-3.36-5.45l-7.24-16.81-6.82,16.74c-1,2.33-1.36,4-3.33,5.52h4.94a1.87,1.87,0,0,1-.44-1.33,5.84,5.84,0,0,1,.7-2.45l.68-1.67a3.63,3.63,0,0,1,.32-.79h6.87a3.12,3.12,0,0,1,.35.82c.26.59.4.91.63,1.5a8.36,8.36,0,0,1,.82,2.34,2.06,2.06,0,0,1,0,.36,2.35,2.35,0,0,1-.39,1.22Zm-13.73-8.25,2.54-6.32,2.66,6.32Z"/><path class="cls-107" d="M302.7,137.62a4.79,4.79,0,0,1-1.53-2L294,120.4l-5.68,12.73a17.25,17.25,0,0,1-2.58,4.49h4.22a1.18,1.18,0,0,1-.48-1.09,4.24,4.24,0,0,1,.57-1.91c.32-.76.46-1.2.81-2h5.7c.37.71.49,1.15.83,1.88a4,4,0,0,1,.57,1.92,1.59,1.59,0,0,1-.54,1.15Zm-11.07-6.82,2-4.71,2.05,4.71Z"/><path class="cls-107" d="M251.1,121.43c3,0,4.75,0,7.78,0,2.27,0,4.53,1.37,4.53,4.3a4.4,4.4,0,0,1-3.17,4.32c1.58,2,3.87,5.18,3.87,5.18,2.24,3.05,4,4.18,4.76,4.58-4,.67-6-.82-8.1-4-.91-1.37-3.87-5.64-4-6a3.7,3.7,0,0,0,3.5-3.6c0-2.43-1.59-3.06-2.72-3.06h-2.35v12.15a3.36,3.36,0,0,0,.89,2.35h-5a4,4,0,0,0,.91-2.35V123.57A3.3,3.3,0,0,0,251.1,121.43Z"/><path class="cls-107" d="M44.52,121.42h5a3.21,3.21,0,0,0-.87,2.14v8.55c0,1.9,1.06,4.15,3.51,4.15h1c1.68,0,3.19-1.42,3.19-4.15v-8.55a2.87,2.87,0,0,0-.88-2.14h4.39a2.72,2.72,0,0,0-.92,2.14c0,3.3,0,8.55,0,8.55,0,2.56-1.44,6-5.78,6H51.3c-2.61,0-5.88-1.45-5.88-6v-8.55A3.4,3.4,0,0,0,44.52,121.42Z"/><path class="cls-107" d="M78.63,121.43h5a2.83,2.83,0,0,0-.89,2.2c0,1.81,0,2.83,0,4.65h7.79v-4.64a3.32,3.32,0,0,0-.17-1,2.46,2.46,0,0,0-.72-1.26h5a2.66,2.66,0,0,0-.72,1.26,2.82,2.82,0,0,0-.19,1V135.4a3.2,3.2,0,0,0,.21,1.1,2.32,2.32,0,0,0,.7,1.12h-5a2.14,2.14,0,0,0,.68-1.12,2.75,2.75,0,0,0,.23-1v-5.2H82.7c0,2,0,3.16,0,5.18a2.79,2.79,0,0,0,.9,2.18h-5a2.9,2.9,0,0,0,.9-2.32V123.76a3.66,3.66,0,0,0-.13-.87A2.67,2.67,0,0,0,78.63,121.43Z"/><path class="cls-107" d="M62,121.43H76.64L76,124.1c-.18-.15-.23-.29-.42-.42a2.6,2.6,0,0,0-1.74-.54c-1.12,0-1.75,0-2.86,0,0,4.76,0,7.45,0,12.21a3.41,3.41,0,0,0,.21,1.22,1.88,1.88,0,0,0,.71,1.06h-5a2.9,2.9,0,0,0,.9-2.33V123.11H65.08a3.39,3.39,0,0,0-1.26.23,1.74,1.74,0,0,0-1.13.78Z"/><path class="cls-107" d="M34.37,121c-5.84,0-8.14,4-8.14,8.4,0,5.69,3.44,8.63,8.14,8.63s8.14-2.94,8.14-8.63C42.51,125,40.22,121,34.37,121Zm0,15.26c-1.35,0-4.81-.82-4.81-6.74,0-6.17,3.76-6.74,4.81-6.74s4.81.57,4.81,6.74C39.18,135.48,35.71,136.3,34.37,136.3Z"/><path class="cls-107" d="M23.19,118.21l-1.19,3c-.54-1.33-1.76-2.81-5.1-2.81-2.61,0-3.76,1.58-3.76,3,0,4,10.46,3.73,10.46,10.62,0,2.07-1.28,6.08-7.85,6.08A14.5,14.5,0,0,1,9,136.61l1.21-3.28a6.28,6.28,0,0,0,5.56,2.77c2.43,0,4.16-1.44,4.16-3.47,0-4.52-10.31-4.06-10.31-10.52,0-2.44,1.63-5.51,7.3-5.51C20.68,116.6,21.81,117.41,23.19,118.21Z"/><path class="cls-107" d="M195.43,137.62a4.79,4.79,0,0,1-1.53-2l-7.22-15.25L181,133.13a17.58,17.58,0,0,1-2.59,4.49h4.22a1.19,1.19,0,0,1-.48-1.09,4.24,4.24,0,0,1,.57-1.91c.32-.76.47-1.2.81-2h5.69c.38.71.5,1.15.84,1.88a4.05,4.05,0,0,1,.58,1.92,1.6,1.6,0,0,1-.55,1.15Zm-11.07-6.82,2-4.71,2.05,4.71Z"/><polygon class="cls-1" points="128.65 10.32 92.73 10.32 125.56 95.49 222.1 95.49 128.65 10.32"/><polygon class="cls-108" points="106.63 38.15 154.29 38.15 127.48 13.37 97.14 13.37 106.63 38.15"/><path class="cls-109" d="M127.34,91.63l57-26.29L202.7,82c5.49,4.93,10.91,10,10.91,10H127.48Z"/><polygon class="cls-110" points="107 39.01 160.39 43.73 180.41 61.72 126.8 90.23 164.32 54.98 107 39.01"/><polygon class="cls-111" points="107.33 39.88 141.02 61.72 126.47 89.33 107.33 39.88"/><path class="cls-112" d="M110.19,26.34a7.2,7.2,0,1,1,7.2,7A7.11,7.11,0,0,1,110.19,26.34Z"/><polygon class="cls-113" points="107.33 39.88 141.02 61.72 126.47 89.33 126.8 90.23 164.32 54.98 107 39.01 107.33 39.88"/><g class="cls-114"><path class="cls-1" d="M101.47,10.32H119l87.14,85.17h-58Z"/></g><polygon class="cls-115" points="92.73 10.32 101.47 10.32 148.09 95.49 125.56 95.49 92.73 10.32"/><polygon class="cls-116" points="119 10.32 128.65 10.32 222.1 95.49 206.14 95.49 119 10.32"/></g></g></svg>