<?xml version="1.0" encoding="utf-8"?>
<!-- Generator: Adobe Illustrator 21.0.2, SVG Export Plug-In . SVG Version: 6.00 Build 0)  -->
<svg version="1.1" id="Layer_1" xmlns="http://www.w3.org/2000/svg" xmlns:xlink="http://www.w3.org/1999/xlink" x="0px" y="0px"
	 width="100px" height="60px" viewBox="0 0 100 60" style="enable-background:new 0 0 100 60;" xml:space="preserve">
<style type="text/css">
	.st0{fill:#BFD730;}
	.st1{fill:#ED1C24;}
	.st2{fill:#FFFFFF;}
	.st3{fill:#72BF44;}
	.st4{fill:#BA131A;}
	.st5{fill:#231F20;}
</style>
<title>gol</title>
<path class="st0" d="M8.5,38.1v-23H1.6V5.9h29.9v32.2l-1.7-5.7H19.5l-1.7,5.7C17.8,38.1,8.5,38.1,8.5,38.1z M22.3,23.2h4.8l-2.4-8.1
	L22.3,23.2z"/>
<path class="st1" d="M31.5,5.9h16.1c6.4-0.1,11.6,4.9,11.8,11.3S54.4,28.9,48.1,29c-0.1,0-0.3,0-0.4,0h-6.9v9.2h-9.2V5.9z"/>
<path class="st2" d="M40.8,15.1h6.9c1.2-0.1,2.4,0.8,2.6,2.1c0.1,1.2-0.8,2.4-2.1,2.6c-0.1,0-0.4,0-0.5,0h-6.9V15.1z"/>
<polygon class="st3" points="8.5,38.1 17.7,38.1 17.7,15.1 24.6,15.1 24.6,5.9 17.7,5.9 "/>
<polygon class="st4" points="31.5,38.1 40.8,38.1 31.5,5.9 "/>
<path class="st5" d="M50,45.8c0.3-0.1,0.7-0.1,1-0.1c1,0,1.8,0.4,1.8,1.4s-0.7,1.5-1.9,1.5c-0.3,0-0.6,0-0.9-0.1L50,45.8z M49,51.9
	h1v-2.7c0.3,0.1,0.6,0.1,0.9,0.1c0.8,0.1,1.6-0.2,2.3-0.7c0.4-0.4,0.6-1,0.6-1.5c0-0.6-0.2-1.1-0.7-1.5C52.5,45.2,51.7,45,51,45
	c-0.7,0-1.2,0.1-1.9,0.1L49,51.9z"/>
<path class="st5" d="M57.8,51.3c-1.5,0-2.6-1.3-2.6-2.8s0.9-2.9,2.6-2.9s2.6,1.4,2.6,2.8C60.4,50.2,59.4,51.3,57.8,51.3L57.8,51.3z
	 M57.8,52.1c1.9,0.1,3.5-1.4,3.6-3.3c0-0.1,0-0.2,0-0.3c0.1-1.8-1.4-3.5-3.2-3.5c-0.1,0-0.2,0-0.3,0c-1.9-0.1-3.5,1.5-3.6,3.4
	c0,0.1,0,0.1,0,0.2c-0.1,1.8,1.4,3.5,3.2,3.5C57.6,52.1,57.7,52.1,57.8,52.1L57.8,52.1z"/>
<path class="st5" d="M63,45.8c0.4-0.1,0.7-0.1,1-0.1c1,0,1.7,0.4,1.7,1.2c0,0.8-0.7,1.3-1.7,1.3H63L63,45.8z M62.1,51.9h1v-3h1
	c0.9,0.1,1.2,0.4,1.5,1.3c0.1,0.6,0.2,1.1,0.4,1.6h1c-0.2-0.7-0.4-1.2-0.6-1.9c-0.1-0.6-0.5-1.1-1-1.3l0,0c0.8-0.2,1.4-1,1.4-1.8
	c0-0.5-0.2-1-0.6-1.3C65.7,45.2,65,45,64,45c-0.7,0-1.2,0.1-1.9,0.1V51.9z"/>
<polygon class="st5" points="69.6,51.9 70.5,51.9 70.5,45.8 72.9,45.8 72.9,45 67.1,45 67.1,45.8 69.6,45.8 "/>
<path class="st5" d="M73.4,45.1V49c0,2.3,1.2,3.2,2.7,3.2c1.7,0,2.9-1,2.9-3.2v-3.9h-1V49c0,1.6-0.7,2.4-1.9,2.4
	c-1.1,0-1.8-0.7-1.8-2.4v-3.9H73.4z"/>
<path class="st5" d="M86.2,48.3h-2.5v0.7h1.6v2c-0.4,0.1-1,0.2-1.4,0.2c-1.8,0-3-1.2-3-2.8c0-1.6,1.2-2.7,3.1-2.7
	c0.6,0,1.2,0.1,1.8,0.4l0.2-0.7c-0.7-0.2-1.3-0.4-2-0.4c-2.6,0-4.1,1.7-4.1,3.5c0,1,0.4,1.8,1,2.5c0.8,0.7,1.8,1,2.9,1
	c0.8,0,1.6-0.1,2.4-0.4V48.3z"/>
<path class="st5" d="M88.8,49.1l0.8-2.1c0.1-0.4,0.2-0.8,0.4-1.1l0,0c0.1,0.4,0.2,0.7,0.4,1.2l0.8,2.1L88.8,49.1L88.8,49.1z
	 M91.4,49.7l0.8,2.2h1L90.6,45h-1.1l-2.6,6.9h1l0.8-2.2C88.7,49.7,91.4,49.7,91.4,49.7z"/>
<polygon class="st5" points="93.7,51.9 98,51.9 98,51.2 94.7,51.2 94.7,45 93.7,45 "/>
<rect x="39.1" y="45" class="st5" width="1.3" height="6.9"/>
<path class="st5" d="M33.8,49l0.6-1.8c0.1-0.4,0.2-0.8,0.4-1.2l0,0c0.1,0.4,0.2,0.8,0.4,1.2l0.7,1.8H33.8z M36.1,49.9l0.7,2h1.5
	L35.8,45h-1.7l-2.4,6.9h1.4l0.7-2L36.1,49.9z"/>
<path class="st5" d="M43.1,49.4h0.8c0.7,0,1.1,0.4,1.3,1.2c0.1,0.4,0.2,1,0.4,1.4h1.3c-0.2-0.5-0.4-1.1-0.4-1.7l-0.1-0.1
	c-0.1-0.5-0.4-1-0.8-1.3c0.7-0.3,1.2-1,1.1-1.8c0-0.5-0.2-1.1-0.7-1.5c-0.5-0.4-1.2-0.7-2.3-0.7c-0.7,0-1.3,0.1-1.9,0.1h-0.1v6.8
	h1.3L43.1,49.4z M43.1,46.1c0.3-0.1,0.6-0.1,0.9-0.1c0.7,0,1.5,0.2,1.5,1.1c0,0.7-0.6,1.1-1.5,1.1h-1V46.1z"/>
</svg>
