<?xml version="1.0" encoding="utf-8"?>
<!-- Generator: Adobe Illustrator 22.1.0, SVG Export Plug-In . SVG Version: 6.00 Build 0)  -->
<svg version="1.1" id="Layer_1" xmlns="http://www.w3.org/2000/svg" xmlns:xlink="http://www.w3.org/1999/xlink" x="0px" y="0px"
	 width="100px" height="36px" viewBox="0 0 100 36" enable-background="new 0 0 100 36" xml:space="preserve">
<g>
	<path d="M12.7,34.7c-0.3,0-0.7-0.1-1-0.1c-5-0.7-8.4-3.4-10.1-8.1c-0.6-1.5-0.8-3-0.8-4.6c0-7,0-14.1,0-21.1c0,0,0-0.1,0-0.1
		c1.7,0,3.3,0,5,0c0,0.1,0,0.2,0,0.3c0,6.8,0,13.5,0,20.3c0,1.5,0.2,3,0.9,4.4c1.2,2.6,3.3,4.1,6.1,4.5c2.3,0.3,4.3-0.1,6.2-1.5
		c1.6-1.2,2.6-2.9,3.1-4.8c0.2-0.9,0.3-1.7,0.3-2.6c0-6.8,0-13.5,0-20.3c0-0.1,0-0.2,0-0.3c1.7,0,3.3,0,5,0c0,11.2,0,22.3,0,33.5
		c-1.7,0-3.3,0-5,0c0-1,0-2,0-3.1c-0.1,0.1-0.1,0.1-0.2,0.2c-1.9,1.9-4.1,3-6.8,3.4c-0.4,0.1-0.7,0.1-1.1,0.1c-0.1,0-0.1,0-0.2,0
		C13.6,34.7,13.1,34.7,12.7,34.7z"/>
	<path d="M43.8,34.7c-0.3,0-0.6-0.1-0.9-0.1c-2.7-0.4-5-1.5-6.9-3.4c0,0-0.1-0.1-0.2-0.2c0,1,0,2,0,3c-1.6,0-3.2,0-4.8,0
		c0-11.2,0-22.3,0-33.5c1.6,0,3.2,0,4.8,0c0,4.1,0,8.1,0,12.2c0.1-0.1,0.1-0.1,0.1-0.1c2-1.9,4.3-3.1,7.1-3.4
		c6.7-0.8,12.7,3.6,14,10.1c0.9,4.8-0.4,8.9-4.1,12.2c-1.8,1.6-3.9,2.6-6.3,3c-0.5,0.1-0.9,0.1-1.4,0.2c0,0-0.1,0-0.1,0
		C44.7,34.7,44.2,34.7,43.8,34.7z M44.1,13.5c-4.7,0-8.4,3.8-8.4,8.5c0,4.7,3.8,8.5,8.4,8.5c4.6,0,8.4-3.8,8.4-8.5
		C52.5,17.2,48.8,13.5,44.1,13.5z"/>
	<path d="M99,14c-0.7,0-1.3,0-2,0c-1.4,0-2.7,0.5-3.7,1.5c-0.9,0.9-1.4,2-1.6,3.2c-0.1,0.6-0.1,1.2-0.2,1.8c0,4.5,0,9,0,13.5
		c0,0.1,0,0.2,0,0.2c-1.6,0-3.2,0-4.8,0c0-8.1,0-16.3,0-24.4c1.6,0,3.2,0,4.8,0c0,1,0,2,0,3c0.1-0.1,0.1-0.1,0.1-0.2
		c1.2-1.8,2.9-2.8,5-3c0.8-0.1,1.6,0,2.4,0C99,11,99,12.5,99,14z"/>
	<path d="M64.1,23.5c0.6,3,2.3,5.2,5.2,6.4c4,1.3,7.4,0.2,10-3c1.1,0.8,2.3,1.7,3.5,2.6c-0.3,0.3-0.5,0.6-0.8,0.9
		c-2,2.2-4.4,3.6-7.4,4.1c-3.9,0.6-7.5-0.1-10.7-2.6c-2.5-1.9-3.9-4.5-4.5-7.5c-0.6-3.4,0-6.6,1.9-9.5c2-3,4.8-4.9,8.4-5.4
		c3.5-0.6,6.8,0.2,9.7,2.4c2.1,1.7,3.4,3.8,4.1,6.4c0.3,1.2,0.5,2.5,0.5,3.8c0,0.5,0,1,0,1.5C77.4,23.5,70.8,23.5,64.1,23.5z
		 M64.2,19.6c5,0,9.9,0,14.9,0c-0.7-3.6-3.8-6.4-7.8-6.2C67.2,13.6,64.8,16.8,64.2,19.6z"/>
</g>
</svg>
