<?xml version="1.0" encoding="utf-8"?>
<!-- Generator: Adobe Illustrator 16.0.2, SVG Export Plug-In . SVG Version: 6.00 Build 0)  -->
<!DOCTYPE svg PUBLIC "-//W3C//DTD SVG 1.1//EN" "http://www.w3.org/Graphics/SVG/1.1/DTD/svg11.dtd">
<svg version="1.1" id="Layer_1" xmlns="http://www.w3.org/2000/svg" xmlns:xlink="http://www.w3.org/1999/xlink" x="0px" y="0px"
	 width="201px" height="244px" viewBox="0 0 201 244" enable-background="new 0 0 201 244" xml:space="preserve">
<path fill="#CCCCCC" d="M56.386,40.465H14.293l-0.262-0.004c-2.949-0.07-5.692-1.285-7.727-3.418
	c-2.035-2.133-3.117-4.934-3.047-7.883c0.141-5.941,5.09-10.778,11.032-10.778l0.269,0.004c0.305,0.016,0.606-0.113,0.824-0.332
	c0.219-0.219,0.336-0.515,0.329-0.828c-0.051-1.707,0.609-3.383,1.804-4.602c1.196-1.218,2.797-1.89,4.504-1.89
	c1.664,0,3.235,0.64,4.422,1.808c0.266,0.262,0.641,0.375,1.004,0.301c0.363-0.07,0.668-0.316,0.816-0.66
	c2.336-5.426,7.661-8.934,13.563-8.934c1.203,0,2.41,0.149,3.586,0.442c3.828,0.957,7.051,3.344,9.082,6.726
	c2.031,3.383,2.621,7.352,1.664,11.18c-0.078,0.32-0.016,0.656,0.176,0.926c0.191,0.269,0.488,0.437,0.816,0.469
	c4.555,0.394,7.992,4.144,7.992,8.718C65.136,36.54,61.214,40.465,56.386,40.465z M58.593,20.934
	c0.703-4.027-0.051-8.129-2.176-11.668c-2.34-3.898-6.055-6.652-10.469-7.754C44.593,1.172,43.207,1,41.82,1
	c-6.309,0-12.039,3.473-14.988,8.965c-1.411-0.965-3.075-1.48-4.817-1.48c-2.316,0-4.488,0.91-6.109,2.562
	c-1.356,1.383-2.203,3.196-2.406,5.11C6.703,16.563,1.168,22.215,1.004,29.106c-0.086,3.551,1.218,6.918,3.667,9.488
	c2.45,2.57,5.754,4.031,9.305,4.117l42.41,0.004c6.066,0,11-4.934,11-11C67.386,26.391,63.687,21.957,58.593,20.934z"/>
<path fill="#CCCCCC" d="M60.132,194c-9.054,0-18.75,5.649-18.75,14.063c0,0.862-0.699,1.563-1.562,1.563
	c-8.617,0-15.625,7.007-15.625,15.623c0,8.618,7.008,15.627,15.625,15.627h42.188c6.03,0,10.937-4.907,10.937-10.938
	S88.039,219,82.009,219c-0.864,0-1.563-0.698-1.563-1.562v-1.563C80.445,203.813,71.332,194,60.132,194z M82.009,244H39.82
	c-10.34,0-18.75-8.409-18.75-18.75c0-9.839,7.617-17.933,17.266-18.69c1.011-9.729,11.781-15.683,21.795-15.683
	c12.923,0,23.438,11.213,23.438,24.999v0.086c7.023,0.781,12.5,6.75,12.5,13.977C96.07,237.692,89.762,244,82.009,244z"/>
<path fill="#CCCCCC" d="M187.727,66.727h-29.324c-4.125,0-7.426-3.449-7.426-7.574s3.375-7.426,7.426-7.426
	c0.824,0,1.649,0.148,2.399,0.449c0.522,0.149,1.05,0.074,1.5-0.301c0.375-0.375,0.601-0.898,0.522-1.425
	c-0.074-0.45-0.147-0.899-0.147-1.427c0-4.125,3.375-7.426,7.425-7.426c4.051,0,7.426,3.375,7.426,7.426
	c0,0.602,0.375,1.199,0.977,1.427c0.602,0.226,1.273,0.073,1.648-0.45c1.5-1.727,3.977-3.824,7.574-3.824
	c5.625,0,10.199,4.574,10.199,10.199S193.352,66.727,187.727,66.727z M187.727,43.25c-2.773,0-5.398,0.977-7.648,2.773
	c-1.352-4.273-5.324-7.352-9.977-7.352c-5.699,0-10.352,4.575-10.425,10.2c-0.45-0.146-0.899-0.146-1.274-0.146
	c-5.773,0-10.426,4.728-10.426,10.426c0,5.699,4.652,10.574,10.426,10.574h29.398c7.273,0,13.199-6,13.199-13.272
	C201,49.176,195.078,43.25,187.727,43.25z"/>
</svg>
