<?xml version="1.0" encoding="utf-8"?>
<!-- Generator: Adobe Illustrator 21.0.2, SVG Export Plug-In . SVG Version: 6.00 Build 0)  -->
<svg version="1.1" id="Layer_1" xmlns="http://www.w3.org/2000/svg" xmlns:xlink="http://www.w3.org/1999/xlink" x="0px" y="0px"
	 width="11.6px" height="7.2px" viewBox="0 0 11.6 7.2" enable-background="new 0 0 11.6 7.2" xml:space="preserve">
<path id="seta-esq-paginacao" fill="#999999" d="M2.4,0.9l3.5,3.8l3.5-3.8c0.2-0.3,0.7-0.3,0.9-0.1c0,0,0,0,0.1,0.1
	c0.3,0.3,0.3,0.8,0,1.1l-4,4.3C6.1,6.6,5.7,6.6,5.4,6.4c0,0,0,0-0.1-0.1L1.3,2c-0.3-0.3-0.3-0.8,0-1.1C1.6,0.6,2,0.6,2.4,0.9
	C2.3,0.9,2.4,0.9,2.4,0.9z"/>
</svg>
