<?xml version="1.0" encoding="utf-8"?>
<!-- Generator: Adobe Illustrator 21.0.2, SVG Export Plug-In . SVG Version: 6.00 Build 0)  -->
<svg version="1.1" id="Layer_1" xmlns="http://www.w3.org/2000/svg" xmlns:xlink="http://www.w3.org/1999/xlink" x="0px" y="0px"
	 width="116px" height="95px" viewBox="0 0 116 95" enable-background="new 0 0 116 95" xml:space="preserve">
<path id="Selo_Cartao_de_credito" fill="#6699CC" d="M16.5,44C27.8,54.9,43,60.7,58.6,60.2c25.2-0.9,38.5-16.4,38.5-16.4
	s1.5-2.1,0.3-3.6c-2.6,2.7-17.3,13.6-38.6,14.9c-9.4,0.6-27.9-2.3-42.6-14.9C14.8,41,16.5,44,16.5,44z M77.7,24.4
	c3.9-0.1,7.2,3,7.2,7s-3,7.2-7,7.2c-3.9,0.1-7.2-3-7.2-7c0,0,0,0,0,0c0,0,0-0.1,0-0.1C70.7,27.6,73.8,24.4,77.7,24.4 M77.7,22.3
	c-5-0.1-9.2,3.9-9.3,9c-0.1,5,3.9,9.2,9,9.3c5,0.1,9.2-3.9,9.3-9c0,0,0,0,0-0.1c0,0,0-0.1,0-0.1C86.7,26.5,82.7,22.4,77.7,22.3
	L77.7,22.3L77.7,22.3z M76.7,35.5c-0.3,0-0.5-0.1-0.7-0.3l-2-2c-0.4-0.4-0.4-1,0-1.4c0.4-0.4,1-0.4,1.4,0c0,0,0,0,0,0l0,0l1.1,1.2
	l3.3-5.1c0.3-0.5,0.9-0.6,1.4-0.3c0,0,0,0,0,0l0,0c0.5,0.3,0.6,0.9,0.3,1.4l-4,6.1c-0.2,0.3-0.4,0.4-0.7,0.4
	C76.8,35.5,76.8,35.5,76.7,35.5L76.7,35.5z M80.7,0H32.9c-2.2,0-4,1.8-4,4.1v28.4c0,2.2,1.8,4,4,4.1h28.9c0.6,0,1-0.5,1-1
	c0-0.6-0.5-1-1-1H32.9c-1.1,0-2-0.9-2-2V4.1c0-1.1,0.9-2,2-2h47.8c1.1,0,2,0.9,2,2v11.2c-0.1,0.5,0.3,1,0.9,1.1
	c0.5,0.1,1-0.3,1.1-0.9c0-0.1,0-0.1,0-0.2V4.1C84.7,1.8,82.9,0,80.7,0L80.7,0z M41.9,24.4h-6c-0.6,0-1-0.5-1-1l0,0c0-0.6,0.4-1,1-1
	h6c0.6,0,1,0.5,1,1l0,0C42.9,23.9,42.5,24.4,41.9,24.4z M57.8,30.5H35.9c-0.6,0-1-0.5-1-1l0,0c0-0.6,0.4-1,1-1h21.9c0.6,0,1,0.5,1,1
	l0,0C58.8,30,58.4,30.4,57.8,30.5L57.8,30.5z M53.8,24.4h-6c-0.6,0-1-0.5-1-1l0,0c0-0.6,0.4-1,1-1h6c0.6,0,1,0.5,1,1l0,0
	C54.8,23.9,54.4,24.4,53.8,24.4L53.8,24.4z M65.8,24.4h-6c-0.6,0-1-0.5-1-1l0,0c0-0.6,0.4-1,1-1h6c0.6,0,1,0.5,1,1l0,0
	C66.8,23.9,66.3,24.4,65.8,24.4L65.8,24.4z M44.9,8.1v8.1h-8V8.1L44.9,8.1 M44.9,6.1h-8c-1.1,0-2,0.9-2,2c0,0,0,0,0,0l0,0v8.1
	c0,1.1,0.9,2,2,2c0,0,0,0,0,0h8c1.1,0,2-0.9,2-2c0,0,0,0,0,0l0,0V8.1C46.9,7,46,6.1,44.9,6.1C44.9,6.1,44.9,6.1,44.9,6.1L44.9,6.1
	L44.9,6.1z M6.8,74.3l2,0.6c-0.2,1-0.7,1.8-1.5,2.4c-1.9,1.3-4.3,1-5.9-0.6c-0.9-1-1.4-2.4-1.3-3.7c-0.1-1.4,0.4-2.8,1.3-3.9
	c0.9-0.9,2.1-1.4,3.4-1.4c1.1,0,2.2,0.3,3,1.1c0.5,0.5,0.9,1.2,1,1.9l-2,0.5c-0.1-0.5-0.4-0.9-0.7-1.2c-0.4-0.3-0.9-0.5-1.4-0.5
	c-0.7,0-1.4,0.3-1.8,0.8C2.2,71,2,71.9,2.1,72.9c-0.1,1,0.2,1.9,0.7,2.7c0.4,0.5,1.1,0.8,1.8,0.8c0.5,0,1-0.2,1.4-0.5
	C6.4,75.4,6.6,74.9,6.8,74.3z M11.9,72.9l-1.7-0.3c0.1-0.6,0.5-1.2,1-1.6c0.6-0.4,1.4-0.6,2.1-0.5c0.7,0,1.3,0.1,1.9,0.3
	c0.4,0.2,0.7,0.4,0.9,0.8c0.2,0.5,0.3,1.1,0.3,1.7l0,2.2c0,0.5,0,0.9,0.1,1.4c0.1,0.3,0.2,0.7,0.3,1h-1.9c0-0.1-0.1-0.3-0.2-0.6
	c0-0.1-0.1-0.2-0.1-0.2c-0.3,0.3-0.7,0.5-1,0.7c-0.4,0.2-0.8,0.2-1.2,0.2c-0.6,0-1.3-0.2-1.8-0.6c-0.4-0.4-0.7-1-0.6-1.5
	c0-0.4,0.1-0.8,0.3-1.1c0.2-0.3,0.5-0.6,0.8-0.7c0.5-0.2,1-0.4,1.5-0.4c0.6-0.1,1.3-0.3,1.9-0.5V73c0-0.3-0.1-0.6-0.3-0.8
	c-0.3-0.2-0.7-0.3-1-0.2c-0.3,0-0.6,0.1-0.8,0.2C12.1,72.4,11.9,72.6,11.9,72.9L11.9,72.9z M14.4,74.5c-0.4,0.1-0.8,0.2-1.2,0.3
	c-0.4,0.1-0.7,0.2-1,0.3c-0.2,0.1-0.4,0.4-0.4,0.7c0,0.3,0.1,0.5,0.3,0.7c0.2,0.2,0.5,0.3,0.8,0.3c0.4,0,0.7-0.1,1-0.3
	c0.2-0.2,0.4-0.4,0.5-0.6c0.1-0.3,0.1-0.6,0.1-0.9L14.4,74.5L14.4,74.5z M20,78h-1.9v-7.3h1.8v1c0.2-0.4,0.5-0.7,0.8-1
	c0.2-0.2,0.5-0.2,0.8-0.2c0.4,0,0.9,0.1,1.3,0.4l-0.6,1.7c-0.3-0.2-0.6-0.3-0.9-0.3c-0.2,0-0.5,0.1-0.7,0.2
	c-0.2,0.2-0.4,0.5-0.4,0.8C20,74.1,20,74.9,20,75.7V78L20,78z M26.9,70.7v1.5h-1.3v2.9c0,0.3,0,0.7,0,1c0,0.1,0.1,0.2,0.2,0.2
	c0.1,0.1,0.2,0.1,0.3,0.1c0.3,0,0.5-0.1,0.8-0.2l0.2,1.5c-0.5,0.2-1,0.3-1.5,0.3c-0.3,0-0.6-0.1-0.9-0.2c-0.2-0.1-0.5-0.2-0.6-0.5
	c-0.1-0.2-0.2-0.5-0.3-0.8c-0.1-0.5-0.1-0.9-0.1-1.4v-3.2h-0.9v-1.5h0.9v-1.4l1.9-1.1v2.6L26.9,70.7L26.9,70.7z M29.7,72.9L28,72.6
	c0.1-0.6,0.5-1.2,1-1.6c0.6-0.4,1.4-0.6,2.1-0.5c0.7,0,1.3,0.1,1.9,0.3c0.4,0.2,0.7,0.4,0.9,0.8c0.2,0.5,0.3,1.1,0.3,1.7l0,2.2
	c0,0.5,0,0.9,0.1,1.4c0.1,0.3,0.2,0.7,0.3,1h-1.9c0-0.1-0.1-0.3-0.2-0.6c0-0.1-0.1-0.2-0.1-0.2c-0.3,0.3-0.7,0.5-1,0.7
	c-0.4,0.2-0.8,0.2-1.2,0.2c-0.6,0-1.3-0.2-1.8-0.6c-0.4-0.4-0.7-1-0.6-1.5c0-0.4,0.1-0.8,0.3-1.1c0.2-0.3,0.5-0.6,0.8-0.7
	c0.5-0.2,1-0.4,1.5-0.4c0.6-0.1,1.3-0.3,1.9-0.5V73c0-0.3-0.1-0.6-0.3-0.8c-0.3-0.2-0.7-0.3-1-0.2c-0.3,0-0.6,0.1-0.8,0.2
	C29.9,72.4,29.8,72.6,29.7,72.9L29.7,72.9z M29.7,69.7h-0.9c0-0.1,0-0.2,0-0.2c0-0.4,0.1-0.8,0.3-1.1c0.2-0.3,0.6-0.4,0.9-0.4
	c0.2,0,0.3,0,0.4,0c0.3,0.1,0.5,0.2,0.7,0.3c0.3,0.1,0.6,0.2,0.8,0.2c0.1,0,0.3,0,0.4-0.1c0.1-0.1,0.2-0.3,0.2-0.5h0.9
	c0,0.5-0.1,0.9-0.3,1.3c-0.2,0.3-0.5,0.4-0.9,0.4c-0.2,0-0.3,0-0.5,0c-0.1,0-0.4-0.1-0.8-0.3c-0.3-0.1-0.6-0.2-0.9-0.2
	c-0.1,0-0.3,0-0.3,0.1C29.7,69.4,29.7,69.5,29.7,69.7L29.7,69.7z M32.3,74.5c-0.4,0.1-0.8,0.2-1.2,0.3c-0.4,0.1-0.7,0.2-1,0.3
	c-0.2,0.1-0.4,0.4-0.4,0.7c0,0.3,0.1,0.5,0.3,0.7c0.2,0.2,0.5,0.3,0.8,0.3c0.4,0,0.7-0.1,1-0.3c0.2-0.2,0.4-0.4,0.5-0.6
	c0.1-0.3,0.1-0.6,0.1-0.9L32.3,74.5L32.3,74.5z M35.6,74.2c0-0.6,0.2-1.3,0.5-1.9c0.3-0.6,0.8-1.1,1.3-1.4c0.6-0.3,1.3-0.5,1.9-0.5
	c1,0,2,0.4,2.7,1.1c0.7,0.7,1.1,1.7,1,2.7c0,1-0.4,2-1.1,2.7c-0.7,0.7-1.7,1.1-2.7,1.1c-0.7,0-1.3-0.2-1.9-0.5
	c-0.6-0.3-1.1-0.8-1.4-1.3C35.7,75.7,35.6,75,35.6,74.2L35.6,74.2z M37.6,74.3c0,0.6,0.1,1.2,0.5,1.7c0.6,0.7,1.7,0.8,2.3,0.2
	c0.1-0.1,0.1-0.1,0.2-0.2c0.4-0.5,0.6-1.1,0.5-1.7c0-0.6-0.1-1.2-0.5-1.6c-0.6-0.7-1.7-0.8-2.3-0.2c-0.1,0.1-0.1,0.1-0.2,0.2
	C37.7,73.1,37.5,73.7,37.6,74.3L37.6,74.3z M55.1,78h-1.8v-1.1c-0.3,0.4-0.6,0.7-1,0.9c-0.4,0.2-0.8,0.3-1.2,0.3
	c-0.8,0-1.6-0.4-2.1-1c-0.6-0.8-1-1.8-0.9-2.8c-0.1-1,0.2-2,0.9-2.8c0.6-0.6,1.4-1,2.2-1c0.8,0,1.6,0.4,2.1,1v-3.6h1.9V78L55.1,78z
	 M50,74.2c0,0.6,0.1,1.2,0.3,1.7c0.3,0.5,0.8,0.8,1.3,0.8c0.4,0,0.9-0.2,1.1-0.6c0.3-0.5,0.5-1.1,0.5-1.7c0.1-0.6-0.1-1.3-0.5-1.8
	C52.5,72.2,52,72,51.6,72c-0.4,0-0.9,0.2-1.1,0.5C50.1,73,49.9,73.6,50,74.2L50,74.2z M61.2,75.6l1.9,0.3c-0.2,0.6-0.6,1.2-1.2,1.6
	c-0.6,0.4-1.3,0.6-2,0.6c-1.1,0.1-2.1-0.4-2.8-1.2c-0.5-0.7-0.8-1.6-0.7-2.5c-0.1-1,0.3-2,0.9-2.8c0.6-0.7,1.5-1,2.4-1
	c1,0,1.9,0.3,2.5,1.1c0.7,0.9,1,2.1,0.9,3.3h-4.8c0,0.5,0.1,1,0.5,1.3c0.3,0.3,0.7,0.5,1.1,0.5c0.3,0,0.5-0.1,0.8-0.2
	C60.9,76.2,61.1,76,61.2,75.6L61.2,75.6z M61.3,73.7c0-0.5-0.1-0.9-0.4-1.3c-0.5-0.6-1.4-0.6-1.9-0.1c0,0-0.1,0.1-0.1,0.1
	c-0.3,0.4-0.4,0.8-0.4,1.2H61.3L61.3,73.7z M75,74.3l2,0.6c-0.2,1-0.7,1.8-1.5,2.4c-1.9,1.3-4.3,1-5.9-0.6c-0.9-1-1.4-2.4-1.3-3.7
	c-0.1-1.4,0.4-2.8,1.3-3.9c0.9-0.9,2.1-1.4,3.4-1.4c1.1,0,2.2,0.3,3,1.1c0.5,0.5,0.9,1.2,1,1.9l-2,0.5c-0.2-1-1.1-1.7-2.1-1.7
	c-0.7,0-1.4,0.3-1.8,0.8c-0.5,0.8-0.8,1.7-0.7,2.6c-0.1,1,0.2,1.9,0.7,2.7c0.4,0.5,1.1,0.8,1.8,0.8c0.5,0,1-0.2,1.4-0.5
	C74.6,75.4,74.9,74.9,75,74.3L75,74.3z M80.5,78h-1.9v-7.3h1.8v1c0.2-0.4,0.5-0.7,0.8-1c0.2-0.2,0.5-0.2,0.8-0.2
	c0.4,0,0.9,0.1,1.3,0.4l-0.6,1.7c-0.3-0.2-0.6-0.3-0.9-0.3c-0.2,0-0.5,0.1-0.7,0.2c-0.2,0.2-0.4,0.5-0.4,0.8
	c-0.1,0.8-0.2,1.6-0.2,2.4V78L80.5,78z M88.3,75.6l1.9,0.3c-0.2,0.6-0.6,1.2-1.2,1.6c-0.6,0.4-1.3,0.6-2,0.6
	c-1.1,0.1-2.1-0.4-2.8-1.2c-0.5-0.7-0.8-1.6-0.7-2.5c-0.1-1,0.3-2,0.9-2.8c0.6-0.7,1.5-1,2.4-1c1,0,1.9,0.3,2.5,1.1
	c0.7,0.9,1,2.1,0.9,3.3h-4.8c0,0.5,0.1,1,0.5,1.3c0.3,0.3,0.7,0.5,1.1,0.5c0.3,0,0.5-0.1,0.8-0.2C88.1,76.2,88.3,76,88.3,75.6
	L88.3,75.6z M88.4,73.7c0-0.5-0.1-0.9-0.4-1.3c-0.5-0.6-1.4-0.6-1.9-0.1c0,0-0.1,0.1-0.1,0.1c-0.3,0.4-0.4,0.8-0.4,1.2H88.4
	L88.4,73.7z M86,69.8l0.9-2.1h2.1l-1.9,2.1H86z M98.6,78h-1.8v-1.1c-0.3,0.4-0.6,0.7-1,0.9c-0.4,0.2-0.8,0.3-1.2,0.3
	c-0.8,0-1.6-0.4-2.1-1c-0.6-0.8-1-1.8-0.9-2.8c-0.1-1,0.2-2,0.9-2.8c0.6-0.6,1.4-1,2.2-1c0.8,0,1.6,0.4,2.1,1v-3.6h1.9V78L98.6,78z
	 M93.4,74.2c0,0.6,0.1,1.2,0.3,1.7c0.3,0.5,0.8,0.8,1.3,0.8c0.4,0,0.9-0.2,1.1-0.6c0.3-0.5,0.5-1.1,0.5-1.7c0.1-0.6-0.1-1.3-0.5-1.8
	c-0.5-0.6-1.4-0.7-2.1-0.2c-0.1,0.1-0.2,0.1-0.2,0.2C93.6,73,93.4,73.6,93.4,74.2L93.4,74.2z M100.4,69.7v-1.8h1.9v1.8L100.4,69.7
	L100.4,69.7z M100.4,78v-7.3h1.9V78L100.4,78L100.4,78z M107.6,70.7v1.5h-1.3v2.9c0,0.3,0,0.7,0,1c0,0.1,0.1,0.2,0.2,0.2
	c0.1,0.1,0.2,0.1,0.3,0.1c0.3,0,0.5-0.1,0.8-0.2l0.2,1.5c-0.5,0.2-1,0.3-1.5,0.3c-0.3,0-0.6-0.1-0.9-0.2c-0.2-0.1-0.5-0.2-0.6-0.5
	c-0.1-0.2-0.2-0.5-0.3-0.8c-0.1-0.5-0.1-0.9-0.1-1.4v-3.2h-0.9v-1.5h0.9v-1.4l1.9-1.1v2.6L107.6,70.7L107.6,70.7z M108.5,74.2
	c0-0.7,0.2-1.3,0.5-1.9c0.3-0.6,0.8-1.1,1.3-1.4c0.6-0.3,1.3-0.5,1.9-0.5c1,0,2,0.4,2.7,1.1c0.7,0.7,1.1,1.7,1,2.7
	c0,1-0.4,2-1.1,2.7c-0.7,0.7-1.7,1.1-2.7,1.1c-0.7,0-1.3-0.2-1.9-0.5c-0.6-0.3-1.1-0.8-1.4-1.3C108.7,75.7,108.5,75,108.5,74.2
	L108.5,74.2z M110.5,74.3c0,0.6,0.1,1.2,0.5,1.7c0.6,0.7,1.7,0.8,2.3,0.2c0.1-0.1,0.1-0.1,0.2-0.2c0.4-0.5,0.5-1.1,0.5-1.7
	c0-0.6-0.1-1.2-0.5-1.6c-0.6-0.7-1.7-0.8-2.3-0.2c-0.1,0.1-0.1,0.1-0.2,0.2C110.6,73.1,110.4,73.7,110.5,74.3L110.5,74.3z
	 M35.9,91.5l2-0.2c0.1,0.6,0.3,1.1,0.7,1.5c0.4,0.3,0.9,0.5,1.5,0.5c0.5,0,1-0.1,1.5-0.4c0.3-0.2,0.5-0.6,0.5-1
	c0-0.2-0.1-0.4-0.2-0.6c-0.2-0.2-0.5-0.4-0.7-0.4c-0.2-0.1-0.8-0.2-1.6-0.4c-0.8-0.2-1.6-0.5-2.3-1c-1-0.9-1.2-2.3-0.5-3.5
	c0.3-0.5,0.7-0.8,1.2-1c0.6-0.2,1.3-0.4,2-0.3c1-0.1,2,0.2,2.8,0.8c0.6,0.6,1,1.4,1,2.2l-2,0.1c0-0.4-0.2-0.8-0.6-1.1
	c-0.4-0.3-0.8-0.4-1.3-0.3c-0.5,0-1,0.1-1.4,0.4c-0.2,0.1-0.3,0.4-0.3,0.6c0,0.2,0.1,0.5,0.3,0.6c0.6,0.3,1.2,0.6,1.9,0.7
	c0.8,0.2,1.5,0.4,2.2,0.7c0.5,0.2,0.8,0.6,1.1,1c0.3,0.5,0.4,1,0.4,1.6c0,0.6-0.2,1.1-0.5,1.6c-0.3,0.5-0.8,0.9-1.3,1.1
	C41.5,94.9,40.8,95,40,95c-1,0.1-2.1-0.2-2.9-0.9C36.4,93.4,36,92.5,35.9,91.5L35.9,91.5z M45.6,87.5h1.8v1c0.5-0.7,1.4-1.2,2.3-1.2
	c0.4,0,0.8,0.1,1.2,0.3c0.4,0.2,0.6,0.5,0.8,0.9c0.3-0.4,0.6-0.7,1-0.9c0.4-0.2,0.8-0.3,1.2-0.3c0.5,0,0.9,0.1,1.3,0.3
	c0.4,0.2,0.7,0.6,0.8,1c0.2,0.5,0.2,1,0.2,1.5v4.7h-1.9v-4.2c0-0.5,0-1-0.2-1.4c-0.2-0.3-0.5-0.4-0.8-0.4c-0.3,0-0.5,0.1-0.8,0.2
	c-0.2,0.2-0.4,0.4-0.5,0.7c-0.1,0.5-0.2,1-0.2,1.5v3.5H50v-4c0-0.5,0-0.9-0.1-1.4c-0.1-0.2-0.2-0.3-0.3-0.5
	c-0.2-0.1-0.4-0.2-0.6-0.2c-0.3,0-0.6,0.1-0.8,0.2c-0.2,0.2-0.4,0.4-0.5,0.7c-0.1,0.5-0.2,1-0.2,1.5v3.5h-1.9L45.6,87.5L45.6,87.5z
	 M58.1,86.5v-1.8h1.9v1.8H58.1L58.1,86.5z M58.1,94.8v-7.3h1.9v7.3H58.1L58.1,94.8z M62,94.8V84.8h1.9v10.1L62,94.8L62,94.8z
	 M70.1,92.5l1.9,0.3c-0.2,0.6-0.6,1.2-1.2,1.6c-0.6,0.4-1.3,0.6-2,0.6c-1.1,0.1-2.1-0.4-2.8-1.2c-0.5-0.7-0.8-1.6-0.7-2.5
	c-0.1-1,0.3-2,0.9-2.8c0.6-0.7,1.5-1,2.4-1c1,0,1.9,0.3,2.5,1.1c0.7,0.9,1,2.1,0.9,3.3h-4.8c0,0.5,0.1,1,0.5,1.3
	c0.3,0.3,0.7,0.5,1.1,0.5c0.3,0,0.5-0.1,0.8-0.2C69.9,93.1,70,92.8,70.1,92.5L70.1,92.5z M70.2,90.6c0-0.5-0.1-0.9-0.4-1.3
	c-0.5-0.6-1.4-0.6-1.9-0.1c0,0-0.1,0.1-0.1,0.1c-0.3,0.3-0.4,0.8-0.4,1.2H70.2L70.2,90.6z M73,92.7l1.9-0.3c0.1,0.3,0.2,0.6,0.5,0.9
	c0.3,0.2,0.7,0.3,1,0.3c0.4,0,0.8-0.1,1.1-0.3c0.2-0.1,0.3-0.3,0.3-0.5c0-0.1,0-0.3-0.1-0.4c-0.2-0.1-0.4-0.2-0.6-0.3
	c-1-0.2-2-0.5-2.9-0.9c-0.6-0.4-0.9-1-0.9-1.6c0-0.6,0.3-1.2,0.7-1.6c0.7-0.5,1.5-0.7,2.3-0.6c0.8-0.1,1.5,0.1,2.2,0.5
	c0.5,0.3,0.9,0.9,1,1.4l-1.8,0.3c-0.1-0.3-0.2-0.5-0.4-0.7c-0.3-0.2-0.6-0.2-0.9-0.2c-0.4,0-0.7,0-1.1,0.2C75.1,89,75,89.2,75,89.4
	c0,0.1,0.1,0.3,0.2,0.3c0.6,0.3,1.2,0.4,1.8,0.5c0.8,0.1,1.5,0.4,2.1,0.9c0.4,0.4,0.6,0.9,0.6,1.4c0,0.7-0.3,1.3-0.8,1.7
	c-0.7,0.5-1.6,0.8-2.5,0.7c-0.8,0-1.6-0.2-2.3-0.6C73.6,94,73.2,93.4,73,92.7L73,92.7z"/>
</svg>
