<?xml version="1.0" encoding="utf-8"?>
<!-- Generator: Adobe Illustrator 21.0.2, SVG Export Plug-In . SVG Version: 6.00 Build 0)  -->
<svg version="1.1" id="Layer_1" xmlns="http://www.w3.org/2000/svg" xmlns:xlink="http://www.w3.org/1999/xlink" x="0px" y="0px"
	 width="38px" height="29px" viewBox="0 0 38 29" enable-background="new 0 0 38 29" xml:space="preserve">
<g>
	<g>
		<path id="Rounded_Rectangle_2" fill="#231F20" d="M4.6,0.1h28.9c2.5,0,4.6,2,4.6,4.6v19.8c0,2.5-2,4.6-4.6,4.6l0,0H4.6
			C2,29,0,27,0,24.4l0,0V4.7C0,2.2,2,0.1,4.6,0.1L4.6,0.1z"/>
	</g>
	<g>
		<defs>
			<path id="SVGID_1_" d="M4.6,0.1h28.9c2.5,0,4.6,2,4.6,4.6v19.8c0,2.5-2,4.6-4.6,4.6l0,0H4.6C2,29,0,27,0,24.4l0,0V4.7
				C0,2.2,2,0.1,4.6,0.1L4.6,0.1z"/>
		</defs>
		<clipPath id="SVGID_2_">
			<use xlink:href="#SVGID_1_"  overflow="visible"/>
		</clipPath>
		<g clip-path="url(#SVGID_2_)">
			<circle id="Ellipse_1_copy_1_" opacity="0" fill="#E5E5E5" cx="22.4" cy="31.2" r="13.9"/>
			<path fill="#696A6E" d="M22.4,47.6c-9,0-16.4-7.4-16.4-16.4s7.4-16.4,16.4-16.4s16.4,7.4,16.4,16.4S31.5,47.6,22.4,47.6z
				 M22.4,19.8c-6.3,0-11.4,5.1-11.4,11.4s5.1,11.4,11.4,11.4s11.4-5.1,11.4-11.4S28.7,19.8,22.4,19.8z"/>
		</g>
	</g>
	<g>
		<defs>
			<path id="SVGID_3_" d="M4.6,0.1h28.9c2.5,0,4.6,2,4.6,4.6v19.8c0,2.5-2,4.6-4.6,4.6l0,0H4.6C2,29,0,27,0,24.4l0,0V4.7
				C0,2.2,2,0.1,4.6,0.1L4.6,0.1z"/>
		</defs>
		<clipPath id="SVGID_4_">
			<use xlink:href="#SVGID_3_"  overflow="visible"/>
		</clipPath>
		<g clip-path="url(#SVGID_4_)">
			<path opacity="0" fill="#4B4A4C" d="M10.4,17.5C18,17.7,24,23.9,23.8,31.4S17.5,45,9.9,44.8C2.5,44.7-3.5,38.6-3.5,31.2
				C-3.4,23.6,2.8,17.4,10.4,17.5z"/>
			<path fill="#4B4A4C" d="M10.2,47.3c-0.1,0-0.2,0-0.3,0C1.1,47.2-6,39.9-6,31.2c0.1-9,7.4-16.2,16.4-16.2l0,0
				c8.9,0.2,16,7.6,15.9,16.5C26.2,40.3,18.9,47.3,10.2,47.3z M10.3,20C4.1,20-0.9,25-1,31.2c0,6,4.9,11,11,11.1
				c6.1,0.1,11.3-4.8,11.4-11C21.5,25.2,16.5,20.1,10.3,20C10.4,20,10.3,20,10.3,20z"/>
		</g>
	</g>
</g>
<path id="linha" fill="#CFCFCF" d="M0,11V9h38v2H0z"/>
</svg>
