<?xml version="1.0" encoding="utf-8"?>
<!-- Generator: Adobe Illustrator 21.0.2, SVG Export Plug-In . SVG Version: 6.00 Build 0)  -->
<svg version="1.1" id="Layer_1" xmlns="http://www.w3.org/2000/svg" xmlns:xlink="http://www.w3.org/1999/xlink" x="0px" y="0px"
	 width="92px" height="12px" viewBox="0 0 92 12" enable-background="new 0 0 92 12" xml:space="preserve">
<path id="seta" fill="#999999" d="M92,6l-5.9-5.9c-0.2-0.2-0.5-0.2-0.6,0c0,0,0,0,0,0c-0.2,0.2-0.2,0.5,0,0.7c0,0,0,0,0,0l4.8,4.8
	H0.5C0.2,5.6,0,5.7,0,6c0,0.2,0.1,0.4,0.4,0.5c0,0,0.1,0,0.1,0h89.7l-4.8,4.8c-0.2,0.2-0.2,0.5,0,0.7c0,0,0,0,0,0
	c0.1,0.1,0.2,0.1,0.3,0.2c0.1,0,0.2,0,0.3-0.1L92,6z"/>
</svg>
