<?xml version="1.0" encoding="utf-8"?>
<!-- Generator: Adobe Illustrator 16.0.2, SVG Export Plug-In . SVG Version: 6.00 Build 0)  -->
<!DOCTYPE svg PUBLIC "-//W3C//DTD SVG 1.1//EN" "http://www.w3.org/Graphics/SVG/1.1/DTD/svg11.dtd">
<svg version="1.1" id="Capa_1" xmlns="http://www.w3.org/2000/svg" xmlns:xlink="http://www.w3.org/1999/xlink" x="0px" y="0px"
	 width="32.667px" height="31.667px" viewBox="259.112 171.474 32.667 31.667"
	 enable-background="new 259.112 171.474 32.667 31.667" xml:space="preserve">
<g>
	<path fill="#FFFFFF" d="M289.181,186.469h-27.162c0.027,0.549,0.057,1.097,0.081,1.646h27.081c0.454,0,0.823-0.369,0.823-0.823
		C290.004,186.838,289.635,186.469,289.181,186.469z"/>
	<path fill="#FFFFFF" d="M278.508,175.459c-0.779,0.001-1.559-0.003-2.338-0.011l11.848,11.849l-11.321,11.318
		c0.755,0.02,1.511,0.04,2.267,0.061l10.801-10.798c0.153-0.155,0.24-0.364,0.24-0.583c0-0.219-0.087-0.426-0.242-0.581
		L278.508,175.459z"/>
</g>
</svg>
