<svg xmlns="http://www.w3.org/2000/svg" viewBox="0 0 91.32 57.71"><defs><style>.cls-1{fill:#7b7b7b;}</style></defs><title>ic-binoculos</title><g id="Camada_2" data-name="Camada 2"><g id="Camada_1-2" data-name="Camada 1"><path class="cls-1" d="M20.5,20.4A16.6,16.6,0,1,1,3.9,37,16.56,16.56,0,0,1,20.5,20.4Zm50.6,33.2A16.6,16.6,0,1,1,87.71,37,16.56,16.56,0,0,1,71.11,53.6ZM41.11,37l.1-2.5h9.1l.1,2.5a20.21,20.21,0,0,0,.5,4.3H40.61a19.47,19.47,0,0,0,.5-4.3Zm8.3-25,.8,18.5h-8.8l.8-18.5ZM73.5,9.6a.21.21,0,0,0,.2.2l5,8a21,21,0,0,0-7.6-1.5A20.6,20.6,0,0,0,54,25.4l-.6-15A11.44,11.44,0,0,1,73.5,9.6Zm-55.4,0a11.44,11.44,0,0,1,20.1.8l-.6,15a20.59,20.59,0,0,0-17.1-9.1,19.46,19.46,0,0,0-7.6,1.5l5-8a.21.21,0,0,0,.2-.2Zm2.4,48a10.71,10.71,0,0,0,1.8-.1,1.26,1.26,0,0,0,.6-.1,5.13,5.13,0,0,0,1.2-.2c.2,0,.5-.1.7-.1l1.2-.3c.4-.1.9-.3,1.3-.4.2-.1.4-.1.5-.2a5.6,5.6,0,0,0,1.1-.5c.1-.1.2-.1.3-.2a18.19,18.19,0,0,0,3.3-2c.1-.1.2-.2.3-.2a6.16,6.16,0,0,0,.9-.8c.1-.1.2-.2.3-.2a11.93,11.93,0,0,0,1.6-1.6l.3-.3a4.93,4.93,0,0,1,.7-.8,2.35,2.35,0,0,1,.4-.5l.6-.9a2.24,2.24,0,0,1,.3-.5,16.57,16.57,0,0,0,1-1.8c.1-.1.1-.2.2-.4h13c.1.1.1.3.2.4a16.58,16.58,0,0,0,1,1.8l.3.6a5.21,5.21,0,0,0,.6.8,2.35,2.35,0,0,0,.4.5,2.66,2.66,0,0,0,.7.8l.3.3a11.93,11.93,0,0,0,1.6,1.6l.3.3c.3.3.6.5.9.8.1.1.2.2.3.2a22.31,22.31,0,0,0,3.3,2c.1.1.2.1.3.2.4.2.7.3,1.1.5.2.1.4.1.5.2a4.88,4.88,0,0,0,1.3.4l1.2.3a1.67,1.67,0,0,0,.7.1c.4.1.8.1,1.2.2.2,0,.4.1.6.1a10.71,10.71,0,0,0,1.8.1,20.57,20.57,0,0,0,20.6-20.6,10.71,10.71,0,0,0-.1-1.8v-.5a10.27,10.27,0,0,0-.3-1.7c0-.2-.1-.4-.1-.6l-.3-1.2c-.1-.2-.1-.4-.2-.6-.2-.5-.3-1-.5-1.5a1.39,1.39,0,0,1-.2-.6L89,27.4c-.1-.1-.1-.2-.2-.3s-.1-.2-.1-.3l-.5-.8c-.1-.2-.3-.4-.4-.6v-.1L76.91,7.5c0-.1-.1-.1-.1-.2A15.4,15.4,0,0,0,50.2,8h-8.7A15.48,15.48,0,0,0,28,0,15.31,15.31,0,0,0,14.9,7.3c0,.1-.1.1-.1.2L3.5,25.3a.1.1,0,0,1-.1.1c0,.1-.1.1-.1.2s-.2.3-.3.4l-.39.8a.37.37,0,0,0-.1.3c-.1.1-.1.2-.2.3l-.6,1.2-.3.6a9,9,0,0,0-.5,1.5,3.56,3.56,0,0,1-.1.5L.5,32.4c0,.2-.1.4-.1.6-.1.5-.2,1.1-.3,1.7v.5A10.71,10.71,0,0,0,0,37,20.56,20.56,0,0,0,20.5,57.6Z"/><path class="cls-1" d="M20.5,24.4A12.6,12.6,0,1,1,7.9,37,12.68,12.68,0,0,1,20.5,24.4Zm0,27.2A14.6,14.6,0,1,0,5.9,37,14.55,14.55,0,0,0,20.5,51.6Z"/><path class="cls-1" d="M11.91,38a.94.94,0,0,0,1-1,7.6,7.6,0,0,1,7.6-7.6,1,1,0,0,0,0-2,9.6,9.6,0,0,0-9.6,9.6A1.08,1.08,0,0,0,11.91,38Z"/><path class="cls-1" d="M71.11,49.6A12.6,12.6,0,1,1,83.71,37,12.68,12.68,0,0,1,71.11,49.6Zm0-27.2A14.6,14.6,0,1,0,85.71,37,14.55,14.55,0,0,0,71.11,22.4Z"/><path class="cls-1" d="M71.11,27.4a9.6,9.6,0,0,0-9.6,9.6,1,1,0,0,0,2,0,7.6,7.6,0,0,1,7.6-7.6.94.94,0,0,0,1-1A1,1,0,0,0,71.11,27.4Z"/></g></g></svg>