<?xml version="1.0" encoding="UTF-8"?>
<svg width="20px" height="20px" viewBox="0 0 20 20" version="1.1" xmlns="http://www.w3.org/2000/svg" xmlns:xlink="http://www.w3.org/1999/xlink">
    <!-- Generator: sketchtool 51.3 (57544) - http://www.bohemiancoding.com/sketch -->
    <title>BA21565F-DEAE-4BBB-957A-0A06B63BB848</title>
    <desc>Created with sketchtool.</desc>
    <defs></defs>
    <g id="Desktop---Produtos-e-serviços" stroke="none" stroke-width="1" fill="none" fill-rule="evenodd">
        <g id="03" transform="translate(-1158.000000, -341.000000)" fill="#FF5A00">
            <path d="M1168,350.172217 L1171.16232,353.940921 C1171.51732,354.363996 1172.14808,354.41918 1172.57115,354.064178 C1172.99423,353.709176 1173.04941,353.07842 1172.69441,352.655346 L1168.83768,348.059079 C1168.62346,347.803778 1168.30882,347.682441 1168,347.704364 C1167.69118,347.682441 1167.37654,347.803778 1167.16232,348.059079 L1163.30559,352.655346 C1162.95059,353.07842 1163.00577,353.709176 1163.42885,354.064178 C1163.85192,354.41918 1164.48268,354.363996 1164.83768,353.940921 L1168,350.172217 Z M1161,341 L1175,341 C1176.65685,341 1178,342.343146 1178,344 L1178,358 C1178,359.656854 1176.65685,361 1175,361 L1161,361 C1159.34315,361 1158,359.656854 1158,358 L1158,344 C1158,342.343146 1159.34315,341 1161,341 Z" id="Combined-Shape-Copy"></path>
        </g>
    </g>
</svg>