<?xml version="1.0" encoding="UTF-8"?>
<svg width="30px" height="28px" viewBox="0 0 30 28" version="1.1" xmlns="http://www.w3.org/2000/svg" xmlns:xlink="http://www.w3.org/1999/xlink">
    <!-- Generator: sketchtool 51.2 (57519) - http://www.bohemiancoding.com/sketch -->
    <title>0A2B3902-7D36-4B5B-90E1-9DE24A40045D</title>
    <desc>Created with sketchtool.</desc>
    <defs></defs>
    <g id="[d]-personalize" stroke="none" stroke-width="1" fill="none" fill-rule="evenodd">
        <g id="1" transform="translate(-556.000000, -346.000000)">
            <g id="Group-6" transform="translate(556.000000, 346.000000)">
                <ellipse id="Oval" fill="#FF5A00" cx="8.5" cy="6" rx="8.5" ry="5"></ellipse>
                <ellipse id="Oval-Copy-2" fill="#FF5A00" cx="8.5" cy="18" rx="8.5" ry="5"></ellipse>
                <ellipse id="Oval-Copy" fill="#FF5A00" cx="21" cy="16" rx="8" ry="5"></ellipse>
                <ellipse id="Oval-Copy-3" fill="#FF5A00" cx="21" cy="22" rx="8" ry="5"></ellipse>
                <rect id="Rectangle-9" fill="#FF5A00" x="1" y="7" width="16" height="13"></rect>
                <rect id="Rectangle-9" fill="#FF5A00" x="14" y="16" width="15" height="8"></rect>
                <g id="ic-miles-stack" fill="#FFFFFF" fill-rule="nonzero">
                    <path d="M26.7,19.1 C25.2,20 23.3,20.5 21.1,20.5 C18.9,20.5 17,20 15.5,19.1 C14.1,18.2 13.3,17.1 13.3,16 C13.3,14.8 14.1,13.7 15.5,12.9 C17,12 18.9,11.5 21.1,11.5 C23.3,11.5 25.2,12 26.7,12.9 C28.1,13.8 28.9,14.9 28.9,16 C28.9,17.1 28.1,18.2 26.7,19.1 Z M28.9,18.9 C28.9,20.1 28.1,21.2 26.7,22 C25.2,22.9 23.3,23.4 21.1,23.4 C18.9,23.4 17,22.9 15.5,22 C14.1,21.1 13.3,20 13.3,18.9 L13.3,18.7 C13.7,19.2 14.2,19.6 14.9,20 C16.5,21 18.7,21.6 21,21.6 C23.3,21.6 25.5,21 27.1,20 C27.7,19.6 28.3,19.2 28.7,18.7 L28.7,18.9 L28.9,18.9 Z M28.9,21.9 C28.9,23.1 28.1,24.2 26.7,25 C25.2,25.9 23.3,26.4 21.1,26.4 C18.9,26.4 17,25.9 15.5,25 C14.1,24.1 13.3,23 13.3,21.9 L13.3,21.7 C13.7,22.2 14.2,22.6 14.9,23 C16.5,24 18.7,24.6 21,24.6 C23.3,24.6 25.5,24 27.1,23 C27.7,22.6 28.3,22.2 28.7,21.7 L28.7,21.9 L28.9,21.9 Z M12.4,15.8 L12.4,16 C11.3,16.3 10.1,16.5 8.9,16.5 C6.8,16.5 4.8,16 3.3,15.1 C1.9,14.2 1.1,13.1 1.1,12 L1.1,11.8 C1.5,12.3 2,12.7 2.7,13.1 C4.3,14.1 6.5,14.7 8.8,14.7 C10.2,14.7 11.6,14.5 12.8,14.1 C12.6,14.6 12.4,15.2 12.4,15.8 Z M8.8,22.6 C6.7,22.6 4.7,22.1 3.2,21.2 C1.8,20.3 1,19.2 1,18.1 L1,18 C1.4,18.5 1.9,18.9 2.6,19.3 C4.2,20.3 6.4,20.9 8.7,20.9 C9.9,20.9 11.1,20.7 12.2,20.4 C12.2,20.4 12.2,22.1 12.2,22.2 C11.3,22.5 10.1,22.6 8.8,22.6 Z M1.1,14.9 C1.5,15.4 2,15.8 2.7,16.2 C4.3,17.2 6.5,17.8 8.8,17.8 C10,17.8 11.2,17.6 12.3,17.3 L12.3,19.1 C11.2,19.4 10,19.6 8.8,19.6 C6.7,19.6 4.7,19.1 3.2,18.2 C1.8,17.3 1,16.2 1,15.1 L1.1,14.9 Z M1.1,8.9 C1.5,9.4 2,9.8 2.7,10.2 C4.3,11.2 6.5,11.8 8.8,11.8 C11.1,11.8 13.3,11.2 14.9,10.2 C15.5,9.8 16.1,9.4 16.5,8.9 L16.5,9 C16.5,10.2 15.7,11.3 14.3,12.1 C12.8,13 10.9,13.5 8.7,13.5 C6.6,13.5 4.6,13 3.1,12.1 C1.7,11.2 0.9,10.1 0.9,9 L0.9,8.9 L1.1,8.9 Z M3.3,3 C4.8,2.1 6.7,1.6 8.9,1.6 C11,1.6 13,2.1 14.5,3 C15.9,3.9 16.7,5 16.7,6.1 C16.7,7.3 15.9,8.4 14.5,9.2 C13,10.1 11.1,10.6 8.9,10.6 C6.8,10.6 4.8,10.1 3.3,9.2 C1.9,8.3 1.1,7.2 1.1,6.1 C1.1,5 1.9,3.9 3.3,3 Z M21.2,10.3 C20,10.3 18.8,10.5 17.7,10.8 L17.7,6.1 C17.7,4.5 16.7,3.1 15,2 C13.4,1 11.2,0.4 8.9,0.4 C6.6,0.4 4.3,1.1 2.7,2.1 C1,3.1 0.1,4.5 0,5.9 L0,18.1 C0,19.7 1,21.1 2.7,22.2 C4.3,23.2 6.5,23.8 8.8,23.8 C10.1,23.8 11.4,23.6 12.6,23.3 C13,24.3 13.8,25.3 15,26 C16.6,27 18.8,27.6 21.1,27.6 C23.4,27.6 25.6,27 27.2,26 C28.9,24.9 29.9,23.5 29.9,21.9 L29.9,16 C30,14.4 29,13 27.3,11.9 C25.7,10.9 23.5,10.3 21.2,10.3 Z" id="Shape"></path>
                </g>
            </g>
        </g>
    </g>
</svg>