<?xml version="1.0" encoding="utf-8"?>
<!-- Generator: Adobe Illustrator 21.0.2, SVG Export Plug-In . SVG Version: 6.00 Build 0)  -->
<svg version="1.1" id="Layer_1" xmlns="http://www.w3.org/2000/svg" xmlns:xlink="http://www.w3.org/1999/xlink" x="0px" y="0px"
	 width="18px" height="16px" viewBox="0 0 18 16" enable-background="new 0 0 18 16" xml:space="preserve">
<path id="ic_bagagem" fill="#999999" d="M17.1,13.8c0,0.7-0.6,1.3-1.3,1.4h-1.6V3.6h1.6c0.7,0,1.3,0.6,1.3,1.4L17.1,13.8L17.1,13.8z
	 M0.9,13.8V5c0-0.7,0.6-1.3,1.3-1.4h1.6v11.5H2.2C1.4,15.1,0.9,14.5,0.9,13.8C0.9,13.8,0.9,13.8,0.9,13.8L0.9,13.8z M6.9,1.6
	c0-0.4,0.3-0.7,0.6-0.7c0,0,0,0,0,0h2.9c0.4,0,0.7,0.3,0.7,0.7c0,0,0,0,0,0v1.1H6.9V1.6z M13.3,3.6v11.5H4.7V3.6H13.3z M15.8,2.7
	h-3.9V1.6C12,0.7,11.3,0,10.4,0c0,0,0,0,0,0H7.6C6.7,0,6,0.7,6.1,1.6c0,0,0,0,0,0v1.1H2.2C1,2.7,0,3.8,0,5v8.8C0,15,1,16,2.2,16
	h13.7c1.2,0,2.2-1,2.2-2.2V5C18,3.8,17,2.7,15.8,2.7L15.8,2.7z"/>
</svg>
