<?xml version="1.0" encoding="UTF-8"?>
<svg width="20px" height="20px" viewBox="0 0 20 20" version="1.1" xmlns="http://www.w3.org/2000/svg" xmlns:xlink="http://www.w3.org/1999/xlink">
    <!-- Generator: sketchtool 51.3 (57544) - http://www.bohemiancoding.com/sketch -->
    <title>05395F84-DAD3-4828-8844-32E0B2BA5520</title>
    <desc>Created with sketchtool.</desc>
    <defs></defs>
    <g id="Desktop---Produtos-e-serviços" stroke="none" stroke-width="1" fill="none" fill-rule="evenodd">
        <g id="03" transform="translate(-1158.000000, -524.000000)" fill="#FF5A00">
            <path d="M1168,533.172217 L1171.16232,536.940921 C1171.51732,537.363996 1172.14808,537.41918 1172.57115,537.064178 C1172.99423,536.709176 1173.04941,536.07842 1172.69441,535.655346 L1168.83768,531.059079 C1168.62346,530.803778 1168.30882,530.682441 1168,530.704364 C1167.69118,530.682441 1167.37654,530.803778 1167.16232,531.059079 L1163.30559,535.655346 C1162.95059,536.07842 1163.00577,536.709176 1163.42885,537.064178 C1163.85192,537.41918 1164.48268,537.363996 1164.83768,536.940921 L1168,533.172217 Z M1161,524 L1175,524 C1176.65685,524 1178,525.343146 1178,527 L1178,541 C1178,542.656854 1176.65685,544 1175,544 L1161,544 C1159.34315,544 1158,542.656854 1158,541 L1158,527 C1158,525.343146 1159.34315,524 1161,524 Z" id="Combined-Shape-Copy-3" transform="translate(1168.000000, 534.000000) scale(1, -1) translate(-1168.000000, -534.000000) "></path>
        </g>
    </g>
</svg>