<?xml version="1.0" encoding="utf-8"?>
<!-- Generator: Adobe Illustrator 21.0.2, SVG Export Plug-In . SVG Version: 6.00 Build 0)  -->
<svg version="1.1" id="Layer_1" xmlns="http://www.w3.org/2000/svg" xmlns:xlink="http://www.w3.org/1999/xlink" x="0px" y="0px"
	 width="178px" height="84px" viewBox="0 0 178 84" enable-background="new 0 0 178 84" xml:space="preserve">
<path fill="none" stroke="#B2B2B2" stroke-width="3" stroke-linecap="round" stroke-linejoin="round" d="M58.6,67.5
	c0,7.7,6,13.9,13.5,14.4V82h58v-0.1c8.3-0.5,14.9-7.4,14.9-15.9c0-8.8-7.2-16-16-16c-2.6,0-5,0.6-7.2,1.7c0.1-0.7,0.2-1.4,0.2-2.2
	c0-8.8-7.2-16-16-16c-8.1,0-14.9,6.1-15.8,14c-0.4,0-9.3-3.1-12.9,6C76,53.2,74.6,53,73.1,53C65.1,53,58.6,59.5,58.6,67.5z"/>
<path fill="none" stroke="#B2B2B2" stroke-width="2" stroke-linecap="round" stroke-linejoin="round" d="M2,46.1
	c0,3.6,2.8,6.6,6.4,6.9v0H36v0c4-0.3,7.1-3.5,7.1-7.6c0-4.2-4.8-7.1-8.6-5.3c0-0.3,2.5-12.5-9-12.5c-5.5,0-7.8,3-8.9,6.8
	c-0.2,0-5.9-1.1-7.2,5.2C4.4,39.5,2,42.3,2,46.1z"/>
<path fill="none" enable-background="new    " d="z"/>
<path fill="none" stroke="#B2B2B2" stroke-width="2" stroke-linecap="round" stroke-linejoin="round" d="M175.7,15.7
	c0-3.6-2.4-6.6-5.8-7.5c-0.7-3.4-3.7-6-7.4-6c-3.2,0-5.9,1.9-7,4.7c-0.7-0.3-1.5-0.5-2.4-0.5c-3,0-5.4,2.2-5.7,5.1
	c-2.2,1-3.8,3.2-3.8,5.8c0,3.2,2.4,5.8,5.5,6.2v0l20.2-0.2C173,22.6,175.7,19.5,175.7,15.7z"/>
</svg>
