<?xml version="1.0" encoding="UTF-8"?>
<svg width="24px" height="18px" viewBox="0 0 24 18" version="1.1" xmlns="http://www.w3.org/2000/svg" xmlns:xlink="http://www.w3.org/1999/xlink">
    <!-- Generator: Sketch 50.2 (55047) - http://www.bohemiancoding.com/sketch -->
    <title>ic-check-solid copy</title>
    <desc>Created with Sketch.</desc>
    <defs></defs>
    <g id="1---adesao" stroke="none" stroke-width="1" fill="none" fill-rule="evenodd">
        <g id="ic-check-solid-copy" fill="#F47920" fill-rule="nonzero">
            <path d="M20.8155114,0 C19.9503897,0 19.1333304,0.347659981 18.5565826,0.94364852 L10.0014908,9.53581662 L5.43557102,4.91690544 C4.81076094,4.32091691 3.99370161,3.97325692 3.17664228,3.97325692 C2.31152064,3.97325692 1.49446131,4.32091691 0.917713547,4.91690544 C0.292903471,5.51289398 -0.0435327243,6.35721108 0.00452958921,7.20152818 C0.00452958921,8.04584527 0.340965784,8.89016237 0.917713547,9.48615091 L7.74256207,16.3896848 C8.36737215,16.9856734 9.18443148,17.3333333 10.0014908,17.3333333 C10.8666125,17.3333333 11.6836718,16.9856734 12.2604195,16.3896848 L23.0744401,5.51289398 C24.2759979,4.27125119 24.3240602,2.23495702 23.1225024,0.993314231 L23.0744401,0.94364852 C22.4976923,0.347659981 21.680633,0 20.8155114,0 Z" id="Shape"></path>
        </g>
    </g>
</svg>