<?xml version="1.0" encoding="utf-8"?>
<!-- Generator: Adobe Illustrator 21.0.2, SVG Export Plug-In . SVG Version: 6.00 Build 0)  -->
<svg version="1.1" id="Layer_1" xmlns="http://www.w3.org/2000/svg" xmlns:xlink="http://www.w3.org/1999/xlink" x="0px" y="0px"
	 width="15px" height="16px" viewBox="0 0 15 16" enable-background="new 0 0 15 16" xml:space="preserve">
<path id="ic_janela" fill="#999999" d="M9,1.6H6c-2.4,0-4.4,1.9-4.4,4.3v4.2c0.1,2.4,2,4.3,4.4,4.3H9c2.4,0,4.4-1.9,4.4-4.3V5.9
	C13.4,3.5,11.4,1.6,9,1.6z M6,2.2H9c1.3,0,2.5,0.6,3.2,1.7H2.7C3.5,2.9,4.7,2.2,6,2.2z M9,13.8H6c-2.1,0-3.8-1.6-3.8-3.7V5.9
	c0-0.5,0.1-0.9,0.3-1.4h10.2c0.2,0.4,0.2,0.8,0.3,1.2c-1,0.3-1.9,1.1-2.2,2.2c-0.3-0.2-0.7-0.3-1-0.3c-1.1,0-2,0.8-2.1,1.8
	C7.1,9.2,6.7,9.2,6.3,9.3c-0.8,0.2-1.2,1.1-0.9,1.8c0.2,0.6,0.8,1,1.4,1h5c0.2,0,0.3,0,0.5-0.1C11.5,13.1,10.3,13.8,9,13.8z M9.4,0
	H5.6C2.5,0,0.1,2.4,0,5.4v5.3c0.1,3,2.5,5.4,5.6,5.4h3.9c3,0,5.5-2.4,5.6-5.4V5.4C14.9,2.4,12.5,0,9.4,0z M14.4,10.6
	c-0.1,2.7-2.3,4.8-4.9,4.8H5.6c-2.7,0-4.9-2.1-4.9-4.8V5.4c0.1-2.7,2.3-4.8,4.9-4.8h3.9c2.7,0,4.9,2.1,4.9,4.8V10.6z"/>
</svg>
