<?xml version="1.0" encoding="utf-8"?>
<!-- Generator: Adobe Illustrator 21.0.2, SVG Export Plug-In . SVG Version: 6.00 Build 0)  -->
<svg version="1.1" id="Layer_1" xmlns="http://www.w3.org/2000/svg" xmlns:xlink="http://www.w3.org/1999/xlink" x="0px" y="0px"
	 width="12px" height="12px" viewBox="0 0 12 12" enable-background="new 0 0 12 12" xml:space="preserve">
<path id="ix-cancelar" fill="#777777" d="M11.7,0.3c-0.4-0.4-1.2-0.4-1.6,0L6,4.4L1.9,0.3c-0.4-0.4-1.1-0.4-1.6,0c0,0,0,0,0,0
	c-0.4,0.4-0.4,1.2,0,1.6L4.4,6L0.3,10c-0.4,0.4-0.4,1.2,0,1.6c0.4,0.4,1.1,0.4,1.6,0c0,0,0,0,0,0L6,7.6l4.1,4.1
	c0.4,0.4,1.2,0.4,1.6,0c0.4-0.4,0.4-1.1,0-1.6L7.6,6l4.1-4.1c0.5-0.4,0.6-1.1,0.1-1.6C11.8,0.3,11.7,0.3,11.7,0.3z"/>
</svg>
