<svg xmlns="http://www.w3.org/2000/svg" width="46.97" height="20.78" viewBox="0 0 46.97 20.78">
  <metadata><?xpacket begin="﻿" id="W5M0MpCehiHzreSzNTczkc9d"?>
<x:xmpmeta xmlns:x="adobe:ns:meta/" x:xmptk="Adobe XMP Core 5.6-c138 79.159824, 2016/09/14-01:09:01        ">
   <rdf:RDF xmlns:rdf="http://www.w3.org/1999/02/22-rdf-syntax-ns#">
      <rdf:Description rdf:about=""/>
   </rdf:RDF>
</x:xmpmeta>
                                                                                                    
                                                                                                    
                                                                                                    
                                                                                                    
                                                                                                    
                                                                                                    
                                                                                                    
                                                                                                    
                                                                                                    
                                                                                                    
                                                                                                    
                                                                                                    
                                                                                                    
                                                                                                    
                                                                                                    
                                                                                                    
                                                                                                    
                                                                                                    
                                                                                                    
                                                                                                    
                           
<?xpacket end="w"?></metadata>
<defs>
    <style>
      .cls-1 {
        fill: #777;
        fill-rule: evenodd;
      }
    </style>
  </defs>
  <path id="ic_conexao" data-name="ic conexao" class="cls-1" d="M3186.39,1218c-0.8,0-2.92-2.27-4.15-3.91-1.53-2.04-3.35-5.16-3.35-8.45a7.5,7.5,0,1,1,15,0c0,3.27-1.85,6.4-3.41,8.45C3189.25,1215.73,3187.09,1218,3186.39,1218Zm0-18.85a6.439,6.439,0,0,0-6.37,6.49c0,5.1,5.14,10.39,6.35,11.15,1.14-.79,6.39-6,6.39-11.15A6.439,6.439,0,0,0,3186.39,1199.15Zm0,9.82a3.326,3.326,0,1,1,3.26-3.33A3.3,3.3,0,0,1,3186.39,1208.97Zm0-5.5a2.175,2.175,0,1,0,2.13,2.17A2.147,2.147,0,0,0,3186.39,1203.47Zm-32,14.53c-0.8,0-2.92-2.27-4.15-3.91-1.53-2.04-3.35-5.16-3.35-8.45a7.5,7.5,0,1,1,15,0c0,3.27-1.85,6.4-3.41,8.45C3157.25,1215.73,3155.09,1218,3154.39,1218Zm0-18.85a6.439,6.439,0,0,0-6.37,6.49c0,5.1,5.14,10.39,6.35,11.15,1.14-.79,6.39-6,6.39-11.15A6.439,6.439,0,0,0,3154.39,1199.15Zm0,9.82a3.326,3.326,0,1,1,3.26-3.33A3.3,3.3,0,0,1,3154.39,1208.97Zm0-5.5a2.175,2.175,0,1,0,2.13,2.17A2.147,2.147,0,0,0,3154.39,1203.47Zm20.18-4.25,0.86,0.5-11,19.06-0.86-.5Z" transform="translate(-3146.91 -1198)"/>
</svg>
