<svg xmlns="http://www.w3.org/2000/svg" width="30" height="26" viewBox="0 0 30 26">
  <metadata><?xpacket begin="﻿" id="W5M0MpCehiHzreSzNTczkc9d"?>
<x:xmpmeta xmlns:x="adobe:ns:meta/" x:xmptk="Adobe XMP Core 5.6-c138 79.159824, 2016/09/14-01:09:01        ">
   <rdf:RDF xmlns:rdf="http://www.w3.org/1999/02/22-rdf-syntax-ns#">
      <rdf:Description rdf:about=""/>
   </rdf:RDF>
</x:xmpmeta>
                                                                                                    
                                                                                                    
                                                                                                    
                                                                                                    
                                                                                                    
                                                                                                    
                                                                                                    
                                                                                                    
                                                                                                    
                                                                                                    
                                                                                                    
                                                                                                    
                                                                                                    
                                                                                                    
                                                                                                    
                                                                                                    
                                                                                                    
                                                                                                    
                                                                                                    
                                                                                                    
                           
<?xpacket end="w"?></metadata>
<defs>
    <style>
      .cls-1 {
        fill: #ff9934;
        fill-rule: evenodd;
      }
    </style>
  </defs>
  <path id="ic_carrinho" data-name="ic carrinho" class="cls-1" d="M1159.88,155.616l-15.22.691a1.172,1.172,0,0,0-.28-0.185l-3.11-9.954,21.62,1.337h0.05a0.48,0.48,0,0,1,.37.231,0.537,0.537,0,0,1,.04.461,0.043,0.043,0,0,1-.04.045l-3.02,7.052A0.438,0.438,0,0,1,1159.88,155.616Zm1.9,0.37h0l3.01-7.052a2.013,2.013,0,0,0-.09-1.983v-0.046a2.181,2.181,0,0,0-1.71-1.013l-22.04-1.382v-2.72a0.815,0.815,0,0,0-.79-0.782h-4.36a0.783,0.783,0,1,0,0,1.565h3.57v2.813c0,0.046.04,0.139,0.04,0.184l3.72,11.752-0.75,2.259a0.738,0.738,0,0,0,.1.691,0.811,0.811,0,0,0,.65.322h18.05a0.809,0.809,0,0,0,.78-0.783,0.728,0.728,0,0,0-.74-0.739h-16.98l0.37-1.2,15.31-.692A2.143,2.143,0,0,0,1161.78,155.986Zm-17.31,9.4a1.152,1.152,0,1,1,1.16-1.152A1.144,1.144,0,0,1,1144.47,165.384Zm0-3.917a2.765,2.765,0,1,0,2.78,2.765A2.752,2.752,0,0,0,1144.47,161.467Zm14.76,3.917a1.152,1.152,0,1,1,1.16-1.152A1.173,1.173,0,0,1,1159.23,165.384Zm0-3.917a2.765,2.765,0,1,0,2.78,2.765A2.752,2.752,0,0,0,1159.23,161.467Z" transform="translate(-1135 -141)"/>
</svg>
