<?xml version="1.0" encoding="utf-8"?>
<!-- Generator: Adobe Illustrator 21.0.2, SVG Export Plug-In . SVG Version: 6.00 Build 0)  -->
<svg version="1.1" id="Layer_1" xmlns="http://www.w3.org/2000/svg" xmlns:xlink="http://www.w3.org/1999/xlink" x="0px" y="0px"
	 width="50.1px" height="35px" viewBox="0 0 50.1 35" enable-background="new 0 0 50.1 35" xml:space="preserve">
<path id="Forma_11" fill="#6D3D9D" d="M46.1,9.2L23.7,31.2c-0.7,0.7-1.7,1.1-2.8,1.1c-1,0-2-0.4-2.8-1.1L3.9,17.3
	c-0.7-0.7-1.2-1.7-1.2-2.7c0-1,0.4-2,1.2-2.7c0.7-0.7,1.7-1.1,2.8-1.1c1,0,2,0.4,2.8,1.1L20,22.1c0.5,0.5,1.4,0.5,1.9,0c0,0,0,0,0,0
	L40.6,3.8c0.7-0.7,1.7-1.1,2.8-1.1c1,0,2,0.4,2.8,1.1c0.7,0.7,1.2,1.7,1.2,2.7C47.3,7.6,46.9,8.5,46.1,9.2z M43.4,0
	c-1.8,0-3.5,0.7-4.7,1.9L20.9,19.2l-9.5-9.3C10.1,8.7,8.4,8,6.7,8c-1.8,0-3.5,0.7-4.7,1.9c-1.3,1.2-2,2.9-1.9,4.6
	c0,1.7,0.7,3.4,1.9,4.6l14.2,13.9c1.3,1.2,3,1.9,4.7,1.9c1.8,0,3.5-0.7,4.7-1.9l22.5-21.9c2.5-2.5,2.6-6.6,0.1-9.1
	c0,0-0.1-0.1-0.1-0.1C46.9,0.7,45.2,0,43.4,0z"/>
</svg>
