<svg xmlns="http://www.w3.org/2000/svg" viewBox="0 0 21.25 20"><defs><style>.cls-1{fill:#777;}</style></defs><title>ic-conexao</title><g id="Camada_2" data-name="Camada 2"><g id="Camada_1-2" data-name="Camada 1"><path class="cls-1" d="M7.5,20c-.8,0-2.92-2.27-4.15-3.91C1.82,14.05,0,10.93,0,7.64A7.58,7.58,0,0,1,7.5,0,7.58,7.58,0,0,1,15,7.64c0,3.27-1.85,6.4-3.4,8.45C10.36,17.73,8.2,20,7.5,20Zm0-18.85A6.44,6.44,0,0,0,1.13,7.64c0,5.09,5.14,10.39,6.35,11.15,1.14-.79,6.39-6,6.39-11.15A6.44,6.44,0,0,0,7.5,1.15ZM7.5,11a3.32,3.32,0,1,1,3.26-3.32A3.3,3.3,0,0,1,7.5,11Zm0-5.5A2.17,2.17,0,1,0,9.63,7.64,2.16,2.16,0,0,0,7.5,5.47Z"/><path class="cls-1" d="M17,7.64a3.3,3.3,0,0,0-2.74-3.27,7.67,7.67,0,0,1,.49,1.36,2.17,2.17,0,0,1,0,3.8,11.76,11.76,0,0,1-.36,1.36A3.31,3.31,0,0,0,17,7.64Z"/><path class="cls-1" d="M13.75,0a7.32,7.32,0,0,0-3.12.7,7.46,7.46,0,0,1,1.24.74,6.24,6.24,0,0,1,1.89-.29,6.44,6.44,0,0,1,6.37,6.49c0,5.15-5.25,10.36-6.39,11.15a13.68,13.68,0,0,1-2.4-2.36c-.23.29-.47.59-.73.89C11.76,18.68,13.14,20,13.75,20s2.86-2.27,4.09-3.9c1.55-2,3.4-5.18,3.4-8.45A7.58,7.58,0,0,0,13.75,0Z"/></g></g></svg>