<?xml version="1.0" encoding="utf-8"?>
<!-- Generator: Adobe Illustrator 21.0.2, SVG Export Plug-In . SVG Version: 6.00 Build 0)  -->
<svg version="1.1" id="Camada_1" xmlns="http://www.w3.org/2000/svg" xmlns:xlink="http://www.w3.org/1999/xlink" x="0px" y="0px"
	 width="74px" height="48.5px" viewBox="0 0 74 48.5" enable-background="new 0 0 74 48.5" xml:space="preserve">
<title>ic-cartao</title>
<path fill="#CCCCCC" d="M69.9,42.3c0,1.1-0.9,2.1-2.1,2H6.2c-1.1,0-2.1-0.9-2.1-2V6.2c0-1.1,0.9-2.1,2.1-2h61.6
	c1.1,0,2.1,0.9,2.1,2.1L69.9,42.3z M67.8,0H6.2C2.8,0,0,2.8,0,6.2v36.2c0,3.4,2.8,6.1,6.2,6.2h61.6c3.4,0,6.2-2.8,6.2-6.2V6.2
	C74,2.8,71.2,0,67.8,0z"/>
<path fill="#CCCCCC" d="M25.6,26.3c0-1.1-0.9-2.1-2.1-2.1H10.7c-1.1,0-2.1,0.9-2.1,2.1s0.9,2.1,2.1,2.1h12.7
	C24.6,28.4,25.6,27.5,25.6,26.3C25.6,26.3,25.6,26.3,25.6,26.3z"/>
<path fill="#CCCCCC" d="M17.2,34.8h-6.4c-1.1,0-2.1,0.9-2.1,2.1s0.9,2.1,2.1,2.1h6.4c1.1,0,2.1-0.9,2.1-2.1S18.3,34.8,17.2,34.8z"/>
<path fill="#CCCCCC" d="M32.5,34.8h-6.4c-1.1,0-2.1,0.9-2.1,2.1s0.9,2.1,2.1,2.1h6.4c1.1,0,2.1-0.9,2.1-2.1S33.6,34.8,32.5,34.8z"/>
<path fill="#CCCCCC" d="M47.9,34.8h-6.4c-1.1,0-2.1,0.9-2.1,2.1s0.9,2.1,2.1,2.1h6.4c1.1,0,2.1-0.9,2.1-2.1S49,34.8,47.9,34.8z"/>
<path fill="#CCCCCC" d="M63.3,34.8h-6.4c-1.1,0-2.1,0.9-2.1,2.1s0.9,2.1,2.1,2.1h6.4c1.1,0,2.1-0.9,2.1-2.1S64.4,34.8,63.3,34.8z"/>
<path fill="#CCCCCC" d="M52.9,21.5v-6.4c0-0.4,0.3-0.7,0.7-0.7c0,0,0,0,0,0h6.5c0.4,0,0.7,0.3,0.7,0.7c0,0,0,0,0,0v6.4
	c0,0.4-0.3,0.7-0.7,0.7c0,0,0,0,0,0h-6.4C53.3,22.2,53,22,52.9,21.5C52.9,21.5,52.9,21.5,52.9,21.5z M64.9,21.5v-6.4
	c0-2.7-2.1-4.8-4.8-4.8c0,0,0,0,0,0h-6.4c-2.7,0-4.8,2.1-4.8,4.8c0,0,0,0,0,0v6.4c0,2.7,2.1,4.8,4.8,4.8c0,0,0,0,0,0h6.4
	C62.8,26.3,64.9,24.2,64.9,21.5C64.9,21.5,64.9,21.5,64.9,21.5L64.9,21.5z"/>
</svg>
