<?xml version="1.0" encoding="utf-8"?>
<!-- Generator: Adobe Illustrator 21.0.2, SVG Export Plug-In . SVG Version: 6.00 Build 0)  -->
<svg version="1.1" id="Layer_1" xmlns="http://www.w3.org/2000/svg" xmlns:xlink="http://www.w3.org/1999/xlink" x="0px" y="0px"
	 width="22px" height="22px" viewBox="0 0 22 22" enable-background="new 0 0 22 22" xml:space="preserve">
<path id="ic_deadline" fill="#FFFFFF" d="M20.2,1.9h-3.4V0.3c0-0.2-0.1-0.3-0.3-0.3h-0.8c-0.2,0-0.3,0.2-0.3,0.3v1.6h-9V0.3
	C6.4,0.2,6.2,0,6.1,0c0,0,0,0,0,0H5.3C5.1,0,5,0.2,5,0.3v1.6H1.8C0.8,1.9,0,2.8,0,3.8v16.2c0,1,0.8,1.9,1.8,1.9h18.4
	c1,0,1.8-0.9,1.8-1.9V3.8C22,2.8,21.2,2,20.2,1.9z M20.6,20.1c0,0.2-0.2,0.4-0.4,0.4H1.8c-0.2,0-0.4-0.2-0.4-0.4V3.8
	c0-0.2,0.2-0.4,0.4-0.4h3.1v1.4c0,0.2,0.1,0.3,0.3,0.3H6c0.2,0,0.3-0.2,0.3-0.3V3.4h9v1.4c0,0.2,0.1,0.3,0.3,0.3h0.8
	c0.2,0,0.3-0.2,0.3-0.3V3.4h3.4c0.2,0,0.4,0.2,0.4,0.4L20.6,20.1L20.6,20.1z M11.1,6.3L11.1,6.3c-0.6,0-1,0.5-1,1v6.6
	c0,0.5,0.4,1,1,1h0.1c0.5,0,1-0.5,1-1V7.4C12,6.8,11.6,6.4,11.1,6.3L11.1,6.3z M11,15.9c-0.6,0-1.1,0.4-1.1,1s0.4,1.1,1,1.1
	s1.1-0.4,1.1-1c0,0,0,0,0-0.1C12,16.4,11.6,15.9,11,15.9L11,15.9z"/>
</svg>
