<?xml version="1.0" encoding="utf-8"?>
<!-- Generator: Adobe Illustrator 21.0.2, SVG Export Plug-In . SVG Version: 6.00 Build 0)  -->
<svg version="1.1" id="Layer_1" xmlns="http://www.w3.org/2000/svg" xmlns:xlink="http://www.w3.org/1999/xlink" x="0px" y="0px"
	 width="14.3px" height="14.3px" viewBox="0 0 14.3 14.3" enable-background="new 0 0 14.3 14.3" xml:space="preserve">
<path id="Retângulo_Arredondado_1_copiar" fill="#663398" d="M9.3,7.2l4.6,4.6c0.6,0.6,0.6,1.5,0,2.1c-0.6,0.6-1.5,0.6-2.1,0
	c0,0,0,0,0,0L7.2,9.3l-4.6,4.6c-0.6,0.6-1.5,0.6-2.1,0c-0.6-0.6-0.6-1.5,0-2.1c0,0,0,0,0,0L5,7.2L0.4,2.6C-0.2,2-0.2,1,0.4,0.4
	c0.6-0.6,1.5-0.6,2.1,0c0,0,0,0,0,0L7.2,5l4.6-4.6c0.6-0.6,1.5-0.6,2.1,0c0.6,0.6,0.6,1.5,0,2.1c0,0,0,0,0,0L9.3,7.2z"/>
</svg>
