<?xml version="1.0" encoding="utf-8"?>
<!-- Generator: Adobe Illustrator 21.0.2, SVG Export Plug-In . SVG Version: 6.00 Build 0)  -->
<svg version="1.1" id="Layer_1" xmlns="http://www.w3.org/2000/svg" xmlns:xlink="http://www.w3.org/1999/xlink" x="0px" y="0px"
	 width="16px" height="12px" viewBox="0 0 16 12" enable-background="new 0 0 16 12" xml:space="preserve">
<path id="reenviar" fill="#999999" d="M1,2l6.1,6.2c0.5,0.5,1.2,0.5,1.7,0.1c0,0,0.1-0.1,0.1-0.1L15,2v8.2c0,0.3-0.2,0.6-0.5,0.6
	c0,0,0,0,0,0H1.6c-0.3,0-0.6-0.3-0.5-0.6c0,0,0,0,0,0L1,2L1,2z M1.9,1.2h12.2L8.2,7.2c-0.1,0.1-0.3,0.1-0.4,0L1.9,1.2z M1.6,0
	C0.6,0.1-0.1,0.9,0,1.9v8.3c-0.1,0.9,0.6,1.8,1.6,1.9h12.9c0.9-0.1,1.6-0.9,1.6-1.9V1.9c0.1-0.9-0.6-1.8-1.6-1.9H1.6z"/>
</svg>
