<?xml version="1.0" encoding="utf-8"?>
<!-- Generator: Adobe Illustrator 21.0.2, SVG Export Plug-In . SVG Version: 6.00 Build 0)  -->
<svg version="1.1" id="Layer_1" xmlns="http://www.w3.org/2000/svg" xmlns:xlink="http://www.w3.org/1999/xlink" x="0px" y="0px"
	 width="32px" height="23px" viewBox="0 0 32 23" enable-background="new 0 0 32 23" xml:space="preserve">
<path id="reenviar" fill="#777777" d="M2.1,3.9l12.1,11.8c1,1,2.4,1,3.4,0.2l0.2-0.2L29.8,3.9v15.6c0,0.6-0.4,1.1-1,1.1l0,0H3.2
	c-0.6,0-1.2-0.6-1-1.1l0,0L2.1,3.9L2.1,3.9z M3.8,2.3h24.2L16.3,13.7c-0.2,0.2-0.6,0.2-0.8,0L3.8,2.3z M3.2,0
	c-2,0.2-3.4,1.7-3.2,3.6v15.8c-0.2,1.7,1.2,3.4,3.2,3.6h25.6c1.8-0.2,3.2-1.7,3.2-3.6V3.7C32.2,2,30.8,0.2,28.9,0H3.2z"/>
</svg>
