<?xml version="1.0" encoding="utf-8"?>
<!-- Generator: Adobe Illustrator 22.0.1, SVG Export Plug-In . SVG Version: 6.00 Build 0)  -->
<svg version="1.1" id="Layer_1" xmlns="http://www.w3.org/2000/svg" xmlns:xlink="http://www.w3.org/1999/xlink" x="0px" y="0px"
	 width="24px" height="24px" viewBox="0 0 24 24" enable-background="new 0 0 24 24" xml:space="preserve">
<g>
	<path fill="#E74646" d="M12,16.1c0.4,0,0.8,0.1,1,0.4c0.3,0.3,0.4,0.6,0.4,1.1c0,0.4-0.1,0.8-0.4,1c-0.3,0.3-0.6,0.4-1,0.4
		s-0.8-0.1-1-0.4c-0.3-0.3-0.4-0.6-0.4-1c0-0.4,0.1-0.8,0.4-1.1S11.6,16.1,12,16.1z M12,14.6h-0.2l-1.3-7.2
		c-0.1-0.6-0.2-1.1-0.2-1.4c0-0.4,0.2-0.8,0.5-1c0.3-0.2,0.7-0.4,1.3-0.4c0.5,0,0.9,0.1,1.2,0.3c0.3,0.2,0.4,0.6,0.4,1
		c0,0.3-0.1,0.7-0.2,1.2L12,14.6z M12,23C5.9,23,1,18.1,1,12C1,5.9,5.9,1,12,1s11,4.9,11,11C23,18.1,18.1,23,12,23z M12,2.2
		c-5.4,0-9.8,4.4-9.8,9.8c0,5.4,4.4,9.8,9.8,9.8s9.8-4.4,9.8-9.8C21.8,6.6,17.4,2.2,12,2.2z"/>
</g>
</svg>
