<?xml version="1.0" encoding="utf-8"?>
<!-- Generator: Adobe Illustrator 21.0.2, SVG Export Plug-In . SVG Version: 6.00 Build 0)  -->
<svg version="1.1" id="Layer_1" xmlns="http://www.w3.org/2000/svg" xmlns:xlink="http://www.w3.org/1999/xlink" x="0px" y="0px"
	 width="59px" height="60px" viewBox="0 0 59 60" enable-background="new 0 0 59 60" xml:space="preserve">
<path id="ic_erro" fill="#663398" d="M41.4,30.1l15.1-15.2c1.6-1.6,2.4-3.8,2.5-6.1c0-2.3-0.9-4.5-2.5-6.1c-1.5-1.6-3.6-2.6-5.9-2.6
	c-2.3,0-4.4,0.9-6,2.6L29.5,18L14.4,2.6C12.9,0.9,10.8,0,8.5,0C6.3,0,4.1,0.9,2.5,2.6C0.9,4.2,0.1,6.4,0,8.7c0,2.3,0.9,4.5,2.5,6.1
	l15.1,15.3L2.5,45.3C0.9,46.9,0,49.1,0,51.3c0,2.3,0.9,4.5,2.5,6.1c3.1,3.3,8.3,3.4,11.6,0.3c0.1-0.1,0.2-0.2,0.3-0.3l15.1-15.3
	l15.1,15.4c1.6,1.6,3.7,2.5,6,2.5c4.6-0.2,8.3-3.9,8.4-8.5c0-2.3-0.9-4.5-2.5-6.1L41.4,30.1z M22.6,30.1L5.1,12
	c-0.9-0.9-1.5-2.1-1.4-3.4c0-1.3,0.6-2.5,1.5-3.5c0.8-0.9,2.1-1.5,3.3-1.5c1.3,0,2.5,0.6,3.4,1.5l17.6,17.8L47.3,5.3
	c0.8-0.9,2.1-1.5,3.3-1.5c1.3,0,2.5,0.6,3.4,1.5c0.9,0.9,1.5,2.1,1.4,3.4c0,1.3-0.6,2.5-1.5,3.4L36.4,30.1l17.5,18
	c0.9,0.9,1.5,2.1,1.4,3.4c-0.1,1.3-0.6,2.5-1.5,3.5c-0.8,0.9-2.1,1.5-3.3,1.5c-1.3,0-2.5-0.6-3.4-1.5L29.8,37.3l-0.3-0.3L11.7,54.8
	c-0.8,0.9-2.1,1.5-3.3,1.5c-1.3,0-2.5-0.6-3.4-1.5c-0.9-0.9-1.5-2.1-1.4-3.4c0-1.3,0.6-2.5,1.5-3.4L22.6,30.1z"/>
</svg>
