<?xml version="1.0" encoding="utf-8"?>
<!-- Generator: Adobe Illustrator 21.0.2, SVG Export Plug-In . SVG Version: 6.00 Build 0)  -->
<svg version="1.1" id="Layer_1" xmlns="http://www.w3.org/2000/svg" xmlns:xlink="http://www.w3.org/1999/xlink" x="0px" y="0px"
	 width="18px" height="18px" viewBox="0 0 18 18" enable-background="new 0 0 18 18" xml:space="preserve">
<path id="ic-edit" fill="#555555" d="M15.8,6.2l-0.7,0.7l-4-4l0.6-0.6c0.4-0.4,1.1-0.4,1.6,0c0,0,0,0,0,0l2.4,2.4
	C16.2,5,16.2,5.8,15.8,6.2C15.8,6.2,15.8,6.2,15.8,6.2z M1.9,13.9l2.2,2.3l-2.3,0.1L1.9,13.9z M6.3,15.7l-4-4l7.5-7.5l4,4L6.3,15.7z
	 M17.1,3.3l-2.4-2.4c-1.1-1.1-3-1.2-4.2,0l0,0L0.4,11l-0.1,0.1c0,0,0,0.1-0.1,0.1c0,0,0,0,0,0.1s0,0.1,0,0.1c0,0,0,0,0,0.1v0.1
	L0,17.1C0,17.6,0.4,18,0.9,18c0,0,0,0,0,0h0l5.5-0.1h0.2c0,0,0.1,0,0.1,0s0.1,0,0.1,0c0,0,0.1,0,0.1,0s0,0,0.1,0
	c0,0,0.1-0.1,0.1-0.1l8.8-8.8l1.3-1.3C18.3,6.3,18.3,4.4,17.1,3.3L17.1,3.3z"/>
</svg>
