<?xml version="1.0" encoding="utf-8"?>
<!-- Generator: Adobe Illustrator 21.0.2, SVG Export Plug-In . SVG Version: 6.00 Build 0)  -->
<svg version="1.1" id="Layer_1" xmlns="http://www.w3.org/2000/svg" xmlns:xlink="http://www.w3.org/1999/xlink" x="0px" y="0px"
	 width="21px" height="16px" viewBox="0 0 21 16" enable-background="new 0 0 21 16" xml:space="preserve">
<path id="ic_email" fill="#787878" d="M1.7,14.5l6.5-5.8l1,0.9c0.9,0.8,2.2,0.8,3.1,0l0.9-0.8l6.1,5.8c0,0,0,0,0,0L1.7,14.5
	L1.7,14.5z M1.4,13.5V2.8l6,5.4L1.4,13.5z M1.7,1.5h17.7c0.1,0,0.1,0,0.2,0.1c0,0,0,0,0,0l-7.9,7.4c-0.5,0.5-1.3,0.5-1.8,0L1.5,1.5
	c0,0,0,0,0,0C1.5,1.5,1.6,1.5,1.7,1.5z M19.6,13.4l-5.7-5.3l5.7-5.3V13.4z M20.5,0.5C20.2,0.2,19.8,0,19.3,0H1.7
	C1.2,0,0.8,0.2,0.5,0.5C0.2,0.8,0,1.2,0,1.7v12.6c0,0.4,0.2,0.9,0.5,1.2C0.8,15.8,1.2,16,1.7,16h17.7c0.4,0,0.9-0.2,1.2-0.5
	c0.3-0.3,0.5-0.8,0.5-1.2V1.7C21,1.3,20.8,0.8,20.5,0.5L20.5,0.5z"/>
</svg>
