<?xml version="1.0" encoding="utf-8"?>
<!-- Generator: Adobe Illustrator 21.0.2, SVG Export Plug-In . SVG Version: 6.00 Build 0)  -->
<svg version="1.1" id="Layer_1" xmlns="http://www.w3.org/2000/svg" xmlns:xlink="http://www.w3.org/1999/xlink" x="0px" y="0px"
	 width="24px" height="14px" viewBox="0 0 24 14" enable-background="new 0 0 24 14" xml:space="preserve">
<path id="seta" fill="#555555" d="M0.4,0.5c0.6-0.6,1.5-0.6,2.1,0c0,0,0,0,0,0L13,11.4c0.6,0.6,0.6,1.6,0,2.2
	c-0.6,0.6-1.5,0.6-2.1,0c0,0,0,0,0,0L0.4,2.6C-0.2,2-0.2,1.1,0.4,0.5z M10.9,11.4L21.5,0.5c0.6-0.6,1.5-0.6,2.1,0c0,0,0,0,0,0
	c0.6,0.6,0.6,1.6,0,2.2L13,13.6c-0.6,0.6-1.5,0.6-2.1,0c0,0,0,0,0,0C10.4,13,10.4,12,10.9,11.4L10.9,11.4z"/>
</svg>
