<?xml version="1.0" encoding="utf-8"?>
<!-- Generator: Adobe Illustrator 21.0.2, SVG Export Plug-In . SVG Version: 6.00 Build 0)  -->
<svg version="1.1" id="Layer_1" xmlns="http://www.w3.org/2000/svg" xmlns:xlink="http://www.w3.org/1999/xlink" x="0px" y="0px"
	 width="20px" height="14px" viewBox="0 0 20 14" enable-background="new 0 0 20 14" xml:space="preserve">
<path id="Retângulo_Arredondado_768_copiar" fill="#FFFFFF" d="M0.4,5.7c0.5-0.5,1.3-0.5,1.7,0c0,0,0,0,0,0l6.1,6.2
	c0.5,0.5,0.5,1.3,0,1.8c-0.5,0.5-1.3,0.5-1.7,0c0,0,0,0,0,0L0.4,7.5C-0.1,7-0.1,6.2,0.4,5.7z M6.5,11.9L17.9,0.4
	c0.5-0.5,1.3-0.5,1.7,0c0,0,0,0,0,0c0.5,0.5,0.5,1.3,0,1.8L8.2,13.6c-0.5,0.5-1.3,0.5-1.7,0c0,0,0,0,0,0C6,13.2,6,12.4,6.5,11.9
	L6.5,11.9z"/>
</svg>
