<svg xmlns="http://www.w3.org/2000/svg" width="14.97" height="16" viewBox="0 0 14.97 16">
  <metadata><?xpacket begin="﻿" id="W5M0MpCehiHzreSzNTczkc9d"?>
<x:xmpmeta xmlns:x="adobe:ns:meta/" x:xmptk="Adobe XMP Core 5.6-c138 79.159824, 2016/09/14-01:09:01        ">
   <rdf:RDF xmlns:rdf="http://www.w3.org/1999/02/22-rdf-syntax-ns#">
      <rdf:Description rdf:about=""/>
   </rdf:RDF>
</x:xmpmeta>
                                                                                                    
                                                                                                    
                                                                                                    
                                                                                                    
                                                                                                    
                                                                                                    
                                                                                                    
                                                                                                    
                                                                                                    
                                                                                                    
                                                                                                    
                                                                                                    
                                                                                                    
                                                                                                    
                                                                                                    
                                                                                                    
                                                                                                    
                                                                                                    
                                                                                                    
                                                                                                    
                           
<?xpacket end="w"?></metadata>
<defs>
    <style>
      .cls-1 {
        fill: #999;
        fill-rule: evenodd;
      }
    </style>
  </defs>
  <path id="ic_filtro" data-name="ic filtro" class="cls-1" d="M2776.25,1191.33l-4.93,6.56a0.639,0.639,0,0,0-.13.4v5.83l-1.39-.87v-4.94a0.6,0.6,0,0,0-.13-0.4l-4.95-6.58h11.53Zm-13.07.15,5.3,7.05v5.1a0.625,0.625,0,0,0,.31.55l2.7,1.71a0.663,0.663,0,0,0,.36.11,0.589,0.589,0,0,0,.33-0.09,0.614,0.614,0,0,0,.33-0.57v-6.81l5.3-7.05,0.04-.04a0.925,0.925,0,0,0,.03-0.95,0.968,0.968,0,0,0-.82-0.49h-13.13a0.927,0.927,0,0,0-.82.49,1,1,0,0,0,.02.95,0.066,0.066,0,0,1,.05.04h0Z" transform="translate(-2763.03 -1190)"/>
</svg>
