<?xml version="1.0" encoding="utf-8"?>
<!-- Generator: Adobe Illustrator 21.0.2, SVG Export Plug-In . SVG Version: 6.00 Build 0)  -->
<svg version="1.1" id="Layer_1" xmlns="http://www.w3.org/2000/svg" xmlns:xlink="http://www.w3.org/1999/xlink" x="0px" y="0px"
	 width="20px" height="20px" viewBox="0 0 20 20" enable-background="new 0 0 20 20" xml:space="preserve">
<path fill="none" enable-background="new    " d="M0,0"/>
<path fill="#7F7F7F" d="M15,18.4l2.1-2.1l-2.5-8.6L18,4.2c0.7-0.7,0.7-1.8,0-2.4s-1.8-0.7-2.4,0l-3.6,3.6L3.5,2.7L1.4,4.8L9,8.3
	l-3.9,3.9L2.6,12l-1.7,1.7l3,0.8c0.1,0.3,0.2,0.6,0.5,0.9c0.2,0.2,0.5,0.4,0.9,0.5l0.8,3l1.7-1.7l-0.2-2.5l3.9-3.9L15,18.4z"/>
</svg>
