<?xml version="1.0" encoding="utf-8"?>
<!-- Generator: Adobe Illustrator 21.0.2, SVG Export Plug-In . SVG Version: 6.00 Build 0)  -->
<svg version="1.1" id="Layer_1" xmlns="http://www.w3.org/2000/svg" xmlns:xlink="http://www.w3.org/1999/xlink" x="0px" y="0px"
	 width="16px" height="16px" viewBox="0 0 16 16" enable-background="new 0 0 16 16" xml:space="preserve">
<path id="ic_fechar" fill="#555555" d="M10.3,8l5.2-5.2c0.7-0.6,0.7-1.7,0.1-2.3c-0.6-0.7-1.7-0.7-2.3-0.1c0,0,0,0-0.1,0.1L8,5.7
	L2.8,0.5c-0.6-0.6-1.7-0.7-2.3,0c0,0,0,0,0,0c-0.6,0.6-0.6,1.7,0,2.3L5.7,8l-5.2,5.2c-0.6,0.6-0.7,1.7,0,2.3s1.7,0.7,2.3,0
	c0,0,0,0,0,0L8,10.3l5.2,5.2c0.6,0.6,1.7,0.7,2.3,0s0.7-1.7,0-2.3c0,0,0,0,0,0L10.3,8z"/>
</svg>
