<?xml version="1.0" encoding="utf-8"?>
<!-- Generator: Adobe Illustrator 21.0.2, SVG Export Plug-In . SVG Version: 6.00 Build 0)  -->
<svg version="1.1" id="Layer_1" xmlns="http://www.w3.org/2000/svg" xmlns:xlink="http://www.w3.org/1999/xlink" x="0px" y="0px"
	 width="20px" height="18px" viewBox="0 0 20 18" enable-background="new 0 0 20 18" xml:space="preserve">
<path id="ic_aviao_copy" fill="#555555" d="M20,9c0-1.1-0.9-2.1-2-2.1h-4.6l-3-6.6C10.3,0.1,10.2,0,10,0H7.3C7.1,0,6.9,0.2,6.9,0.5
	c0,0,0,0.1,0,0.1l1.6,6.5h-5L2.1,5.4C2,5.3,1.9,5.2,1.8,5.2H0.5C0.2,5.2,0,5.4,0,5.7c0,0,0,0,0,0c0,0,0,0,0,0.1L0.4,9L0,12.2
	c0,0.2,0.1,0.5,0.4,0.5c0,0,0,0,0,0c0,0,0,0,0.1,0h1.3c0.1,0,0.3-0.1,0.3-0.2l1.4-1.7h5l-1.6,6.5C6.8,17.7,7,17.9,7.2,18
	c0,0,0.1,0,0.1,0H10c0.2,0,0.3-0.1,0.4-0.3l3-6.6H18C19.1,11.1,20,10.1,20,9z M19.1,9c0,0.6-0.5,1.2-1.1,1.2h-4.9
	c-0.2,0-0.3,0.1-0.4,0.3l-3,6.6H7.9l1.6-6.5C9.6,10.3,9.5,10,9.2,10c0,0-0.1,0-0.1,0H3.3C3.2,10,3.1,10,3,10.1l-1.4,1.7H1l0.4-2.8
	c0,0,0-0.1,0-0.1L1,6.2h0.6L3,7.9C3.1,8,3.2,8,3.3,8.1h5.8c0.3,0,0.5-0.2,0.4-0.5c0,0,0-0.1,0-0.1L7.9,0.9h1.8l3,6.6
	c0.1,0.2,0.2,0.3,0.4,0.3H18C18.6,7.8,19.1,8.4,19.1,9L19.1,9z"/>
</svg>
