<?xml version="1.0" standalone="no"?>
<!DOCTYPE svg PUBLIC "-//W3C//DTD SVG 20010904//EN"
 "http://www.w3.org/TR/2001/REC-SVG-20010904/DTD/svg10.dtd">
<svg xmlns="http://www.w3.org/2000/svg" version="1.0" width="30px" height="30px" viewBox="0 0 512.000000 512.000000" preserveAspectRatio="xMidYMid meet">
    <metadata>
        Created by potrace 1.15, written by Peter Selinger 2001-2017
    </metadata>
    <g transform="translate(0.000000,512.000000) scale(0.100000,-0.100000)" fill="#FFFFFF" stroke="none">
        <path d="M658 4390 c-112 -19 -243 -125 -302 -243 l-36 -73 0 -1514 0 -1514 36 -72 c59 -120 175 -214 297 -240 90 -19 2213 -19 2303 0 87 18 175 75 240 155 30 36 57 77 60 91 3 14 12 42 20 63 11 30 14 119 14 450 l0 414 -25 23 c-33 31 -97 31 -130 0 l-24 -22 -3 -397 -3 -396 -33 -60 c-38 -70 -78 -105 -146 -128 -45 -15 -147 -17 -1123 -17 -1048 0 -1075 0 -1130 20 -71 25 -126 78 -150 145 -17 47 -18 134 -18 1490 0 1304 2 1444 16 1480 23 56 75 112 129 138 l45 22 1090 3 c956 2 1095 0 1134 -13 73 -25 116 -61 152 -128 l34 -62 5 -442 c5 -437 5 -443 27 -464 15 -16 34 -22 64 -22 35 0 47 5 66 29 l23 29 0 450 c0 477 0 481 -49 584 -28 58 -130 153 -206 191 l-70 35 -1130 1 c-621 1 -1151 -2 -1177 -6z"/>
        <path d="M3920 3423 c-59 -23 -88 -72 -69 -121 5 -14 150 -165 321 -336 l311 -311 -1056 -3 -1055 -2 -26 -31 c-39 -46 -30 -113 18 -138 15 -8 318 -12 1070 -14 l1049 -2 -312 -312 c-171 -171 -315 -322 -320 -335 -28 -73 58 -150 127 -114 16 8 208 194 426 412 l396 396 0 48 0 47 -396 397 c-218 218 -409 403 -424 411 -31 16 -36 17 -60 8z"/>
    </g>
</svg>
