<?xml version="1.0" encoding="utf-8"?>
<!-- Generator: Adobe Illustrator 22.0.1, SVG Export Plug-In . SVG Version: 6.00 Build 0)  -->
<svg version="1.1" id="Layer_1" xmlns="http://www.w3.org/2000/svg" xmlns:xlink="http://www.w3.org/1999/xlink" x="0px" y="0px"
	 width="30px" height="28px" viewBox="0 0 30 28" enable-background="new 0 0 30 28" xml:space="preserve">
<g id="Camada_2">
	<g id="Camada_1-2">
		<path fill="none" stroke="#A5A5A5" stroke-miterlimit="10" d="M18.7,6.2c0,3-4,5.3-8.9,5.3S0.8,9.1,0.8,6.2"/>
		<path fill="none" stroke="#A5A5A5" stroke-miterlimit="10" d="M18.7,12.6c0,3-4,5.3-8.9,5.3s-8.9-2.4-8.9-5.3"/>
		<path fill="none" stroke="#A5A5A5" stroke-miterlimit="10" d="M18.7,9.4c0,3-4,5.3-8.9,5.3s-8.9-2.4-8.9-5.3"/>
		<path fill="none" stroke="#A5A5A5" stroke-miterlimit="10" d="M18.7,15.8c0,3-4,5.3-8.9,5.3s-8.9-2.4-8.9-5.3V6.2
			c0-3,4-5.3,8.9-5.3s8.9,2.4,8.9,5.3V15.8z"/>
		<polygon fill="#FFFFFF" points="10.5,19.2 14.7,15.4 15,16.9 23.6,17.3 28.1,21.7 23.7,25.9 23.5,23.8 14.7,23.6 		"/>
		<g>
			<defs>
				<polygon id="SVGID_1_" points="17,25.4 8.3,25.4 8.3,13.1 24.1,13.1 				"/>
			</defs>
			<clipPath id="SVGID_2_">
				<use xlink:href="#SVGID_1_"  overflow="visible"/>
			</clipPath>
			<g clip-path="url(#SVGID_2_)">
				<polygon fill="none" stroke="#A5A5A5" stroke-linecap="round" stroke-linejoin="round" points="23.8,17.1 15,17.1 15,14.6 
					10.4,19.3 15,23.9 15,21.4 23.8,21.4 				"/>
				<polygon fill="none" stroke="#A5A5A5" stroke-linecap="round" stroke-linejoin="round" points="23.8,17.1 15,17.1 15,14.6 
					10.4,19.3 15,23.9 15,21.4 23.8,21.4 				"/>
			</g>
		</g>
		<g>
			<defs>
				<polygon id="SVGID_3_" points="21.6,15.6 28.7,15.7 28.8,27.1 13.5,27.2 				"/>
			</defs>
			<clipPath id="SVGID_4_">
				<use xlink:href="#SVGID_3_"  overflow="visible"/>
			</clipPath>
			<g clip-path="url(#SVGID_4_)">
				<polygon fill="none" stroke="#A5A5A5" stroke-linecap="round" stroke-linejoin="round" points="14.8,23.9 23.6,23.9 23.6,26.3 
					28.2,21.7 23.6,17.1 23.6,19.5 14.8,19.5 				"/>
				<polygon fill="none" stroke="#A5A5A5" stroke-linecap="round" stroke-linejoin="round" points="14.8,23.9 23.6,23.9 23.6,26.3 
					28.2,21.7 23.6,17.1 23.6,19.5 14.8,19.5 				"/>
			</g>
		</g>
	</g>
</g>
</svg>
