<?xml version="1.0" encoding="utf-8"?>
<!-- Generator: Adobe Illustrator 22.0.1, SVG Export Plug-In . SVG Version: 6.00 Build 0)  -->
<svg version="1.1" id="Layer_1" xmlns="http://www.w3.org/2000/svg" xmlns:xlink="http://www.w3.org/1999/xlink" x="0px" y="0px"
	 width="20px" height="30px" viewBox="0 0 20 30" enable-background="new 0 0 20 30" xml:space="preserve">
<path fill="#A5A5A5" d="M10,0C4.5,0,0,4.6,0,10.3c0,3.7,1.9,7,4.8,8.8v10.2c0,0.4,0.3,0.7,0.6,0.7c0.1,0,0.3,0,0.4-0.1l4.1-3.1
	l4.1,3.1c0.3,0.2,0.7,0.1,0.9-0.2c0.1-0.1,0.1-0.2,0.1-0.4V19.2c2.9-1.8,4.8-5.1,4.8-8.8C20,4.6,15.5,0,10,0z M10,1.3
	c4.8,0,8.7,4,8.7,9s-3.9,9-8.7,9s-8.7-4-8.7-9C1.3,5.4,5.2,1.3,10,1.3z M9.9,4.3c-0.2,0-0.4,0.2-0.5,0.4L8,7.8L4.7,8.3
	C4.4,8.3,4.2,8.7,4.2,9c0,0.1,0.1,0.3,0.2,0.4l2.3,2.4l-0.5,3.4c-0.1,0.4,0.2,0.7,0.5,0.8h0.1c0.1,0,0.2,0,0.3-0.1l2.9-1.6l2.9,1.6
	c0.3,0.2,0.7,0,0.9-0.3c0.1-0.1,0.1-0.3,0.1-0.4l-0.5-3.4l2.3-2.4c0.3-0.3,0.3-0.7,0-1c-0.1-0.1-0.2-0.2-0.4-0.2L12,7.8l-1.5-3.1
	C10.4,4.4,10.2,4.3,9.9,4.3z M10,6.5l1,2.2c0.1,0.2,0.3,0.3,0.5,0.4l2.3,0.4l-1.6,1.7C12,11.4,12,11.6,12,11.8l0.4,2.4l-2-1.1
	c-0.2-0.1-0.4-0.1-0.6,0l-2,1.1l0.4-2.4c0-0.2,0-0.4-0.2-0.6L6.2,9.4L8.5,9C8.7,9,8.9,8.9,9,8.7L10,6.5z M6.1,19.9
	c0.5,0.2,1.1,0.4,1.6,0.5v6.5L6.1,28V19.9z M13.9,19.9V28l-1.6-1.2v-6.5C12.8,20.3,13.4,20.1,13.9,19.9z M9,20.6
	c0.3,0,0.6,0.1,1,0.1c0.3,0,0.6,0,1-0.1v5.3l-0.6-0.4c-0.2-0.2-0.5-0.2-0.7,0L9,25.9V20.6z"/>
</svg>
