<?xml version="1.0" encoding="utf-8"?>
<!-- Generator: Adobe Illustrator 22.0.1, SVG Export Plug-In . SVG Version: 6.00 Build 0)  -->
<svg version="1.1" id="Layer_1" xmlns="http://www.w3.org/2000/svg" xmlns:xlink="http://www.w3.org/1999/xlink" x="0px" y="0px"
	 width="30px" height="28px" viewBox="0 0 30 28" enable-background="new 0 0 30 28" xml:space="preserve">
<path fill="#A5A5A5" d="M26.7,19.1c-1.5,0.9-3.4,1.4-5.6,1.4S17,20,15.5,19.1c-1.4-0.9-2.2-2-2.2-3.1c0-1.2,0.8-2.3,2.2-3.1
	c1.5-0.9,3.4-1.4,5.6-1.4s4.1,0.5,5.6,1.4c1.4,0.9,2.2,2,2.2,3.1C28.9,17.1,28.1,18.2,26.7,19.1L26.7,19.1L26.7,19.1z M28.9,18.9
	c0,1.2-0.8,2.3-2.2,3.1c-1.5,0.9-3.4,1.4-5.6,1.4S17,22.9,15.5,22c-1.4-0.9-2.2-2-2.2-3.1v-0.2c0.4,0.5,0.9,0.9,1.6,1.3
	c1.6,1,3.8,1.6,6.1,1.6s4.5-0.6,6.1-1.6c0.6-0.4,1.2-0.8,1.6-1.3v0.2H28.9z M28.9,21.9c0,1.2-0.8,2.3-2.2,3.1
	c-1.5,0.9-3.4,1.4-5.6,1.4S17,25.9,15.5,25c-1.4-0.9-2.2-2-2.2-3.1v-0.2c0.4,0.5,0.9,0.9,1.6,1.3c1.6,1,3.8,1.6,6.1,1.6
	s4.5-0.6,6.1-1.6c0.6-0.4,1.2-0.8,1.6-1.3v0.2H28.9z M12.4,15.8V16c-1.1,0.3-2.3,0.5-3.5,0.5c-2.1,0-4.1-0.5-5.6-1.4
	c-1.4-0.9-2.2-2-2.2-3.1v-0.2c0.4,0.5,0.9,0.9,1.6,1.3c1.6,1,3.8,1.6,6.1,1.6c1.4,0,2.8-0.2,4-0.6C12.6,14.6,12.4,15.2,12.4,15.8
	L12.4,15.8L12.4,15.8z M8.8,22.6c-2.1,0-4.1-0.5-5.6-1.4c-1.4-0.9-2.2-2-2.2-3.1V18c0.4,0.5,0.9,0.9,1.6,1.3c1.6,1,3.8,1.6,6.1,1.6
	c1.2,0,2.4-0.2,3.5-0.5c0,0,0,1.7,0,1.8C11.3,22.5,10.1,22.6,8.8,22.6L8.8,22.6L8.8,22.6z M1.1,14.9c0.4,0.5,0.9,0.9,1.6,1.3
	c1.6,1,3.8,1.6,6.1,1.6c1.2,0,2.4-0.2,3.5-0.5v1.8c-1.1,0.3-2.3,0.5-3.5,0.5c-2.1,0-4.1-0.5-5.6-1.4c-1.4-0.9-2.2-2-2.2-3.1
	L1.1,14.9L1.1,14.9z M1.1,8.9C1.5,9.4,2,9.8,2.7,10.2c1.6,1,3.8,1.6,6.1,1.6s4.5-0.6,6.1-1.6c0.6-0.4,1.2-0.8,1.6-1.3V9
	c0,1.2-0.8,2.3-2.2,3.1c-1.5,0.9-3.4,1.4-5.6,1.4c-2.1,0-4.1-0.5-5.6-1.4c-1.4-0.9-2.2-2-2.2-3.1V8.9H1.1z M3.3,3
	c1.5-0.9,3.4-1.4,5.6-1.4C11,1.6,13,2.1,14.5,3c1.4,0.9,2.2,2,2.2,3.1c0,1.2-0.8,2.3-2.2,3.1c-1.5,0.9-3.4,1.4-5.6,1.4
	c-2.1,0-4.1-0.5-5.6-1.4c-1.4-0.9-2.2-2-2.2-3.1C1.1,5,1.9,3.9,3.3,3L3.3,3L3.3,3z M27.3,11.9c-1.6-1-3.8-1.6-6.1-1.6
	c-1.2,0-2.4,0.2-3.5,0.5V6.1c0-1.6-1-3-2.7-4.1c-1.6-1-3.8-1.6-6.1-1.6S4.3,1.1,2.7,2.1C1,3.1,0.1,4.5,0,5.9v12.2c0,1.6,1,3,2.7,4.1
	c1.6,1,3.8,1.6,6.1,1.6c1.3,0,2.6-0.2,3.8-0.5c0.4,1,1.2,2,2.4,2.7c1.6,1,3.8,1.6,6.1,1.6s4.5-0.6,6.1-1.6c1.7-1.1,2.7-2.5,2.7-4.1
	V16C30,14.4,29,13,27.3,11.9L27.3,11.9L27.3,11.9z"/>
</svg>
