<?xml version="1.0" encoding="utf-8"?>
<!-- Generator: Adobe Illustrator 21.0.2, SVG Export Plug-In . SVG Version: 6.00 Build 0)  -->
<svg version="1.1" id="Layer_1" xmlns="http://www.w3.org/2000/svg" xmlns:xlink="http://www.w3.org/1999/xlink" x="0px" y="0px"
	 viewBox="0 0 75 77" style="enable-background:new 0 0 75 77;" xml:space="preserve">
<style type="text/css">
	.st0{opacity:0.13;}
	.st1{fill:#FDE101;}
	.st2{fill:#663398;}
</style>
<path class="st0" d="M72.2,50.1c0.4-1.3,1.9-2.4,2.2-3.7c0.3-1.4-0.8-2.9-0.7-4.3c0.1-1.4,1.3-2.8,1.3-4.1c-0.1-1.4-1.4-2.6-1.6-4
	c-0.2-1.4,0.7-3,0.3-4.3c-0.4-1.3-1.9-2.3-2.5-3.5c-0.5-1.3,0-3-0.6-4.3c-0.7-1.2-2.4-1.8-3.2-2.9c-0.8-1.1-0.7-3-1.6-4
	c-0.9-1-2.7-1.2-3.7-2.1c-1-0.9-1.3-2.7-2.4-3.6c-1.1-0.8-2.9-0.6-4.1-1.2c-1.2-0.7-1.9-2.4-3.2-2.9c-1.3-0.5-3,0.1-4.3-0.3
	c-1.3-0.4-2.4-1.9-3.7-2.2c-1.4-0.3-2.9,0.8-4.3,0.7c-1.4-0.1-2.8-1.3-4.1-1.3c-1.4,0.1-2.6,1.4-4,1.6c-1.4,0.2-3-0.7-4.3-0.3
	c-1.3,0.4-2.3,2-3.5,2.5c-1.3,0.5-3,0-4.3,0.6c-1.2,0.7-1.8,2.4-2.9,3.2c-1.1,0.8-3,0.7-4,1.6c-1,0.9-1.2,2.7-2.1,3.7
	c-0.9,1-2.7,1.3-3.6,2.4c-0.8,1.1-0.6,2.9-1.2,4.1c-0.7,1.2-2.4,1.9-2.9,3.2c-0.5,1.3,0.1,3-0.3,4.3c-0.4,1.3-1.9,2.4-2.2,3.7
	c-0.3,1.4,0.8,2.9,0.7,4.3c-0.1,1.4-1.3,2.8-1.3,4.1c0.1,1.4,1.4,2.6,1.6,4c0.2,1.4-0.7,3-0.3,4.3c0.4,1.3,2,2.3,2.5,3.5
	c0.5,1.3,0,3,0.6,4.3c0.7,1.2,2.4,1.8,3.2,2.9c0.8,1.1,0.7,3,1.6,4c0.9,1,2.7,1.2,3.7,2.1c1,0.9,1.3,2.7,2.4,3.6
	c1.1,0.8,2.9,0.6,4.1,1.2c1.2,0.7,1.9,2.4,3.2,2.9c1.3,0.5,3-0.1,4.3,0.3c1.3,0.4,2.4,1.9,3.7,2.2c1.4,0.3,2.9-0.8,4.3-0.7
	c1.4,0.1,2.8,1.3,4.1,1.3c1.4-0.1,2.6-1.4,4-1.6c1.4-0.2,3,0.7,4.3,0.3c1.3-0.4,2.3-2,3.5-2.5c1.3-0.5,3,0,4.3-0.6
	c1.2-0.7,1.8-2.4,2.9-3.2c1.1-0.8,3-0.7,4-1.6c1-0.9,1.2-2.7,2.1-3.7c0.9-1,2.7-1.3,3.6-2.4c0.8-1.1,0.6-2.9,1.2-4.1
	c0.7-1.2,2.4-1.9,2.9-3.2C72.5,53.1,71.8,51.4,72.2,50.1z"/>
<path class="st1" d="M72.2,48.1c0.4-1.3,1.9-2.4,2.2-3.7c0.3-1.4-0.8-2.9-0.7-4.3c0.1-1.4,1.3-2.8,1.3-4.1c-0.1-1.4-1.4-2.6-1.6-4
	c-0.2-1.4,0.7-3,0.3-4.3c-0.4-1.3-1.9-2.3-2.5-3.5c-0.5-1.3,0-3-0.6-4.3c-0.7-1.2-2.4-1.8-3.2-2.9c-0.8-1.1-0.7-3-1.6-4
	c-0.9-1-2.7-1.2-3.7-2.1c-1-0.9-1.3-2.7-2.4-3.6c-1.1-0.8-2.9-0.6-4.1-1.2c-1.2-0.7-1.9-2.4-3.2-2.9c-1.3-0.5-3,0.1-4.3-0.3
	c-1.3-0.4-2.4-1.9-3.7-2.2c-1.4-0.3-2.9,0.8-4.3,0.7c-1.4-0.1-2.8-1.3-4.1-1.3c-1.4,0.1-2.6,1.4-4,1.6c-1.4,0.2-3-0.7-4.3-0.3
	c-1.3,0.4-2.3,2-3.5,2.5c-1.3,0.5-3,0-4.3,0.6c-1.2,0.7-1.8,2.4-2.9,3.2c-1.1,0.8-3,0.7-4,1.6c-1,0.9-1.2,2.7-2.1,3.7
	c-0.9,1-2.7,1.3-3.6,2.4c-0.8,1.1-0.6,2.9-1.2,4.1c-0.7,1.2-2.4,1.9-2.9,3.2c-0.5,1.3,0.1,3-0.3,4.3c-0.4,1.3-1.9,2.4-2.2,3.7
	c-0.3,1.4,0.8,2.9,0.7,4.3c-0.1,1.4-1.3,2.8-1.3,4.1c0.1,1.4,1.4,2.6,1.6,4c0.2,1.4-0.7,3-0.3,4.3c0.4,1.3,2,2.3,2.5,3.5
	c0.5,1.3,0,3,0.6,4.3c0.7,1.2,2.4,1.8,3.2,2.9c0.8,1.1,0.7,3,1.6,4c0.9,1,2.7,1.2,3.7,2.1c1,0.9,1.3,2.7,2.4,3.6
	c1.1,0.8,2.9,0.6,4.1,1.2c1.2,0.7,1.9,2.4,3.2,2.9c1.3,0.5,3-0.1,4.3,0.3c1.3,0.4,2.4,1.9,3.7,2.2c1.4,0.3,2.9-0.8,4.3-0.7
	c1.4,0.1,2.8,1.3,4.1,1.3c1.4-0.1,2.6-1.4,4-1.6c1.4-0.2,3,0.7,4.3,0.3c1.3-0.4,2.3-2,3.5-2.5c1.3-0.5,3,0,4.3-0.6
	c1.2-0.7,1.8-2.4,2.9-3.2c1.1-0.8,3-0.7,4-1.6c1-0.9,1.2-2.7,2.1-3.7c0.9-1,2.7-1.3,3.6-2.4c0.8-1.1,0.6-2.9,1.2-4.1
	c0.7-1.2,2.4-1.9,2.9-3.2C72.5,51.1,71.8,49.4,72.2,48.1z"/>
<g>
	<path class="st2" d="M23.3,31.1c-0.2,1.5-0.4,2.9-0.5,4.1c-0.1,0.5-0.1,1-0.2,1.5c-0.1,0.5-0.1,0.9-0.2,1.3
		c-0.1,0.4-0.1,0.7-0.1,0.9l0,0.3c0,0.4-0.1,0.7-0.2,1s-0.2,0.6-0.3,0.9c-0.1,0.3-0.3,0.5-0.5,0.7s-0.5,0.3-0.8,0.4
		c-0.3,0.1-0.5,0.1-0.8,0S19.2,42.2,19,42c-0.2-0.2-0.5-0.4-0.7-0.6c-0.2-0.3-0.5-0.6-0.7-0.9l-4.9-6.6l2.4,9c0,0.2,0.1,0.4,0,0.6
		c0,0.2-0.1,0.4-0.2,0.5c-0.1,0.2-0.2,0.3-0.4,0.4c-0.2,0.1-0.3,0.2-0.5,0.2c-0.2,0-0.4,0.1-0.6,0c-0.2,0-0.4-0.1-0.5-0.2
		c-0.2-0.1-0.3-0.2-0.4-0.4c-0.1-0.2-0.2-0.3-0.2-0.5l-2.3-8.7c-0.1-0.5-0.2-1.1-0.3-1.5s0-0.9,0-1.2c0.1-0.4,0.3-0.7,0.5-0.9
		s0.7-0.4,1.2-0.6c0.4-0.1,0.7-0.1,1-0.1c0.3,0.1,0.6,0.2,0.9,0.4c0.3,0.2,0.6,0.5,1,0.9c0.3,0.4,0.7,0.9,1.2,1.4l4.1,5.4l0.1,0
		l1-6.8c0.1-0.6,0.2-1.1,0.3-1.6c0.1-0.5,0.2-0.9,0.4-1.3c0.2-0.4,0.4-0.7,0.6-0.9s0.6-0.4,0.9-0.5c0.4-0.1,0.8-0.1,1.1-0.1
		s0.6,0.2,0.9,0.4c0.3,0.2,0.5,0.5,0.7,0.9c0.2,0.4,0.4,0.9,0.5,1.5l2.4,9.1c0,0.2,0.1,0.4,0,0.6c0,0.2-0.1,0.4-0.2,0.5
		c-0.1,0.2-0.2,0.3-0.4,0.4c-0.2,0.1-0.3,0.2-0.5,0.3c-0.2,0-0.4,0.1-0.6,0c-0.2,0-0.4-0.1-0.5-0.2c-0.2-0.1-0.3-0.2-0.4-0.4
		s-0.2-0.3-0.2-0.5L23.3,31.1z"/>
	<path class="st2" d="M42.5,34.1c0.1,0.1,0.2,0.2,0.2,0.3c0.1,0.1,0.2,0.2,0.2,0.3s0.1,0.2,0.2,0.3c0.1,0.1,0.1,0.2,0.1,0.3
		c0.1,0.2,0.1,0.5,0,0.7c0,0.2-0.1,0.4-0.2,0.5s-0.3,0.3-0.4,0.4c-0.2,0.1-0.4,0.2-0.6,0.3c-0.2,0.1-0.5,0.1-0.7,0.1
		s-0.4-0.1-0.6-0.2c-0.2-0.1-0.4-0.3-0.5-0.5c-0.2-0.2-0.4-0.5-0.6-0.8L39,34.8l-5.3,1.4l-0.1,1.3c0,0.4-0.1,0.7-0.1,1
		c-0.1,0.3-0.1,0.5-0.2,0.7c-0.1,0.2-0.2,0.3-0.4,0.4c-0.2,0.1-0.4,0.2-0.6,0.3c-0.2,0.1-0.4,0.1-0.6,0.1c-0.2,0-0.4-0.1-0.6-0.2
		c-0.2-0.1-0.3-0.2-0.5-0.4s-0.2-0.4-0.3-0.6c0-0.1,0-0.2,0-0.3s0-0.3,0-0.4c0-0.1,0-0.3,0-0.4c0-0.1,0-0.3,0-0.4l0.7-7.5
		c0.1-0.7,0.2-1.3,0.2-1.9c0.1-0.6,0.2-1,0.4-1.4s0.4-0.7,0.7-1c0.3-0.3,0.7-0.5,1.2-0.6c0.5-0.1,0.9-0.2,1.2-0.1s0.7,0.2,1,0.4
		s0.7,0.6,1.1,1s0.8,1,1.3,1.7L42.5,34.1z M34.2,27.5l-0.5,6.6l4.2-1.1L34.2,27.5L34.2,27.5z"/>
	<path class="st2" d="M48.6,33.6c0.1,0.3,0.1,0.5,0.1,0.8s-0.1,0.5-0.2,0.7s-0.3,0.4-0.5,0.5s-0.4,0.3-0.6,0.3
		C47,36,46.8,36,46.6,36c-0.2,0-0.5-0.1-0.7-0.2c-0.2-0.1-0.4-0.3-0.5-0.5c-0.1-0.2-0.3-0.4-0.3-0.7l-2.6-10
		c-0.1-0.3-0.1-0.5-0.1-0.8c0-0.2,0.1-0.5,0.2-0.7c0.1-0.2,0.3-0.4,0.5-0.5c0.2-0.2,0.4-0.3,0.6-0.3c0.2-0.1,0.5-0.1,0.7,0
		s0.5,0.1,0.7,0.2c0.2,0.1,0.4,0.3,0.5,0.5c0.1,0.2,0.3,0.4,0.3,0.7L48.6,33.6z"/>
	<path class="st2" d="M52,23.9c0.1,0.3,0.2,0.5,0.5,0.7s0.6,0.3,0.9,0.3c0.4,0.1,0.8,0.1,1.2,0.1c0.4,0,0.9,0,1.3,0
		c0.7,0,1.4,0.1,2,0.2c0.6,0.1,1.1,0.2,1.6,0.4c0.5,0.2,0.9,0.5,1.2,0.9s0.6,0.9,0.7,1.5c0.2,0.7,0.2,1.3,0.1,1.9
		c-0.1,0.6-0.4,1.1-0.8,1.6c-0.4,0.5-0.9,0.9-1.6,1.3c-0.6,0.4-1.4,0.7-2.3,0.9C56.5,33.9,56,34,55.6,34s-0.9,0.1-1.4,0.1
		c-0.4,0-0.9,0-1.3-0.1c-0.4,0-0.8-0.1-1.1-0.2s-0.6-0.3-0.8-0.4s-0.4-0.4-0.4-0.6c0-0.2,0-0.3,0-0.5c0-0.2,0.1-0.3,0.1-0.5
		c0.1-0.1,0.2-0.3,0.3-0.4s0.2-0.2,0.4-0.2c0.1,0,0.2,0,0.3,0s0.2,0,0.4,0.1c0.1,0,0.3,0.1,0.4,0.1c0.1,0,0.3,0.1,0.4,0.1
		c0.5,0.1,1,0.1,1.6,0.1c0.6,0,1.2-0.1,1.8-0.2c0.3-0.1,0.6-0.2,0.9-0.3c0.3-0.1,0.5-0.3,0.7-0.5c0.2-0.2,0.3-0.4,0.4-0.6
		c0.1-0.2,0.1-0.5,0-0.8c-0.1-0.2-0.1-0.4-0.3-0.5c-0.1-0.1-0.3-0.3-0.4-0.3c-0.2-0.1-0.3-0.2-0.5-0.2c-0.2,0-0.4-0.1-0.6-0.1
		l-0.5,0c-0.1,0-0.2,0-0.3,0s-0.2,0-0.3,0l-0.5,0c-0.1,0-0.2,0-0.3,0c-0.1,0-0.2,0-0.2,0c-0.1,0-0.1,0-0.2,0c-0.1,0-0.1,0-0.2,0
		l-1-0.1c-0.6-0.1-1.2-0.1-1.6-0.3s-0.9-0.3-1.2-0.5c-0.3-0.2-0.6-0.5-0.8-0.8s-0.4-0.7-0.5-1.2c-0.2-0.6-0.2-1.2-0.1-1.8
		c0.1-0.6,0.4-1.1,0.8-1.6c0.4-0.5,0.9-0.9,1.6-1.3c0.6-0.4,1.4-0.7,2.3-0.9c0.3-0.1,0.7-0.2,1-0.2c0.4-0.1,0.8-0.1,1.2-0.1
		c0.4,0,0.8,0,1.2,0c0.4,0,0.7,0.1,1,0.2s0.6,0.2,0.8,0.4c0.2,0.2,0.4,0.4,0.4,0.7c0,0.2,0,0.3,0,0.5c0,0.1-0.1,0.3-0.2,0.4
		c-0.1,0.1-0.2,0.2-0.3,0.3c-0.1,0.1-0.3,0.2-0.4,0.2c-0.2,0-0.4,0.1-0.6,0c-0.3-0.1-0.6-0.1-0.9-0.2c-0.3,0-0.6-0.1-0.8-0.1
		c-0.3,0-0.5,0-0.8,0.1c-0.3,0-0.6,0.1-0.9,0.2c-0.3,0.1-0.6,0.2-0.9,0.3c-0.3,0.1-0.5,0.3-0.7,0.5s-0.3,0.4-0.4,0.6
		C51.9,23.4,51.9,23.6,52,23.9z"/>
</g>
<g>
	<path class="st2" d="M20.2,54.3c0,0.1,0.1,0.1,0.1,0.2s0.1,0.1,0.1,0.2c0,0.1,0.1,0.1,0.1,0.2c0,0.1,0,0.1,0.1,0.2
		c0,0.1,0,0.2,0,0.3c0,0.1-0.1,0.2-0.1,0.3c-0.1,0.1-0.1,0.2-0.2,0.2c-0.1,0.1-0.2,0.1-0.3,0.1c-0.1,0-0.2,0-0.3,0
		c-0.1,0-0.2,0-0.3-0.1s-0.2-0.1-0.3-0.2c-0.1-0.1-0.2-0.2-0.3-0.4l-0.4-0.5l-2.7,0.7l0,0.7c0,0.2,0,0.4-0.1,0.5
		c0,0.1-0.1,0.3-0.1,0.3c-0.1,0.1-0.1,0.2-0.2,0.2c-0.1,0.1-0.2,0.1-0.3,0.1c-0.1,0-0.2,0-0.3,0c-0.1,0-0.2,0-0.3-0.1
		c-0.1,0-0.2-0.1-0.2-0.2c-0.1-0.1-0.1-0.2-0.1-0.3c0,0,0-0.1,0-0.2c0-0.1,0-0.1,0-0.2c0-0.1,0-0.1,0-0.2c0-0.1,0-0.1,0-0.2l0.4-3.8
		c0-0.4,0.1-0.7,0.1-0.9c0-0.3,0.1-0.5,0.2-0.7s0.2-0.4,0.4-0.5s0.3-0.2,0.6-0.3c0.2-0.1,0.4-0.1,0.6-0.1c0.2,0,0.4,0.1,0.5,0.2
		c0.2,0.1,0.3,0.3,0.5,0.5c0.2,0.2,0.4,0.5,0.6,0.8L20.2,54.3z M16,50.9l-0.2,3.3l2.1-0.5L16,50.9L16,50.9z"/>
	<path class="st2" d="M21.7,50c0,0.2,0.1,0.3,0.3,0.3c0.1,0.1,0.3,0.1,0.5,0.2s0.4,0.1,0.6,0.1c0.2,0,0.4,0,0.7,0c0.4,0,0.7,0,1,0.1
		c0.3,0,0.6,0.1,0.8,0.2c0.2,0.1,0.4,0.3,0.6,0.4c0.2,0.2,0.3,0.4,0.4,0.7c0.1,0.3,0.1,0.6,0,0.9s-0.2,0.6-0.4,0.8s-0.5,0.5-0.8,0.7
		s-0.7,0.3-1.1,0.5c-0.2,0.1-0.5,0.1-0.7,0.1c-0.2,0-0.5,0.1-0.7,0.1c-0.2,0-0.4,0-0.6,0S21.8,55,21.6,55c-0.2-0.1-0.3-0.1-0.4-0.2
		c-0.1-0.1-0.2-0.2-0.2-0.3c0-0.1,0-0.2,0-0.2c0-0.1,0-0.2,0.1-0.2c0-0.1,0.1-0.1,0.1-0.2c0.1-0.1,0.1-0.1,0.2-0.1
		c0.1,0,0.1,0,0.2,0c0.1,0,0.1,0,0.2,0c0.1,0,0.1,0,0.2,0s0.1,0,0.2,0c0.2,0,0.5,0.1,0.8,0.1s0.6,0,0.9-0.1c0.2,0,0.3-0.1,0.4-0.2
		s0.2-0.1,0.3-0.2s0.2-0.2,0.2-0.3s0-0.2,0-0.4c0-0.1-0.1-0.2-0.1-0.3c-0.1-0.1-0.1-0.1-0.2-0.2s-0.2-0.1-0.3-0.1
		c-0.1,0-0.2,0-0.3,0l-0.2,0c0,0-0.1,0-0.1,0c0,0-0.1,0-0.1,0l-0.3,0C23,52,23,52,23,52c0,0-0.1,0-0.1,0c0,0-0.1,0-0.1,0
		c0,0-0.1,0-0.1,0l-0.5,0c-0.3,0-0.6-0.1-0.8-0.1c-0.2-0.1-0.4-0.1-0.6-0.3c-0.2-0.1-0.3-0.2-0.4-0.4c-0.1-0.2-0.2-0.4-0.3-0.6
		c-0.1-0.3-0.1-0.6,0-0.9c0.1-0.3,0.2-0.6,0.4-0.8s0.5-0.5,0.8-0.6c0.3-0.2,0.7-0.3,1.1-0.5c0.2,0,0.3-0.1,0.5-0.1
		c0.2,0,0.4,0,0.6-0.1c0.2,0,0.4,0,0.6,0c0.2,0,0.4,0.1,0.5,0.1c0.2,0.1,0.3,0.1,0.4,0.2s0.2,0.2,0.2,0.3c0,0.1,0,0.2,0,0.2
		s0,0.1-0.1,0.2s-0.1,0.1-0.1,0.2c-0.1,0-0.1,0.1-0.2,0.1c-0.1,0-0.2,0-0.3,0c-0.2,0-0.3-0.1-0.5-0.1c-0.1,0-0.3,0-0.4,0
		c-0.1,0-0.3,0-0.4,0s-0.3,0-0.4,0.1c-0.2,0-0.3,0.1-0.4,0.2c-0.1,0.1-0.3,0.1-0.4,0.2s-0.2,0.2-0.2,0.3
		C21.7,49.7,21.7,49.8,21.7,50z"/>
	<path class="st2" d="M28.1,48.3c0,0.2,0.1,0.3,0.3,0.3c0.1,0.1,0.3,0.1,0.5,0.2c0.2,0,0.4,0.1,0.6,0.1c0.2,0,0.4,0,0.7,0
		c0.4,0,0.7,0,1,0.1c0.3,0,0.6,0.1,0.8,0.2c0.2,0.1,0.4,0.3,0.6,0.4c0.2,0.2,0.3,0.4,0.4,0.7c0.1,0.3,0.1,0.6,0,0.9
		c-0.1,0.3-0.2,0.6-0.4,0.8s-0.5,0.5-0.8,0.7c-0.3,0.2-0.7,0.3-1.1,0.5c-0.2,0.1-0.5,0.1-0.7,0.1c-0.2,0-0.5,0.1-0.7,0.1
		c-0.2,0-0.4,0-0.6,0c-0.2,0-0.4-0.1-0.6-0.1c-0.2-0.1-0.3-0.1-0.4-0.2c-0.1-0.1-0.2-0.2-0.2-0.3c0-0.1,0-0.2,0-0.2
		c0-0.1,0-0.2,0.1-0.2s0.1-0.1,0.1-0.2c0.1-0.1,0.1-0.1,0.2-0.1c0.1,0,0.1,0,0.2,0s0.1,0,0.2,0c0.1,0,0.1,0,0.2,0c0.1,0,0.1,0,0.2,0
		c0.2,0,0.5,0.1,0.8,0.1c0.3,0,0.6,0,0.9-0.1c0.2,0,0.3-0.1,0.4-0.2c0.1-0.1,0.3-0.1,0.3-0.2c0.1-0.1,0.2-0.2,0.2-0.3
		c0-0.1,0-0.2,0-0.4c0-0.1-0.1-0.2-0.1-0.3c-0.1-0.1-0.1-0.1-0.2-0.2c-0.1,0-0.2-0.1-0.3-0.1c-0.1,0-0.2,0-0.3,0l-0.2,0
		c0,0-0.1,0-0.1,0c0,0-0.1,0-0.1,0l-0.3,0c-0.1,0-0.1,0-0.1,0c0,0-0.1,0-0.1,0c0,0-0.1,0-0.1,0c0,0-0.1,0-0.1,0l-0.5,0
		c-0.3,0-0.6-0.1-0.8-0.1c-0.2-0.1-0.4-0.1-0.6-0.3c-0.2-0.1-0.3-0.2-0.4-0.4c-0.1-0.2-0.2-0.4-0.3-0.6c-0.1-0.3-0.1-0.6,0-0.9
		s0.2-0.6,0.4-0.8c0.2-0.2,0.5-0.5,0.8-0.6c0.3-0.2,0.7-0.3,1.1-0.5c0.2,0,0.3-0.1,0.5-0.1s0.4,0,0.6-0.1c0.2,0,0.4,0,0.6,0
		c0.2,0,0.4,0.1,0.5,0.1c0.2,0.1,0.3,0.1,0.4,0.2s0.2,0.2,0.2,0.3c0,0.1,0,0.2,0,0.2c0,0.1,0,0.1-0.1,0.2c0,0.1-0.1,0.1-0.1,0.2
		c-0.1,0-0.1,0.1-0.2,0.1c-0.1,0-0.2,0-0.3,0c-0.2,0-0.3-0.1-0.5-0.1c-0.1,0-0.3,0-0.4,0c-0.1,0-0.3,0-0.4,0c-0.1,0-0.3,0-0.4,0.1
		c-0.2,0-0.3,0.1-0.4,0.2c-0.1,0.1-0.3,0.1-0.4,0.2c-0.1,0.1-0.2,0.2-0.2,0.3C28.1,48,28.1,48.2,28.1,48.3z"/>
	<path class="st2" d="M36,50.7c0,0.1,0,0.3,0,0.4s-0.1,0.2-0.1,0.3c-0.1,0.1-0.1,0.2-0.2,0.3s-0.2,0.1-0.3,0.2c-0.1,0-0.2,0-0.4,0
		c-0.1,0-0.2-0.1-0.3-0.1c-0.1-0.1-0.2-0.1-0.3-0.2c-0.1-0.1-0.1-0.2-0.2-0.3l-1.3-5c0-0.1,0-0.3,0-0.4s0.1-0.2,0.1-0.3
		c0.1-0.1,0.1-0.2,0.2-0.3c0.1-0.1,0.2-0.1,0.3-0.2s0.2,0,0.4,0c0.1,0,0.2,0.1,0.3,0.1c0.1,0.1,0.2,0.1,0.3,0.2
		c0.1,0.1,0.1,0.2,0.2,0.3L36,50.7z"/>
	<path class="st2" d="M38.9,50.1c0,0.1,0,0.2,0,0.3c0,0.1,0,0.2-0.1,0.3c-0.1,0.1-0.1,0.2-0.2,0.2c-0.1,0.1-0.2,0.1-0.3,0.1
		c-0.1,0-0.2,0-0.3,0s-0.2,0-0.3-0.1c-0.1,0-0.2-0.1-0.2-0.2s-0.1-0.2-0.1-0.3L36,45.3c0-0.2-0.1-0.3,0-0.4c0-0.1,0-0.2,0.1-0.4
		c0.1-0.1,0.1-0.2,0.2-0.3c0.1-0.1,0.2-0.1,0.3-0.2c0.1,0,0.2,0,0.3,0c0.1,0,0.2,0,0.3,0.1c0.1,0,0.2,0.1,0.3,0.2
		c0.1,0.1,0.2,0.1,0.3,0.2l3.8,3.1l-1-3.8c0-0.1,0-0.2,0-0.3c0-0.1,0-0.2,0.1-0.3c0-0.1,0.1-0.2,0.2-0.2C41,43,41.1,43,41.2,43
		c0.1,0,0.2,0,0.3,0c0.1,0,0.2,0,0.3,0.1c0.1,0,0.2,0.1,0.2,0.2s0.1,0.2,0.1,0.3l1.3,4.8c0,0.2,0.1,0.3,0.1,0.5s0,0.3,0,0.4
		c0,0.1-0.1,0.3-0.2,0.4c-0.1,0.1-0.2,0.2-0.4,0.2c-0.1,0-0.2,0-0.3,0c-0.1,0-0.2,0-0.3-0.1c-0.1,0-0.2-0.1-0.3-0.2
		s-0.2-0.1-0.3-0.2l-3.8-3.1L38.9,50.1z"/>
	<path class="st2" d="M50.6,46.3c0,0.1,0.1,0.1,0.1,0.2s0.1,0.1,0.1,0.2c0,0.1,0.1,0.1,0.1,0.2c0,0.1,0.1,0.1,0.1,0.2
		c0,0.1,0,0.2,0,0.3c0,0.1-0.1,0.2-0.1,0.3c-0.1,0.1-0.1,0.2-0.2,0.2c-0.1,0.1-0.2,0.1-0.3,0.1c-0.1,0-0.2,0-0.3,0
		c-0.1,0-0.2,0-0.3-0.1c-0.1-0.1-0.2-0.1-0.3-0.2s-0.2-0.2-0.3-0.4l-0.4-0.5l-2.7,0.7l0,0.7c0,0.2,0,0.4-0.1,0.5
		c0,0.1-0.1,0.3-0.1,0.3s-0.1,0.2-0.2,0.2c-0.1,0.1-0.2,0.1-0.3,0.1c-0.1,0-0.2,0-0.3,0s-0.2,0-0.3-0.1c-0.1,0-0.2-0.1-0.2-0.2
		c-0.1-0.1-0.1-0.2-0.1-0.3c0,0,0-0.1,0-0.2c0-0.1,0-0.1,0-0.2s0-0.1,0-0.2c0-0.1,0-0.1,0-0.2l0.4-3.8c0-0.4,0.1-0.7,0.1-0.9
		c0-0.3,0.1-0.5,0.2-0.7c0.1-0.2,0.2-0.4,0.4-0.5c0.1-0.1,0.3-0.2,0.6-0.3c0.2-0.1,0.4-0.1,0.6-0.1s0.4,0.1,0.5,0.2
		c0.2,0.1,0.3,0.3,0.5,0.5s0.4,0.5,0.6,0.8L50.6,46.3z M46.5,43l-0.2,3.3l2.1-0.5L46.5,43L46.5,43z"/>
	<path class="st2" d="M53,47.2c-0.2,0-0.3,0-0.5,0c-0.1,0-0.2-0.1-0.3-0.2S52,46.8,52,46.7c-0.1-0.1-0.1-0.3-0.2-0.4l-1.2-4.4
		c-0.1-0.2-0.1-0.4-0.1-0.6c0-0.2,0-0.3,0.1-0.4c0.1-0.1,0.2-0.2,0.3-0.3c0.1-0.1,0.3-0.2,0.5-0.2l1.2-0.3c1.3-0.3,2.3-0.3,3.1,0.1
		c0.8,0.4,1.4,1.2,1.7,2.4c0.2,0.6,0.2,1.1,0.1,1.6c-0.1,0.5-0.2,0.9-0.5,1.3c-0.3,0.4-0.6,0.7-1,0.9c-0.4,0.3-0.9,0.5-1.5,0.6
		L53,47.2z M53.6,45.9l0.6-0.2c0.4-0.1,0.7-0.2,0.9-0.4c0.2-0.1,0.4-0.3,0.5-0.6c0.1-0.2,0.2-0.5,0.2-0.8c0-0.3-0.1-0.7-0.2-1.1
		c-0.2-0.8-0.5-1.3-1-1.7c-0.4-0.3-1-0.4-1.7-0.2l-0.7,0.2L53.6,45.9z"/>
	<path class="st2" d="M58.2,42.2c-0.1-0.5-0.2-1-0.2-1.5c0-0.5,0.1-0.9,0.3-1.3s0.5-0.7,0.9-1c0.4-0.3,0.8-0.5,1.4-0.7
		c0.6-0.1,1.1-0.2,1.5-0.1c0.5,0.1,0.9,0.2,1.3,0.5s0.7,0.6,0.9,1s0.5,0.9,0.6,1.4c0.1,0.5,0.2,1,0.2,1.5c0,0.5-0.1,0.9-0.3,1.3
		c-0.2,0.4-0.5,0.7-0.9,1c-0.4,0.3-0.8,0.5-1.4,0.6c-0.5,0.1-1,0.2-1.5,0.1c-0.5-0.1-0.9-0.2-1.3-0.4c-0.4-0.2-0.7-0.6-0.9-1
		C58.5,43.2,58.3,42.7,58.2,42.2z M60,41.7c0.2,0.8,0.5,1.3,0.8,1.7c0.4,0.3,0.8,0.4,1.3,0.3c0.5-0.1,0.9-0.4,1-0.9
		c0.2-0.5,0.1-1.1-0.1-1.9c-0.1-0.4-0.2-0.7-0.4-1c-0.1-0.3-0.3-0.5-0.5-0.7s-0.4-0.3-0.6-0.3c-0.2-0.1-0.5,0-0.7,0
		c-0.3,0.1-0.5,0.2-0.6,0.3c-0.2,0.2-0.3,0.4-0.4,0.6c-0.1,0.2-0.1,0.5-0.1,0.8S59.9,41.3,60,41.7z"/>
	<path class="st2" d="M67.5,41.4c-0.1,0-0.2,0-0.3,0c-0.1,0-0.2-0.1-0.3-0.2c-0.1-0.1-0.2-0.2-0.2-0.3c-0.1-0.1-0.1-0.3-0.2-0.4
		l-1-3.3c0,0,0,0,0-0.1c0-0.1,0-0.2,0-0.3c0-0.1,0.1-0.2,0.1-0.3c0.1-0.1,0.1-0.1,0.2-0.2c0.1-0.1,0.2-0.1,0.3-0.1
		c0.1,0,0.2,0,0.3,0c0.1,0,0.2,0,0.3,0.1c0.1,0,0.2,0.1,0.2,0.2c0.1,0.1,0.1,0.2,0.1,0.3c0,0,0,0.1,0,0.1l0.7,3.4
		c0,0.2,0.1,0.3,0.1,0.4c0,0.1,0,0.3,0,0.4s-0.1,0.2-0.1,0.3C67.8,41.3,67.7,41.4,67.5,41.4z M67.7,42.1c0.1,0,0.2,0,0.3,0
		s0.2,0,0.3,0.1c0.1,0,0.2,0.1,0.2,0.1c0.1,0.1,0.1,0.1,0.1,0.2c0,0.1,0,0.2,0,0.3s-0.1,0.2-0.1,0.2s-0.1,0.1-0.2,0.2
		c-0.1,0.1-0.2,0.1-0.3,0.1c-0.1,0-0.2,0-0.4,0c-0.1,0-0.2,0-0.3-0.1c-0.1,0-0.2-0.1-0.2-0.1S67.1,43,67,42.9c0-0.1,0-0.2,0-0.2
		c0-0.1,0.1-0.2,0.1-0.2c0.1-0.1,0.1-0.1,0.2-0.2C67.5,42.2,67.6,42.1,67.7,42.1z"/>
</g>
</svg>
