<?xml version="1.0" encoding="utf-8"?>
<!-- Generator: Adobe Illustrator 21.0.2, SVG Export Plug-In . SVG Version: 6.00 Build 0)  -->
<svg version="1.1" id="Layer_1" xmlns="http://www.w3.org/2000/svg" xmlns:xlink="http://www.w3.org/1999/xlink" x="0px" y="0px"
	 width="16px" height="11px" viewBox="0 0 16 11" enable-background="new 0 0 16 11" xml:space="preserve">
<path fill="#777777" d="M14.5,0H1.5C0.7,0,0,0.6,0,1.4v8.1C0,10.4,0.7,11,1.5,11h13.1c0.8,0,1.5-0.6,1.5-1.4V1.4
	C16,0.6,15.3,0,14.5,0z M14.5,2.4v6.2l-3.3-2.9L14.5,2.4z M2.9,9.5L5.8,7l1,1.1l0,0c0.2,0.3,0.6,0.4,1,0.4c0.4,0,0.7-0.2,1-0.4l0,0
	l1.2-1.2l3.1,2.6H2.9L2.9,9.5z M13.2,1.5L7.9,6.9L2.6,1.5H13.2L13.2,1.5z M4.8,5.9L1.5,8.7V2.6L4.8,5.9z"/>
</svg>
