<?xml version="1.0" encoding="utf-8"?>
<!-- Generator: Adobe Illustrator 21.0.2, SVG Export Plug-In . SVG Version: 6.00 Build 0)  -->
<svg version="1.1" id="Layer_1" xmlns="http://www.w3.org/2000/svg" xmlns:xlink="http://www.w3.org/1999/xlink" x="0px" y="0px"
	 width="16px" height="15px" viewBox="0 0 16 15" enable-background="new 0 0 16 15" xml:space="preserve">
<path fill="#777777" d="M15.7,6.6L15.7,6.6L8.6,0.2c-0.3-0.3-0.8-0.3-1.2,0L0.3,6.6l0,0l0,0c-0.3,0.3-0.4,0.8-0.1,1.2
	C0.5,8.1,1,8.1,1.3,7.9c0,0,0,0,0,0l0.3-0.2v6.5C1.6,14.6,2,15,2.4,15h3.7C6.6,15,7,14.6,7,14.2v-3.3H9v3.3C9,14.6,9.4,15,9.9,15
	h3.7c0.5,0,0.8-0.4,0.8-0.8V7.6l0.3,0.2c0.3,0.3,0.8,0.3,1.1-0.1c0,0,0,0,0,0C16.1,7.4,16.1,6.9,15.7,6.6z M0.8,7.5L0.8,7.5z
	 M5.3,10v3.3H3.2V6.2L8,1.9l4.8,4.2v7.2h-2.1V10c0-0.5-0.4-0.8-0.8-0.8H6.1C5.7,9.2,5.3,9.6,5.3,10C5.3,10,5.3,10,5.3,10L5.3,10z
	 M8,0.5L8,0.5z"/>
</svg>
