<?xml version="1.0" encoding="utf-8"?>
<!-- Generator: Adobe Illustrator 21.0.2, SVG Export Plug-In . SVG Version: 6.00 Build 0)  -->
<svg version="1.1" id="Layer_1" xmlns="http://www.w3.org/2000/svg" xmlns:xlink="http://www.w3.org/1999/xlink" x="0px" y="0px"
	 width="16px" height="16px" viewBox="0 0 16 16" enable-background="new 0 0 16 16" xml:space="preserve">
<path fill="#777777" d="M9.9,7.8c0.4,0.3,0.7,0.9,0.7,1.4c0,0.5-0.3,1.1-0.7,1.4c-0.3,0.3-0.7,0.4-1.1,0.5v0.3
	c0,0.4-0.3,0.8-0.8,0.8c-0.4,0-0.8-0.3-0.8-0.8v-0.2H6.8c-0.4,0-0.7-0.3-0.8-0.7C6,10,6.4,9.7,6.8,9.7h1.6c0.2,0,0.4-0.1,0.5-0.2
	C9,9.4,9,9.3,9,9.2C9,9.1,9,9,8.9,8.9C8.7,8.8,8.6,8.7,8.4,8.7H7.6c-0.6,0-1.1-0.2-1.5-0.5C5.7,7.8,5.4,7.3,5.4,6.8
	c0-0.5,0.3-1.1,0.7-1.4c0.3-0.3,0.7-0.4,1.1-0.5V4.6c0-0.4,0.3-0.8,0.8-0.8c0.4,0,0.8,0.3,0.8,0.8v0.2h0.5c0.4,0,0.7,0.3,0.8,0.7
	S9.7,6.3,9.3,6.3c0,0-0.1,0-0.1,0H7.6c-0.2,0-0.4,0.1-0.5,0.2C7,6.6,7,6.7,7,6.8C7,6.9,7,7,7.1,7.1c0.2,0.1,0.3,0.2,0.5,0.2h0.7
	C8.9,7.3,9.5,7.5,9.9,7.8z M10.3,13c0.2,0,0.5,0,0.7,0.1l0.7,0.2l0.1,0c0.1,0,0.2,0,0.3-0.1c0.1-0.1,0.1-0.2,0.1-0.3v0l0-0.7v-0.1
	c0-0.8,0.6-1.6,1.4-1.8l0.7-0.2c0.1,0,0.2-0.1,0.2-0.1l0.1-0.2l-0.1-0.2L14,9.1c-0.6-0.7-0.6-1.6,0-2.3l0.4-0.5l0.1-0.2l-0.1-0.2
	c0-0.1-0.1-0.1-0.2-0.1l-0.7-0.2c-0.8-0.2-1.4-0.9-1.4-1.8V3.7l0-0.7v0c0-0.1,0-0.2-0.1-0.3c-0.1-0.1-0.2-0.1-0.3-0.1l-0.1,0L11,2.9
	C10.8,3,10.5,3,10.3,3C9.7,3,9.1,2.7,8.7,2.2L8.3,1.6C8.2,1.4,8,1.4,7.8,1.5c0,0-0.1,0.1-0.1,0.1L7.3,2.2C6.9,2.7,6.3,3,5.7,3
	C5.5,3,5.2,3,5,2.9L4.4,2.7l-0.1,0C4.1,2.6,4,2.7,4,2.7C3.9,2.8,3.8,2.9,3.8,3v0l0,0.7v0.1c0,0.8-0.6,1.6-1.4,1.8L1.8,5.7
	c-0.1,0-0.2,0.1-0.2,0.1L1.5,6.1l0.1,0.2L2,6.9c0.6,0.7,0.6,1.6,0,2.3L1.6,9.7L1.5,9.9l0.1,0.2c0,0.1,0.1,0.1,0.2,0.1l0.7,0.2
	c0.8,0.2,1.4,0.9,1.4,1.8v0.1l0,0.7v0c0,0.1,0,0.2,0.1,0.3c0.1,0.1,0.2,0.1,0.3,0.1l0.1,0L5,13.1C5.2,13,5.5,13,5.7,13
	c0.6,0,1.2,0.3,1.6,0.8l0.4,0.6c0.1,0.2,0.4,0.2,0.6,0.1c0,0,0.1-0.1,0.1-0.1l0.4-0.6C9.1,13.3,9.7,13,10.3,13L10.3,13z M10.4,1.6
	l0.7-0.2c0.2-0.1,0.5-0.1,0.7-0.1c0.5,0,1,0.2,1.3,0.5C13.5,2,13.7,2.5,13.7,3v0.1l0,0.7v0c0,0.2,0.1,0.3,0.3,0.3l0.7,0.2
	c0.4,0.1,0.8,0.3,1,0.7C15.9,5.3,16,5.7,16,6.1c0,0.4-0.2,0.8-0.4,1.1l-0.5,0.5L15,8l0.1,0.2l0.5,0.5C15.8,9.1,16,9.5,16,9.9
	c0,0.4-0.1,0.8-0.4,1.1c-0.3,0.3-0.6,0.6-1,0.7l-0.7,0.2c-0.2,0-0.3,0.2-0.3,0.4v0l0,0.7V13c0,0.5-0.2,1-0.6,1.3
	c-0.4,0.3-0.8,0.5-1.3,0.5c-0.2,0-0.5,0-0.7-0.1l-0.7-0.2l-0.1,0c-0.1,0-0.2,0.1-0.3,0.2l-0.4,0.6C9,16,7.8,16.3,6.9,15.7
	c-0.2-0.1-0.3-0.3-0.5-0.5L6,14.6c-0.1-0.1-0.2-0.2-0.3-0.2l-0.1,0l-0.7,0.2c-0.2,0.1-0.5,0.1-0.7,0.1c-0.5,0-1-0.2-1.3-0.5
	C2.5,14,2.3,13.5,2.3,13v-0.1l0-0.7v0c0-0.2-0.1-0.3-0.3-0.4l-0.7-0.2c-0.4-0.1-0.8-0.3-1-0.7C0.1,10.7,0,10.3,0,9.9
	c0-0.4,0.2-0.8,0.4-1.1l0.5-0.5L1,8L0.9,7.8L0.4,7.2C0.2,6.9,0,6.5,0,6.1C0,5.7,0.1,5.3,0.4,5c0.3-0.3,0.6-0.6,1-0.7l0.7-0.2
	c0.2,0,0.3-0.2,0.3-0.3v0l0-0.7V3c0-0.5,0.2-1,0.6-1.3c0.4-0.3,0.8-0.5,1.3-0.5c0.2,0,0.5,0,0.7,0.1l0.7,0.2l0.1,0
	c0.1,0,0.2-0.1,0.3-0.2l0.4-0.6C7,0,8.2-0.3,9.1,0.4c0.2,0.1,0.3,0.3,0.5,0.5L10,1.4c0.1,0.1,0.2,0.2,0.3,0.2L10.4,1.6z"/>
</svg>
