<?xml version="1.0" encoding="utf-8"?>
<!-- Generator: Adobe Illustrator 21.0.2, SVG Export Plug-In . SVG Version: 6.00 Build 0)  -->
<svg version="1.1" id="Layer_1" xmlns="http://www.w3.org/2000/svg" xmlns:xlink="http://www.w3.org/1999/xlink" x="0px" y="0px"
	 width="16px" height="13px" viewBox="0 0 16 13" enable-background="new 0 0 16 13" xml:space="preserve">
<path fill="#777777" d="M15.9,11.7c-1.3-1.8-3.2-3.2-5.3-3.9c1.1-0.8,1.8-2.1,1.8-3.5C12.3,1.9,10.3,0,7.9,0
	C5.6,0.1,3.7,1.9,3.6,4.3c0,1.4,0.7,2.7,1.8,3.5c-2.1,0.7-4,2.1-5.3,3.9C-0.1,12,0,12.5,0.4,12.8c0,0,0,0,0,0
	c0.4,0.3,0.9,0.2,1.2-0.2C3.7,9.1,8.4,8,11.9,10.1c1,0.6,1.9,1.5,2.5,2.5c0.3,0.4,0.8,0.5,1.2,0.2C16.1,12.6,16.1,12,15.9,11.7
	C15.9,11.7,15.9,11.7,15.9,11.7z M8,1.7c1.4,0,2.6,1.2,2.6,2.6c0,1.4-1.2,2.6-2.6,2.6c-1.4,0-2.6-1.2-2.6-2.6C5.4,2.8,6.5,1.7,8,1.7
	z"/>
</svg>
