<?xml version="1.0" encoding="utf-8"?>
<!-- Generator: Adobe Illustrator 21.0.2, SVG Export Plug-In . SVG Version: 6.00 Build 0)  -->
<svg version="1.1" id="Layer_1" xmlns="http://www.w3.org/2000/svg" xmlns:xlink="http://www.w3.org/1999/xlink" x="0px" y="0px"
	 width="9px" height="16px" viewBox="0 0 9 16" enable-background="new 0 0 9 16" xml:space="preserve">
<path fill="#777777" d="M8.6,11.6c-0.3-0.5-0.7-0.9-1.2-1.2c-0.2-0.1-0.5-0.1-0.7-0.1c-0.4,0.1-0.9,0.3-1.2,0.3
	C5.3,10.4,5.2,10.1,5,9.8S4.8,9.2,4.7,9.1C4.5,8.7,4.2,7.6,4,7.1c0,0,0,0,0,0C3.9,6.8,3.8,6,3.6,5.4C3.9,5.2,4.3,5,4.8,4.8
	C5,4.7,5.2,4.6,5.3,4.4l0,0l0,0l0,0l0,0c0.2-0.6,0.3-1.2,0.2-1.8C5.4,2.1,5.2,1.7,5,1.3C4.8,1,4.6,0.7,4.3,0.5
	C4.2,0.3,4,0.2,3.9,0.1C3.8,0,3.7,0,3.6,0C3.1,0,2.7,0,2.3,0.1v0L2,0.2L1.8,0.3v0C1.4,0.5,1.1,0.7,0.9,0.9C0.5,1.3,0.2,1.8,0.1,2.3
	l0,0l0,0v0l0,0c0,0,0,0,0,0l0,0C0,3,0,3.7,0,4.3c0.1,1.4,0.3,2.7,0.8,4l0.7,2c0.3,0.8,0.6,1.5,1,2.3c0.3,0.5,0.6,1.1,1,1.6
	c0.3,0.5,0.7,0.9,1.2,1.3h0v0h0C5,15.7,5.4,15.9,5.9,16c0.5,0.1,1,0,1.4-0.2c0.5-0.2,1-0.5,1.3-0.9c0.1-0.1,0.2-0.2,0.2-0.4
	c0-0.2,0.1-0.3,0.1-0.5c0-0.4,0-0.7,0-1.1C8.9,12.5,8.8,12.1,8.6,11.6z M7.4,14c-0.2,0.1-0.4,0.2-0.6,0.3c-0.4,0.2-0.9,0.1-1.2-0.2
	c-0.3-0.3-0.7-0.7-0.9-1.1C3.9,12.1,3.4,11,3,9.8C2.9,9.5,2.8,9.2,2.7,8.9l0,0C2.6,8.6,2.4,8.2,2.4,8v0l0-0.1l0-0.1
	C1.9,6.5,1.6,5.3,1.6,4c0-0.5,0-0.9,0.1-1.4c0.1-0.4,0.4-0.8,0.8-0.9c0.2-0.1,0.4-0.1,0.6-0.1C3.3,1.7,3.5,2,3.6,2.2
	C3.9,2.6,4,3.1,3.9,3.5C3.3,3.7,2.9,4,2.4,4.3C2.2,4.5,2,4.7,1.9,5c0,0.1,0,0.2,0,0.3C2,5.4,2,5.6,2,5.7c0.2,0.8,0.3,1.6,0.4,1.9
	c0,0,0,0.1,0,0.1l0,0C2.6,8.1,3,9.3,3.2,9.8c0.2,0.4,0.9,1.9,1,2.1c0,0.1,0.1,0.1,0.1,0.1c0.2,0.2,0.5,0.4,0.8,0.3
	c0.6-0.1,1.1-0.2,1.6-0.4C7.3,12.5,7.6,13.3,7.4,14L7.4,14z M2.2,0.7L2.2,0.7z"/>
</svg>
