<?xml version="1.0" encoding="utf-8"?>
<!-- Generator: Adobe Illustrator 21.0.2, SVG Export Plug-In . SVG Version: 6.00 Build 0)  -->
<svg version="1.1" id="Layer_1" xmlns="http://www.w3.org/2000/svg" xmlns:xlink="http://www.w3.org/1999/xlink" x="0px" y="0px"
	 width="16px" height="11px" viewBox="0 0 16 11" enable-background="new 0 0 16 11" xml:space="preserve">
<path fill="#777777" d="M14.6,0H1.4C0.6,0,0,0.7,0,1.4v8.1C0,10.3,0.6,11,1.4,11h13.3c0.8,0,1.4-0.7,1.4-1.4V1.4
	C16,0.7,15.4,0,14.6,0z M1.1,1.4c0-0.1,0.1-0.3,0.3-0.3h13.3c0.1,0,0.3,0.1,0.3,0.3v8.1c0,0.1-0.1,0.3-0.3,0.3H1.4
	c-0.1,0-0.3-0.1-0.3-0.3c0,0,0,0,0,0V1.4z M2,7.1h2.1c0.3,0,0.6-0.3,0.6-0.6c0-0.3-0.3-0.5-0.6-0.6H2c-0.3,0-0.6,0.3-0.6,0.6
	S1.7,7.1,2,7.1L2,7.1z M4.8,6.5C4.7,6.8,5,7,5.3,7.1h2.1C7.7,7,8,6.8,7.9,6.4c0-0.3-0.3-0.5-0.6-0.6H5.3C5,5.9,4.8,6.2,4.8,6.5
	L4.8,6.5z M8.6,7.1h2.1c0.3,0,0.6-0.3,0.6-0.6c0-0.3-0.3-0.5-0.6-0.6H8.6C8.3,5.9,8,6.1,8,6.5S8.3,7.1,8.6,7.1L8.6,7.1z M11.9,7.1
	H14c0.3,0,0.6-0.3,0.6-0.6c0-0.3-0.3-0.5-0.6-0.6h-2.1c-0.3,0-0.6,0.3-0.6,0.6C11.4,6.8,11.6,7,11.9,7.1L11.9,7.1z M2,8.9h5.4
	C7.7,8.9,8,8.6,8,8.3c0-0.3-0.3-0.5-0.6-0.6H2c-0.3,0-0.6,0.3-0.6,0.6C1.5,8.7,1.7,8.9,2,8.9L2,8.9z M2.5,4.4h1.7
	c0.3,0,0.5-0.1,0.7-0.3C5,3.9,5.1,3.7,5.1,3.4V2.5c0-0.5-0.4-1-1-1H2.5c-0.5,0-1,0.5-1,1v0.9C1.5,3.9,1.9,4.4,2.5,4.4L2.5,4.4z
	 M2.6,3.2V2.6H4v0.6H2.6z"/>
</svg>
