<svg xmlns="http://www.w3.org/2000/svg" width="13" height="16" viewBox="0 0 13 16">
  <metadata><?xpacket begin="﻿" id="W5M0MpCehiHzreSzNTczkc9d"?>
<x:xmpmeta xmlns:x="adobe:ns:meta/" x:xmptk="Adobe XMP Core 5.6-c138 79.159824, 2016/09/14-01:09:01        ">
   <rdf:RDF xmlns:rdf="http://www.w3.org/1999/02/22-rdf-syntax-ns#">
      <rdf:Description rdf:about=""/>
   </rdf:RDF>
</x:xmpmeta>
                                                                                                    
                                                                                                    
                                                                                                    
                                                                                                    
                                                                                                    
                                                                                                    
                                                                                                    
                                                                                                    
                                                                                                    
                                                                                                    
                                                                                                    
                                                                                                    
                                                                                                    
                                                                                                    
                                                                                                    
                                                                                                    
                                                                                                    
                                                                                                    
                                                                                                    
                                                                                                    
                           
<?xpacket end="w"?></metadata>
<defs>
    <style>
      .cls-1 {
        fill: #999;
        fill-rule: evenodd;
      }
    </style>
  </defs>
  <path id="ic_ordenar" data-name="ic ordenar" class="cls-1" d="M3331.82,1506.58l-3.17,3.24a0.592,0.592,0,0,1-.85,0l-3.18-3.24a0.635,0.635,0,0,1,0-.87,0.61,0.61,0,0,1,.85,0l2.16,2.21v-9.73a0.6,0.6,0,0,1,.59-0.61,0.61,0.61,0,0,1,.6.61v9.73l2.16-2.21a0.6,0.6,0,0,1,.84,0A0.616,0.616,0,0,1,3331.82,1506.58Zm-6.29-8.3-2.16-2.2v9.72a0.6,0.6,0,0,1-.6.61,0.6,0.6,0,0,1-.59-0.61v-9.72l-2.16,2.2a0.592,0.592,0,0,1-.85,0,0.622,0.622,0,0,1,0-.86l3.18-3.24a0.592,0.592,0,0,1,.85,0l3.18,3.24a0.65,0.65,0,0,1,.17.43,0.631,0.631,0,0,1-.17.43A0.592,0.592,0,0,1,3325.53,1498.28Z" transform="translate(-3319 -1494)"/>
</svg>
