<?xml version="1.0" encoding="utf-8"?>
<!-- Generator: Adobe Illustrator 21.0.2, SVG Export Plug-In . SVG Version: 6.00 Build 0)  -->
<svg version="1.1" id="Camada_1" xmlns="http://www.w3.org/2000/svg" xmlns:xlink="http://www.w3.org/1999/xlink" x="0px" y="0px"
	 width="60.7px" height="66px" viewBox="0 0 60.7 66" enable-background="new 0 0 60.7 66" xml:space="preserve">
<title>ic-processando</title>
<path fill="#663398" d="M21.9,36.9l-2.3-0.2c-1-0.1-2,0.3-2.6,1.2l-2,2.7l-2.4-1l0.6-3.3c0.2-0.9-0.1-1.9-0.8-2.6l-1.6-1.7
	C10,31,8.9,30.7,7.9,31l-3.2,0.7l-1.2-2.3l2.3-2.1c0.6-0.6,1-1.4,1-2.2v-3c0-1.1-0.6-2.1-1.6-2.6l-2.8-1.3l0.7-2.5h3.3
	c1,0,1.9-0.5,2.4-1.3l1.3-2c0.5-0.8,0.6-1.7,0.3-2.6l-1.1-3l1.7-1.4l3.1,2c0.7,0.4,1.5,0.6,2.3,0.4l2.3-0.4c1.1-0.2,2-1,2.4-2.1
	l1-3.1h2.5l0.5,3.2c0.1,0.9,0.7,1.7,1.5,2.2l2,1.2c1,0.6,2.3,0.6,3.2-0.1l2.6-1.7l1.9,1.7L35,12.1c-0.3,0.7-0.3,1.4,0,2.1l0.8,2.2
	c0.4,1,1.3,1.7,2.3,1.9l3.1,0.4l0.3,2.4l-2.9,1c-1,0.3-1.8,1.2-2,2.2L36.1,27c-0.2,0.9,0,1.8,0.6,2.5c0.4,0.5,1.1,0.5,1.6,0.1
	c0.5-0.4,0.5-1.1,0.1-1.6c-0.1-0.2-0.2-0.4-0.2-0.6l0.5-2.6c0.1-0.3,0.2-0.5,0.5-0.6l3.8-1.3c0.5-0.2,0.8-0.7,0.8-1.2l-0.5-4.1
	c-0.1-0.5-0.5-0.9-1-1l-4-0.5c-0.2,0-0.4-0.2-0.5-0.4l-0.8-2.2c-0.1-0.2-0.1-0.3,0-0.5l1.7-4c0.2-0.4,0.1-0.9-0.3-1.3l-3.2-2.8
	c-0.4-0.3-0.9-0.4-1.3-0.1l-3.3,2.1C30.3,7,30,7,29.7,6.8l-2-1.2c-0.2-0.1-0.4-0.3-0.4-0.6l-0.7-4.2C26.6,0.4,26.1,0,25.6,0h-4.3
	c-0.5,0-0.9,0.3-1.1,0.8L19,4.6c-0.1,0.3-0.3,0.5-0.6,0.6L16,5.7c-0.2,0-0.4,0-0.6-0.1l-3.8-2.5c-0.4-0.3-1-0.2-1.3,0.1L7.4,5.6
	C7,5.9,6.9,6.4,7,6.8l1.3,3.8c0.1,0.2,0,0.4-0.1,0.6l-1.3,2c-0.1,0.2-0.3,0.3-0.6,0.3H2.2c-0.5,0-1,0.3-1.1,0.8L0,18.6
	c-0.1,0.5,0.1,1,0.6,1.3l3.6,1.8c0.2,0.1,0.4,0.3,0.4,0.6v3c0,0.2-0.1,0.4-0.2,0.5l-3,2.6c-0.4,0.3-0.5,0.9-0.2,1.4l2,3.8
	c0.2,0.4,0.7,0.7,1.2,0.6l4-0.9c0.3-0.1,0.5,0,0.7,0.2l1.7,1.7c0.2,0.2,0.2,0.4,0.2,0.7L10.2,40c-0.1,0.5,0.2,1,0.7,1.2L15,43
	c0.5,0.2,1,0.1,1.3-0.4l2.5-3.5c0.1-0.2,0.3-0.3,0.5-0.2l2.3,0.2c0.2,0,0.3,0.1,0.4,0.3c0.3,0.5,1,0.7,1.5,0.4
	c0.5-0.3,0.7-1,0.4-1.5C23.6,37.5,22.8,37,21.9,36.9z"/>
<path fill="#663398" d="M22.1,26.7h-0.5h-0.1h-0.3h-0.1l-0.4-0.2l0,0l-0.4-0.1l0,0L20,26.2l0,0L19.7,26h-0.1l-0.3-0.2l-0.1-0.1
	l-0.2-0.2L19,25.5c-0.5-0.6-0.9-1.2-1.1-2v-0.1c0-0.1,0-0.2,0-0.3c0,0,0-0.1,0-0.1s0-0.1,0-0.2s0-0.1,0-0.2s0-0.1,0-0.2v-0.2
	c0-0.1,0-0.1,0-0.2s0-0.2,0-0.2v-0.1c0-0.1,0-0.2,0.1-0.3l0,0c0.6-1.7,2.1-2.8,3.9-2.8l0,0c0.3,0,0.5,0,0.8,0.1h0
	c0.2,0,0.5,0.1,0.7,0.2h0.1c0.2,0.1,0.4,0.2,0.6,0.3l0.1,0.1c0.2,0.1,0.4,0.3,0.5,0.5l0.1,0.1c0.2,0.2,0.3,0.4,0.4,0.5l0.1,0.1
	c0.1,0.2,0.2,0.4,0.3,0.6v0.1c0.1,0.2,0.1,0.4,0.2,0.7c0,0,0,0.1,0,0.1c0.4,2.2-1.1,4.4-3.4,4.7C22.4,26.7,22.2,26.7,22.1,26.7
	L22.1,26.7z M28.3,22.3c0-0.1,0-0.2,0-0.4s0-0.2,0-0.3s0-0.3-0.1-0.4s0-0.1,0-0.2s-0.1-0.3-0.1-0.4c0,0,0-0.1,0-0.1
	c0-0.2-0.1-0.3-0.2-0.5V20c-0.1-0.2-0.1-0.3-0.2-0.5l0,0c-0.1-0.2-0.2-0.3-0.3-0.5l0,0c-0.1-0.1-0.2-0.3-0.3-0.5l0,0
	c-0.1-0.1-0.2-0.2-0.3-0.4c-1.2-1.2-2.8-1.9-4.5-1.9l0,0c-0.2,0-0.4,0-0.6,0c-2.5,0.3-4.6,2-5.4,4.4l0,0c0,0.1-0.1,0.3-0.1,0.5
	s0,0.1,0,0.2s0,0.2-0.1,0.4s0,0.2,0,0.3s0,0.2,0,0.3s0,0.2,0,0.3l0,0l0,0c0,0,0,0.2,0,0.2s0,0.2,0,0.4s0,0.1,0,0.2s0,0.3,0.1,0.4
	c0,0,0,0.1,0,0.1c0.1,1.1,0.6,2.2,1.3,3.1l0.1,0.1l0,0l0.3,0.3l0.1,0.1c0.2,0.1,0.3,0.2,0.5,0.4l0,0c0.7,0.5,1.4,0.8,2.2,0.9h0.1
	l0.5,0.1h0.2h0.3H22h0.3c3.3-0.2,5.9-2.8,6.1-6.1c0,0,0,0,0-0.1c0,0,0,0,0-0.1s0,0,0-0.1C28.4,22.4,28.4,22.4,28.3,22.3L28.3,22.3z"
	/>
<path fill="#663398" d="M56.3,48.5c-0.9,0.3-1.5,1-1.7,1.9l-0.4,2.1c-0.2,0.8,0.1,1.6,0.6,2.2l1.4,1.7l-0.8,1.1l-2-1.1l-0.2-0.1
	c-0.9-0.3-1.8-0.1-2.5,0.5l-1.8,1.7l0,0c-0.5,0.2-0.7,0.6-0.7,1.1l0.3,3.3l-1.8,0.5l-1.3-2.3c-0.4-0.7-1.1-1.1-1.8-1.2l-1.8-0.2
	c-0.9-0.1-1.7,0.3-2.2,1l-1.4,2l-1.5-0.7l0.4-2.4c0.1-0.8-0.1-1.7-0.7-2.2l-1.3-1.3c-0.6-0.6-1.6-0.9-2.4-0.7L29.9,56l-0.8-1.4
	l1.7-1.5c0.6-0.5,0.9-1.2,0.9-1.9v-2.3c0-0.9-0.5-1.8-1.4-2.2l-2-1l0.4-1.7h2.4c0.8,0,1.6-0.4,2.1-1.1l1-1.5
	c0.4-0.7,0.5-1.5,0.3-2.2l-0.8-2.2l1-0.9l2.3,1.5c0.6,0.4,1.3,0.5,2,0.4l1.8-0.3c0.9-0.2,1.7-0.9,2-1.8l0.7-2.3h1.6l0.4,2.3
	c0.1,0.8,0.6,1.5,1.3,1.9l1.5,0.9c0.9,0.5,2,0.5,2.8,0l1.9-1.2l1.2,1.1l-1,2.5c-0.2,0.6-0.2,1.2,0,1.8l0.7,1.8
	c0.3,0.9,1.1,1.5,2,1.6l2.2,0.3l0.2,1.5L56.3,48.5z M60.4,45.2c-0.1-0.5-0.5-0.9-1-1l-3.1-0.4c-0.1,0-0.2-0.1-0.2-0.2l-0.7-1.8
	c0-0.1,0-0.1,0-0.2l1.3-3.2c0.2-0.4,0.1-0.9-0.3-1.3l-2.5-2.2c-0.4-0.3-0.9-0.4-1.3-0.1l-2.6,1.7c-0.1,0.1-0.3,0.1-0.4,0l-1.5-0.9
	c-0.1-0.1-0.2-0.2-0.2-0.3l-0.5-3.3c-0.1-0.5-0.6-0.9-1.1-0.9h-3.3c-0.5,0-0.9,0.3-1.1,0.8l-1,3c0,0.1-0.2,0.3-0.3,0.3l-1.8,0.3
	c-0.1,0-0.2,0-0.3-0.1l-3-1.9c-0.4-0.3-1-0.2-1.3,0.1l-2.2,2c-0.4,0.3-0.5,0.8-0.3,1.2l1,3c0,0.1,0,0.2,0,0.3l-1,1.5
	c-0.1,0.1-0.1,0.1-0.2,0.1h-3.3c-0.5,0-1,0.3-1.1,0.8L25.9,46c-0.1,0.5,0.1,1,0.6,1.3l2.8,1.4c0.1,0,0.1,0.1,0.1,0.2v2.3
	c0,0.1,0,0.2-0.1,0.2L27,53.5c-0.4,0.3-0.5,0.9-0.2,1.4l1.6,3c0.2,0.4,0.7,0.7,1.2,0.6l3.2-0.8c0.1,0,0.2,0,0.3,0.1l1.3,1.3
	c0.1,0.1,0.1,0.2,0.1,0.3l-0.6,3.3c-0.1,0.5,0.2,1,0.7,1.2l3.2,1.4c0.5,0.2,1,0,1.3-0.4l2-2.7c0-0.1,0.1-0.1,0.2-0.1l1.8,0.2
	c0.1,0,0.1,0,0.2,0.1l1.8,3c0.2,0.4,0.6,0.6,1,0.6c0.1,0,0.2,0,0.3,0l3.4-1c0.5-0.1,0.9-0.6,0.8-1.2l-0.3-3.6l1.8-1.7
	c0.1-0.1,0.2-0.1,0.3-0.1L55,60c0.5,0.3,1.1,0.1,1.5-0.3l2-2.7v-0.1l0.1-0.1v-0.1c0,0,0-0.1,0-0.1c0,0,0-0.1,0-0.1c0,0,0-0.1,0-0.1
	c0,0,0-0.1,0-0.1c0,0,0-0.1,0-0.1c0,0,0-0.1,0-0.1V56v-0.1v-0.1l-0.1-0.1v-0.1l-2-2.3c-0.1-0.1-0.1-0.2-0.1-0.3l0.4-2.1
	c0-0.1,0.1-0.2,0.2-0.3l3-1c0.5-0.2,0.8-0.7,0.8-1.2L60.4,45.2z"/>
<path fill="#663398" d="M43.4,52.1c-1.7,0-3-1.3-3-3s1.3-3,3-3s3,1.3,3,3S45,52.1,43.4,52.1z M43.4,43.9c-2.9,0-5.2,2.3-5.2,5.2
	s2.3,5.2,5.2,5.2c2.9,0,5.2-2.3,5.2-5.2C48.6,46.2,46.2,43.9,43.4,43.9z"/>
</svg>
