<?xml version="1.0" encoding="utf-8"?>
<!-- Generator: Adobe Illustrator 21.0.2, SVG Export Plug-In . SVG Version: 6.00 Build 0)  -->
<svg version="1.1" id="Layer_1" xmlns="http://www.w3.org/2000/svg" xmlns:xlink="http://www.w3.org/1999/xlink" x="0px" y="0px"
	 width="16px" height="15px" viewBox="0 0 16 15" enable-background="new 0 0 16 15" xml:space="preserve">
<path id="ic_passageiro" fill="#999999" d="M0.6,15L0.6,15c0.4,0,0.6-0.3,0.6-0.6c-0.1-0.7,0-1.8,0.9-2.1c3.3-0.8,4.4-1.9,4.8-2.6
	c0.3,0.1,0.7,0.1,1,0.1H8c0.4,0,0.8-0.1,1.1-0.2c0.4,0.7,1.5,1.8,4.8,2.6c1,0.2,1,1.4,1,2.1c0,0.3,0.2,0.6,0.5,0.6h0
	c0.3,0,0.6-0.2,0.6-0.5c0.1-1.8-0.5-2.9-1.8-3.3c-2.9-0.7-3.8-1.6-4-2c0.2-0.1,0.4-0.3,0.6-0.5C12.3,7,12,4.2,12,4
	c0.1-2.1-1.6-3.9-3.7-4C8.2,0,8.1,0,8,0H7.9C5.8-0.1,4,1.6,3.9,3.7c0,0.1,0,0.2,0,0.3c0,0.3-0.3,3.1,1.2,4.7
	c0.2,0.2,0.4,0.4,0.7,0.6C5.7,9.4,5.7,9.5,5.6,9.6c-1.1,0.8-2.4,1.4-3.7,1.6c-1.3,0.3-2,1.5-1.8,3.3C0,14.8,0.3,15,0.6,15z M5.1,4.1
	L5.1,4.1c-0.1-1.5,1-2.8,2.5-3c0.1,0,0.2,0,0.3,0H8c0.6,0,2.7,0.2,2.8,2.9v0c0.2,1.4-0.2,2.7-0.9,3.9C9.4,8.5,8.7,8.8,7.9,8.7h0
	C7.2,8.8,6.5,8.5,6,7.9C4.8,6.6,5.1,4.1,5.1,4.1L5.1,4.1z"/>
</svg>
