<?xml version="1.0" encoding="utf-8"?>
<!-- Generator: Adobe Illustrator 21.0.2, SVG Export Plug-In . SVG Version: 6.00 Build 0)  -->
<svg version="1.1" id="Layer_1" xmlns="http://www.w3.org/2000/svg" xmlns:xlink="http://www.w3.org/1999/xlink" x="0px" y="0px"
	 width="15px" height="20px" viewBox="0 0 15 20" enable-background="new 0 0 15 20" xml:space="preserve">
<path id="ic_pin_copy" fill="#777777" d="M7.5,20c-0.8,0-2.9-2.3-4.2-3.9C1.8,14,0,10.9,0,7.6c0-4.1,3.4-7.5,7.5-7.5S15,3.5,15,7.6
	c0,3.3-1.9,6.4-3.4,8.4C10.4,17.7,8.2,20,7.5,20z M7.5,1.2C4,1.2,1.1,4.1,1.1,7.6c0,5.1,5.1,10.4,6.4,11.2c1.1-0.8,6.4-6,6.4-11.2
	C13.9,4.1,11,1.2,7.5,1.2z M7.5,11c-1.8,0-3.4-1.4-3.4-3.3c0-1.8,1.4-3.4,3.3-3.4c1.8,0,3.4,1.4,3.4,3.3c0,0,0,0,0,0.1
	C10.8,9.5,9.3,10.9,7.5,11z M7.5,5.5c-1.2,0-2.2,0.9-2.2,2.1c0,1.2,0.9,2.2,2.1,2.2c1.2,0,2.2-0.9,2.2-2.1c0,0,0,0,0,0
	C9.6,6.5,8.7,5.5,7.5,5.5z"/>
</svg>
