<?xml version="1.0" encoding="utf-8"?>
<!-- Generator: Adobe Illustrator 22.0.1, SVG Export Plug-In . SVG Version: 6.00 Build 0)  -->
<svg version="1.1" id="Layer_1" xmlns="http://www.w3.org/2000/svg" xmlns:xlink="http://www.w3.org/1999/xlink" x="0px" y="0px"
	 width="26px" height="26px" viewBox="0 0 26 26" enable-background="new 0 0 26 26" xml:space="preserve">
<g>
	<g>
		<path fill="#A5A5A5" d="M25.5,0.5C25.2,0.2,24.8,0,24.3,0l-9.2,0.4c-0.9,0-2,0.5-2.6,1.1l-12,12C0.2,13.8,0,14.3,0,14.8
			s0.2,0.9,0.5,1.3l9.4,9.4c0.3,0.3,0.8,0.5,1.3,0.5s0.9-0.2,1.3-0.5l12.9-12.9c0.1-0.1,0.1-0.2,0.1-0.3L26,1.8
			C26,1.3,25.9,0.9,25.5,0.5z M24.6,12L11.9,24.8c-0.3,0.3-0.9,0.3-1.2,0l-9.4-9.4c-0.3-0.3-0.3-0.9,0-1.2l12-12
			c0.4-0.4,1.4-0.8,2-0.9l9.2-0.4c0.2,0,0.4,0.1,0.5,0.2s0.2,0.3,0.2,0.6L24.6,12z M20.8,2.9c-1.2,0-2.3,1-2.3,2.3
			c0,1.2,1,2.3,2.3,2.3c1.2,0,2.3-1,2.3-2.3C23.1,4,22,2.9,20.8,2.9z M20.8,6.5c-0.7,0-1.3-0.6-1.3-1.3s0.6-1.3,1.3-1.3
			c0.7,0,1.3,0.6,1.3,1.3C22.1,5.9,21.5,6.5,20.8,6.5z M17.1,9.5L16.5,9l-0.7,0.7c-0.7-0.6-1.4-0.9-2.1-1s-1.3,0.2-1.9,0.7
			c-1,1-0.8,2.3,0.3,3.9l-2.6,2.6c-0.7-0.9-0.6-1.7,0-2.6l-1-1c-1.1,1.3-1,2.7,0.3,4.3l-0.7,0.7l0.6,0.6l0.7-0.7
			c0.7,0.7,1.5,1,2.3,1s1.5-0.3,2-0.8s0.8-1.1,0.7-1.7c0-0.6-0.4-1.4-1.1-2.5l2.3-2.3c0.6,0.7,0.6,1.4,0.1,2l1,1
			c0.9-1.1,0.8-2.4-0.4-3.7L17.1,9.5z M12.6,16.4c-0.8,0.8-1.6,0.8-2.5,0.1l2.4-2.4c0.4,0.6,0.6,1.1,0.5,1.4
			C13.1,15.8,13,16.1,12.6,16.4z M12.9,12.6c-0.3-0.4-0.4-0.8-0.5-1.1c0-0.4,0.1-0.7,0.4-1.1c0.6-0.6,1.4-0.6,2.2,0L12.9,12.6z"/>
	</g>
</g>
</svg>
