<?xml version="1.0" encoding="utf-8"?>
<!-- Generator: Adobe Illustrator 21.0.2, SVG Export Plug-In . SVG Version: 6.00 Build 0)  -->
<svg version="1.1" id="Layer_1" xmlns="http://www.w3.org/2000/svg" xmlns:xlink="http://www.w3.org/1999/xlink" x="0px" y="0px"
	 width="14px" height="19px" viewBox="0 0 14 19" enable-background="new 0 0 14 19" xml:space="preserve">
<path id="ic_pagamento" fill="#777777" d="M6.7,6.8v1C6.4,7.8,6.2,7.9,6,8C5.7,8.1,5.5,8.3,5.3,8.5C5.1,8.8,5.1,9.1,5.1,9.3
	c0,0.2,0.1,0.5,0.2,0.7c0.1,0.2,0.3,0.4,0.6,0.5c0.3,0.2,0.7,0.3,1,0.4c0.5,0.1,0.8,0.2,1,0.3c0.2,0.1,0.4,0.2,0.5,0.3
	c0.1,0.1,0.2,0.3,0.2,0.5c0,0.2-0.1,0.3-0.2,0.5c-0.1,0.2-0.3,0.3-0.5,0.3C7.6,13,7.4,13,7.1,13c-0.3,0-0.6-0.1-0.8-0.2
	c-0.2-0.1-0.4-0.2-0.5-0.4c-0.1-0.2-0.2-0.5-0.2-0.7l-0.7,0.1c0,0.4,0.1,0.7,0.3,1c0.2,0.3,0.4,0.5,0.8,0.7c0.2,0.1,0.5,0.2,0.7,0.2
	v0.9h0.7v-0.9h0c0.3,0,0.6-0.1,0.8-0.2c0.3-0.1,0.5-0.4,0.7-0.6c0.2-0.3,0.2-0.6,0.2-0.9c0-0.3-0.1-0.6-0.2-0.8
	c-0.2-0.3-0.4-0.5-0.7-0.6c-0.4-0.2-0.8-0.3-1.2-0.4C6.6,10.1,6.3,10,6,9.8C5.8,9.7,5.7,9.5,5.7,9.3C5.7,9,5.9,8.8,6,8.7
	C6.3,8.5,6.7,8.4,7,8.4c0.3,0,0.7,0.1,0.9,0.3c0.2,0.2,0.4,0.5,0.4,0.8L9,9.5c0-0.3-0.1-0.6-0.3-0.9C8.6,8.3,8.3,8.1,8,8
	C7.8,7.9,7.6,7.8,7.3,7.8v-1H6.7L6.7,6.8z M9.3,1L13,5H9.3V1z M0.6,0.6h8.2v4.7c0,0.2,0.1,0.3,0.3,0.3c0,0,0,0,0,0h4.4v12.8H0.6
	L0.6,0.6L0.6,0.6z M9,0L9,0C9,0,9,0,9,0L0.3,0C0.1,0,0,0.1,0,0.3v18.4C0,18.9,0.1,19,0.3,19h13.4c0.2,0,0.3-0.1,0.3-0.3V5.3
	c0-0.1,0-0.2-0.1-0.3L9.2,0.1C9.2,0,9.1,0,9,0L9,0z"/>
</svg>
