<?xml version="1.0" encoding="utf-8"?>
<!-- Generator: Adobe Illustrator 21.0.2, SVG Export Plug-In . SVG Version: 6.00 Build 0)  -->
<svg version="1.1" id="Layer_1" xmlns="http://www.w3.org/2000/svg" xmlns:xlink="http://www.w3.org/1999/xlink" x="0px" y="0px"
	 width="17px" height="16px" viewBox="0 0 17 16" enable-background="new 0 0 17 16" xml:space="preserve">
<path id="btn:_imprimir" opacity="0.7" fill="#777777" enable-background="new    " d="M11.3,13H5.7c-0.3,0-0.4,0.2-0.4,0.5
	c0,0.2,0.2,0.4,0.4,0.4h5.5c0.3,0,0.4-0.2,0.4-0.5C11.7,13.2,11.5,13,11.3,13z M11.3,10.7H5.7c-0.3,0-0.4,0.2-0.4,0.5
	c0,0.2,0.2,0.4,0.4,0.4h5.5c0.3,0,0.4-0.2,0.4-0.5C11.7,10.9,11.5,10.8,11.3,10.7z M11.3,10.7H5.7c-0.3,0-0.4,0.2-0.4,0.5
	c0,0.2,0.2,0.4,0.4,0.4h5.5c0.3,0,0.4-0.2,0.4-0.5C11.7,10.9,11.5,10.8,11.3,10.7z M11.3,13H5.7c-0.3,0-0.4,0.2-0.4,0.5
	c0,0.2,0.2,0.4,0.4,0.4h5.5c0.3,0,0.4-0.2,0.4-0.5C11.7,13.2,11.5,13,11.3,13z M5.7,13.9h5.5c0.3,0,0.4-0.2,0.4-0.5
	c0-0.2-0.2-0.4-0.4-0.4H5.7c-0.3,0-0.4,0.2-0.4,0.5C5.3,13.7,5.5,13.9,5.7,13.9L5.7,13.9z M5.7,11.7h5.5c0.3,0,0.4-0.2,0.4-0.5
	c0-0.2-0.2-0.4-0.4-0.4H5.7c-0.3,0-0.4,0.2-0.4,0.5C5.3,11.5,5.5,11.6,5.7,11.7z M16.2,11c0,0.5-0.4,0.9-0.8,0.9h-1.5V9.1
	c0-0.2-0.2-0.4-0.4-0.4H3.6c-0.2,0-0.4,0.2-0.4,0.4v2.8H1.7c-0.5,0-0.9-0.4-0.8-0.9V5.5c0-0.5,0.4-0.9,0.8-0.9h13.6
	c0.5,0,0.9,0.4,0.8,0.9L16.2,11L16.2,11z M13,15.1H4V9.6H13V15.1z M4,0.9H13v2.7H4V0.9z M15.3,3.7h-1.5V0.5c0-0.2-0.2-0.4-0.4-0.5
	H3.6C3.4,0,3.2,0.2,3.2,0.5v3.2H1.7C0.7,3.7,0,4.5,0,5.5V11c0,1,0.7,1.8,1.7,1.8h1.5v2.7c0,0.2,0.2,0.4,0.4,0.5h9.8
	c0.2,0,0.4-0.2,0.4-0.5v-2.7h1.5c1,0,1.7-0.9,1.7-1.8V5.5C17,4.5,16.3,3.7,15.3,3.7z M11.3,13H5.7c-0.3,0-0.4,0.2-0.4,0.5
	c0,0.2,0.2,0.4,0.4,0.4h5.5c0.3,0,0.4-0.2,0.4-0.5C11.7,13.2,11.5,13,11.3,13z M5.7,11.7h5.5c0.3,0,0.4-0.2,0.4-0.5
	c0-0.2-0.2-0.4-0.4-0.4H5.7c-0.3,0-0.4,0.2-0.4,0.5C5.3,11.5,5.5,11.6,5.7,11.7z M11.3,10.7H5.7c-0.3,0-0.4,0.2-0.4,0.5
	c0,0.2,0.2,0.4,0.4,0.4h5.5c0.3,0,0.4-0.2,0.4-0.5C11.7,10.9,11.5,10.8,11.3,10.7z M11.3,13H5.7c-0.3,0-0.4,0.2-0.4,0.5
	c0,0.2,0.2,0.4,0.4,0.4h5.5c0.3,0,0.4-0.2,0.4-0.5C11.7,13.2,11.5,13,11.3,13z M11.3,13H5.7c-0.3,0-0.4,0.2-0.4,0.5
	c0,0.2,0.2,0.4,0.4,0.4h5.5c0.3,0,0.4-0.2,0.4-0.5C11.7,13.2,11.5,13,11.3,13z M11.3,10.7H5.7c-0.3,0-0.4,0.2-0.4,0.5
	c0,0.2,0.2,0.4,0.4,0.4h5.5c0.3,0,0.4-0.2,0.4-0.5C11.7,10.9,11.5,10.8,11.3,10.7z M11.3,13H5.7c-0.3,0-0.4,0.2-0.4,0.5
	c0,0.2,0.2,0.4,0.4,0.4h5.5c0.3,0,0.4-0.2,0.4-0.5C11.7,13.2,11.5,13,11.3,13z M11.3,10.7H5.7c-0.3,0-0.4,0.2-0.4,0.5
	c0,0.2,0.2,0.4,0.4,0.4h5.5c0.3,0,0.4-0.2,0.4-0.5C11.7,10.9,11.5,10.8,11.3,10.7z M17,11V5.5 M0,11V5.5 M16.2,11V5.5 M16.2,11V5.5"
	/>
</svg>
