<?xml version="1.0" encoding="utf-8"?>
<!-- Generator: Adobe Illustrator 21.0.2, SVG Export Plug-In . SVG Version: 6.00 Build 0)  -->
<svg version="1.1" id="Layer_1" xmlns="http://www.w3.org/2000/svg" xmlns:xlink="http://www.w3.org/1999/xlink" x="0px" y="0px"
	 width="16px" height="16px" viewBox="0 0 16 16" enable-background="new 0 0 16 16" xml:space="preserve">
<path id="Forma_1355" fill="#999999" d="M8,11.7c-0.4,0-0.7,0.3-0.8,0.7c0,0.4,0.3,0.7,0.7,0.8c0.4,0,0.7-0.3,0.8-0.7
	C8.8,12.1,8.4,11.7,8,11.7C8,11.7,8,11.7,8,11.7z M8,2.8c-1.4,0-2.7,0.9-3.2,2.3C4.8,5.4,5,5.7,5.2,5.8c0.2,0,0.3,0,0.4-0.1
	c0.1-0.1,0.2-0.2,0.2-0.4C6.3,4.5,7.1,3.9,8,3.9c0.5,0,1,0.2,1.4,0.5C9.8,4.7,10,5.1,10,5.6c0,0.4-0.1,0.8-0.3,1.1
	C9.5,6.9,9.3,7.1,9,7.3C8.5,7.6,8.2,8,7.9,8.4C7.6,9.2,7.4,10,7.4,10.8c0,0.3,0.3,0.6,0.6,0.6c0.3,0,0.6-0.3,0.6-0.6
	c0-0.6,0.1-1.2,0.3-1.8c0.2-0.3,0.4-0.6,0.7-0.8c0.4-0.2,0.7-0.5,1-0.8c0.4-0.5,0.6-1.2,0.5-1.8c0-0.8-0.4-1.5-1-2
	C9.5,3.1,8.8,2.8,8,2.8L8,2.8L8,2.8z M8,1.1c3.8,0,6.9,3.1,6.9,6.9s-3.1,6.9-6.9,6.9S1.1,11.8,1.1,8C1.1,4.2,4.2,1.1,8,1.1
	C8,1.1,8,1.1,8,1.1L8,1.1z M8,0C3.6,0,0,3.6,0,8s3.6,8,8,8s8-3.6,8-8C16,3.6,12.4,0,8,0L8,0z"/>
</svg>
