<?xml version="1.0" encoding="utf-8"?>
<!-- Generator: Adobe Illustrator 22.0.1, SVG Export Plug-In . SVG Version: 6.00 Build 0)  -->
<svg version="1.1" id="Layer_1" xmlns="http://www.w3.org/2000/svg" xmlns:xlink="http://www.w3.org/1999/xlink" x="0px" y="0px"
	 width="30px" height="21px" viewBox="0 0 30 21" enable-background="new 0 0 30 21" xml:space="preserve">
<g>
	<g>
		<path fill="#A5A5A5" d="M28.2,4.2l-0.3-2C27.6,0.9,26.4,0,25,0c-0.2,0-0.4,0-0.6,0.1L2.6,3.9C1.1,4.1,0,5.3,0,6.7c0,0,0,0,0,0.1
			v11.4C0,19.7,1.4,21,3.2,21h23.6c1.8,0,3.2-1.3,3.2-2.9V6.7C30,5.6,29.3,4.6,28.2,4.2z M24.5,1c0.1,0,0.3,0,0.4,0
			c1,0,1.8,0.6,1.9,1.4l0.3,1.5c-0.1,0-0.3,0-0.4,0H8.1L24.5,1z M29.1,18.1c0,1.1-1,1.9-2.3,1.9H9.4v-1.4h-1V20H3.2
			c-1.2,0-2.3-0.9-2.3-1.9V6.7c0-1.1,1-1.9,2.3-1.9h5.2v0.6h0.9V4.8h17.4c1.2,0,2.3,0.9,2.3,1.9v11.4H29.1z M8.4,16.7h0.9v-1.9H8.4
			V16.7z M8.4,13h0.9v-1.9H8.4V13z M8.4,9.2h0.9V7.3H8.4V9.2z M24.1,8.6c-0.3-0.3-0.6-0.4-1-0.4S22.3,8.4,22,8.7l-1.2,1.2l-4.3-1.3
			l-0.9,0.9c-0.3,0.3-0.3,0.7,0,1l0,0l3,1.7l-1.2,1.2L16,13.1l-0.6,0.6c-0.1,0.1-0.2,0.3-0.2,0.4c0,0.2,0.1,0.3,0.2,0.4l2.6,2.6
			c0.1,0.1,0.3,0.2,0.4,0.2s0.3-0.1,0.4-0.2l0.6-0.6l-0.3-1.4l1.2-1.2L22,17l0,0c0.3,0.3,0.7,0.3,1,0l0.9-0.9l-1.3-4.4l1.3-1.2
			C24.7,10.1,24.7,9.1,24.1,8.6z M23.4,10l-1.7,1.6L23,16l-0.3,0.3l-2.1-3.7L18.2,15l0.3,1.4l-0.1,0.1l-2.1-2.1l0.1-0.1l1.4,0.3
			l2.4-2.4l-3.7-2l0.3-0.3l4.4,1.3l1.6-1.7c0.2-0.2,0.6-0.2,0.7,0C23.6,9.4,23.6,9.8,23.4,10z"/>
	</g>
</g>
</svg>
