<?xml version="1.0" encoding="UTF-8"?>
<svg width="19px" height="19px" viewBox="0 0 19 19" version="1.1" xmlns="http://www.w3.org/2000/svg" xmlns:xlink="http://www.w3.org/1999/xlink">
    <!-- Generator: sketchtool 51.3 (57544) - http://www.bohemiancoding.com/sketch -->
    <title>272C0FCC-757A-40E4-A9E6-E64E0489D35C</title>
    <desc>Created with sketchtool.</desc>
    <defs></defs>
    <circle id="Oval-3" cx="9.5" cy="9.5" r="9.5" fill="#7C7C7C"></circle>
    <g transform="translate(4,4)">
        <path id="ic_fechar" fill="#ffffff" transform="scale(0.7)"
    d="M10.3,8l5.2-5.2c0.7-0.6,0.7-1.7,0.1-2.3c-0.6-0.7-1.7-0.7-2.3-0.1c0,0,0,0-0.1,0.1L8,5.7
        L2.8,0.5c-0.6-0.6-1.7-0.7-2.3,0c0,0,0,0,0,0c-0.6,0.6-0.6,1.7,0,2.3L5.7,8l-5.2,5.2c-0.6,0.6-0.7,1.7,0,2.3s1.7,0.7,2.3,0
        c0,0,0,0,0,0L8,10.3l5.2,5.2c0.6,0.6,1.7,0.7,2.3,0s0.7-1.7,0-2.3c0,0,0,0,0,0L10.3,8z"/>
    </g>
</svg>