<?xml version="1.0" encoding="UTF-8"?>
<svg width="19px" height="19px" viewBox="0 0 19 19" version="1.1" xmlns="http://www.w3.org/2000/svg" xmlns:xlink="http://www.w3.org/1999/xlink">
    <!-- Generator: sketchtool 51.3 (57544) - http://www.bohemiancoding.com/sketch -->
    <title>272C0FCC-757A-40E4-A9E6-E64E0489D35C</title>
    <desc>Created with sketchtool.</desc>
    <defs></defs>
    <g id="Desktop---Produtos-e-serviços" stroke="none" stroke-width="1" fill="none" fill-rule="evenodd">
        <g id="03" transform="translate(-664.000000, -450.000000)">
            <g id="Group-3" transform="translate(378.000000, 450.000000)">
                <g id="Group-2-Copy-2" transform="translate(286.000000, 0.000000)">
                    <g id="Group">
                        <circle id="Oval-3" fill="#FF5A00" cx="9.5" cy="9.5" r="9.5"></circle>
                        <path d="M13.0861359,6 C12.7085034,6 12.3518506,6.15759312 12.1000956,6.42775276 L8.36573011,10.3225542 L6.37266989,8.22881703 C6.09993533,7.95865739 5.74328245,7.80106427 5.38662957,7.80106427 C5.0089971,7.80106427 4.65234422,7.95865739 4.40058925,8.22881703 C4.12785469,8.49897667 3.98099762,8.88170282 4.0019772,9.26442898 C4.0019772,9.64715514 4.14883427,10.0298813 4.40058925,10.3000409 L7.37968979,13.4293901 C7.65242435,13.6995497 8.00907723,13.8571429 8.36573011,13.8571429 C8.74336258,13.8571429 9.10001546,13.6995497 9.35177044,13.4293901 L14.0721762,8.49897667 C14.5966658,7.93614409 14.6176453,7.01309865 14.0931558,6.45026607 L14.0721762,6.42775276 C13.8204213,6.15759312 13.4637684,6 13.0861359,6 Z" id="Shape" fill="#FFFFFF" fill-rule="nonzero"></path>
                    </g>
                </g>
            </g>
        </g>
    </g>
</svg>