<?xml version="1.0" encoding="utf-8"?>
<!-- Generator: Adobe Illustrator 21.0.2, SVG Export Plug-In . SVG Version: 6.00 Build 0)  -->
<svg version="1.1" id="Layer_1" xmlns="http://www.w3.org/2000/svg" xmlns:xlink="http://www.w3.org/1999/xlink" x="0px" y="0px"
	 width="14px" height="16px" viewBox="0 0 14 16" enable-background="new 0 0 14 16" xml:space="preserve">
<path id="ic_share" opacity="0.7" fill="#777777" enable-background="new    " d="M11.3,11.7c0.9,0,1.6,0.7,1.6,1.6
	c0,0.9-0.7,1.6-1.6,1.6c-0.9,0-1.6-0.7-1.6-1.6C9.7,12.4,10.4,11.7,11.3,11.7C11.3,11.7,11.3,11.7,11.3,11.7z M2.7,6.4
	c0.9,0,1.6,0.7,1.6,1.6S3.6,9.6,2.7,9.6C1.8,9.6,1.1,8.9,1.1,8C1.1,7.1,1.8,6.4,2.7,6.4C2.7,6.4,2.7,6.4,2.7,6.4L2.7,6.4z M11.3,1.1
	c0.9,0,1.6,0.7,1.6,1.6c0,0.9-0.7,1.6-1.6,1.6c-0.9,0-1.6-0.7-1.6-1.6C9.7,1.8,10.4,1.1,11.3,1.1C11.3,1.1,11.3,1.1,11.3,1.1
	L11.3,1.1z M11.3,0C9.8,0,8.6,1.2,8.6,2.7c0,0.3,0,0.5,0.1,0.7L4.4,5.9C3.2,5,1.5,5.2,0.6,6.3C-0.3,7.5-0.2,9.1,1,10.1
	c0.5,0.4,1.1,0.6,1.7,0.6c0.6,0,1.2-0.2,1.7-0.6l4.4,2.5c-0.4,1.4,0.4,2.9,1.8,3.4s2.9-0.4,3.4-1.8c0.4-1.4-0.4-2.9-1.8-3.4
	c-0.3-0.1-0.5-0.1-0.8-0.1c-0.8,0-1.6,0.4-2.1,1L5.1,9.3c0.4-0.8,0.4-1.7,0-2.5C6.3,5.9,8,5.2,9.2,4.4c0.5,0.6,1.3,1,2.1,1
	c1.5,0,2.7-1.2,2.7-2.7S12.8,0,11.3,0C11.3,0,11.3,0,11.3,0L11.3,0z"/>
</svg>
