<?xml version="1.0" encoding="utf-8"?>
<!-- Generator: Adobe Illustrator 16.0.2, SVG Export Plug-In . SVG Version: 6.00 Build 0)  -->
<!DOCTYPE svg PUBLIC "-//W3C//DTD SVG 1.1//EN" "http://www.w3.org/Graphics/SVG/1.1/DTD/svg11.dtd">
<svg version="1.1" id="Camada_1" xmlns="http://www.w3.org/2000/svg" xmlns:xlink="http://www.w3.org/1999/xlink" x="0px" y="0px"
	 width="138.178px" height="22.333px" viewBox="389.267 354.473 138.178 22.333"
	 enable-background="new 389.267 354.473 138.178 22.333" xml:space="preserve">
<title>smiles_diamante</title>
<path fill="#FF9934" d="M462.806,369.65c-2.521,3.48-6.105,4.776-10.064,4.82c-4.137,0.053-7.891-1.207-10.563-4.854
	C449.076,373.823,455.92,374.142,462.806,369.65z"/>
<g enable-background="new    ">
	<path fill="#FF9934" d="M399.071,363.032l1.307-0.114c0.062,0.524,0.205,0.954,0.432,1.289c0.226,0.336,0.577,0.607,1.053,0.814
		c0.477,0.207,1.012,0.311,1.606,0.311c0.528,0,0.995-0.079,1.399-0.236c0.404-0.156,0.706-0.372,0.903-0.646
		s0.297-0.572,0.297-0.896c0-0.328-0.096-0.615-0.286-0.86s-0.505-0.451-0.942-0.617c-0.281-0.109-0.902-0.279-1.863-0.511
		c-0.962-0.23-1.635-0.448-2.021-0.653c-0.5-0.262-0.872-0.587-1.117-0.975c-0.246-0.388-0.368-0.822-0.368-1.303
		c0-0.528,0.15-1.022,0.45-1.481c0.3-0.46,0.737-0.809,1.313-1.046c0.576-0.238,1.216-0.357,1.921-0.357
		c0.775,0,1.46,0.125,2.053,0.375c0.592,0.25,1.048,0.617,1.367,1.104c0.318,0.485,0.49,1.035,0.514,1.648l-1.328,0.101
		c-0.071-0.662-0.313-1.161-0.725-1.5c-0.412-0.338-1.02-0.507-1.824-0.507c-0.838,0-1.448,0.154-1.831,0.461
		c-0.384,0.307-0.575,0.677-0.575,1.11c0,0.376,0.136,0.686,0.407,0.928c0.267,0.243,0.963,0.492,2.088,0.746
		c1.126,0.255,1.898,0.478,2.317,0.668c0.609,0.28,1.059,0.637,1.35,1.067c0.29,0.431,0.436,0.927,0.436,1.488
		c0,0.557-0.16,1.082-0.479,1.574c-0.319,0.493-0.777,0.876-1.375,1.149c-0.597,0.274-1.27,0.411-2.017,0.411
		c-0.947,0-1.741-0.139-2.381-0.414c-0.641-0.276-1.143-0.691-1.507-1.246S399.09,363.732,399.071,363.032z"/>
	<path fill="#FF9934" d="M409.131,366.395v-7.582h1.149v1.063c0.238-0.371,0.555-0.67,0.949-0.896
		c0.396-0.226,0.846-0.339,1.35-0.339c0.562,0,1.022,0.117,1.382,0.35c0.359,0.233,0.612,0.56,0.761,0.979
		c0.6-0.886,1.38-1.328,2.342-1.328c0.752,0,1.33,0.208,1.734,0.625c0.404,0.416,0.607,1.058,0.607,1.924v5.205h-1.278v-4.776
		c0-0.515-0.042-0.884-0.125-1.11c-0.083-0.226-0.234-0.408-0.453-0.546c-0.219-0.139-0.477-0.207-0.771-0.207
		c-0.533,0-0.976,0.177-1.328,0.531c-0.352,0.354-0.528,0.923-0.528,1.703v4.405h-1.285v-4.927c0-0.571-0.104-0.999-0.313-1.285
		c-0.21-0.285-0.553-0.428-1.028-0.428c-0.362,0-0.696,0.095-1.003,0.285c-0.308,0.19-0.53,0.469-0.668,0.836
		c-0.138,0.366-0.207,0.895-0.207,1.585v3.934H409.131z"/>
	<path fill="#FF9934" d="M421.318,357.406v-1.478h1.285v1.478H421.318z M421.318,366.395v-7.582h1.285v7.582H421.318z"/>
	<path fill="#FF9934" d="M424.531,366.395v-10.467h1.285v10.467H424.531z"/>
	<path fill="#FF9934" d="M432.999,363.954l1.328,0.164c-0.209,0.775-0.598,1.378-1.164,1.806c-0.566,0.429-1.29,0.643-2.17,0.643
		c-1.109,0-1.988-0.341-2.639-1.024c-0.649-0.683-0.975-1.641-0.975-2.873c0-1.276,0.329-2.266,0.985-2.971
		c0.657-0.704,1.509-1.057,2.557-1.057c1.014,0,1.842,0.346,2.484,1.035c0.643,0.69,0.964,1.661,0.964,2.913
		c0,0.076-0.003,0.19-0.007,0.343h-5.655c0.048,0.833,0.283,1.471,0.707,1.913c0.424,0.443,0.952,0.664,1.585,0.664
		c0.472,0,0.873-0.123,1.207-0.371C432.54,364.891,432.803,364.496,432.999,363.954z M428.779,361.876h4.234
		c-0.058-0.638-0.219-1.116-0.485-1.435c-0.41-0.495-0.94-0.743-1.593-0.743c-0.59,0-1.086,0.197-1.488,0.593
		S428.822,361.215,428.779,361.876z"/>
	<path fill="#FF9934" d="M435.427,364.132l1.271-0.199c0.071,0.509,0.271,0.899,0.596,1.171c0.326,0.271,0.782,0.406,1.368,0.406
		c0.59,0,1.027-0.12,1.313-0.36c0.285-0.24,0.428-0.522,0.428-0.846c0-0.29-0.126-0.519-0.378-0.686
		c-0.176-0.114-0.614-0.26-1.313-0.436c-0.942-0.238-1.596-0.443-1.96-0.617s-0.641-0.414-0.828-0.722
		c-0.188-0.307-0.282-0.646-0.282-1.018c0-0.338,0.077-0.65,0.232-0.938c0.154-0.288,0.365-0.527,0.632-0.718
		c0.199-0.147,0.472-0.272,0.817-0.375c0.345-0.102,0.715-0.153,1.11-0.153c0.595,0,1.117,0.086,1.566,0.257
		c0.45,0.172,0.782,0.403,0.996,0.696c0.215,0.293,0.362,0.685,0.443,1.175l-1.257,0.171c-0.058-0.39-0.223-0.694-0.496-0.914
		c-0.274-0.219-0.661-0.328-1.16-0.328c-0.591,0-1.012,0.098-1.264,0.293c-0.253,0.195-0.379,0.424-0.379,0.686
		c0,0.166,0.053,0.316,0.157,0.449c0.104,0.139,0.269,0.253,0.492,0.343c0.129,0.048,0.507,0.157,1.136,0.329
		c0.909,0.242,1.543,0.441,1.902,0.596c0.359,0.155,0.642,0.38,0.847,0.675c0.204,0.295,0.307,0.662,0.307,1.1
		c0,0.429-0.125,0.832-0.375,1.21c-0.25,0.379-0.61,0.671-1.081,0.878c-0.472,0.207-1.005,0.311-1.6,0.311
		c-0.985,0-1.736-0.204-2.253-0.613S435.569,364.936,435.427,364.132z"/>
</g>
<g enable-background="new    ">
	<path fill="#FF9934" d="M463.594,365.623v-10.467h3.605c0.814,0,1.436,0.05,1.863,0.149c0.601,0.139,1.111,0.389,1.535,0.75
		c0.553,0.467,0.966,1.063,1.239,1.789c0.273,0.726,0.41,1.555,0.41,2.487c0,0.796-0.093,1.5-0.278,2.114
		c-0.186,0.613-0.424,1.122-0.714,1.523c-0.29,0.402-0.608,0.72-0.953,0.95s-0.762,0.405-1.249,0.524
		c-0.488,0.119-1.049,0.179-1.682,0.179H463.594z M464.98,364.387h2.234c0.69,0,1.231-0.064,1.624-0.192
		c0.393-0.129,0.706-0.31,0.939-0.543c0.328-0.328,0.584-0.77,0.768-1.324c0.183-0.555,0.274-1.227,0.274-2.017
		c0-1.095-0.18-1.937-0.539-2.524s-0.796-0.981-1.311-1.182c-0.371-0.143-0.968-0.214-1.792-0.214h-2.198V364.387z"/>
	<path fill="#FF9934" d="M473.997,356.634v-1.478h1.285v1.478H473.997z M473.997,365.623v-7.582h1.285v7.582H473.997z"/>
	<path fill="#FF9934" d="M482.187,364.687c-0.477,0.405-0.935,0.69-1.375,0.857c-0.44,0.166-0.912,0.249-1.417,0.249
		c-0.833,0-1.474-0.203-1.921-0.61c-0.447-0.406-0.671-0.927-0.671-1.56c0-0.371,0.084-0.711,0.254-1.018
		c0.169-0.307,0.39-0.554,0.664-0.739c0.273-0.186,0.581-0.325,0.924-0.421c0.253-0.066,0.633-0.131,1.143-0.192
		c1.038-0.124,1.802-0.271,2.292-0.443c0.005-0.176,0.007-0.288,0.007-0.335c0-0.523-0.121-0.893-0.364-1.107
		c-0.328-0.29-0.816-0.436-1.463-0.436c-0.604,0-1.051,0.106-1.339,0.318s-0.501,0.587-0.64,1.124l-1.256-0.171
		c0.114-0.538,0.302-0.973,0.563-1.303c0.262-0.331,0.641-0.586,1.136-0.765c0.495-0.178,1.068-0.268,1.721-0.268
		c0.646,0,1.173,0.076,1.577,0.229c0.405,0.152,0.702,0.344,0.893,0.575c0.19,0.23,0.324,0.522,0.4,0.874
		c0.043,0.219,0.064,0.614,0.064,1.186v1.714c0,1.194,0.027,1.95,0.082,2.267s0.163,0.62,0.324,0.91h-1.342
		C482.31,365.356,482.225,365.045,482.187,364.687z M482.08,361.817c-0.467,0.19-1.166,0.353-2.1,0.485
		c-0.528,0.076-0.901,0.162-1.12,0.258c-0.22,0.095-0.389,0.234-0.507,0.417c-0.119,0.184-0.179,0.387-0.179,0.61
		c0,0.343,0.129,0.629,0.389,0.857s0.64,0.343,1.139,0.343c0.495,0,0.936-0.108,1.321-0.325s0.669-0.513,0.85-0.889
		c0.138-0.291,0.207-0.719,0.207-1.285V361.817z"/>
	<path fill="#FF9934" d="M485.371,365.623v-7.582h1.149v1.063c0.238-0.371,0.555-0.67,0.949-0.896
		c0.396-0.226,0.846-0.339,1.35-0.339c0.562,0,1.022,0.117,1.382,0.35c0.359,0.233,0.612,0.56,0.761,0.979
		c0.6-0.886,1.38-1.328,2.342-1.328c0.752,0,1.33,0.208,1.734,0.625c0.404,0.416,0.607,1.058,0.607,1.924v5.205h-1.278v-4.776
		c0-0.515-0.042-0.884-0.125-1.11c-0.083-0.226-0.234-0.408-0.453-0.546c-0.219-0.139-0.477-0.207-0.771-0.207
		c-0.533,0-0.976,0.177-1.328,0.531c-0.352,0.354-0.528,0.923-0.528,1.703v4.405h-1.285v-4.927c0-0.571-0.104-0.999-0.313-1.285
		c-0.21-0.285-0.553-0.428-1.028-0.428c-0.362,0-0.696,0.095-1.003,0.285c-0.308,0.19-0.53,0.469-0.668,0.836
		c-0.138,0.366-0.207,0.895-0.207,1.585v3.934H485.371z"/>
	<path fill="#FF9934" d="M502.5,364.687c-0.477,0.405-0.935,0.69-1.375,0.857c-0.44,0.166-0.912,0.249-1.417,0.249
		c-0.833,0-1.474-0.203-1.921-0.61c-0.447-0.406-0.671-0.927-0.671-1.56c0-0.371,0.084-0.711,0.254-1.018
		c0.169-0.307,0.39-0.554,0.664-0.739c0.273-0.186,0.581-0.325,0.924-0.421c0.253-0.066,0.633-0.131,1.143-0.192
		c1.038-0.124,1.802-0.271,2.292-0.443c0.005-0.176,0.007-0.288,0.007-0.335c0-0.523-0.121-0.893-0.364-1.107
		c-0.328-0.29-0.816-0.436-1.463-0.436c-0.604,0-1.051,0.106-1.339,0.318s-0.501,0.587-0.64,1.124l-1.256-0.171
		c0.114-0.538,0.302-0.973,0.563-1.303c0.262-0.331,0.641-0.586,1.136-0.765c0.495-0.178,1.068-0.268,1.721-0.268
		c0.646,0,1.173,0.076,1.577,0.229c0.405,0.152,0.702,0.344,0.893,0.575c0.19,0.23,0.324,0.522,0.4,0.874
		c0.043,0.219,0.064,0.614,0.064,1.186v1.714c0,1.194,0.027,1.95,0.082,2.267s0.163,0.62,0.324,0.91h-1.342
		C502.623,365.356,502.538,365.045,502.5,364.687z M502.392,361.817c-0.467,0.19-1.166,0.353-2.1,0.485
		c-0.528,0.076-0.901,0.162-1.12,0.258c-0.22,0.095-0.389,0.234-0.507,0.417c-0.119,0.184-0.179,0.387-0.179,0.61
		c0,0.343,0.129,0.629,0.389,0.857s0.64,0.343,1.139,0.343c0.495,0,0.936-0.108,1.321-0.325s0.669-0.513,0.85-0.889
		c0.138-0.291,0.207-0.719,0.207-1.285V361.817z"/>
	<path fill="#FF9934" d="M505.683,365.623v-7.582h1.156v1.078c0.558-0.833,1.361-1.25,2.414-1.25c0.456,0,0.877,0.082,1.26,0.246
		c0.383,0.165,0.67,0.38,0.86,0.646s0.323,0.583,0.399,0.949c0.048,0.238,0.071,0.655,0.071,1.25v4.662h-1.285v-4.612
		c0-0.523-0.05-0.915-0.149-1.175c-0.1-0.259-0.277-0.466-0.532-0.621c-0.255-0.154-0.553-0.231-0.896-0.231
		c-0.548,0-1.021,0.174-1.418,0.521c-0.397,0.348-0.596,1.007-0.596,1.979v4.141H505.683z"/>
	<path fill="#FF9934" d="M516.621,364.473l0.186,1.135c-0.361,0.076-0.686,0.114-0.971,0.114c-0.467,0-0.828-0.073-1.085-0.221
		s-0.438-0.342-0.543-0.582s-0.157-0.746-0.157-1.518v-4.362h-0.942v-0.999h0.942v-1.878l1.278-0.771v2.649h1.292v0.999h-1.292
		v4.434c0,0.367,0.022,0.603,0.067,0.707c0.046,0.104,0.119,0.188,0.222,0.25s0.249,0.093,0.439,0.093
		C516.2,364.523,516.387,364.507,516.621,364.473z"/>
	<path fill="#FF9934" d="M523.068,363.181l1.328,0.164c-0.209,0.775-0.598,1.378-1.164,1.806c-0.566,0.429-1.29,0.643-2.17,0.643
		c-1.109,0-1.988-0.341-2.639-1.024c-0.649-0.683-0.975-1.641-0.975-2.873c0-1.276,0.329-2.266,0.985-2.971
		c0.657-0.704,1.509-1.057,2.557-1.057c1.014,0,1.842,0.346,2.484,1.035c0.643,0.69,0.964,1.661,0.964,2.913
		c0,0.076-0.003,0.19-0.007,0.343h-5.655c0.048,0.833,0.283,1.471,0.707,1.913c0.424,0.443,0.952,0.664,1.585,0.664
		c0.472,0,0.873-0.123,1.207-0.371C522.609,364.119,522.873,363.723,523.068,363.181z M518.848,361.103h4.234
		c-0.058-0.638-0.219-1.116-0.485-1.435c-0.41-0.495-0.94-0.743-1.593-0.743c-0.59,0-1.086,0.197-1.488,0.593
		S518.891,360.442,518.848,361.103z"/>
</g>
</svg>
