<?xml version="1.0" encoding="utf-8"?>
<!-- Generator: Adobe Illustrator 16.0.2, SVG Export Plug-In . SVG Version: 6.00 Build 0)  -->
<!DOCTYPE svg PUBLIC "-//W3C//DTD SVG 1.1//EN" "http://www.w3.org/Graphics/SVG/1.1/DTD/svg11.dtd">
<svg version="1.1" id="Layer_1" xmlns="http://www.w3.org/2000/svg" xmlns:xlink="http://www.w3.org/1999/xlink" x="0px" y="0px"
	 width="25.375px" height="20.625px" viewBox="-3.75 0 25.375 20.625" enable-background="new -3.75 0 25.375 20.625"
	 xml:space="preserve">
<g>
	<g>
		<path fill="#777777" d="M20.767,2.735c-0.132-0.019-3.34-0.519-5.141-0.519c-0.302,0-0.558-0.038-0.756-0.009
			c-1.158,0.16-4.321,0.98-5.442,1.226l0,0c-0.027,0-0.086-0.085-0.152-0.123C9.134,3.16,8.897,3.047,8.616,3.047
			c-0.169,0-0.34,0.066-0.5,0.16C7.805,3.396,6.549,4.273,6.059,4.613C5.89,4.575,5.644,4.537,5.342,4.537
			c-0.661,0-1.339,0.189-2.02,0.557C1.756,5.933,0.417,7.131,0.36,7.178c-0.377,0.321-0.916,1.105-0.557,1.944
			c0.226,0.548,0.188,0.68-0.18,1.256C-0.782,11-2.734,14.18-2.914,14.482c-0.311,0.414-0.519,1.046-0.104,1.462
			c0.321,0.33,1.227,0.688,1.5,0.793c0.774,0.273,4.104,1.254,4.236,1.292c0.028,0.008,0.292,0.085,0.651,0.085
			c0.453,0,1.104-0.123,1.622-0.718c0.708-0.82,2.897-3.641,2.983-3.764c0.018-0.029,0.548-0.708,0.462-1.557l0,0
			c0.188-0.086,0.405-0.255,0.659-0.565c0.048-0.058,0.097-0.114,0.143-0.17c0.359-0.437,0.821-0.974,0.773-2.19
			c-0.008-0.377-0.057-0.745-0.094-1.065c-0.066-0.52-0.132-1.066,0.027-1.199c0.453-0.387,0.5-0.803,0.481-1.047
			c1.207-0.312,4.152-1.076,5.218-1.227c0.18-0.029,0.405-0.038,0.688-0.038c1.614,0,4.246,0.415,4.274,0.424
			c0.142,0.02,0.312-0.019,0.415-0.104c0.104-0.095,0.198-0.227,0.198-0.368V3.217C21.2,2.981,21.002,2.773,20.767,2.735z
			 M9.313,6.16C8.758,6.632,8.853,7.396,8.956,8.208c0.038,0.31,0.073,0.641,0.084,0.98c0.027,0.858-0.226,1.16-0.548,1.538
			c-0.056,0.065-0.104,0.123-0.16,0.189c-0.17,0.216-0.281,0.273-0.312,0.293c-0.178,0.019-0.339,0.132-0.405,0.302l-0.132,0.338
			c-0.028,0.086-0.038,0.17-0.028,0.255c0.086,0.482-0.245,0.926-0.254,0.934c-0.02,0.028-2.255,2.926-2.954,3.718
			c-0.227,0.256-0.529,0.388-0.896,0.388c-0.207,0-0.368-0.048-0.368-0.048c-0.038-0.009-3.444-1.01-4.179-1.273
			c-0.396-0.151-0.896-0.377-1.086-0.519c0.02-0.076,0.085-0.199,0.142-0.274c0.009-0.009,0.019-0.027,0.028-0.037
			c0.019-0.038,2.132-3.472,2.538-4.104c0.443-0.68,0.679-1.162,0.264-2.152C0.511,8.321,0.992,7.896,0.992,7.886
			c0.009-0.009,1.321-1.169,2.783-1.953C4.313,5.642,4.842,5.5,5.342,5.5c0.378,0,0.614,0.085,0.614,0.085
			c0.15,0.065,0.33,0.046,0.461-0.047c0.5-0.349,1.832-1.274,2.172-1.491l0.007,0.01c0.076,0.178,0.143,0.376,0.219,0.584
			C8.974,5.104,9.144,5.585,9.445,5.99C9.418,6.056,9.352,6.122,9.313,6.16z M20.222,3.972c-0.981-0.124-2.653-0.349-3.889-0.349
			c-0.328,0-0.604,0.019-0.831,0.047c-1.158,0.16-4.34,0.98-5.463,1.283l-0.236-0.52c1.218-0.321,4.134-1.065,5.191-1.216
			c0.15-0.02,0.375-0.039,0.632-0.039c1.359,0,3.622,0.311,4.596,0.453V3.972z M5.89,10.367c-0.152-0.17-0.293-0.302-0.416-0.386
			c-0.472-0.33-1.765-0.443-2.151-0.473C3.144,9.5,2.983,9.585,2.889,9.726l-2.915,4.549c-0.133,0.208-0.085,0.49,0.113,0.641
			c0.34,0.265,2.104,1.567,3.094,1.567c0.085,0,0.17-0.011,0.246-0.028c1.424-0.322,3.284-2.868,3.369-4.218
			c0.038-0.566-0.397-1.293-0.822-1.783C5.935,10.425,5.917,10.396,5.89,10.367z M2.709,15.172c0,0.093,0.028,0.187,0.084,0.263
			c-0.49-0.18-1.208-0.622-1.773-1.02L3.53,10.49c0.103,0.01,0.198,0.02,0.302,0.029c-0.114,0.057-0.217,0.122-0.292,0.198
			C2.719,11.565,2.7,14.576,2.709,15.172z M3.643,15.321c0.019-0.048,0.029-0.104,0.029-0.161c-0.019-1.518,0.188-3.396,0.538-3.755
			c0.123-0.084,0.632-0.16,1.143-0.188c0.263,0.348,0.489,0.772,0.48,0.962C5.775,13.076,4.558,14.735,3.643,15.321z"/>
	</g>
</g>
</svg>
