<?xml version="1.0" encoding="utf-8"?>
<!-- Generator: Adobe Illustrator 22.0.1, SVG Export Plug-In . SVG Version: 6.00 Build 0)  -->
<svg version="1.1" id="Layer_1" xmlns="http://www.w3.org/2000/svg" xmlns:xlink="http://www.w3.org/1999/xlink" x="0px" y="0px"
	 width="30px" height="25px" viewBox="0 0 30 25" enable-background="new 0 0 30 25" xml:space="preserve">
<title>Group</title>
<desc>Created with Sketch.</desc>
<g>
	<path fill="#FFFFFF" d="M22.1,20.1c-1.3,0-2.3,1-2.3,2.3c0,1.3,1,2.3,2.3,2.3c1.3,0,2.3-1,2.3-2.3C24.5,21.2,23.4,20.1,22.1,20.1z"
		/>
	<path fill="#FFFFFF" d="M9.9,20.1c-1.3,0-2.3,1-2.3,2.3c0,1.3,1,2.3,2.3,2.3c1.3,0,2.3-1,2.3-2.3C12.2,21.2,11.2,20.1,9.9,20.1z"/>
	<path fill="#FFFFFF" d="M29.5,7.1c0-3.6-2.9-6.5-6.5-6.5s-6.5,2.9-6.5,6.5c0,0.2,0,0.4,0,0.6L8.8,7.2c-0.5,0-1.1-0.5-1.3-1L6.4,2
		C6.3,1.4,5.7,1,5.2,1H1C0.4,1,0,1.4,0,2v0.1c0,0.5,0.5,1,1,1h2.5c0.5,0,1.1,0.4,1.3,1l3.5,13c0.1,0.5,0.7,1,1.3,1h12.8
		c0.6,0,1.2-0.4,1.3-0.9l1.4-3.9C27.7,12.3,29.5,9.9,29.5,7.1z"/>
</g>
<circle fill="#E74646" cx="23" cy="7.1" r="5.6"/>
<g enable-background="new    ">
	<path fill="#FFFFFF" d="M22.7,4.4c0-0.1,0-0.2,0.1-0.3c0-0.1,0.1-0.1,0.2-0.2c0.1-0.1,0.2-0.1,0.3-0.1c0.1,0,0.2,0,0.3,0
		c0.1,0,0.2,0,0.3,0c0.1,0,0.2,0.1,0.3,0.1C24.2,4,24.2,4,24.3,4.1c0,0.1,0.1,0.2,0.1,0.3c0,0,0,0.1,0,0.1l-0.1,3.1
		c0,0.1,0,0.3-0.1,0.4c0,0.1-0.1,0.2-0.1,0.3s-0.1,0.2-0.2,0.2s-0.2,0.1-0.3,0.1s-0.2,0-0.3-0.1c-0.1,0-0.2-0.1-0.2-0.2
		c-0.1-0.1-0.1-0.2-0.1-0.3c0-0.1,0-0.2-0.1-0.4L22.7,4.4C22.7,4.4,22.7,4.4,22.7,4.4z M22.7,9.7c0-0.1,0-0.1,0.1-0.2
		s0.1-0.1,0.2-0.2c0.1-0.1,0.2-0.1,0.3-0.1c0.1,0,0.2,0,0.3,0c0.1,0,0.2,0,0.3,0c0.1,0,0.2,0.1,0.3,0.1s0.1,0.1,0.2,0.2
		c0,0.1,0.1,0.1,0.1,0.2c0,0.1,0,0.2-0.1,0.2c0,0.1-0.1,0.1-0.2,0.2c-0.1,0.1-0.2,0.1-0.3,0.1c-0.1,0-0.2,0-0.3,0
		c-0.1,0-0.2,0-0.3,0c-0.1,0-0.2-0.1-0.3-0.1c-0.1-0.1-0.1-0.1-0.2-0.2C22.7,9.8,22.7,9.8,22.7,9.7z"/>
</g>
</svg>
