<?xml version="1.0" encoding="utf-8"?>
<!-- Generator: Adobe Illustrator 22.0.1, SVG Export Plug-In . SVG Version: 6.00 Build 0)  -->
<svg version="1.1" id="Layer_1" xmlns="http://www.w3.org/2000/svg" xmlns:xlink="http://www.w3.org/1999/xlink" x="0px" y="0px"
	 width="18px" height="19px" viewBox="0 0 18 19" enable-background="new 0 0 18 19" xml:space="preserve">
<path id="ic_excluir" fill="#A5A5A5" d="M3,19C2.9,19,2.9,19,3,19c-0.5-0.1-0.7-0.4-0.8-0.8V6.1c0-0.4,0.2-0.7,0.5-0.8
	c0.4-0.2,1,0,1.2,0.4C4,5.8,4,5.9,4,6v11.2h10V6.1c0-0.3,0.1-0.6,0.4-0.8c0.4-0.3,1-0.2,1.3,0.2c0.1,0.1,0.2,0.3,0.2,0.5v12.1
	c0,0.4-0.2,0.7-0.6,0.9c-0.1,0-0.2,0-0.3,0H3z M7.3,1.1v1.2h3.4V1.1H7.3z M18,3.3v0.2c-0.1,0.4-0.4,0.6-0.8,0.7H0.9
	C0.5,4.1,0.1,3.8,0,3.4c0-0.1,0-0.1,0-0.2l0,0V3.1c0.1-0.4,0.5-0.7,0.9-0.7h5.3V2.2c0-0.6,0-1.1,0-1.7c0-0.3,0.2-0.5,0.4-0.6h0.1
	h4.5l0,0c0.3,0,0.5,0.3,0.5,0.6l0,0v1.7H17c0.4,0,0.8,0.3,0.9,0.7c0,0.1,0,0.1,0,0.2L18,3.3L18,3.3z M12.2,11.1v4.3
	c0,0.3-0.2,0.6-0.5,0.6s-0.6-0.2-0.6-0.5l0,0V6.7c0-0.3,0.2-0.6,0.6-0.6c0.3,0,0.5,0.2,0.6,0.5c0,0,0,0,0,0.1v4.4H12.2z M6.9,11v4.3
	c0,0.2-0.1,0.4-0.3,0.5C6.3,16,6,15.9,5.8,15.7c0-0.1-0.1-0.2-0.1-0.3V6.7c0-0.3,0.2-0.6,0.5-0.6s0.5,0.2,0.6,0.5L6.9,11L6.9,11z
	 M9.6,11v4.3c0,0.3-0.2,0.6-0.6,0.6c-0.3,0-0.5-0.2-0.6-0.5V6.7c0-0.3,0.2-0.6,0.5-0.6s0.6,0.2,0.6,0.5V11H9.6z"/>
</svg>
