<?xml version="1.0" encoding="utf-8"?>
<!-- Generator: Adobe Illustrator 21.0.2, SVG Export Plug-In . SVG Version: 6.00 Build 0)  -->
<svg version="1.1" id="Camada_1" xmlns="http://www.w3.org/2000/svg" xmlns:xlink="http://www.w3.org/1999/xlink" x="0px" y="0px"
	 width="36px" height="45.3px" viewBox="0 0 36 45.3" enable-background="new 0 0 36 45.3" xml:space="preserve">
<title>ic-telefone</title>
<path fill="#555555" d="M6.6,41.5c0.5,0.4,1.1,0.6,1.7,0.7c0.2,0,0.3,0,0.5-0.1c0.1-0.1,0.3-0.2,0.5-0.3
	C29.7,35.8,32.8,9.4,32.8,9.1c0.1-0.6,0.1-1.3,0-1.9c-0.1,0-0.2-0.1-0.2-0.2c-0.3-0.3-2.7-2-4.7-3.4c-0.4-0.3-0.9-0.4-1.3-0.4
	c-0.6,0-1.1,0.3-1.5,0.8c-1,2.4-1.7,5-2.2,7.5c-0.2,0.8-0.1,1.6,0.4,2.3c0.6,0.5,1.4,0.8,2.3,0.8c0.2,0,0.4,0,0.4,0
	c0.5-0.1,1,0.1,1.4,0.5c0.3,0.4,0.5,0.9,0.3,1.4c-1.8,5.8-9.6,15.8-10.2,16.6c-0.6,0.9-1.7,1.5-2.9,1.5l0,0c-0.4,0-0.7-0.1-1.1-0.2
	c-0.7-0.3-1.1-1-1-1.7c0-0.2-0.1-0.5-0.2-0.7c-0.4-0.5-0.9-0.9-1.6-1c-1.3,0.9-4.5,3.5-7.4,5.8c-0.5,0.7,0.2,1.8,0.4,2.2L6.6,41.5z
	 M8.3,45.3C7,45.3,5.8,44.8,4.7,44H4.7l-3.1-2.5c-0.1-0.1-0.2-0.2-0.3-0.3c-1-1.3-2.2-4.2-0.3-6.4l0.2-0.2c1.7-1.4,7.4-6,8.5-6.5
	c0.3-0.2,0.6-0.2,0.9-0.2c0.4,0,3.4,0.5,4.5,2.8l0.1,0.1c1.2-1.5,6.5-8.5,8.7-13.5c-1.2-0.2-2.3-0.8-3.1-1.7c-1.1-1.4-1.4-3.2-1-4.8
	c0,0,0,0,0-0.1c0.1-0.6,1.3-6.1,2.6-8.5l0.1-0.1c1-1.3,2.5-2.2,4.1-2.2c1.1,0,2.1,0.3,3,0.9L29.7,1c1.2,0.9,3.9,2.8,4.9,3.6
	c0.8,0.4,1.8,1.6,1.3,4.9c-0.7,5.2-2.2,10.2-4.3,15c-4.6,10.5-12,17.5-21.2,20.3C9.8,45.1,9.1,45.3,8.3,45.3L8.3,45.3z"/>
</svg>
