<?xml version="1.0" encoding="utf-8"?>
<!-- Generator: Adobe Illustrator 21.0.2, SVG Export Plug-In . SVG Version: 6.00 Build 0)  -->
<svg version="1.1" id="Layer_1" xmlns="http://www.w3.org/2000/svg" xmlns:xlink="http://www.w3.org/1999/xlink" x="0px" y="0px"
	 width="20px" height="16px" viewBox="0 0 20 16" enable-background="new 0 0 20 16" xml:space="preserve">
<path id="btn_voltar" fill="#7C7C7C" d="M10.6,11.7L10.6,11.7C10.6,11.7,10.6,11.7,10.6,11.7z M0.4,9l6.5,6.6c0.5,0.6,1.4,0.6,2,0
	c0,0,0,0,0,0c0.6-0.6,0.6-1.5,0-2l-4-4.1h13.7C19.4,9.4,20,8.8,20,8c0-0.8-0.6-1.4-1.4-1.4H4.9l4-4.1c0.6-0.6,0.6-1.5,0-2
	c-0.5-0.6-1.4-0.6-2,0c0,0,0,0,0,0L0.4,7C-0.1,7.5-0.1,8.5,0.4,9L0.4,9z"/>
</svg>
