<svg xmlns="http://www.w3.org/2000/svg" width="16" height="16" viewBox="0 0 16 16">
  <metadata><?xpacket begin="﻿" id="W5M0MpCehiHzreSzNTczkc9d"?>
<x:xmpmeta xmlns:x="adobe:ns:meta/" x:xmptk="Adobe XMP Core 5.6-c138 79.159824, 2016/09/14-01:09:01        ">
   <rdf:RDF xmlns:rdf="http://www.w3.org/1999/02/22-rdf-syntax-ns#">
      <rdf:Description rdf:about=""/>
   </rdf:RDF>
</x:xmpmeta>
                                                                                                    
                                                                                                    
                                                                                                    
                                                                                                    
                                                                                                    
                                                                                                    
                                                                                                    
                                                                                                    
                                                                                                    
                                                                                                    
                                                                                                    
                                                                                                    
                                                                                                    
                                                                                                    
                                                                                                    
                                                                                                    
                                                                                                    
                                                                                                    
                                                                                                    
                                                                                                    
                           
<?xpacket end="w"?></metadata>
<defs>
    <style>
      .cls-1 {
        fill: #ff9934;
        fill-rule: evenodd;
      }
    </style>
  </defs>
  <path id="ic_voo" data-name="ic voo" class="cls-1" d="M1135.82,45.5a0.6,0.6,0,0,1,.01.847l-2.78,2.786a0.454,0.454,0,0,0-.13.4l1.07,7.442-0.61.619-2.57-5.316a0.449,0.449,0,0,0-.36-0.27,0.43,0.43,0,0,0-.39.131l-2.58,2.587a0.457,0.457,0,0,0-.13.355l0.19,3.074-0.57.575-1.35-3.126a0.685,0.685,0,0,0-.25-0.246L1122.26,54l0.57-.575,3.06,0.2a0.5,0.5,0,0,0,.36-0.131l2.58-2.587a0.453,0.453,0,0,0,.13-0.4,0.477,0.477,0,0,0-.27-0.358l-5.3-2.574,0.62-.619,7.41,1.075a0.44,0.44,0,0,0,.4-0.131l2.78-2.786a0.59,0.59,0,0,1,.84.006Zm-1.87-1.081-2.6,2.609-7.42-1.075a0.449,0.449,0,0,0-.4.131l-1.25,1.26a0.429,0.429,0,0,0-.13.4,0.44,0.44,0,0,0,.27.359l5.29,2.574-1.96,1.968-3.06-.2a0.479,0.479,0,0,0-.35.131l-1.22,1.216a0.373,0.373,0,0,0-.1.422,0.437,0.437,0,0,0,.28.336l3.59,1.562,1.55,3.594a0.563,0.563,0,0,0,.34.291,0.469,0.469,0,0,0,.42-0.109l1.21-1.216a0.5,0.5,0,0,0,.13-0.355l-0.19-3.073,1.96-1.968,2.56,5.316a0.451,0.451,0,0,0,.36.27,0.441,0.441,0,0,0,.4-0.131l1.26-1.26a0.454,0.454,0,0,0,.13-0.4l-1.08-7.443,2.6-2.608a1.547,1.547,0,0,0-.01-2.182l-0.38-.381A1.588,1.588,0,0,0,1133.95,44.422Z" transform="translate(-1121 -44)"/>
</svg>
