<svg xmlns="http://www.w3.org/2000/svg" width="32" height="23" viewBox="0 0 32 23">
  <metadata><?xpacket begin="﻿" id="W5M0MpCehiHzreSzNTczkc9d"?>
<x:xmpmeta xmlns:x="adobe:ns:meta/" x:xmptk="Adobe XMP Core 5.6-c138 79.159824, 2016/09/14-01:09:01        ">
   <rdf:RDF xmlns:rdf="http://www.w3.org/1999/02/22-rdf-syntax-ns#">
      <rdf:Description rdf:about=""/>
   </rdf:RDF>
</x:xmpmeta>
                                                                                                    
                                                                                                    
                                                                                                    
                                                                                                    
                                                                                                    
                                                                                                    
                                                                                                    
                                                                                                    
                                                                                                    
                                                                                                    
                                                                                                    
                                                                                                    
                                                                                                    
                                                                                                    
                                                                                                    
                                                                                                    
                                                                                                    
                                                                                                    
                                                                                                    
                                                                                                    
                           
<?xpacket end="w"?></metadata>
<defs>
    <style>
      .cls-1 {
        fill: #fff;
        fill-rule: evenodd;
      }
    </style>
  </defs>
  <path id="ic_voo" data-name="ic voo" class="cls-1" d="M2790.53,2697.35c0.72-.71,1.08-2.07-0.07-3.77l-2.46-3.7,8.16,0.07a3.849,3.849,0,0,0,3.46-2.13l3.03-6.11a1.776,1.776,0,0,0-.28-2.42,2.868,2.868,0,0,0-3.32.43l-3.25,3.2a1.677,1.677,0,0,1-1.37.49l-17.9-.14a5.173,5.173,0,0,0-3.75,1.42l-1.09.93a2.374,2.374,0,0,0-.5,2.63,2.511,2.511,0,0,0,2.31,1.56l5.7,0.07a0.788,0.788,0,0,1,.51.22l7.21,7.1A2.631,2.631,0,0,0,2790.53,2697.35Zm-4.69-9.03a1.471,1.471,0,0,0-.22,1.78l3.11,4.62a1.223,1.223,0,0,1,.36,1.2,0.544,0.544,0,0,1-.65-0.21l-7.22-7.11a2.8,2.8,0,0,0-1.95-.78l-5.7-.07a0.314,0.314,0,0,1-.43-0.14,0.352,0.352,0,0,1,.07-0.5l1.01-.85a3.362,3.362,0,0,1,2.38-.93l17.83,0.22a4.074,4.074,0,0,0,2.81-1.07l3.18-3.13a0.2,0.2,0,0,1,.21-0.07l-2.88,5.83a1.959,1.959,0,0,1-1.66,1.07l-9.31-.08A0.817,0.817,0,0,0,2785.84,2688.32Zm2.9-4.65,2.95-4.81a2.484,2.484,0,0,0-.37-3.2,2.514,2.514,0,0,0-3.46,0l-8.37,8.25,1.44,1.42,8.37-8.24a0.43,0.43,0,0,1,.58,0c0.22,0.21.29,0.28-.07,0.92l-3.45,5.59Z" transform="translate(-2771 -2675)"/>
</svg>
