<svg xmlns="http://www.w3.org/2000/svg" width="32" height="22.97" viewBox="0 0 32 22.97">
  <metadata><?xpacket begin="﻿" id="W5M0MpCehiHzreSzNTczkc9d"?>
<x:xmpmeta xmlns:x="adobe:ns:meta/" x:xmptk="Adobe XMP Core 5.6-c138 79.159824, 2016/09/14-01:09:01        ">
   <rdf:RDF xmlns:rdf="http://www.w3.org/1999/02/22-rdf-syntax-ns#">
      <rdf:Description rdf:about=""/>
   </rdf:RDF>
</x:xmpmeta>
                                                                                                    
                                                                                                    
                                                                                                    
                                                                                                    
                                                                                                    
                                                                                                    
                                                                                                    
                                                                                                    
                                                                                                    
                                                                                                    
                                                                                                    
                                                                                                    
                                                                                                    
                                                                                                    
                                                                                                    
                                                                                                    
                                                                                                    
                                                                                                    
                                                                                                    
                                                                                                    
                           
<?xpacket end="w"?></metadata>
<defs>
    <style>
      .cls-1 {
        fill: #fff;
        fill-rule: evenodd;
      }
    </style>
  </defs>
  <path id="ic_voo" data-name="ic voo" class="cls-1" d="M2783.47,1050.35c-0.72-.71-1.08-2.06.07-3.77l2.46-3.69-8.16.07a3.849,3.849,0,0,1-3.46-2.13l-3.04-6.1a1.778,1.778,0,0,1,.29-2.42,2.9,2.9,0,0,1,3.32.43l3.25,3.2a1.677,1.677,0,0,0,1.37.49l17.9-.14a5.173,5.173,0,0,1,3.75,1.42l1.09,0.92a2.378,2.378,0,0,1,.5,2.63,2.511,2.511,0,0,1-2.31,1.56l-5.7.07a0.788,0.788,0,0,0-.51.22l-7.21,7.1A2.64,2.64,0,0,1,2783.47,1050.35Zm4.69-9.02a1.474,1.474,0,0,1,.22,1.78l-3.11,4.61a1.239,1.239,0,0,0-.36,1.21,0.57,0.57,0,0,0,.65-0.22l7.22-7.09a2.8,2.8,0,0,1,1.95-.79l5.7-.07a0.307,0.307,0,0,0,.43-0.14,0.351,0.351,0,0,0-.07-0.5l-1.01-.85a3.352,3.352,0,0,0-2.38-.92l-17.83.21a4.065,4.065,0,0,1-2.81-1.06l-3.18-3.13a0.2,0.2,0,0,0-.21-0.07l2.88,5.82a1.959,1.959,0,0,0,1.66,1.07l9.31-.07A0.828,0.828,0,0,1,2788.16,1041.33Zm-2.9-4.64-2.95-4.8a2.483,2.483,0,0,1,.37-3.2,2.514,2.514,0,0,1,3.46,0l8.37,8.24-1.44,1.42-8.37-8.24a0.453,0.453,0,0,0-.58,0c-0.22.22-.29,0.29,0.07,0.93l3.45,5.58Z" transform="translate(-2771 -1028.03)"/>
</svg>
