<?xml version="1.0" encoding="utf-8"?>
<!-- Generator: Adobe Illustrator 22.0.1, SVG Export Plug-In . SVG Version: 6.00 Build 0)  -->
<svg version="1.1" id="Layer_1" xmlns="http://www.w3.org/2000/svg" xmlns:xlink="http://www.w3.org/1999/xlink" x="0px" y="0px"
	 width="26px" height="25px" viewBox="0 0 26 25" enable-background="new 0 0 26 25" xml:space="preserve">
<g>
	<g>
		<path fill="#A5A5A5" d="M24.2,2.2h-4.5V0h-0.9v2.2H7V0H6v2.2H1.8C0.8,2.2,0,3.1,0,4.1v19c0,1,0.8,1.9,1.8,1.9h22.4
			c1,0,1.8-0.8,1.8-1.9v-19C26,3.1,25.1,2.2,24.2,2.2z M25,23.1c0,0.5-0.4,0.9-0.9,0.9H1.8C1.4,24,1,23.6,1,23.1v-19
			c0-0.5,0.4-0.9,0.9-0.9H6v2h0.9v-2h11.7v2h0.9v-2h4.6c0.5,0,0.9,0.4,0.9,0.9V23.1z M18.4,9.3c-0.2,0-0.4,0.1-0.6,0.2l-5.7,5.9
			l-2.9-3.1c-0.2-0.2-0.3-0.2-0.6-0.2c-0.4,0-0.8,0.4-0.8,0.9c0,0.2,0.1,0.4,0.2,0.6l3.5,3.7c0.2,0.2,0.3,0.2,0.6,0.2
			s0.4-0.1,0.6-0.2l6.2-6.5c0.2-0.2,0.2-0.4,0.3-0.6C19.2,9.7,18.9,9.3,18.4,9.3z"/>
	</g>
</g>
</svg>
