<?xml version="1.0" encoding="UTF-8"?>
<svg width="24px" height="24px" viewBox="0 0 24 24" version="1.1" xmlns="http://www.w3.org/2000/svg" xmlns:xlink="http://www.w3.org/1999/xlink">
    <!-- Generator: Sketch 50.2 (55047) - http://www.bohemiancoding.com/sketch -->
    <title>ic warning copy</title>
    <desc>Created with Sketch.</desc>
    <defs></defs>
    <g id="1---adesao" stroke="none" stroke-width="1" fill="none" fill-rule="evenodd">
        <g id="ic-warning-copy" fill="#E74646">
            <path d="M12,2.32 C11.4,2.32 10.7592,2.8656 10.24,3.816 L2.788,17.5104 C2.28338826,18.2232739 2.17636391,19.1439848 2.504,19.9536 C3.04745346,20.6319701 3.90247807,20.9819041 4.7656,20.8792 L19.236,20.8792 C20.0988528,20.9816163 20.9535049,20.631711 21.4968,19.9536 C21.8246104,19.1445437 21.7175602,18.224214 21.2128,17.512 L13.76,3.8152 C13.2456,2.8648 12.6056,2.32 12,2.32 Z M19.236,23.2 L4.7712,23.2 C3.09009609,23.3226143 1.47212277,22.5353024 0.5312,21.1368 C-0.232680026,19.6239013 -0.138634089,17.8196802 0.7784,16.3944 L8.2288,2.7 C9.1744,0.96 10.5144,0 12,0 C13.4856,0 14.8312,0.96 15.7792,2.7024 L23.2296,16.3968 C24.1457732,17.8218325 24.2395055,19.6252673 23.476,21.1376 C22.5349975,22.5359285 20.9169788,23.3229572 19.236,23.2 Z M11.136,14.66 L10.7808,7.6304 L13.228,7.6304 L12.8904,14.66 L11.136,14.66 Z M10.6256,16.848 C10.6436014,16.0923053 11.2668607,15.4920898 12.0226973,15.5025577 C12.7785338,15.5130256 13.384932,16.1302711 13.3819987,16.8861744 C13.3790654,17.6420778 12.7678951,18.2545985 12.012,18.2592 C11.6362917,18.2715395 11.2725865,18.1259691 11.009144,17.8578142 C10.7457016,17.5896592 10.6066019,17.2234305 10.6256,16.848 Z" id="ic_warning"></path>
        </g>
    </g>
</svg>