<?xml version="1.0" encoding="utf-8"?>
<!-- Generator: Adobe Illustrator 16.0.2, SVG Export Plug-In . SVG Version: 6.00 Build 0)  -->
<!DOCTYPE svg PUBLIC "-//W3C//DTD SVG 1.1//EN" "http://www.w3.org/Graphics/SVG/1.1/DTD/svg11.dtd">
<svg version="1.1" id="Layer_1" xmlns="http://www.w3.org/2000/svg" xmlns:xlink="http://www.w3.org/1999/xlink" x="0px" y="0px"
	 width="30px" height="29px" viewBox="0 0 30 29" enable-background="new 0 0 30 29" xml:space="preserve">
<path id="ic_warning" fill="#FF6600" d="M15.119,6.741c-0.583,0-1.166,0.51-1.603,1.383L6.748,20.572
	c-0.437,0.656-0.583,1.457-0.292,2.258c0.509,0.58,1.238,0.945,2.039,0.871H21.67c0.801,0.074,1.528-0.217,2.039-0.871
	c0.292-0.73,0.218-1.602-0.291-2.258L16.72,8.124C16.282,7.251,15.701,6.741,15.119,6.741z M21.67,25.74H8.567
	c-1.529,0.146-2.985-0.582-3.858-1.893c-0.728-1.383-0.583-2.982,0.218-4.295l6.77-12.447c0.874-1.601,2.039-2.475,3.422-2.475
	c1.384,0,2.549,0.874,3.421,2.475l6.77,12.447c0.8,1.313,0.946,2.912,0.219,4.295C24.728,25.158,23.198,25.887,21.67,25.74z
	 M14.318,17.951l-0.291-6.405h2.255l-0.29,6.405H14.318z M13.881,19.99c0-0.729,0.583-1.236,1.311-1.236s1.237,0.582,1.237,1.309
	c0,0.656-0.581,1.238-1.237,1.238c-0.655,0-1.238-0.512-1.238-1.166C13.881,20.063,13.881,19.99,13.881,19.99z"/>
</svg>
