<?xml version="1.0" encoding="UTF-8"?>
<svg width="10px" height="8px" viewBox="0 0 10 8" version="1.1" xmlns="http://www.w3.org/2000/svg" xmlns:xlink="http://www.w3.org/1999/xlink">
    <!-- Generator: sketchtool 51.3 (57544) - http://www.bohemiancoding.com/sketch -->
    <title>7E9B15D8-1008-4AC7-96D8-91C45199F6B2</title>
    <desc>Created with sketchtool.</desc>
    <defs></defs>
    <g id="Symbols" stroke="none" stroke-width="1" fill="none" fill-rule="evenodd">
        <g id="Acesse-on-Copy-2" transform="translate(-17.000000, -41.000000)" fill="#FF5A00" fill-rule="nonzero">
            <path d="M25.6731297,41 C25.3126624,41 24.972221,41.1604585 24.7319094,41.4355301 L21.1672878,45.4011461 L19.2648213,43.269341 C19.0044837,42.9942693 18.6640423,42.8338109 18.323601,42.8338109 C17.9631336,42.8338109 17.6226922,42.9942693 17.3823806,43.269341 C17.1220431,43.5444126 16.9818614,43.9340974 17.0018873,44.3237822 C17.0018873,44.713467 17.1420691,45.1031519 17.3823806,45.3782235 L20.2260675,48.5644699 C20.4864051,48.8395415 20.8268464,49 21.1672878,49 C21.5277552,49 21.8681966,48.8395415 22.1085081,48.5644699 L26.61435,43.5444126 C27.1149991,42.9713467 27.1350251,42.0315186 26.634376,41.4584527 L26.61435,41.4355301 C26.3740385,41.1604585 26.0335971,41 25.6731297,41 Z" id="Shape"></path>
        </g>
    </g>
</svg>