<?xml version="1.0" encoding="utf-8"?>
<!-- Generator: Adobe Illustrator 19.1.0, SVG Export Plug-In . SVG Version: 6.00 Build 0)  -->
<svg version="1.1" id="Layer_1" xmlns="http://www.w3.org/2000/svg" xmlns:xlink="http://www.w3.org/1999/xlink" x="0px" y="0px"
	 width="155.9px" height="132.4px" viewBox="0 0 155.9 132.4" style="enable-background:new 0 0 155.9 132.4;" xml:space="preserve"
	>
<style type="text/css">
	.st0{fill:none;stroke:#6E3D9D;stroke-width:3;stroke-miterlimit:10;}
	.st1{fill:#663399;}
</style>
<path class="st0" d="M57.2,13.4l15.8,15.2l28.3-26c9-3.7,13,2.3,10,9.7c0,0-35.3,35.3-37.2,35.3S47.1,23.1,47.1,23.1
	C43.7,12.8,55.1,9.9,57.2,13.4z"/>
<g>
	<g>
		<path class="st1" d="M108.8,117.5L108.8,117.5c-0.2-0.2-0.2-0.2-0.2-0.2s0,0-0.2,0.2c-0.2,0.2-0.2,0.2-0.4,0.4
			c-0.4,0.4-0.8,0.8-1.6,1.2c-0.6,0.4-1,0.8-1.6,1.2c0-0.2,0-0.4-0.2-0.6c-0.2-0.6-0.6-1.2-1-1.6c-0.8-0.6-1.6-1-2.6-1.6
			c-0.4-0.2-0.8-0.6-1-0.8s-0.4-0.6-0.6-0.8c0-0.2,0-0.2,0-0.2c0-0.4,0.2-0.8,0.4-1c0.2-0.2,0.6-0.6,1.2-0.6c0.8,0,1.6,0.4,1.8,0.4
			c0.6,0,0.8-0.2,0.8-0.6c0-0.2,0-0.2,0-0.2c0-0.6-0.4-0.8-1-1.2c0,0-0.6-0.2-1.6-0.2c-1.6,0-2.6,0.4-3.6,1
			c-0.8,0.6-1.2,1.6-1.2,2.6c0,0.2,0,0.6,0.2,0.8c0.2,1.2,1.6,2,2.8,2.6c0.6,0.2,1.2,0.6,1.6,0.8c0.4,0.4,0.8,0.6,0.8,1
			c0,0.2,0,0.2,0,0.2c0,0.4-0.2,0.6-0.6,0.8c-0.2,0.2-0.8,0.4-1.6,0.6c0,0,0,0-0.2,0c-0.8,0-1.4-0.2-1.8-0.4
			c-0.2-0.2-0.4-0.2-0.6-0.2c-0.6,0-0.8,0.2-0.8,0.8v0.2c0,0.4,0.2,0.6,0.4,0.8c0.4,0.2,0.8,0.6,1.2,0.6c-4.2,3-11.1,5.4-20.1,5.4
			l0,0l0,0c-9.1,0-16.1-2.4-21.3-5c1-0.2,1.8-0.6,2.6-1.2c0.8-0.8,1.4-1.8,1.4-3.2c0-0.2,0-0.6-0.2-0.8c-0.2-0.8-0.6-1.6-1.2-2.2
			c-0.8-0.8-2.2-1.6-3.2-2.2c-0.6-0.2-1-0.6-1.4-0.8c-0.4-0.4-0.6-0.6-0.6-1c0-0.2,0-0.2,0-0.4c0-0.6,0.2-1,0.6-1.4
			c0.4-0.4,1.2-0.8,2-0.8c0.6,0,1.2,0.2,1.8,0.2c0.2,0,0.4,0.2,0.6,0.2c0.6,0,0.8-0.2,1-0.6c0-0.2,0.2-0.2,0.2-0.4
			c0-0.4-0.2-0.6-0.4-0.8c-0.2-0.2-0.6-0.4-0.8-0.4c-0.6-0.2-1.4-0.2-2.2-0.2l0,0c-2,0-3.6,0.6-4.4,1.4c-1,0.8-1.4,1.8-1.4,3
			c0,0.2,0,0.6,0.2,0.8c0.2,1.6,1.6,2.6,2.8,3.4c1.2,0.8,2.6,1.4,3.2,2.2c0.2,0.4,0.4,0.8,0.4,1.2c0,0.6-0.2,0.8-0.4,1.2
			c-0.6,0.6-1.4,1-2.4,1c-0.6,0-1.2-0.2-1.8-0.6l-0.2-0.2c-1.4-0.8-2.6-1.8-3.6-2.6c-0.6-0.6-1.2-1-1.6-1.2
			c-0.2-0.2-0.2-0.2-0.4-0.4c-0.2-0.2-0.2-0.2-0.2-0.2s-0.2-0.2-0.2,0c-0.2,0-0.2,0.2-0.2,0.2c0,0.2,0,0.6,0,0.8c0,0,0,0,0,0.2l0,0
			c0,0.8,0.4,1.6,1.2,2.6c0.2,0.2,11.5,11.7,29.8,11.7l0,0l0,0c18.3,0,29.6-11.5,29.8-11.7c0.8-0.8,1.2-1.6,1.2-2.6l0,0v-0.2
			C108.9,118.1,108.9,117.9,108.8,117.5 M80.1,112.5c-0.2-0.2-0.6-0.2-0.8-0.2c-0.4,0-0.6,0.2-1,0.2c-0.2,0.2-0.6,0.6-0.6,0.8
			c0,0,0,9.5,0,9.7c0,0.4,0.2,0.6,0.6,0.8c0.2,0.2,0.6,0.2,0.8,0.2c0.4,0,0.6-0.2,1-0.2c0.2-0.2,0.6-0.6,0.6-0.8c0,0,0-9.5,0-9.7
			C80.5,112.9,80.3,112.7,80.1,112.5 M61.8,123.8c0.2,0.2,0.6,0.2,0.8,0.2c0.4,0,0.6-0.2,1-0.2c0.2-0.2,0.6-0.6,0.6-0.8v-6.6l0,0
			c0-0.6,0.2-1.2,0.6-1.8c0.2-0.6,0.8-0.8,1.4-0.8c0.2,0,0.6,0.2,0.8,0.2c0.2,0.2,0.4,0.6,0.6,1c0.2,0.4,0.2,0.8,0.2,1
			c0,0,0,6.6,0,6.8c0,0.4,0.2,0.6,0.6,0.8c0.2,0.2,0.6,0.2,1,0.2c0.4,0,0.8-0.2,1-0.2c0.2-0.2,0.6-0.6,0.6-0.8v-6.6
			c0-0.6,0.2-1.2,0.6-1.8c0.2-0.6,0.8-0.8,1.4-0.8c0.2,0,0.6,0.2,0.8,0.2c0.2,0.2,0.4,0.6,0.6,1c0.2,0.4,0.2,0.8,0.2,1
			c0,0,0,6.4,0,6.8s0.2,0.6,0.6,0.8c0.2,0.2,0.6,0.2,1,0.2c0.4,0,0.8-0.2,1-0.2c0.2-0.2,0.6-0.6,0.6-0.8v-6.4c0-1.6-0.4-2.8-0.8-3.6
			c-0.6-0.8-1.6-1.2-2.6-1.2c-1,0-1.8,0.6-2.2,1c-0.4,0.4-0.6,0.8-0.8,1.2c-0.2-0.6-0.6-1.2-1-1.6c-0.6-0.4-1.2-0.6-2-0.6
			c-1.2,0-2.2,0.8-2.8,1.6v0.2c0-0.4-0.2-0.6-0.6-0.8c-0.2-0.2-0.6-0.2-0.8-0.2c-0.4,0-0.6,0.2-1,0.2c-1.4,0-1.6,0.4-1.6,0.8
			c0,0,0,9.5,0,9.7C61.4,123.4,61.4,123.6,61.8,123.8 M88.7,122.9c0.8,0.8,2.2,1.4,3.8,1.4l0,0c0.8,0,1.6-0.2,2.2-0.4
			c0.2-0.2,0.6-0.2,0.8-0.6c0.2-0.2,0.2-0.4,0.2-0.6v-0.2c0-0.4-0.4-0.6-0.8-0.6c-0.2,0-0.2,0-0.2,0c-0.6,0.2-0.8,0.2-1.6,0.2
			c-0.2,0-0.4,0-0.6,0c-1.2-0.2-1.8-0.8-2.2-1.6c-0.2-0.4-0.4-0.8-0.4-1c0-0.2,0-0.2-0.2-0.2c1.6-0.2,3-0.2,4.2-0.8
			c0.6-0.4,1.6-1,1.8-1.8c0.2-0.6,0.4-1.2,0.4-1.8c0-0.2,0-0.4,0-0.6c-0.2-1.6-1.6-2.6-3.8-2.6c-1.6,0-3.6,0.6-4.6,2.6
			c-0.6,0.8-1.2,2.2-1.2,3.8c0,0.4,0,0.8,0.2,1.2C87.3,120.9,87.9,122.1,88.7,122.9 M90.7,114.7L90.7,114.7c0.8-1,1.4-1.2,1.8-1.2
			l0,0c0.6,0,1.2,0.4,1.2,1.2c0,0.2,0,0.2,0,0.4c0,0.6-0.2,1.2-0.6,1.6c-0.8,0.8-2,1.2-3.2,1.4c0-0.2,0-0.2,0-0.4
			C90.1,116.7,90.1,115.5,90.7,114.7 M84.9,124.2L84.9,124.2c0.6,0,1.2-0.2,1.6-0.4c0.4-0.2,0.6-0.4,0.8-0.6
			c0.2-0.2,0.2-0.2,0.2-0.4c0-0.2,0-0.2-0.2-0.4c-0.2-0.2-0.6-0.4-0.8-0.4h-0.2c-0.2,0-0.2,0.2-0.4,0.2c-0.2,0-0.2,0-0.4,0
			c-0.4,0-0.6-0.2-0.6-0.2s-0.2-0.2-0.2-0.6c-0.2-0.6-0.2-1.2-0.2-1.8c0-0.2,0-10.1,0-10.5s-0.2-0.6-0.6-0.8
			c-0.2-0.2-0.6-0.2-0.8-0.2c-0.4,0-0.6,0.2-1,0.2c-0.2,0.2-0.6,0.6-0.6,0.8v11.7c0,0.6,0.2,1.4,0.6,2
			C83.1,123.8,83.7,124.2,84.9,124.2 M79.1,111.3c0.8,0,1.6-0.6,1.6-1.6c0-1-0.6-1.6-1.6-1.6c-1,0-1.6,0.8-1.6,1.6
			C77.5,110.5,78.3,111.3,79.1,111.3"/>
	</g>
	<g>
		<g>
			<path class="st1" d="M0,81.7L0,81.7c0-9.9,7.6-18.1,18.1-18.1c5.2,0,8.9,1.4,11.7,3.8c0.6,0.6,1.6,1.8,1.6,3.4
				c0,2.6-2,4.4-4.6,4.4c-1.2,0-2.2-0.6-2.8-1c-1.8-1.4-3.6-2.2-6.2-2.2c-4.8,0-8.4,4.4-8.4,9.5v0.2c0,5.4,3.6,9.5,8.7,9.5
				c2.6,0,4.6-0.8,6.6-2.4c0.6-0.4,1.6-0.8,2.6-0.8c2.4,0,4.2,1.8,4.2,4.2c0,1.2-0.6,2.4-1.4,3.2c-2.8,2.6-6.6,4.6-12.3,4.6
				C7.6,99.6,0,91.6,0,81.7z"/>
		</g>
		<g>
			<path class="st1" d="M35,56.1c0-2.8,2.2-4.8,4.8-4.8c2.8,0,4.8,2.2,4.8,4.8v38c0,2.8-2.2,4.8-4.8,4.8C37,98.8,35,96.6,35,94V56.1
				z"/>
		</g>
		<g>
			<path class="st1" d="M80.3,94.2c0,2.8-2.2,4.8-4.8,4.8c-2.8,0-4.8-2.2-4.8-4.8v-0.4c-2.2,2.8-5.2,5.6-10.1,5.6
				c-7.6,0-11.7-4.8-11.7-12.7V68.8c0-2.8,2.2-4.8,4.8-4.8c2.8,0,4.8,2.2,4.8,4.8v14.7c0,4.6,2.2,7.2,6,7.2c3.8,0,6.2-2.4,6.2-7.2
				V68.8c0-2.8,2.2-4.8,4.8-4.8c2.8,0,4.8,2.2,4.8,4.8L80.3,94.2L80.3,94.2z"/>
		</g>
		<g>
			<path class="st1" d="M83.9,56.1c0-2.8,2.2-4.8,4.8-4.8c2.8,0,4.8,2.2,4.8,4.8V69c2.4-3.2,5.8-5.6,10.7-5.6
				c8.2,0,15.7,6.4,15.7,17.9v0.2c0,11.5-7.6,17.9-15.7,17.9c-5.2,0-8.5-2.4-10.7-5.2v0.2c0,2.6-2.2,4.8-4.8,4.8
				c-2.8,0-4.8-2.2-4.8-4.8V56.1z M110.5,81.5L110.5,81.5c0-5.8-3.8-9.7-8.5-9.7c-4.6,0-8.4,3.8-8.4,9.5v0.2c0,5.8,3.8,9.5,8.4,9.5
				S110.5,87.3,110.5,81.5z"/>
		</g>
		<g>
			<path class="st1" d="M140,99.6c-10.5,0-18.1-7.4-18.1-17.9v-0.2c0-9.7,7.2-18.1,17.1-18.1c11.5,0,16.7,9.5,16.7,16.7
				c0,2.8-2,4.8-4.6,4.8h-19.5c1,4.6,4.2,6.8,8.5,6.8c2.8,0,5-0.8,7-2.4c0.8-0.6,1.4-0.8,2.4-0.8c2.2,0,3.8,1.6,3.8,3.8
				c0,1.2-0.6,2.2-1.2,2.8C149.1,97.8,145.1,99.6,140,99.6z M146.3,78.7c-0.6-4.4-3.2-7.4-7.4-7.4c-4.2,0-6.8,2.8-7.6,7.4H146.3z"/>
		</g>
	</g>
	<g>
		<rect y="111.1" class="st1" width="41.4" height="2.6"/>
	</g>
	<g>
		<rect x="114.5" y="111.1" class="st1" width="41.4" height="2.6"/>
	</g>
</g>
</svg>
