<?xml version="1.0" encoding="utf-8"?>
<!-- Generator: Adobe Illustrator 21.0.2, SVG Export Plug-In . SVG Version: 6.00 Build 0)  -->
<svg version="1.1" id="Camada_1" xmlns="http://www.w3.org/2000/svg" xmlns:xlink="http://www.w3.org/1999/xlink" x="0px" y="0px"
	 width="234.6px" height="122.2px" viewBox="0 0 234.6 122.2" enable-background="new 0 0 234.6 122.2" xml:space="preserve">
<title>logo-clube-smiles</title>
<path fill="#663399" d="M165.9,99.3c0-0.1-0.1-0.2-0.2-0.2c-0.1,0-0.2,0-0.3,0.1l-0.2,0.2l-0.6,0.6c-0.5,0.5-1.2,1.2-2.2,2
	c-0.7,0.6-1.5,1.2-2.5,1.9c0-0.3-0.1-0.5-0.1-0.8c-0.2-0.9-0.8-1.8-1.6-2.4c-1.2-0.8-2.4-1.6-3.7-2.2c-0.5-0.3-1-0.6-1.5-1.1
	c-0.4-0.4-0.6-0.8-0.7-1.3c0-0.1,0-0.2,0-0.3c0-0.6,0.2-1.1,0.6-1.5c0.5-0.5,1.2-0.7,1.9-0.7c1,0.1,1.9,0.3,2.9,0.5
	c0.6,0,1.2-0.4,1.4-1c0-0.1,0.1-0.3,0.1-0.4c-0.1-0.8-0.7-1.4-1.4-1.6c-0.8-0.2-1.5-0.3-2.3-0.2c-1.9-0.1-3.7,0.4-5.2,1.5
	c-1.2,0.9-2,2.3-2,3.8c0,0.4,0.1,0.9,0.2,1.3c0.5,1.9,2.4,3,4.1,3.9c0.8,0.4,1.6,0.9,2.4,1.4c0.6,0.3,1,0.9,1.1,1.5
	c0,0.1,0,0.2,0,0.3c0,0.5-0.2,1.1-0.7,1.4c-0.6,0.5-1.4,0.7-2.2,0.7h-0.1c-0.9,0-1.8-0.2-2.7-0.6c-0.3-0.1-0.5-0.2-0.8-0.2
	c-0.7,0-1.2,0.4-1.3,1.1c0,0.1,0,0.1,0,0.2c0,0.5,0.2,0.9,0.6,1.2c0.6,0.5,1.3,0.8,2,1c-20.3,9.8-43.9,9.7-64.2-0.1
	c1.4-0.2,2.8-0.9,3.8-1.8c1.3-1.2,2-2.9,2-4.6c0-0.4,0-0.8-0.1-1.2c-0.3-1.3-0.9-2.4-1.9-3.2c-1.5-1.2-3.1-2.2-4.8-3.1
	c-0.7-0.4-1.4-0.9-2-1.4c-0.5-0.4-0.9-0.9-1-1.6c0-0.2,0-0.3,0-0.5c0-0.8,0.3-1.6,0.9-2.1c0.8-0.7,1.9-1.1,3-1
	c0.9,0,1.9,0.2,2.7,0.4c0.3,0.1,0.6,0.1,0.8,0.1c0.7,0,1.3-0.4,1.5-1C92,88,92,87.8,92,87.6c0-0.5-0.2-0.9-0.6-1.2
	c-0.4-0.3-0.8-0.5-1.3-0.6c-1-0.2-2.1-0.3-3.2-0.3l0,0c-2.4-0.1-4.7,0.6-6.6,2.1c-1.3,1.1-2.1,2.7-2.1,4.4c0,0.3,0,0.7,0.1,1
	c0.4,2.3,2.3,3.8,4.3,5s4,2.2,4.8,3.2c0.4,0.6,0.6,1.3,0.6,2c0,0.7-0.2,1.3-0.6,1.8c-0.9,1-2.3,1.5-3.6,1.5c-1,0-2-0.3-2.8-0.8
	l-0.2-0.1c-1.8-1.2-3.5-2.4-5.2-3.8c-1-0.8-1.7-1.5-2.2-2l-0.6-0.6c-0.1-0.1-0.1-0.1-0.2-0.2c-0.1-0.1-0.2-0.1-0.3-0.1
	c-0.1,0-0.2,0.1-0.2,0.2c-0.1,0.5-0.1,0.9-0.1,1.4v0.2c0,1.4,0.7,2.8,1.8,3.7c12.3,11.3,28.4,17.6,45.2,17.7l0,0
	c16.8-0.1,32.9-6.4,45.2-17.7c1.1-0.9,1.8-2.2,1.8-3.7v-0.2C166,100.2,166,99.7,165.9,99.3 M122.3,91.7c-0.4-0.3-0.9-0.4-1.4-0.4
	c-0.5,0-1,0.1-1.4,0.4c-0.4,0.3-0.7,0.7-0.7,1.2v14.7c0,0.5,0.3,1,0.7,1.3c0.4,0.3,0.9,0.4,1.4,0.4c0.5,0,1-0.1,1.4-0.4
	c0.4-0.3,0.7-0.7,0.7-1.2V93C123,92.5,122.7,92,122.3,91.7 M94.8,108.9c0.4,0.3,0.9,0.4,1.4,0.4c0.5,0,1-0.1,1.4-0.4
	c0.4-0.3,0.7-0.7,0.7-1.2c0,0,0-9.7,0-9.7c0-0.9,0.3-1.8,0.7-2.5c0.4-0.8,1.2-1.4,2.1-1.4c0.4,0,0.8,0.1,1.1,0.4
	c0.4,0.4,0.7,1,0.7,1.6c0.1,0.5,0.1,1,0.1,1.5v10.2c0,0.5,0.3,1,0.7,1.3c0.9,0.5,2.1,0.5,3,0c0.4-0.3,0.7-0.7,0.7-1.2v-9.7
	c0-0.9,0.3-1.7,0.7-2.5c0.4-0.8,1.2-1.4,2.1-1.4c0.4,0,0.7,0.1,1,0.4c0.4,0.4,0.7,1,0.7,1.6c0.1,0.5,0.1,1,0.1,1.5v10.2
	c0,0.5,0.3,1,0.7,1.3c0.4,0.3,1,0.4,1.5,0.4c0.5,0,1.1-0.1,1.5-0.4c0.5-0.2,0.7-0.7,0.8-1.2v-9.5c0.1-1.9-0.4-3.8-1.4-5.4
	c-0.9-1.2-2.3-1.9-3.8-1.8c-1.3,0-2.6,0.6-3.5,1.6c-0.5,0.5-0.9,1-1.2,1.6c-0.3-0.9-0.8-1.7-1.6-2.3c-0.9-0.6-1.9-1-3-0.9
	c-1.6,0.1-3.1,0.9-4.1,2.2v0c0-0.5-0.2-1-0.7-1.3c-0.4-0.3-0.9-0.4-1.4-0.4c-0.5,0-1,0.1-1.4,0.4c-0.4,0.3-0.7,0.8-0.7,1.3v14.6
	C94.1,108.1,94.4,108.6,94.8,108.9 M135.6,107.4c1.5,1.4,3.6,2.2,5.6,2.1l0,0c1.1,0,2.3-0.2,3.4-0.6c0.4-0.2,0.8-0.4,1.1-0.7
	c0.3-0.2,0.4-0.6,0.4-0.9c0-0.1,0-0.1,0-0.2c-0.1-0.6-0.6-1-1.2-1c-0.1,0-0.3,0-0.4,0.1c-0.9,0.3-1.9,0.4-2.9,0.3
	c-1.4-0.1-2.7-0.9-3.4-2.2c-0.3-0.5-0.5-1-0.6-1.5c-0.1-0.2-0.1-0.3-0.1-0.4c2.2,0,4.4-0.5,6.4-1.4c1.2-0.6,2.2-1.5,2.9-2.7
	c0.4-0.8,0.6-1.7,0.6-2.6c0-0.3,0-0.5-0.1-0.8c-0.4-2.3-2.5-4-5.8-4c-2.8,0-5.4,1.3-7,3.7c-1.1,1.7-1.6,3.7-1.6,5.8
	c0,0.7,0.1,1.3,0.2,2C133.4,104.3,134.3,106.1,135.6,107.4 M138.4,95L138.4,95c0.5-1,1.6-1.6,2.7-1.7l0,0c1.1,0,1.9,0.8,2,1.9
	c0,0.2,0.1,0.4,0.1,0.6c0,0.8-0.3,1.7-0.9,2.3c-1.3,1.3-3.1,2-4.9,2c0-0.2,0-0.3,0-0.5C137.3,98,137.6,96.4,138.4,95 M129.8,109.6
	L129.8,109.6c0.8,0,1.5-0.2,2.2-0.6c0.5-0.2,0.9-0.5,1.2-0.9c0.1-0.2,0.2-0.4,0.2-0.7c0-0.6-0.5-1.2-1.1-1.2c0,0,0,0-0.1,0H132
	c-0.2,0.1-0.4,0.1-0.5,0.2c-0.2,0.1-0.4,0.1-0.6,0.1c-0.4,0-0.7-0.1-0.9-0.4c-0.2-0.2-0.4-0.5-0.4-0.8c-0.2-0.8-0.2-1.7-0.2-2.5
	c0-0.3,0-15.2,0-15.6c0-0.5-0.3-1-0.7-1.3c-0.4-0.3-0.9-0.4-1.4-0.4c-0.5,0-1,0.1-1.4,0.4c-0.4,0.3-0.7,0.7-0.7,1.2v17.7
	c0,1.1,0.3,2.2,1,3.1C127,109,128.3,109.6,129.8,109.6 M120.9,90c1.2,0,2.2-1,2.2-2.2s-1-2.2-2.2-2.2c-1.2,0-2.2,1-2.2,2.2
	C118.7,89,119.7,90,120.9,90"/>
<path fill="#663399" d="M66.9,94.5H4.6v-4.7h62.3V94.5z M234.5,94.5h-62.3v-4.7h62.3L234.5,94.5z"/>
<path fill="#663399" d="M27.3,72.7c-3.7,0-7.5-0.7-10.9-2.1C6.4,66.4-0.1,56.6,0,45.8v-0.2c0-7.2,2.8-14,7.7-19.2
	c2.5-2.5,5.5-4.5,8.7-5.8c3.5-1.4,7.3-2.2,11.1-2.1c3.5-0.1,7,0.4,10.3,1.5c2.8,1,5.4,2.4,7.6,4.3c0.6,0.5,1.2,1.1,1.6,1.8
	c0.6,1,0.8,2.1,0.8,3.2c0,1.8-0.7,3.5-2,4.7c-1.3,1.3-3,1.9-4.8,1.9c-0.9,0-1.7-0.2-2.5-0.5c-0.6-0.3-1.2-0.6-1.8-1
	c-1.3-1-2.7-1.8-4.2-2.4c-1.6-0.6-3.4-0.9-5.1-0.9c-1.8,0-3.5,0.4-5.1,1.1c-1.6,0.7-2.9,1.8-4.1,3.1c-1.2,1.3-2.1,2.9-2.6,4.5
	c-0.6,1.8-1,3.6-0.9,5.5v0.2c0,1.9,0.3,3.8,0.9,5.6c0.6,1.7,1.5,3.2,2.7,4.6c1.2,1.3,2.6,2.3,4.2,3.1c1.7,0.8,3.6,1.2,5.5,1.1
	c1.8,0,3.6-0.3,5.3-1c1.6-0.7,3.1-1.5,4.5-2.6c0.5-0.4,1-0.7,1.6-0.9c0.8-0.3,1.6-0.5,2.4-0.5c1.7,0,3.3,0.6,4.5,1.8
	c1.2,1.2,1.8,2.8,1.8,4.5c0,0.9-0.2,1.8-0.6,2.7c-0.4,0.8-0.9,1.4-1.6,2c-2.3,2.1-4.9,3.7-7.7,4.9C34.7,72.2,31,72.8,27.3,72.7"/>
<path fill="#663399" d="M52.3,7.4c0-2,0.7-3.9,2.2-5.2c2.9-2.9,7.6-2.9,10.5,0c1.4,1.4,2.2,3.3,2.2,5.3v57.4c0,2-0.8,3.9-2.2,5.2
	c-2.9,2.9-7.6,2.9-10.6,0c-1.4-1.4-2.2-3.3-2.2-5.2L52.3,7.4z"/>
<path fill="#663399" d="M120.5,64.8c0,2-0.7,3.9-2.2,5.2c-2.9,2.9-7.6,2.9-10.6,0c-1.4-1.4-2.2-3.3-2.2-5.2v-0.6
	c-0.9,1.1-1.8,2.2-2.8,3.2c-1,1-2.1,1.9-3.4,2.7c-1.3,0.8-2.7,1.4-4.1,1.9c-1.7,0.5-3.4,0.7-5.1,0.7c-5.7,0-10.1-1.7-13.2-5.2
	s-4.6-8.2-4.6-14.2V26.3c0-2,0.7-3.9,2.1-5.3c2.9-2.9,7.6-2.9,10.6,0c1.4,1.4,2.2,3.3,2.2,5.2v22.3c0,3.5,0.8,6.1,2.3,7.9
	c1.7,1.8,4.1,2.8,6.7,2.7c2.5,0.1,5-0.8,6.8-2.7c1.7-1.8,2.5-4.4,2.5-7.9V26.3c0-2,0.7-3.9,2.2-5.3c2.9-2.9,7.6-2.9,10.6,0
	c1.4,1.4,2.2,3.3,2.2,5.2L120.5,64.8z"/>
<path fill="#663399" d="M125.4,7.4c0-2,0.7-3.9,2.2-5.2c2.9-2.9,7.6-2.9,10.6,0c1.4,1.4,2.2,3.3,2.1,5.2v19.6c1.8-2.4,4-4.5,6.6-6.1
	c3-1.7,6.3-2.5,9.7-2.4c3.1,0,6.1,0.6,8.9,1.8c2.9,1.2,5.5,2.9,7.6,5.2c2.3,2.4,4.1,5.3,5.3,8.5c1.4,3.7,2.1,7.6,2,11.5v0.2
	c0.1,3.9-0.6,7.8-2,11.5c-1.2,3.1-3,6-5.3,8.5c-2.1,2.3-4.7,4-7.6,5.2c-2.9,1.2-5.9,1.8-9,1.8c-3.4,0.1-6.8-0.7-9.8-2.3
	c-2.5-1.4-4.6-3.3-6.5-5.4v0.1c0,1.9-0.8,3.8-2.2,5.1c-2.9,2.9-7.6,2.9-10.6,0c-1.4-1.4-2.2-3.3-2.2-5.2L125.4,7.4z M152.8,60
	c1.7,0,3.4-0.3,5-1c1.5-0.7,2.9-1.7,4.1-2.9c1.2-1.3,2.2-2.8,2.8-4.5c0.7-1.9,1-3.9,1-5.9v-0.2c0-2-0.3-4-1-5.9
	c-0.6-1.7-1.6-3.2-2.8-4.5c-1.1-1.3-2.5-2.3-4.1-3c-3.2-1.4-6.7-1.4-9.9,0c-1.5,0.7-2.9,1.7-4,2.9c-1.2,1.3-2.1,2.9-2.7,4.6
	c-0.7,1.9-1,3.9-1,5.9v0.2c0,2,0.3,4,1,5.9c0.6,1.7,1.6,3.2,2.7,4.6c1.1,1.2,2.5,2.2,4,2.9C149.4,59.6,151.1,60,152.8,60"/>
<path fill="#663399" d="M228.7,66.4c-2.4,2-5,3.5-7.9,4.6c-3.3,1.2-6.8,1.8-10.3,1.7c-3.7,0-7.4-0.6-10.9-1.9
	c-6.6-2.5-11.8-7.6-14.4-14.1c-1.4-3.5-2.1-7.2-2.1-10.9v-0.2c0-3.6,0.6-7.1,1.9-10.5c1.2-3.2,3-6.1,5.3-8.6
	c2.3-2.5,5.1-4.5,8.2-5.8c7-2.9,14.9-2.9,21.8,0.2c3,1.5,5.7,3.5,7.9,6.1c2,2.4,3.6,5.1,4.6,8.1c0.9,2.7,1.4,5.6,1.5,8.5
	c0.2,3.7-2.7,6.9-6.4,7.1c-0.2,0-0.4,0-0.6,0h-29.4c0.5,3,2.1,5.7,4.4,7.6c2.4,1.8,5.4,2.7,8.4,2.6c1.9,0,3.9-0.3,5.7-0.9
	c1.7-0.6,3.4-1.5,4.8-2.6c0.5-0.4,1-0.7,1.6-0.9c0.6-0.2,1.3-0.3,2-0.3c1.6,0,3.1,0.6,4.2,1.7c1.1,1.1,1.7,2.6,1.6,4.1
	c0,0.9-0.2,1.8-0.6,2.5C229.7,65.2,229.3,65.8,228.7,66.4 M220.1,41.4c-0.3-3-1.5-5.8-3.5-8c-1.9-2.1-4.7-3.2-7.5-3.1
	c-2.8-0.1-5.6,1-7.6,3c-2,2.3-3.4,5.1-3.8,8.1L220.1,41.4z"/>
</svg>
