<?xml version="1.0" encoding="utf-8"?>
<!-- Generator: Adobe Illustrator 16.0.2, SVG Export Plug-In . SVG Version: 6.00 Build 0)  -->
<!DOCTYPE svg PUBLIC "-//W3C//DTD SVG 1.1//EN" "http://www.w3.org/Graphics/SVG/1.1/DTD/svg11.dtd">
<svg version="1.1" id="Layer_1" xmlns="http://www.w3.org/2000/svg" xmlns:xlink="http://www.w3.org/1999/xlink" x="0px" y="0px"
	 width="233.852px" height="48.136px" viewBox="0 0 233.852 48.136" enable-background="new 0 0 233.852 48.136"
	 xml:space="preserve">
<path fill="#6D6F71" d="M42.377,33.961l-8.14-18.873c-0.059-0.177-0.118-0.295-0.118-0.531c0-0.59,0.531-1.18,1.239-1.18
	c0.59,0,1.002,0.413,1.238,0.885l7.313,17.516l7.314-17.575c0.236-0.413,0.648-0.826,1.18-0.826c0.648,0,1.18,0.531,1.18,1.12
	c0,0.178,0,0.354-0.06,0.531l-8.198,18.933c-0.295,0.589-0.708,1.002-1.416,1.002h-0.118C43.085,34.905,42.672,34.55,42.377,33.961"
	/>
<path fill="#6D6F71" d="M57.121,14.145c0-0.767,0.59-1.239,1.357-1.239c0.767,0,1.416,0.472,1.416,1.239v0.413
	c0,0.708-0.59,1.239-1.416,1.239c-0.767,0-1.357-0.531-1.357-1.239V14.145 M57.298,20.1c0-0.648,0.531-1.18,1.121-1.18
	c0.648,0,1.18,0.531,1.18,1.18v13.565c0,0.65-0.472,1.182-1.121,1.182c-0.649,0-1.18-0.531-1.18-1.182L57.298,20.1L57.298,20.1z"/>
<path fill="#6D6F71" d="M63.904,30.127v-0.059c0-3.303,2.713-5.072,6.665-5.072c2.005,0,3.42,0.295,4.836,0.649v-0.531
	c0-2.831-1.71-4.246-4.659-4.246c-1.593,0-2.89,0.354-4.07,0.884c-0.177,0.06-0.295,0.118-0.413,0.118
	c-0.531,0-1.003-0.472-1.003-1.002c0-0.472,0.354-0.826,0.649-0.945c1.534-0.648,3.126-1.061,5.132-1.061
	c2.182,0,3.893,0.589,5.072,1.709c1.063,1.063,1.593,2.597,1.593,4.543v8.551c0,0.65-0.472,1.122-1.12,1.122
	c-0.649,0-1.121-0.472-1.121-1.063V32.31c-1.062,1.415-2.89,2.712-5.662,2.712C66.794,35.022,63.904,33.371,63.904,30.127
	 M75.405,28.948v-1.533c-1.121-0.354-2.713-0.649-4.6-0.649c-2.95,0-4.542,1.297-4.542,3.244v0.059c0,1.947,1.829,3.126,3.952,3.126
	C73.046,33.194,75.405,31.424,75.405,28.948z"/>
<path fill="#6D6F71" d="M80.831,39.565c-0.648-0.06-1.179-0.354-1.179-1.003c0-0.531,0.472-0.944,0.943-0.944
	c0.177,0,0.354,0.059,0.531,0.059c0.944,0,1.651-0.648,1.651-2.005V20.1c0-0.648,0.531-1.18,1.121-1.18
	c0.649,0,1.18,0.531,1.18,1.18v15.512c0,2.773-1.475,4.011-3.716,4.011C81.185,39.623,81.008,39.623,80.831,39.565 M82.541,14.145
	c0-0.767,0.59-1.239,1.357-1.239s1.416,0.472,1.416,1.239v0.413c0,0.708-0.59,1.239-1.416,1.239c-0.767,0-1.357-0.531-1.357-1.239
	V14.145z"/>
<path fill="#6D6F71" d="M97.344,35.082c-4.306,0-7.785-3.303-7.785-8.14v-0.059c0-4.482,3.184-8.14,7.49-8.14
	c4.601,0,7.255,3.774,7.255,7.903c0,0.648-0.531,1.063-1.062,1.063H91.919c0.354,3.361,2.713,5.309,5.485,5.309
	c1.947,0,3.362-0.768,4.482-1.828c0.177-0.178,0.413-0.296,0.649-0.296c0.59,0,1.003,0.473,1.003,1.002
	c0,0.296-0.118,0.531-0.354,0.769C101.767,34.138,99.998,35.082,97.344,35.082 M102.004,25.999
	c-0.236-2.831-1.888-5.308-5.014-5.308c-2.713,0-4.777,2.241-5.073,5.308H102.004z"/>
<path fill="#EC8632" d="M133.557,15.383c0-1.062,0.826-1.888,1.889-1.888h12.325c0.944,0,1.71,0.767,1.71,1.711
	c0,0.943-0.766,1.711-1.71,1.711h-10.498v5.779h9.142c0.943,0,1.71,0.767,1.71,1.711c0,0.943-0.767,1.71-1.71,1.71h-9.142v6.902
	c0,1.001-0.825,1.828-1.827,1.828c-1.063,0-1.889-0.827-1.889-1.828V15.383"/>
<path fill="#F48B31" d="M151.133,30.069v-0.06c0-3.42,2.713-5.131,6.605-5.131c1.77,0,3.067,0.296,4.306,0.649v-0.413
	c0-2.241-1.415-3.48-3.951-3.48c-1.415,0-2.536,0.236-3.54,0.65c-0.235,0.058-0.412,0.117-0.588,0.117
	c-0.827,0-1.534-0.648-1.534-1.533c0-0.649,0.472-1.238,1.003-1.475c1.532-0.59,3.066-0.943,5.131-0.943
	c2.418,0,4.187,0.648,5.308,1.769c1.18,1.121,1.711,2.832,1.711,4.955v7.846c0,1.001-0.768,1.769-1.77,1.769
	c-1.063,0-1.77-0.708-1.77-1.534v-0.589c-1.062,1.297-2.772,2.299-5.189,2.299C153.787,35.022,151.133,33.313,151.133,30.069
	 M162.104,28.948v-1.062c-0.944-0.354-2.183-0.649-3.656-0.649c-2.36,0-3.775,1.002-3.775,2.655v0.059
	c0,1.533,1.356,2.417,3.126,2.417C160.275,32.368,162.104,30.953,162.104,28.948z M157.798,16.208c0-0.236,0.118-0.472,0.235-0.649
	l1.71-2.654c0.355-0.531,0.827-0.885,1.475-0.885c0.945,0,2.183,0.59,2.183,1.18c0,0.354-0.235,0.649-0.53,0.885l-2.006,1.947
	c-0.707,0.648-1.297,0.825-2.123,0.825C158.21,16.857,157.798,16.621,157.798,16.208z"/>
<path fill="#F48B31" d="M169.063,26.825v-0.059c0-4.542,3.479-8.375,8.315-8.375c2.536,0,4.248,0.825,5.604,2.006
	c0.236,0.234,0.589,0.648,0.589,1.297c0,0.943-0.766,1.651-1.709,1.651c-0.472,0-0.826-0.177-1.063-0.354
	c-0.943-0.767-1.945-1.357-3.421-1.357c-2.653,0-4.6,2.301-4.6,5.072v0.06c0,2.83,1.946,5.132,4.777,5.132
	c1.475,0,2.594-0.591,3.599-1.417c0.235-0.177,0.588-0.412,1.001-0.412c0.885,0,1.592,0.709,1.592,1.593
	c0,0.472-0.177,0.885-0.529,1.12c-1.416,1.356-3.126,2.24-5.78,2.24C172.601,35.082,169.063,31.307,169.063,26.825"/>
<path fill="#F48B31" d="M187.168,14.439c0-1.062,0.885-1.769,2.064-1.769c1.179,0,2.064,0.708,2.064,1.769v0.178
	c0,1.062-0.886,1.828-2.064,1.828c-1.18,0-2.064-0.708-2.064-1.828V14.439 M187.404,20.397c0-1.003,0.768-1.829,1.829-1.829
	c1.003,0,1.828,0.826,1.828,1.829v12.621c0,1.002-0.825,1.829-1.828,1.829c-1.002,0-1.829-0.769-1.829-1.829V20.397z"/>
<path fill="#F48B31" d="M196.075,14.263c0-1.002,0.766-1.829,1.828-1.829c1.002,0,1.828,0.826,1.828,1.829v18.755
	c0,1.002-0.826,1.829-1.828,1.829s-1.828-0.769-1.828-1.829V14.263"/>
<path fill="#6D6F71" d="M126.656,42.689c-2.004,1.003-4.777,1.889-8.315,1.889l0,0l0,0c-3.539,0-7.844-1.357-11.324-3.834
	c-0.295-0.178-0.472-0.414-0.59-0.53c-0.059-0.06-0.119-0.119-0.119-0.119c-0.059-0.058-0.059-0.058-0.059-0.058h-0.06
	c0,0-0.059,0-0.059,0.058c0,0.119,0,0.235,0,0.354c0,0,0,0,0,0.06l0,0c0,0.353,0.118,0.648,0.472,0.943
	c0.059,0.058,4.542,4.658,11.737,4.658l0,0l0,0c7.195,0,11.678-4.539,11.736-4.658c0.354-0.295,0.472-0.591,0.472-0.943l0,0
	c0,0,0,0,0-0.06c0-0.119,0-0.235,0-0.354C129.135,41.333,126.656,42.689,126.656,42.689"/>
</svg>
