<svg id="Camada_1" data-name="Camada 1" xmlns="http://www.w3.org/2000/svg" viewBox="0 0 234.55 122.21"><defs><style>.cls-1{fill:#fff;}</style></defs><title>logo-clube-smiles</title><path class="cls-1" d="M165.94,99.27a.26.26,0,0,0-.19-.21.24.24,0,0,0-.26.06l-.19.19-.55.55c-.51.48-1.25,1.15-2.25,2-.7.57-1.53,1.21-2.48,1.91a4.2,4.2,0,0,0-.12-.77,4.5,4.5,0,0,0-1.57-2.4,24.13,24.13,0,0,0-3.67-2.19,6.6,6.6,0,0,1-1.47-1.06,2.35,2.35,0,0,1-.69-1.31,1.51,1.51,0,0,1,0-.3,2.09,2.09,0,0,1,.64-1.51,2.88,2.88,0,0,1,1.92-.68,23.06,23.06,0,0,1,2.85.53,1.39,1.39,0,0,0,1.4-1,1.34,1.34,0,0,0,.05-.39,1.75,1.75,0,0,0-1.43-1.58,7.91,7.91,0,0,0-2.31-.25,8.64,8.64,0,0,0-5.22,1.48,4.67,4.67,0,0,0-2,3.82,5.72,5.72,0,0,0,.16,1.31c.48,1.91,2.37,3,4.11,3.88a19.61,19.61,0,0,1,2.39,1.37,2.49,2.49,0,0,1,1.14,1.54c0,.09,0,.2,0,.29a1.75,1.75,0,0,1-.67,1.39,3.5,3.5,0,0,1-2.19.66h-.1a6.73,6.73,0,0,1-2.68-.59,1.9,1.9,0,0,0-.81-.19,1.26,1.26,0,0,0-1.31,1.09,1,1,0,0,0,0,.19,1.57,1.57,0,0,0,.6,1.16,5.5,5.5,0,0,0,2,1,73.7,73.7,0,0,1-64.16-.11,7.71,7.71,0,0,0,3.84-1.81,6.11,6.11,0,0,0,2-4.6,7.15,7.15,0,0,0-.1-1.19,5.78,5.78,0,0,0-1.9-3.23,27.7,27.7,0,0,0-4.83-3.1,12,12,0,0,1-2-1.38,2.79,2.79,0,0,1-1-1.57,2.32,2.32,0,0,1,0-.47,3,3,0,0,1,.91-2.12,4.28,4.28,0,0,1,3-1,9.81,9.81,0,0,1,2.74.43,3.77,3.77,0,0,0,.85.13,1.51,1.51,0,0,0,1.49-1,1.67,1.67,0,0,0,.12-.6,1.53,1.53,0,0,0-.61-1.2,3.13,3.13,0,0,0-1.33-.59,16.42,16.42,0,0,0-3.18-.33h0a9.82,9.82,0,0,0-6.59,2.08A5.91,5.91,0,0,0,78.17,92a5.49,5.49,0,0,0,.1,1c.44,2.3,2.35,3.76,4.3,5s4,2.15,4.78,3.23a3.35,3.35,0,0,1,.62,2,2.8,2.8,0,0,1-.6,1.81,4.79,4.79,0,0,1-3.62,1.47,5.55,5.55,0,0,1-2.82-.76l-.2-.12a60.63,60.63,0,0,1-5.19-3.75c-1-.82-1.73-1.49-2.23-2l-.55-.55a1.75,1.75,0,0,1-.19-.19.28.28,0,0,0-.27-.06.24.24,0,0,0-.18.21,10.91,10.91,0,0,0-.08,1.38v.16a4.72,4.72,0,0,0,1.78,3.66A67.38,67.38,0,0,0,119,122.21h0a67.41,67.41,0,0,0,45.22-17.74,4.74,4.74,0,0,0,1.78-3.66v-.16a9.53,9.53,0,0,0-.08-1.38m-43.62-7.55a2.45,2.45,0,0,0-1.4-.39,2.62,2.62,0,0,0-1.42.39,1.46,1.46,0,0,0-.7,1.23V107.6a1.5,1.5,0,0,0,.69,1.26,2.52,2.52,0,0,0,1.4.39,2.67,2.67,0,0,0,1.42-.39,1.47,1.47,0,0,0,.7-1.23V93a1.48,1.48,0,0,0-.68-1.26M94.8,108.86a2.54,2.54,0,0,0,1.39.39,2.68,2.68,0,0,0,1.42-.39,1.44,1.44,0,0,0,.7-1.23s0-9.68,0-9.73A5.79,5.79,0,0,1,99,95.37,2.36,2.36,0,0,1,101.12,94a1.52,1.52,0,0,1,1.06.38,2.86,2.86,0,0,1,.74,1.55,7.5,7.5,0,0,1,.13,1.52V107.6a1.49,1.49,0,0,0,.72,1.26,3.09,3.09,0,0,0,3,0,1.45,1.45,0,0,0,.74-1.23V97.9a5.87,5.87,0,0,1,.67-2.53A2.37,2.37,0,0,1,110.32,94a1.51,1.51,0,0,1,1,.38,2.89,2.89,0,0,1,.74,1.55,8.15,8.15,0,0,1,.14,1.52V107.6a1.47,1.47,0,0,0,.72,1.26,2.83,2.83,0,0,0,1.48.39,2.92,2.92,0,0,0,1.51-.39,1.42,1.42,0,0,0,.75-1.23V98.08a9.07,9.07,0,0,0-1.37-5.43,4.45,4.45,0,0,0-3.76-1.81,4.79,4.79,0,0,0-3.46,1.55A7.38,7.38,0,0,0,106.89,94a5.27,5.27,0,0,0-1.56-2.26,4.71,4.71,0,0,0-3-.94,5.1,5.1,0,0,0-4.06,2.25V93a1.46,1.46,0,0,0-.68-1.26,2.43,2.43,0,0,0-1.39-.39,2.57,2.57,0,0,0-1.42.39A1.44,1.44,0,0,0,94.11,93V107.6a1.49,1.49,0,0,0,.69,1.26m40.82-1.45a8,8,0,0,0,5.63,2.1h0a9.3,9.3,0,0,0,3.37-.58,3.93,3.93,0,0,0,1.1-.67,1.33,1.33,0,0,0,.45-.94c0-.06,0-.11,0-.17a1.16,1.16,0,0,0-1.16-1,1.42,1.42,0,0,0-.43.07,7.33,7.33,0,0,1-2.92.31,4.17,4.17,0,0,1-3.39-2.23,6.47,6.47,0,0,1-.62-1.48c-.06-.18-.09-.33-.12-.45a14.56,14.56,0,0,0,6.39-1.41,7.06,7.06,0,0,0,2.87-2.69,6.08,6.08,0,0,0,.6-2.57,4.72,4.72,0,0,0-.06-.76c-.41-2.29-2.54-4-5.84-4a8.31,8.31,0,0,0-7,3.66,11,11,0,0,0-1.62,5.76,11.23,11.23,0,0,0,.18,2,9.47,9.47,0,0,0,2.65,5.12M138.4,95h0a3.29,3.29,0,0,1,2.67-1.68h0a2,2,0,0,1,2,1.87,3.87,3.87,0,0,1,.06.64,3.45,3.45,0,0,1-.87,2.29,7.21,7.21,0,0,1-4.87,2c0-.16,0-.33,0-.5A8.38,8.38,0,0,1,138.4,95m-8.6,14.56h0A5.3,5.3,0,0,0,132,109a3.28,3.28,0,0,0,1.22-.9,1.18,1.18,0,0,0,.22-.67,1.17,1.17,0,0,0-1.21-1.2l-.21,0c-.24.07-.38.14-.54.19a1.93,1.93,0,0,1-.62.09,1.26,1.26,0,0,1-.94-.37,2,2,0,0,1-.43-.84,12,12,0,0,1-.2-2.53c0-.27,0-15.21,0-15.61a1.48,1.48,0,0,0-.68-1.26,2.54,2.54,0,0,0-1.4-.39,2.58,2.58,0,0,0-1.42.39,1.48,1.48,0,0,0-.71,1.24v17.68a5.14,5.14,0,0,0,1,3.07,4.47,4.47,0,0,0,3.67,1.6M120.9,90a2.22,2.22,0,1,0-2.23-2.21A2.23,2.23,0,0,0,120.9,90"/><path class="cls-1" d="M66.86,94.5H4.59V89.77H66.86Zm167.68,0H172.28V89.77h62.27Z"/><path class="cls-1" d="M27.31,72.74A27.68,27.68,0,0,1,16.4,70.6,26.7,26.7,0,0,1,0,45.8v-.19A27.4,27.4,0,0,1,7.73,26.45a26.58,26.58,0,0,1,8.72-5.83,28.31,28.31,0,0,1,11.07-2.14A31.35,31.35,0,0,1,37.79,20a24,24,0,0,1,7.63,4.33A6.82,6.82,0,0,1,47,26.16a6,6,0,0,1,.79,3.21,6.32,6.32,0,0,1-2,4.72A6.66,6.66,0,0,1,41,36a6.23,6.23,0,0,1-2.54-.49,10.38,10.38,0,0,1-1.76-1,16.81,16.81,0,0,0-4.16-2.43,14,14,0,0,0-5.14-.88,11.7,11.7,0,0,0-5.08,1.12,12.61,12.61,0,0,0-4.07,3.07,14,14,0,0,0-2.64,4.52,16,16,0,0,0-.94,5.49v.2a16.74,16.74,0,0,0,.94,5.63,13.32,13.32,0,0,0,2.69,4.57,12.52,12.52,0,0,0,4.22,3.06A13,13,0,0,0,28,60a13.56,13.56,0,0,0,5.28-1,19.63,19.63,0,0,0,4.52-2.62,6.54,6.54,0,0,1,1.61-.93A6.12,6.12,0,0,1,41.8,55a6,6,0,0,1,4.46,1.85,6.15,6.15,0,0,1,1.8,4.47A5.77,5.77,0,0,1,47.48,64a6.84,6.84,0,0,1-1.57,2,27,27,0,0,1-7.74,4.87,28,28,0,0,1-10.86,1.85"/><path class="cls-1" d="M52.31,7.39a7.12,7.12,0,0,1,2.15-5.25A7.44,7.44,0,0,1,67.18,7.39V64.77A7.13,7.13,0,0,1,65,70a7.58,7.58,0,0,1-10.57,0,7.09,7.09,0,0,1-2.15-5.24Z"/><path class="cls-1" d="M120.46,64.77A7.11,7.11,0,0,1,118.31,70a7.6,7.6,0,0,1-10.58,0,7.11,7.11,0,0,1-2.15-5.24v-.59a32.06,32.06,0,0,1-2.79,3.16A18.86,18.86,0,0,1,99.42,70a16.92,16.92,0,0,1-4.11,1.86,17.69,17.69,0,0,1-5.09.67c-5.68,0-10.06-1.71-13.17-5.15s-4.64-8.16-4.64-14.2V26.26A7.11,7.11,0,0,1,74.56,21a7.6,7.6,0,0,1,10.57,0,7.09,7.09,0,0,1,2.16,5.25V48.52q0,5.25,2.34,7.92a8.39,8.39,0,0,0,6.65,2.68,8.88,8.88,0,0,0,6.81-2.68q2.49-2.67,2.49-7.92V26.26A7.12,7.12,0,0,1,107.74,21a7.61,7.61,0,0,1,10.58,0,7.12,7.12,0,0,1,2.15,5.25Z"/><path class="cls-1" d="M125.39,7.39a7.11,7.11,0,0,1,2.17-5.25,7.59,7.59,0,0,1,10.57,0,7.1,7.1,0,0,1,2.15,5.25V26.94a23.48,23.48,0,0,1,6.61-6.08,18.28,18.28,0,0,1,9.74-2.38,23.46,23.46,0,0,1,8.91,1.75,22.07,22.07,0,0,1,7.63,5.2,25.81,25.81,0,0,1,5.33,8.46,30.79,30.79,0,0,1,2,11.52v.2a30.75,30.75,0,0,1-2,11.52,26.46,26.46,0,0,1-5.28,8.46,21.85,21.85,0,0,1-7.59,5.21,23.88,23.88,0,0,1-9,1.75,18.75,18.75,0,0,1-9.84-2.34,26.22,26.22,0,0,1-6.51-5.44v.09A7,7,0,0,1,138.12,70a7.59,7.59,0,0,1-10.57,0,7.09,7.09,0,0,1-2.17-5.24ZM152.8,60a12.11,12.11,0,0,0,5-1,12.34,12.34,0,0,0,4.05-2.92,14,14,0,0,0,2.79-4.52,16,16,0,0,0,1-5.93v-.2a16.06,16.06,0,0,0-1-5.88A13.86,13.86,0,0,0,161.8,35,12.34,12.34,0,0,0,157.75,32a12.44,12.44,0,0,0-9.89,0,11.88,11.88,0,0,0-4,2.92,14.67,14.67,0,0,0-2.74,4.57,16.4,16.4,0,0,0-1,5.88v.2a16.46,16.46,0,0,0,1,5.89,14.67,14.67,0,0,0,2.74,4.56,11.88,11.88,0,0,0,4,2.92,12,12,0,0,0,4.94,1"/><path class="cls-1" d="M228.74,66.41A26.63,26.63,0,0,1,220.81,71a28.89,28.89,0,0,1-10.27,1.7,30.18,30.18,0,0,1-10.92-1.95,25.06,25.06,0,0,1-14.43-14.1,28.19,28.19,0,0,1-2.06-10.89v-.19A29,29,0,0,1,185,35.1a26.68,26.68,0,0,1,5.33-8.65,24.94,24.94,0,0,1,8.22-5.83,27.46,27.46,0,0,1,21.82.24,23.93,23.93,0,0,1,7.88,6.08,24.73,24.73,0,0,1,4.55,8.12,26.86,26.86,0,0,1,1.48,8.51,6.77,6.77,0,0,1-7,7.09H197.91a12.43,12.43,0,0,0,4.45,7.64,13.4,13.4,0,0,0,8.38,2.58,17,17,0,0,0,5.71-.92,19,19,0,0,0,4.84-2.57,6.1,6.1,0,0,1,1.62-.88,6,6,0,0,1,2-.29,5.6,5.6,0,0,1,4.16,1.66A5.75,5.75,0,0,1,230.7,62a5.07,5.07,0,0,1-.59,2.53,7.82,7.82,0,0,1-1.37,1.85m-8.62-25a14.32,14.32,0,0,0-3.52-8,9.77,9.77,0,0,0-7.54-3.06,10,10,0,0,0-7.58,3,15.05,15.05,0,0,0-3.77,8.08Z"/></svg>